<svg width="311" height="55" viewBox="0 0 311 55" fill="none" xmlns="http://www.w3.org/2000/svg">
<path d="M30.2195 44.1359H17.2275L14.8915 53.7039H3.91553L17.4835 9.35191H30.2195L43.7875 53.7039H32.5555L30.2195 44.1359ZM18.8915 36.5199H28.4915L23.6915 16.9039L18.8915 36.5199Z" fill="#17E890"/>
<path d="M57.5865 23.2079C58.6532 21.7999 59.9332 20.6799 61.4265 19.8479C62.9412 19.0159 64.5625 18.5999 66.2905 18.5999C69.2132 18.5999 71.5919 19.3359 73.4265 20.8079C75.2825 22.2799 76.6479 24.3599 77.5225 27.0479C78.3972 29.7359 78.8345 32.9252 78.8345 36.6159C78.8345 40.1146 78.3119 43.2399 77.2665 45.9919C76.2425 48.7226 74.7172 50.8772 72.6905 52.4559C70.6639 54.0132 68.1785 54.7919 65.2345 54.7919C61.6719 54.7919 58.8665 53.4053 56.8185 50.6319L56.4345 53.7039H47.4745V6.21591L57.5865 5.15991V23.2079ZM62.5785 47.4319C64.3705 47.4319 65.7892 46.6106 66.8345 44.9679C67.8799 43.3039 68.4025 40.5626 68.4025 36.7439C68.4025 33.9279 68.1785 31.7519 67.7305 30.2159C67.3039 28.6586 66.6852 27.5812 65.8745 26.9839C65.0852 26.3652 64.1572 26.0559 63.0905 26.0559C61.9599 26.0559 60.9465 26.4079 60.0505 27.1119C59.1545 27.8159 58.3332 28.7759 57.5865 29.9919V44.3279C58.2265 45.3306 58.9412 46.0986 59.7305 46.6319C60.5199 47.1652 61.4692 47.4319 62.5785 47.4319Z" fill="#17E890"/>
<path d="M100.57 18.5999C104.068 18.5999 107.044 19.3466 109.498 20.8399C111.951 22.3332 113.828 24.4346 115.13 27.1439C116.431 29.8319 117.082 32.9892 117.082 36.6159C117.082 40.3919 116.42 43.6452 115.098 46.3759C113.796 49.0853 111.919 51.1652 109.466 52.6159C107.012 54.0666 104.047 54.7919 100.57 54.7919C97.1135 54.7919 94.1482 54.0772 91.6735 52.6479C89.2202 51.2186 87.3322 49.1493 86.0095 46.4399C84.7082 43.7306 84.0575 40.4772 84.0575 36.6799C84.0575 33.0746 84.7082 29.9172 86.0095 27.2079C87.3322 24.4986 89.2202 22.3866 91.6735 20.8719C94.1482 19.3572 97.1135 18.5999 100.57 18.5999ZM100.57 26.0559C98.5002 26.0559 96.9642 26.9092 95.9615 28.6159C94.9802 30.3012 94.4895 32.9892 94.4895 36.6799C94.4895 40.4346 94.9802 43.1546 95.9615 44.8399C96.9642 46.5252 98.5002 47.3679 100.57 47.3679C102.639 47.3679 104.164 46.5252 105.146 44.8399C106.148 43.1546 106.65 40.4132 106.65 36.6159C106.65 32.9466 106.148 30.2692 105.146 28.5839C104.164 26.8986 102.639 26.0559 100.57 26.0559Z" fill="#17E890"/>
<path d="M134.337 19.7199V42.9839C134.337 44.6266 134.635 45.7572 135.233 46.3759C135.851 46.9946 136.705 47.3039 137.793 47.3039C138.838 47.3039 139.883 46.9732 140.929 46.3119C141.974 45.6506 142.849 44.7546 143.553 43.6239V19.7199H153.665V53.7039H144.833L144.385 49.7359C143.233 51.3999 141.718 52.6586 139.841 53.5119C137.963 54.3652 136.001 54.7919 133.953 54.7919C130.667 54.7919 128.225 53.8426 126.625 51.9439C125.025 50.0239 124.225 47.4532 124.225 44.2319V19.7199H134.337Z" fill="#17E890"/>
<path d="M193.192 51.7199C191.869 52.5732 190.269 53.2986 188.392 53.8959C186.514 54.4932 184.402 54.7919 182.056 54.7919C177.618 54.7919 174.322 53.6612 172.168 51.3999C170.013 49.1172 168.936 46.0239 168.936 42.1199V26.6959H161.8V19.7199H168.936V12.3599L179.048 11.1439V19.7199H189.992L189 26.6959H179.048V42.1199C179.048 43.8052 179.432 45.0106 180.2 45.7359C180.968 46.4613 182.194 46.8239 183.88 46.8239C185.074 46.8239 186.162 46.6852 187.144 46.4079C188.146 46.1092 189.042 45.7359 189.832 45.2879L193.192 51.7199Z" fill="#17E890"/>
<path d="M264.47 18.5999C266.091 18.5999 267.424 18.9412 268.47 19.6239C269.515 20.3066 270.294 21.3839 270.806 22.8559C271.318 24.3066 271.574 26.2052 271.574 28.5519V53.7039H262.902V29.7039C262.902 28.5092 262.784 27.6666 262.55 27.1759C262.336 26.6852 261.888 26.4399 261.206 26.4399C260.672 26.4399 260.118 26.5999 259.542 26.9199C258.987 27.2186 258.368 27.7946 257.686 28.6479V53.7039H250.582V29.7039C250.582 28.5092 250.464 27.6666 250.23 27.1759C250.016 26.6852 249.568 26.4399 248.886 26.4399C248.352 26.4399 247.798 26.5999 247.222 26.9199C246.667 27.2186 246.048 27.7946 245.366 28.6479V53.7039H236.566V19.7199H243.99L244.662 23.0159C245.728 21.5652 246.806 20.4666 247.894 19.7199C248.982 18.9732 250.272 18.5999 251.766 18.5999C253.046 18.5999 254.134 18.9306 255.03 19.5919C255.947 20.2319 256.598 21.2452 256.982 22.6319C258.006 21.4372 259.136 20.4666 260.374 19.7199C261.611 18.9732 262.976 18.5999 264.47 18.5999Z" fill="#17E890"/>
<path d="M286.493 39.6559C286.727 41.5119 287.207 43.0159 287.933 44.1679C288.679 45.2986 289.629 46.1306 290.781 46.6639C291.933 47.1759 293.223 47.4319 294.653 47.4319C296.21 47.4319 297.714 47.1759 299.165 46.6639C300.615 46.1519 302.013 45.4692 303.357 44.6159L307.421 50.1199C305.821 51.4852 303.879 52.6052 301.597 53.4799C299.335 54.3546 296.754 54.7919 293.853 54.7919C289.97 54.7919 286.717 54.0239 284.093 52.4879C281.469 50.9306 279.495 48.7972 278.173 46.0879C276.85 43.3786 276.189 40.2639 276.189 36.7439C276.189 33.3946 276.829 30.3546 278.109 27.6239C279.389 24.8719 281.255 22.6852 283.709 21.0639C286.183 19.4212 289.202 18.5999 292.765 18.5999C296.007 18.5999 298.813 19.2932 301.181 20.6799C303.57 22.0666 305.415 24.0612 306.717 26.6639C308.039 29.2666 308.701 32.3919 308.701 36.0399C308.701 36.6159 308.679 37.2346 308.637 37.8959C308.615 38.5572 308.573 39.1439 308.509 39.6559H286.493ZM292.765 25.3839C290.951 25.3839 289.49 26.0346 288.381 27.3359C287.271 28.6372 286.599 30.7172 286.365 33.5759H298.845C298.823 31.1012 298.343 29.1172 297.405 27.6239C296.466 26.1306 294.919 25.3839 292.765 25.3839Z" fill="#17E890"/>
<mask id="path-2-outside-1_42_52" maskUnits="userSpaceOnUse" x="0.327637" y="-0.0717773" width="310" height="55" fill="black">
<rect fill="white" x="0.327637" y="-0.0717773" width="310" height="55"/>
<path d="M29.6316 41.9042H16.6396L14.3036 51.4722H3.32764L16.8956 7.12022H29.6316L43.1996 51.4722H31.9676L29.6316 41.9042ZM18.3036 34.2882H27.9036L23.1036 14.6722L18.3036 34.2882ZM56.9986 20.9762C58.0653 19.5682 59.3453 18.4482 60.8386 17.6162C62.3533 16.7842 63.9746 16.3682 65.7026 16.3682C68.6253 16.3682 71.004 17.1042 72.8386 18.5762C74.6946 20.0482 76.06 22.1282 76.9346 24.8162C77.8093 27.5042 78.2466 30.6936 78.2466 34.3842C78.2466 37.8829 77.724 41.0082 76.6786 43.7602C75.6546 46.4909 74.1293 48.6456 72.1026 50.2242C70.076 51.7816 67.5906 52.5602 64.6466 52.5602C61.084 52.5602 58.2786 51.1736 56.2306 48.4002L55.8466 51.4722H46.8866V3.98422L56.9986 2.92822V20.9762ZM61.9906 45.2002C63.7826 45.2002 65.2013 44.3789 66.2466 42.7362C67.292 41.0722 67.8146 38.3309 67.8146 34.5122C67.8146 31.6962 67.5906 29.5202 67.1426 27.9842C66.716 26.4269 66.0973 25.3496 65.2866 24.7522C64.4973 24.1336 63.5693 23.8242 62.5026 23.8242C61.372 23.8242 60.3586 24.1762 59.4626 24.8802C58.5666 25.5842 57.7453 26.5442 56.9986 27.7602V42.0962C57.6386 43.0989 58.3533 43.8669 59.1426 44.4002C59.932 44.9336 60.8813 45.2002 61.9906 45.2002ZM99.9816 16.3682C103.48 16.3682 106.456 17.1149 108.91 18.6082C111.363 20.1016 113.24 22.2029 114.542 24.9122C115.843 27.6002 116.494 30.7576 116.494 34.3842C116.494 38.1602 115.832 41.4136 114.51 44.1442C113.208 46.8536 111.331 48.9336 108.878 50.3842C106.424 51.8349 103.459 52.5602 99.9816 52.5602C96.5256 52.5602 93.5603 51.8456 91.0856 50.4162C88.6323 48.9869 86.7443 46.9176 85.4216 44.2082C84.1203 41.4989 83.4696 38.2456 83.4696 34.4482C83.4696 30.8429 84.1203 27.6856 85.4216 24.9762C86.7443 22.2669 88.6323 20.1549 91.0856 18.6402C93.5603 17.1256 96.5256 16.3682 99.9816 16.3682ZM99.9816 23.8242C97.9123 23.8242 96.3763 24.6776 95.3736 26.3842C94.3923 28.0696 93.9016 30.7576 93.9016 34.4482C93.9016 38.2029 94.3923 40.9229 95.3736 42.6082C96.3763 44.2936 97.9123 45.1362 99.9816 45.1362C102.051 45.1362 103.576 44.2936 104.558 42.6082C105.56 40.9229 106.062 38.1816 106.062 34.3842C106.062 30.7149 105.56 28.0376 104.558 26.3522C103.576 24.6669 102.051 23.8242 99.9816 23.8242ZM133.749 17.4882V40.7522C133.749 42.3949 134.047 43.5256 134.645 44.1442C135.263 44.7629 136.117 45.0722 137.205 45.0722C138.25 45.0722 139.295 44.7416 140.341 44.0802C141.386 43.4189 142.261 42.5229 142.965 41.3922V17.4882H153.077V51.4722H144.245L143.797 47.5042C142.645 49.1682 141.13 50.4269 139.253 51.2802C137.375 52.1336 135.413 52.5602 133.365 52.5602C130.079 52.5602 127.637 51.6109 126.037 49.7122C124.437 47.7922 123.637 45.2216 123.637 42.0002V17.4882H133.749ZM192.604 49.4882C191.281 50.3416 189.681 51.0669 187.804 51.6642C185.926 52.2616 183.814 52.5602 181.468 52.5602C177.03 52.5602 173.734 51.4296 171.58 49.1682C169.425 46.8856 168.348 43.7922 168.348 39.8882V24.4642H161.212V17.4882H168.348V10.1282L178.46 8.91222V17.4882H189.404L188.412 24.4642H178.46V39.8882C178.46 41.5736 178.844 42.7789 179.612 43.5042C180.38 44.2296 181.606 44.5922 183.292 44.5922C184.486 44.5922 185.574 44.4536 186.556 44.1762C187.558 43.8776 188.454 43.5042 189.244 43.0562L192.604 49.4882ZM263.882 16.3682C265.503 16.3682 266.836 16.7096 267.882 17.3922C268.927 18.0749 269.706 19.1522 270.218 20.6242C270.73 22.0749 270.986 23.9736 270.986 26.3202V51.4722H262.314V27.4722C262.314 26.2776 262.196 25.4349 261.962 24.9442C261.748 24.4536 261.3 24.2082 260.618 24.2082C260.084 24.2082 259.53 24.3682 258.954 24.6882C258.399 24.9869 257.78 25.5629 257.098 26.4162V51.4722H249.994V27.4722C249.994 26.2776 249.876 25.4349 249.642 24.9442C249.428 24.4536 248.98 24.2082 248.298 24.2082C247.764 24.2082 247.21 24.3682 246.634 24.6882C246.079 24.9869 245.46 25.5629 244.778 26.4162V51.4722H235.978V17.4882H243.402L244.074 20.7842C245.14 19.3336 246.218 18.2349 247.306 17.4882C248.394 16.7416 249.684 16.3682 251.178 16.3682C252.458 16.3682 253.546 16.6989 254.442 17.3602C255.359 18.0002 256.01 19.0136 256.394 20.4002C257.418 19.2056 258.548 18.2349 259.786 17.4882C261.023 16.7416 262.388 16.3682 263.882 16.3682ZM285.905 37.4242C286.139 39.2802 286.619 40.7842 287.345 41.9362C288.091 43.0669 289.041 43.8989 290.193 44.4322C291.345 44.9442 292.635 45.2002 294.065 45.2002C295.622 45.2002 297.126 44.9442 298.577 44.4322C300.027 43.9202 301.425 43.2376 302.769 42.3842L306.833 47.8882C305.233 49.2536 303.291 50.3736 301.009 51.2482C298.747 52.1229 296.166 52.5602 293.265 52.5602C289.382 52.5602 286.129 51.7922 283.505 50.2562C280.881 48.6989 278.907 46.5656 277.585 43.8562C276.262 41.1469 275.601 38.0322 275.601 34.5122C275.601 31.1629 276.241 28.1229 277.521 25.3922C278.801 22.6402 280.667 20.4536 283.121 18.8322C285.595 17.1896 288.614 16.3682 292.177 16.3682C295.419 16.3682 298.225 17.0616 300.593 18.4482C302.982 19.8349 304.827 21.8296 306.129 24.4322C307.451 27.0349 308.113 30.1602 308.113 33.8082C308.113 34.3842 308.091 35.0029 308.049 35.6642C308.027 36.3256 307.985 36.9122 307.921 37.4242H285.905ZM292.177 23.1522C290.363 23.1522 288.902 23.8029 287.793 25.1042C286.683 26.4056 286.011 28.4856 285.777 31.3442H298.257C298.235 28.8696 297.755 26.8856 296.817 25.3922C295.878 23.8989 294.331 23.1522 292.177 23.1522Z"/>
</mask>
<path d="M29.6316 41.9042H16.6396L14.3036 51.4722H3.32764L16.8956 7.12022H29.6316L43.1996 51.4722H31.9676L29.6316 41.9042ZM18.3036 34.2882H27.9036L23.1036 14.6722L18.3036 34.2882ZM56.9986 20.9762C58.0653 19.5682 59.3453 18.4482 60.8386 17.6162C62.3533 16.7842 63.9746 16.3682 65.7026 16.3682C68.6253 16.3682 71.004 17.1042 72.8386 18.5762C74.6946 20.0482 76.06 22.1282 76.9346 24.8162C77.8093 27.5042 78.2466 30.6936 78.2466 34.3842C78.2466 37.8829 77.724 41.0082 76.6786 43.7602C75.6546 46.4909 74.1293 48.6456 72.1026 50.2242C70.076 51.7816 67.5906 52.5602 64.6466 52.5602C61.084 52.5602 58.2786 51.1736 56.2306 48.4002L55.8466 51.4722H46.8866V3.98422L56.9986 2.92822V20.9762ZM61.9906 45.2002C63.7826 45.2002 65.2013 44.3789 66.2466 42.7362C67.292 41.0722 67.8146 38.3309 67.8146 34.5122C67.8146 31.6962 67.5906 29.5202 67.1426 27.9842C66.716 26.4269 66.0973 25.3496 65.2866 24.7522C64.4973 24.1336 63.5693 23.8242 62.5026 23.8242C61.372 23.8242 60.3586 24.1762 59.4626 24.8802C58.5666 25.5842 57.7453 26.5442 56.9986 27.7602V42.0962C57.6386 43.0989 58.3533 43.8669 59.1426 44.4002C59.932 44.9336 60.8813 45.2002 61.9906 45.2002ZM99.9816 16.3682C103.48 16.3682 106.456 17.1149 108.91 18.6082C111.363 20.1016 113.24 22.2029 114.542 24.9122C115.843 27.6002 116.494 30.7576 116.494 34.3842C116.494 38.1602 115.832 41.4136 114.51 44.1442C113.208 46.8536 111.331 48.9336 108.878 50.3842C106.424 51.8349 103.459 52.5602 99.9816 52.5602C96.5256 52.5602 93.5603 51.8456 91.0856 50.4162C88.6323 48.9869 86.7443 46.9176 85.4216 44.2082C84.1203 41.4989 83.4696 38.2456 83.4696 34.4482C83.4696 30.8429 84.1203 27.6856 85.4216 24.9762C86.7443 22.2669 88.6323 20.1549 91.0856 18.6402C93.5603 17.1256 96.5256 16.3682 99.9816 16.3682ZM99.9816 23.8242C97.9123 23.8242 96.3763 24.6776 95.3736 26.3842C94.3923 28.0696 93.9016 30.7576 93.9016 34.4482C93.9016 38.2029 94.3923 40.9229 95.3736 42.6082C96.3763 44.2936 97.9123 45.1362 99.9816 45.1362C102.051 45.1362 103.576 44.2936 104.558 42.6082C105.56 40.9229 106.062 38.1816 106.062 34.3842C106.062 30.7149 105.56 28.0376 104.558 26.3522C103.576 24.6669 102.051 23.8242 99.9816 23.8242ZM133.749 17.4882V40.7522C133.749 42.3949 134.047 43.5256 134.645 44.1442C135.263 44.7629 136.117 45.0722 137.205 45.0722C138.25 45.0722 139.295 44.7416 140.341 44.0802C141.386 43.4189 142.261 42.5229 142.965 41.3922V17.4882H153.077V51.4722H144.245L143.797 47.5042C142.645 49.1682 141.13 50.4269 139.253 51.2802C137.375 52.1336 135.413 52.5602 133.365 52.5602C130.079 52.5602 127.637 51.6109 126.037 49.7122C124.437 47.7922 123.637 45.2216 123.637 42.0002V17.4882H133.749ZM192.604 49.4882C191.281 50.3416 189.681 51.0669 187.804 51.6642C185.926 52.2616 183.814 52.5602 181.468 52.5602C177.03 52.5602 173.734 51.4296 171.58 49.1682C169.425 46.8856 168.348 43.7922 168.348 39.8882V24.4642H161.212V17.4882H168.348V10.1282L178.46 8.91222V17.4882H189.404L188.412 24.4642H178.46V39.8882C178.46 41.5736 178.844 42.7789 179.612 43.5042C180.38 44.2296 181.606 44.5922 183.292 44.5922C184.486 44.5922 185.574 44.4536 186.556 44.1762C187.558 43.8776 188.454 43.5042 189.244 43.0562L192.604 49.4882ZM263.882 16.3682C265.503 16.3682 266.836 16.7096 267.882 17.3922C268.927 18.0749 269.706 19.1522 270.218 20.6242C270.73 22.0749 270.986 23.9736 270.986 26.3202V51.4722H262.314V27.4722C262.314 26.2776 262.196 25.4349 261.962 24.9442C261.748 24.4536 261.3 24.2082 260.618 24.2082C260.084 24.2082 259.53 24.3682 258.954 24.6882C258.399 24.9869 257.78 25.5629 257.098 26.4162V51.4722H249.994V27.4722C249.994 26.2776 249.876 25.4349 249.642 24.9442C249.428 24.4536 248.98 24.2082 248.298 24.2082C247.764 24.2082 247.21 24.3682 246.634 24.6882C246.079 24.9869 245.46 25.5629 244.778 26.4162V51.4722H235.978V17.4882H243.402L244.074 20.7842C245.14 19.3336 246.218 18.2349 247.306 17.4882C248.394 16.7416 249.684 16.3682 251.178 16.3682C252.458 16.3682 253.546 16.6989 254.442 17.3602C255.359 18.0002 256.01 19.0136 256.394 20.4002C257.418 19.2056 258.548 18.2349 259.786 17.4882C261.023 16.7416 262.388 16.3682 263.882 16.3682ZM285.905 37.4242C286.139 39.2802 286.619 40.7842 287.345 41.9362C288.091 43.0669 289.041 43.8989 290.193 44.4322C291.345 44.9442 292.635 45.2002 294.065 45.2002C295.622 45.2002 297.126 44.9442 298.577 44.4322C300.027 43.9202 301.425 43.2376 302.769 42.3842L306.833 47.8882C305.233 49.2536 303.291 50.3736 301.009 51.2482C298.747 52.1229 296.166 52.5602 293.265 52.5602C289.382 52.5602 286.129 51.7922 283.505 50.2562C280.881 48.6989 278.907 46.5656 277.585 43.8562C276.262 41.1469 275.601 38.0322 275.601 34.5122C275.601 31.1629 276.241 28.1229 277.521 25.3922C278.801 22.6402 280.667 20.4536 283.121 18.8322C285.595 17.1896 288.614 16.3682 292.177 16.3682C295.419 16.3682 298.225 17.0616 300.593 18.4482C302.982 19.8349 304.827 21.8296 306.129 24.4322C307.451 27.0349 308.113 30.1602 308.113 33.8082C308.113 34.3842 308.091 35.0029 308.049 35.6642C308.027 36.3256 307.985 36.9122 307.921 37.4242H285.905ZM292.177 23.1522C290.363 23.1522 288.902 23.8029 287.793 25.1042C286.683 26.4056 286.011 28.4856 285.777 31.3442H298.257C298.235 28.8696 297.755 26.8856 296.817 25.3922C295.878 23.8989 294.331 23.1522 292.177 23.1522Z" stroke="#222222" stroke-width="4" mask="url(#path-2-outside-1_42_52)"/>
</svg>
