<svg width="302" height="261" viewBox="0 0 302 261" fill="none" xmlns="http://www.w3.org/2000/svg">
<path fill-rule="evenodd" clip-rule="evenodd" d="M95.3884 13.153C91.358 13.153 88.0907 16.4203 88.0907 20.4506C88.0907 38.4189 73.5245 52.9851 55.5563 52.9851H39.7904C25.0124 52.9851 13.0324 64.9651 13.0324 79.7431V221.284C13.0324 236.062 25.0124 248.042 39.7904 248.042H262.201C276.98 248.042 288.959 236.062 288.959 221.284V79.7431C288.959 64.9651 276.979 52.9851 262.201 52.9851H246.436C228.467 52.9851 213.901 38.4189 213.901 20.4506C213.901 16.4203 210.634 13.153 206.604 13.153H95.3884ZM75.928 20.4506C75.928 9.70296 84.6407 0.990234 95.3884 0.990234H206.604C217.351 0.990234 226.064 9.70296 226.064 20.4506C226.064 31.7016 235.185 40.8223 246.436 40.8223H262.201C283.697 40.8223 301.122 58.2478 301.122 79.7431V221.284C301.122 242.779 283.697 260.205 262.201 260.205H39.7904C18.2951 260.205 0.869629 242.779 0.869629 221.284V79.7431C0.869629 58.2478 18.2951 40.8223 39.7904 40.8223H55.5563C66.8072 40.8223 75.928 31.7016 75.928 20.4506Z" fill="#222222"/>
<path fill-rule="evenodd" clip-rule="evenodd" d="M150.996 211.29C183.297 211.29 209.483 185.105 209.483 152.804C209.483 120.502 183.297 94.317 150.996 94.317C118.695 94.317 92.5094 120.502 92.5094 152.804C92.5094 185.105 118.695 211.29 150.996 211.29ZM150.996 229.534C193.373 229.534 227.727 195.181 227.727 152.804C227.727 110.426 193.373 76.0729 150.996 76.0729C108.619 76.0729 74.2652 110.426 74.2652 152.804C74.2652 195.181 108.619 229.534 150.996 229.534Z" fill="#222222"/>
<path d="M242.105 76.0729C242.105 84.0138 235.668 90.4512 227.727 90.4512C219.786 90.4512 213.348 84.0138 213.348 76.0729C213.348 68.132 219.786 61.6945 227.727 61.6945C235.668 61.6945 242.105 68.132 242.105 76.0729Z" fill="#222222"/>
</svg>
