<svg width="377" height="377" viewBox="0 0 377 377" fill="none" xmlns="http://www.w3.org/2000/svg">
<path d="M4.40613 2.67877C4.40613 3.71663 3.56478 4.55798 2.52692 4.55798C1.48906 4.55798 0.647705 3.71663 0.647705 2.67877C0.647705 1.64091 1.48906 0.799561 2.52692 0.799561C3.56478 0.799561 4.40613 1.64091 4.40613 2.67877Z" fill="#222222"/>
<path d="M45.7489 2.67877C45.7489 3.71663 44.9076 4.55798 43.8697 4.55798C42.8318 4.55798 41.9905 3.71663 41.9905 2.67877C41.9905 1.64091 42.8318 0.799561 43.8697 0.799561C44.9076 0.799561 45.7489 1.64091 45.7489 2.67877Z" fill="#222222"/>
<path d="M87.0917 2.67877C87.0917 3.71663 86.2503 4.55798 85.2125 4.55798C84.1746 4.55798 83.3333 3.71663 83.3333 2.67877C83.3333 1.64091 84.1746 0.799561 85.2125 0.799561C86.2503 0.799561 87.0917 1.64091 87.0917 2.67877Z" fill="#222222"/>
<path d="M128.434 2.67877C128.434 3.71663 127.593 4.55798 126.555 4.55798C125.517 4.55798 124.676 3.71663 124.676 2.67877C124.676 1.64091 125.517 0.799561 126.555 0.799561C127.593 0.799561 128.434 1.64091 128.434 2.67877Z" fill="#222222"/>
<path d="M169.777 2.67877C169.777 3.71663 168.936 4.55798 167.898 4.55798C166.86 4.55798 166.018 3.71663 166.018 2.67877C166.018 1.64091 166.86 0.799561 167.898 0.799561C168.936 0.799561 169.777 1.64091 169.777 2.67877Z" fill="#222222"/>
<path d="M211.12 2.67877C211.12 3.71663 210.278 4.55798 209.24 4.55798C208.202 4.55798 207.361 3.71663 207.361 2.67877C207.361 1.64091 208.202 0.799561 209.24 0.799561C210.278 0.799561 211.12 1.64091 211.12 2.67877Z" fill="#222222"/>
<path d="M252.462 2.67877C252.462 3.71663 251.621 4.55798 250.583 4.55798C249.545 4.55798 248.704 3.71663 248.704 2.67877C248.704 1.64091 249.545 0.799561 250.583 0.799561C251.621 0.799561 252.462 1.64091 252.462 2.67877Z" fill="#222222"/>
<path d="M293.805 2.67877C293.805 3.71663 292.963 4.55798 291.925 4.55798C290.887 4.55798 290.046 3.71663 290.046 2.67877C290.046 1.64091 290.887 0.799561 291.925 0.799561C292.963 0.799561 293.805 1.64091 293.805 2.67877Z" fill="#222222"/>
<path d="M335.147 2.67877C335.147 3.71663 334.306 4.55798 333.268 4.55798C332.23 4.55798 331.389 3.71663 331.389 2.67877C331.389 1.64091 332.23 0.799561 333.268 0.799561C334.306 0.799561 335.147 1.64091 335.147 2.67877Z" fill="#222222"/>
<path d="M376.49 2.67877C376.49 3.71663 375.649 4.55798 374.611 4.55798C373.573 4.55798 372.732 3.71663 372.732 2.67877C372.732 1.64091 373.573 0.799561 374.611 0.799561C375.649 0.799561 376.49 1.64091 376.49 2.67877Z" fill="#222222"/>
<path d="M4.40613 44.0214C4.40613 45.0592 3.56478 45.9006 2.52692 45.9006C1.48906 45.9006 0.647705 45.0592 0.647705 44.0214C0.647705 42.9835 1.48906 42.1422 2.52692 42.1422C3.56478 42.1422 4.40613 42.9835 4.40613 44.0214Z" fill="#222222"/>
<path d="M45.7489 44.0214C45.7489 45.0592 44.9076 45.9006 43.8697 45.9006C42.8318 45.9006 41.9905 45.0592 41.9905 44.0214C41.9905 42.9835 42.8318 42.1422 43.8697 42.1422C44.9076 42.1422 45.7489 42.9835 45.7489 44.0214Z" fill="#222222"/>
<path d="M87.0917 44.0214C87.0917 45.0592 86.2503 45.9006 85.2125 45.9006C84.1746 45.9006 83.3333 45.0592 83.3333 44.0214C83.3333 42.9835 84.1746 42.1422 85.2125 42.1422C86.2503 42.1422 87.0917 42.9835 87.0917 44.0214Z" fill="#222222"/>
<path d="M128.434 44.0214C128.434 45.0592 127.593 45.9006 126.555 45.9006C125.517 45.9006 124.676 45.0592 124.676 44.0214C124.676 42.9835 125.517 42.1422 126.555 42.1422C127.593 42.1422 128.434 42.9835 128.434 44.0214Z" fill="#222222"/>
<path d="M169.777 44.0214C169.777 45.0592 168.936 45.9006 167.898 45.9006C166.86 45.9006 166.019 45.0592 166.019 44.0214C166.019 42.9835 166.86 42.1422 167.898 42.1422C168.936 42.1422 169.777 42.9835 169.777 44.0214Z" fill="#222222"/>
<path d="M211.12 44.0214C211.12 45.0592 210.278 45.9006 209.24 45.9006C208.202 45.9006 207.361 45.0592 207.361 44.0214C207.361 42.9835 208.202 42.1422 209.24 42.1422C210.278 42.1422 211.12 42.9835 211.12 44.0214Z" fill="#222222"/>
<path d="M252.462 44.0214C252.462 45.0592 251.621 45.9006 250.583 45.9006C249.545 45.9006 248.704 45.0592 248.704 44.0214C248.704 42.9835 249.545 42.1422 250.583 42.1422C251.621 42.1422 252.462 42.9835 252.462 44.0214Z" fill="#222222"/>
<path d="M293.805 44.0214C293.805 45.0592 292.964 45.9006 291.926 45.9006C290.888 45.9006 290.046 45.0592 290.046 44.0214C290.046 42.9835 290.888 42.1422 291.926 42.1422C292.964 42.1422 293.805 42.9835 293.805 44.0214Z" fill="#222222"/>
<path d="M335.147 44.0214C335.147 45.0592 334.306 45.9006 333.268 45.9006C332.23 45.9006 331.389 45.0592 331.389 44.0214C331.389 42.9835 332.23 42.1422 333.268 42.1422C334.306 42.1422 335.147 42.9835 335.147 44.0214Z" fill="#222222"/>
<path d="M376.49 44.0214C376.49 45.0592 375.649 45.9006 374.611 45.9006C373.573 45.9006 372.732 45.0592 372.732 44.0214C372.732 42.9835 373.573 42.1422 374.611 42.1422C375.649 42.1422 376.49 42.9835 376.49 44.0214Z" fill="#222222"/>
<path d="M4.40613 85.3642C4.40613 86.402 3.56478 87.2434 2.52692 87.2434C1.48906 87.2434 0.647705 86.402 0.647705 85.3642C0.647705 84.3263 1.48906 83.4849 2.52692 83.4849C3.56478 83.4849 4.40613 84.3263 4.40613 85.3642Z" fill="#222222"/>
<path d="M45.7489 85.3642C45.7489 86.402 44.9076 87.2434 43.8697 87.2434C42.8318 87.2434 41.9905 86.402 41.9905 85.3642C41.9905 84.3263 42.8318 83.4849 43.8697 83.4849C44.9076 83.4849 45.7489 84.3263 45.7489 85.3642Z" fill="#222222"/>
<path d="M87.0917 85.3642C87.0917 86.402 86.2503 87.2434 85.2125 87.2434C84.1746 87.2434 83.3333 86.402 83.3333 85.3642C83.3333 84.3263 84.1746 83.4849 85.2125 83.4849C86.2503 83.4849 87.0917 84.3263 87.0917 85.3642Z" fill="#222222"/>
<path d="M128.434 85.3642C128.434 86.402 127.593 87.2434 126.555 87.2434C125.517 87.2434 124.676 86.402 124.676 85.3642C124.676 84.3263 125.517 83.4849 126.555 83.4849C127.593 83.4849 128.434 84.3263 128.434 85.3642Z" fill="#222222"/>
<path d="M169.777 85.3642C169.777 86.402 168.936 87.2434 167.898 87.2434C166.86 87.2434 166.019 86.402 166.019 85.3642C166.019 84.3263 166.86 83.4849 167.898 83.4849C168.936 83.4849 169.777 84.3263 169.777 85.3642Z" fill="#222222"/>
<path d="M211.12 85.3642C211.12 86.402 210.278 87.2434 209.24 87.2434C208.202 87.2434 207.361 86.402 207.361 85.3642C207.361 84.3263 208.202 83.4849 209.24 83.4849C210.278 83.4849 211.12 84.3263 211.12 85.3642Z" fill="#222222"/>
<path d="M252.462 85.3642C252.462 86.402 251.621 87.2434 250.583 87.2434C249.545 87.2434 248.704 86.402 248.704 85.3642C248.704 84.3263 249.545 83.4849 250.583 83.4849C251.621 83.4849 252.462 84.3263 252.462 85.3642Z" fill="#222222"/>
<path d="M293.805 85.3642C293.805 86.402 292.964 87.2434 291.926 87.2434C290.888 87.2434 290.046 86.402 290.046 85.3642C290.046 84.3263 290.888 83.4849 291.926 83.4849C292.964 83.4849 293.805 84.3263 293.805 85.3642Z" fill="#222222"/>
<path d="M335.147 85.3642C335.147 86.402 334.306 87.2434 333.268 87.2434C332.23 87.2434 331.389 86.402 331.389 85.3642C331.389 84.3263 332.23 83.4849 333.268 83.4849C334.306 83.4849 335.147 84.3263 335.147 85.3642Z" fill="#222222"/>
<path d="M376.49 85.3642C376.49 86.402 375.649 87.2434 374.611 87.2434C373.573 87.2434 372.732 86.402 372.732 85.3642C372.732 84.3263 373.573 83.4849 374.611 83.4849C375.649 83.4849 376.49 84.3263 376.49 85.3642Z" fill="#222222"/>
<path d="M4.40613 126.707C4.40613 127.745 3.56478 128.586 2.52692 128.586C1.48906 128.586 0.647705 127.745 0.647705 126.707C0.647705 125.669 1.48906 124.828 2.52692 124.828C3.56478 124.828 4.40613 125.669 4.40613 126.707Z" fill="#222222"/>
<path d="M45.7489 126.707C45.7489 127.745 44.9076 128.586 43.8697 128.586C42.8318 128.586 41.9905 127.745 41.9905 126.707C41.9905 125.669 42.8318 124.828 43.8697 124.828C44.9076 124.828 45.7489 125.669 45.7489 126.707Z" fill="#222222"/>
<path d="M87.0917 126.707C87.0917 127.745 86.2503 128.586 85.2125 128.586C84.1746 128.586 83.3333 127.745 83.3333 126.707C83.3333 125.669 84.1746 124.828 85.2125 124.828C86.2503 124.828 87.0917 125.669 87.0917 126.707Z" fill="#222222"/>
<path d="M128.434 126.707C128.434 127.745 127.593 128.586 126.555 128.586C125.517 128.586 124.676 127.745 124.676 126.707C124.676 125.669 125.517 124.828 126.555 124.828C127.593 124.828 128.434 125.669 128.434 126.707Z" fill="#222222"/>
<path d="M169.777 126.707C169.777 127.745 168.936 128.586 167.898 128.586C166.86 128.586 166.019 127.745 166.019 126.707C166.019 125.669 166.86 124.828 167.898 124.828C168.936 124.828 169.777 125.669 169.777 126.707Z" fill="#222222"/>
<path d="M211.12 126.707C211.12 127.745 210.278 128.586 209.24 128.586C208.202 128.586 207.361 127.745 207.361 126.707C207.361 125.669 208.202 124.828 209.24 124.828C210.278 124.828 211.12 125.669 211.12 126.707Z" fill="#222222"/>
<path d="M252.462 126.707C252.462 127.745 251.621 128.586 250.583 128.586C249.545 128.586 248.704 127.745 248.704 126.707C248.704 125.669 249.545 124.828 250.583 124.828C251.621 124.828 252.462 125.669 252.462 126.707Z" fill="#222222"/>
<path d="M293.805 126.707C293.805 127.745 292.964 128.586 291.926 128.586C290.888 128.586 290.046 127.745 290.046 126.707C290.046 125.669 290.888 124.828 291.926 124.828C292.964 124.828 293.805 125.669 293.805 126.707Z" fill="#222222"/>
<path d="M335.147 126.707C335.147 127.745 334.306 128.586 333.268 128.586C332.23 128.586 331.389 127.745 331.389 126.707C331.389 125.669 332.23 124.828 333.268 124.828C334.306 124.828 335.147 125.669 335.147 126.707Z" fill="#222222"/>
<path d="M376.49 126.707C376.49 127.745 375.649 128.586 374.611 128.586C373.573 128.586 372.732 127.745 372.732 126.707C372.732 125.669 373.573 124.828 374.611 124.828C375.649 124.828 376.49 125.669 376.49 126.707Z" fill="#222222"/>
<path d="M4.40613 168.049C4.40613 169.087 3.56478 169.929 2.52692 169.929C1.48906 169.929 0.647705 169.087 0.647705 168.049C0.647705 167.012 1.48906 166.17 2.52692 166.17C3.56478 166.17 4.40613 167.012 4.40613 168.049Z" fill="#222222"/>
<path d="M45.7489 168.049C45.7489 169.087 44.9076 169.929 43.8697 169.929C42.8318 169.929 41.9905 169.087 41.9905 168.049C41.9905 167.012 42.8318 166.17 43.8697 166.17C44.9076 166.17 45.7489 167.012 45.7489 168.049Z" fill="#222222"/>
<path d="M87.0917 168.049C87.0917 169.087 86.2503 169.929 85.2125 169.929C84.1746 169.929 83.3333 169.087 83.3333 168.049C83.3333 167.012 84.1746 166.17 85.2125 166.17C86.2503 166.17 87.0917 167.012 87.0917 168.049Z" fill="#222222"/>
<path d="M128.434 168.049C128.434 169.087 127.593 169.929 126.555 169.929C125.517 169.929 124.676 169.087 124.676 168.049C124.676 167.012 125.517 166.17 126.555 166.17C127.593 166.17 128.434 167.012 128.434 168.049Z" fill="#222222"/>
<path d="M169.777 168.049C169.777 169.087 168.936 169.929 167.898 169.929C166.86 169.929 166.019 169.087 166.019 168.049C166.019 167.012 166.86 166.17 167.898 166.17C168.936 166.17 169.777 167.012 169.777 168.049Z" fill="#222222"/>
<path d="M211.12 168.049C211.12 169.087 210.278 169.929 209.24 169.929C208.202 169.929 207.361 169.087 207.361 168.049C207.361 167.012 208.202 166.17 209.24 166.17C210.278 166.17 211.12 167.012 211.12 168.049Z" fill="#222222"/>
<path d="M252.462 168.049C252.462 169.087 251.621 169.929 250.583 169.929C249.545 169.929 248.704 169.087 248.704 168.049C248.704 167.012 249.545 166.17 250.583 166.17C251.621 166.17 252.462 167.012 252.462 168.049Z" fill="#222222"/>
<path d="M293.805 168.049C293.805 169.087 292.964 169.929 291.926 169.929C290.888 169.929 290.046 169.087 290.046 168.049C290.046 167.012 290.888 166.17 291.926 166.17C292.964 166.17 293.805 167.012 293.805 168.049Z" fill="#222222"/>
<path d="M335.147 168.049C335.147 169.087 334.306 169.929 333.268 169.929C332.23 169.929 331.389 169.087 331.389 168.049C331.389 167.012 332.23 166.17 333.268 166.17C334.306 166.17 335.147 167.012 335.147 168.049Z" fill="#222222"/>
<path d="M376.49 168.049C376.49 169.087 375.649 169.929 374.611 169.929C373.573 169.929 372.732 169.087 372.732 168.049C372.732 167.012 373.573 166.17 374.611 166.17C375.649 166.17 376.49 167.012 376.49 168.049Z" fill="#222222"/>
<path d="M4.40613 209.392C4.40613 210.43 3.56478 211.271 2.52692 211.271C1.48906 211.271 0.647705 210.43 0.647705 209.392C0.647705 208.354 1.48906 207.513 2.52692 207.513C3.56478 207.513 4.40613 208.354 4.40613 209.392Z" fill="#222222"/>
<path d="M45.7489 209.392C45.7489 210.43 44.9076 211.271 43.8697 211.271C42.8318 211.271 41.9905 210.43 41.9905 209.392C41.9905 208.354 42.8318 207.513 43.8697 207.513C44.9076 207.513 45.7489 208.354 45.7489 209.392Z" fill="#222222"/>
<path d="M87.0917 209.392C87.0917 210.43 86.2503 211.271 85.2125 211.271C84.1746 211.271 83.3333 210.43 83.3333 209.392C83.3333 208.354 84.1746 207.513 85.2125 207.513C86.2503 207.513 87.0917 208.354 87.0917 209.392Z" fill="#222222"/>
<path d="M128.434 209.392C128.434 210.43 127.593 211.271 126.555 211.271C125.517 211.271 124.676 210.43 124.676 209.392C124.676 208.354 125.517 207.513 126.555 207.513C127.593 207.513 128.434 208.354 128.434 209.392Z" fill="#222222"/>
<path d="M169.777 209.392C169.777 210.43 168.936 211.271 167.898 211.271C166.86 211.271 166.019 210.43 166.019 209.392C166.019 208.354 166.86 207.513 167.898 207.513C168.936 207.513 169.777 208.354 169.777 209.392Z" fill="#222222"/>
<path d="M211.12 209.392C211.12 210.43 210.278 211.271 209.24 211.271C208.202 211.271 207.361 210.43 207.361 209.392C207.361 208.354 208.202 207.513 209.24 207.513C210.278 207.513 211.12 208.354 211.12 209.392Z" fill="#222222"/>
<path d="M252.462 209.392C252.462 210.43 251.621 211.271 250.583 211.271C249.545 211.271 248.704 210.43 248.704 209.392C248.704 208.354 249.545 207.513 250.583 207.513C251.621 207.513 252.462 208.354 252.462 209.392Z" fill="#222222"/>
<path d="M293.805 209.392C293.805 210.43 292.964 211.271 291.926 211.271C290.888 211.271 290.046 210.43 290.046 209.392C290.046 208.354 290.888 207.513 291.926 207.513C292.964 207.513 293.805 208.354 293.805 209.392Z" fill="#222222"/>
<path d="M335.147 209.392C335.147 210.43 334.306 211.271 333.268 211.271C332.23 211.271 331.389 210.43 331.389 209.392C331.389 208.354 332.23 207.513 333.268 207.513C334.306 207.513 335.147 208.354 335.147 209.392Z" fill="#222222"/>
<path d="M376.49 209.392C376.49 210.43 375.649 211.271 374.611 211.271C373.573 211.271 372.732 210.43 372.732 209.392C372.732 208.354 373.573 207.513 374.611 207.513C375.649 207.513 376.49 208.354 376.49 209.392Z" fill="#222222"/>
<path d="M4.40613 250.735C4.40613 251.773 3.56478 252.614 2.52692 252.614C1.48906 252.614 0.647705 251.773 0.647705 250.735C0.647705 249.697 1.48906 248.856 2.52692 248.856C3.56478 248.856 4.40613 249.697 4.40613 250.735Z" fill="#222222"/>
<path d="M45.7489 250.735C45.7489 251.773 44.9076 252.614 43.8697 252.614C42.8318 252.614 41.9905 251.773 41.9905 250.735C41.9905 249.697 42.8318 248.856 43.8697 248.856C44.9076 248.856 45.7489 249.697 45.7489 250.735Z" fill="#222222"/>
<path d="M87.0917 250.735C87.0917 251.773 86.2503 252.614 85.2125 252.614C84.1746 252.614 83.3333 251.773 83.3333 250.735C83.3333 249.697 84.1746 248.856 85.2125 248.856C86.2503 248.856 87.0917 249.697 87.0917 250.735Z" fill="#222222"/>
<path d="M128.434 250.735C128.434 251.773 127.593 252.614 126.555 252.614C125.517 252.614 124.676 251.773 124.676 250.735C124.676 249.697 125.517 248.856 126.555 248.856C127.593 248.856 128.434 249.697 128.434 250.735Z" fill="#222222"/>
<path d="M169.777 250.735C169.777 251.773 168.936 252.614 167.898 252.614C166.86 252.614 166.019 251.773 166.019 250.735C166.019 249.697 166.86 248.856 167.898 248.856C168.936 248.856 169.777 249.697 169.777 250.735Z" fill="#222222"/>
<path d="M211.12 250.735C211.12 251.773 210.278 252.614 209.24 252.614C208.202 252.614 207.361 251.773 207.361 250.735C207.361 249.697 208.202 248.856 209.24 248.856C210.278 248.856 211.12 249.697 211.12 250.735Z" fill="#222222"/>
<path d="M252.462 250.735C252.462 251.773 251.621 252.614 250.583 252.614C249.545 252.614 248.704 251.773 248.704 250.735C248.704 249.697 249.545 248.856 250.583 248.856C251.621 248.856 252.462 249.697 252.462 250.735Z" fill="#222222"/>
<path d="M293.805 250.735C293.805 251.773 292.964 252.614 291.926 252.614C290.888 252.614 290.046 251.773 290.046 250.735C290.046 249.697 290.888 248.856 291.926 248.856C292.964 248.856 293.805 249.697 293.805 250.735Z" fill="#222222"/>
<path d="M335.147 250.735C335.147 251.773 334.306 252.614 333.268 252.614C332.23 252.614 331.389 251.773 331.389 250.735C331.389 249.697 332.23 248.856 333.268 248.856C334.306 248.856 335.147 249.697 335.147 250.735Z" fill="#222222"/>
<path d="M376.49 250.735C376.49 251.773 375.649 252.614 374.611 252.614C373.573 252.614 372.732 251.773 372.732 250.735C372.732 249.697 373.573 248.856 374.611 248.856C375.649 248.856 376.49 249.697 376.49 250.735Z" fill="#222222"/>
<path d="M4.40613 292.077C4.40613 293.115 3.56478 293.956 2.52692 293.956C1.48906 293.956 0.647705 293.115 0.647705 292.077C0.647705 291.039 1.48906 290.198 2.52692 290.198C3.56478 290.198 4.40613 291.039 4.40613 292.077Z" fill="#222222"/>
<path d="M45.7489 292.077C45.7489 293.115 44.9076 293.956 43.8697 293.956C42.8318 293.956 41.9905 293.115 41.9905 292.077C41.9905 291.039 42.8318 290.198 43.8697 290.198C44.9076 290.198 45.7489 291.039 45.7489 292.077Z" fill="#222222"/>
<path d="M87.0917 292.077C87.0917 293.115 86.2503 293.956 85.2125 293.956C84.1746 293.956 83.3333 293.115 83.3333 292.077C83.3333 291.039 84.1746 290.198 85.2125 290.198C86.2503 290.198 87.0917 291.039 87.0917 292.077Z" fill="#222222"/>
<path d="M128.434 292.077C128.434 293.115 127.593 293.956 126.555 293.956C125.517 293.956 124.676 293.115 124.676 292.077C124.676 291.039 125.517 290.198 126.555 290.198C127.593 290.198 128.434 291.039 128.434 292.077Z" fill="#222222"/>
<path d="M169.777 292.077C169.777 293.115 168.936 293.956 167.898 293.956C166.86 293.956 166.019 293.115 166.019 292.077C166.019 291.039 166.86 290.198 167.898 290.198C168.936 290.198 169.777 291.039 169.777 292.077Z" fill="#222222"/>
<path d="M211.12 292.077C211.12 293.115 210.278 293.956 209.24 293.956C208.202 293.956 207.361 293.115 207.361 292.077C207.361 291.039 208.202 290.198 209.24 290.198C210.278 290.198 211.12 291.039 211.12 292.077Z" fill="#222222"/>
<path d="M252.462 292.077C252.462 293.115 251.621 293.956 250.583 293.956C249.545 293.956 248.704 293.115 248.704 292.077C248.704 291.039 249.545 290.198 250.583 290.198C251.621 290.198 252.462 291.039 252.462 292.077Z" fill="#222222"/>
<path d="M293.805 292.077C293.805 293.115 292.964 293.956 291.926 293.956C290.888 293.956 290.046 293.115 290.046 292.077C290.046 291.039 290.888 290.198 291.926 290.198C292.964 290.198 293.805 291.039 293.805 292.077Z" fill="#222222"/>
<path d="M335.147 292.077C335.147 293.115 334.306 293.956 333.268 293.956C332.23 293.956 331.389 293.115 331.389 292.077C331.389 291.039 332.23 290.198 333.268 290.198C334.306 290.198 335.147 291.039 335.147 292.077Z" fill="#222222"/>
<path d="M376.49 292.077C376.49 293.115 375.649 293.956 374.611 293.956C373.573 293.956 372.732 293.115 372.732 292.077C372.732 291.039 373.573 290.198 374.611 290.198C375.649 290.198 376.49 291.039 376.49 292.077Z" fill="#222222"/>
<path d="M4.40613 333.42C4.40613 334.458 3.56478 335.299 2.52692 335.299C1.48906 335.299 0.647705 334.458 0.647705 333.42C0.647705 332.382 1.48906 331.541 2.52692 331.541C3.56478 331.541 4.40613 332.382 4.40613 333.42Z" fill="#222222"/>
<path d="M45.7489 333.42C45.7489 334.458 44.9076 335.299 43.8697 335.299C42.8318 335.299 41.9905 334.458 41.9905 333.42C41.9905 332.382 42.8318 331.541 43.8697 331.541C44.9076 331.541 45.7489 332.382 45.7489 333.42Z" fill="#222222"/>
<path d="M87.0917 333.42C87.0917 334.458 86.2503 335.299 85.2125 335.299C84.1746 335.299 83.3333 334.458 83.3333 333.42C83.3333 332.382 84.1746 331.541 85.2125 331.541C86.2503 331.541 87.0917 332.382 87.0917 333.42Z" fill="#222222"/>
<path d="M128.434 333.42C128.434 334.458 127.593 335.299 126.555 335.299C125.517 335.299 124.676 334.458 124.676 333.42C124.676 332.382 125.517 331.541 126.555 331.541C127.593 331.541 128.434 332.382 128.434 333.42Z" fill="#222222"/>
<path d="M169.777 333.42C169.777 334.458 168.936 335.299 167.898 335.299C166.86 335.299 166.019 334.458 166.019 333.42C166.019 332.382 166.86 331.541 167.898 331.541C168.936 331.541 169.777 332.382 169.777 333.42Z" fill="#222222"/>
<path d="M211.12 333.42C211.12 334.458 210.278 335.299 209.24 335.299C208.202 335.299 207.361 334.458 207.361 333.42C207.361 332.382 208.202 331.541 209.24 331.541C210.278 331.541 211.12 332.382 211.12 333.42Z" fill="#222222"/>
<path d="M252.462 333.42C252.462 334.458 251.621 335.299 250.583 335.299C249.545 335.299 248.704 334.458 248.704 333.42C248.704 332.382 249.545 331.541 250.583 331.541C251.621 331.541 252.462 332.382 252.462 333.42Z" fill="#222222"/>
<path d="M293.805 333.42C293.805 334.458 292.964 335.299 291.926 335.299C290.888 335.299 290.046 334.458 290.046 333.42C290.046 332.382 290.888 331.541 291.926 331.541C292.964 331.541 293.805 332.382 293.805 333.42Z" fill="#222222"/>
<path d="M335.147 333.42C335.147 334.458 334.306 335.299 333.268 335.299C332.23 335.299 331.389 334.458 331.389 333.42C331.389 332.382 332.23 331.541 333.268 331.541C334.306 331.541 335.147 332.382 335.147 333.42Z" fill="#222222"/>
<path d="M376.49 333.42C376.49 334.458 375.649 335.299 374.611 335.299C373.573 335.299 372.732 334.458 372.732 333.42C372.732 332.382 373.573 331.541 374.611 331.541C375.649 331.541 376.49 332.382 376.49 333.42Z" fill="#222222"/>
<path d="M4.40613 374.763C4.40613 375.801 3.56478 376.642 2.52692 376.642C1.48906 376.642 0.647705 375.801 0.647705 374.763C0.647705 373.725 1.48906 372.884 2.52692 372.884C3.56478 372.884 4.40613 373.725 4.40613 374.763Z" fill="#222222"/>
<path d="M45.7489 374.763C45.7489 375.801 44.9076 376.642 43.8697 376.642C42.8318 376.642 41.9905 375.801 41.9905 374.763C41.9905 373.725 42.8318 372.884 43.8697 372.884C44.9076 372.884 45.7489 373.725 45.7489 374.763Z" fill="#222222"/>
<path d="M87.0917 374.763C87.0917 375.801 86.2503 376.642 85.2125 376.642C84.1746 376.642 83.3333 375.801 83.3333 374.763C83.3333 373.725 84.1746 372.884 85.2125 372.884C86.2503 372.884 87.0917 373.725 87.0917 374.763Z" fill="#222222"/>
<path d="M128.434 374.763C128.434 375.801 127.593 376.642 126.555 376.642C125.517 376.642 124.676 375.801 124.676 374.763C124.676 373.725 125.517 372.884 126.555 372.884C127.593 372.884 128.434 373.725 128.434 374.763Z" fill="#222222"/>
<path d="M169.777 374.763C169.777 375.801 168.936 376.642 167.898 376.642C166.86 376.642 166.019 375.801 166.019 374.763C166.019 373.725 166.86 372.884 167.898 372.884C168.936 372.884 169.777 373.725 169.777 374.763Z" fill="#222222"/>
<path d="M211.12 374.763C211.12 375.801 210.278 376.642 209.24 376.642C208.202 376.642 207.361 375.801 207.361 374.763C207.361 373.725 208.202 372.884 209.24 372.884C210.278 372.884 211.12 373.725 211.12 374.763Z" fill="#222222"/>
<path d="M252.462 374.763C252.462 375.801 251.621 376.642 250.583 376.642C249.545 376.642 248.704 375.801 248.704 374.763C248.704 373.725 249.545 372.884 250.583 372.884C251.621 372.884 252.462 373.725 252.462 374.763Z" fill="#222222"/>
<path d="M293.805 374.763C293.805 375.801 292.964 376.642 291.926 376.642C290.888 376.642 290.046 375.801 290.046 374.763C290.046 373.725 290.888 372.884 291.926 372.884C292.964 372.884 293.805 373.725 293.805 374.763Z" fill="#222222"/>
<path d="M335.147 374.763C335.147 375.801 334.306 376.642 333.268 376.642C332.23 376.642 331.389 375.801 331.389 374.763C331.389 373.725 332.23 372.884 333.268 372.884C334.306 372.884 335.147 373.725 335.147 374.763Z" fill="#222222"/>
<path d="M376.49 374.763C376.49 375.801 375.649 376.642 374.611 376.642C373.573 376.642 372.732 375.801 372.732 374.763C372.732 373.725 373.573 372.884 374.611 372.884C375.649 372.884 376.49 373.725 376.49 374.763Z" fill="#222222"/>
</svg>
