<svg width="381" height="67" viewBox="0 0 381 67" fill="none" xmlns="http://www.w3.org/2000/svg">
<path d="M25.6972 38.652C25.6972 37.0947 25.3879 35.868 24.7692 34.972C24.1719 34.0547 23.3186 33.404 22.2092 33.02C21.1212 32.636 19.8412 32.444 18.3692 32.444H14.0492V44.412H17.9212C18.9452 44.412 19.9159 44.3374 20.8332 44.188C21.7719 44.0387 22.6039 43.7614 23.3292 43.356C24.0759 42.9507 24.6519 42.3747 25.0572 41.628C25.4839 40.86 25.6972 39.868 25.6972 38.652ZM24.0332 20.092C24.0332 18.3427 23.4786 17.084 22.3692 16.316C21.2812 15.5267 19.5852 15.132 17.2812 15.132H14.0492V25.404H17.6012C19.8626 25.404 21.4946 24.988 22.4972 24.156C23.5212 23.324 24.0332 21.9694 24.0332 20.092ZM36.5132 39.068C36.5132 41.628 36.0226 43.7507 35.0412 45.436C34.0599 47.1214 32.7159 48.444 31.0092 49.404C29.3026 50.364 27.3506 51.0467 25.1532 51.452C22.9772 51.8574 20.6839 52.06 18.2732 52.06H3.55322V7.70802H17.6012C19.8839 7.70802 22.0386 7.90002 24.0652 8.28402C26.1132 8.64669 27.9266 9.26536 29.5052 10.14C31.0839 10.9934 32.3212 12.156 33.2172 13.628C34.1346 15.0787 34.5932 16.8814 34.5932 19.036C34.5932 20.8067 34.2199 22.3427 33.4732 23.644C32.7266 24.924 31.7346 25.98 30.4972 26.812C29.2599 27.6227 27.9159 28.2094 26.4652 28.572C28.0439 28.828 29.6012 29.3294 31.1372 30.076C32.6946 30.8014 33.9746 31.8894 34.9772 33.34C36.0012 34.7907 36.5132 36.7 36.5132 39.068Z" fill="#1784E8"/>
<path d="M60.5522 4.57202V41.372C60.5522 42.7374 60.9362 43.7187 61.7042 44.316C62.4936 44.892 63.5709 45.18 64.9362 45.18C65.8109 45.18 66.6536 45.084 67.4642 44.892C68.2749 44.6787 69.0322 44.4334 69.7362 44.156L72.1682 50.908C71.0162 51.5054 69.6296 52.028 68.0082 52.476C66.3869 52.924 64.4989 53.148 62.3442 53.148C58.2482 53.148 55.2402 51.9747 53.3202 49.628C51.4002 47.26 50.4402 44.092 50.4402 40.124V11.484H40.4242V4.57202H60.5522Z" fill="#1784E8"/>
<path d="M95.9192 16.956C99.4179 16.956 102.394 17.7027 104.847 19.196C107.301 20.6894 109.178 22.7907 110.479 25.5C111.781 28.188 112.431 31.3454 112.431 34.972C112.431 38.748 111.77 42.0014 110.447 44.732C109.146 47.4414 107.269 49.5214 104.815 50.972C102.362 52.4227 99.3966 53.148 95.9192 53.148C92.4632 53.148 89.4979 52.4334 87.0232 51.004C84.5699 49.5747 82.6819 47.5054 81.3592 44.796C80.0579 42.0867 79.4072 38.8334 79.4072 35.036C79.4072 31.4307 80.0579 28.2734 81.3592 25.564C82.6819 22.8547 84.5699 20.7427 87.0232 19.228C89.4979 17.7134 92.4632 16.956 95.9192 16.956ZM95.9192 24.412C93.8499 24.412 92.3139 25.2654 91.3112 26.972C90.3299 28.6574 89.8392 31.3454 89.8392 35.036C89.8392 38.7907 90.3299 41.5107 91.3112 43.196C92.3139 44.8814 93.8499 45.724 95.9192 45.724C97.9886 45.724 99.5139 44.8814 100.495 43.196C101.498 41.5107 101.999 38.7694 101.999 34.972C101.999 31.3027 101.498 28.6254 100.495 26.94C99.5139 25.2547 97.9886 24.412 95.9192 24.412Z" fill="#1784E8"/>
<path d="M149.75 12.636L152.118 20.06C150.924 20.5294 149.526 20.8707 147.926 21.084C146.326 21.2974 144.46 21.404 142.326 21.404C144.46 22.3214 146.081 23.4627 147.19 24.828C148.321 26.172 148.886 27.9427 148.886 30.14C148.886 32.3374 148.3 34.3 147.126 36.028C145.953 37.7347 144.289 39.0787 142.134 40.06C139.98 41.0414 137.43 41.532 134.486 41.532C133.761 41.532 133.078 41.5 132.438 41.436C131.798 41.372 131.169 41.276 130.55 41.148C130.188 41.34 129.91 41.6174 129.718 41.98C129.526 42.3427 129.43 42.716 129.43 43.1C129.43 43.6334 129.644 44.1134 130.07 44.54C130.518 44.9667 131.553 45.18 133.174 45.18H138.742C141.388 45.18 143.67 45.6067 145.59 46.46C147.532 47.3134 149.036 48.476 150.102 49.948C151.169 51.42 151.702 53.1054 151.702 55.004C151.702 58.4814 150.177 61.2227 147.126 63.228C144.076 65.2334 139.542 66.236 133.526 66.236C129.174 66.236 125.804 65.788 123.414 64.892C121.046 64.0174 119.393 62.7587 118.454 61.116C117.537 59.4947 117.078 57.564 117.078 55.324H126.038C126.038 56.3054 126.23 57.1054 126.614 57.724C127.02 58.364 127.777 58.8334 128.886 59.132C130.017 59.4307 131.649 59.58 133.782 59.58C135.937 59.58 137.58 59.4094 138.71 59.068C139.841 58.7267 140.609 58.2574 141.014 57.66C141.441 57.084 141.654 56.4334 141.654 55.708C141.654 54.7054 141.26 53.8947 140.47 53.276C139.681 52.6574 138.433 52.348 136.726 52.348H131.318C127.649 52.348 124.982 51.676 123.318 50.332C121.654 48.9667 120.822 47.3774 120.822 45.564C120.822 44.3054 121.153 43.1107 121.814 41.98C122.497 40.8494 123.446 39.9 124.662 39.132C122.486 37.98 120.929 36.6254 119.99 35.068C119.052 33.4894 118.582 31.6014 118.582 29.404C118.582 26.844 119.233 24.6467 120.534 22.812C121.836 20.956 123.628 19.5267 125.91 18.524C128.214 17.5214 130.838 17.02 133.782 17.02C136.321 17.0627 138.529 16.892 140.406 16.508C142.284 16.1027 143.969 15.5587 145.462 14.876C146.956 14.172 148.385 13.4254 149.75 12.636ZM134.038 23.58C132.438 23.58 131.169 24.092 130.23 25.116C129.292 26.1187 128.822 27.5054 128.822 29.276C128.822 31.1534 129.302 32.5934 130.262 33.596C131.222 34.5987 132.481 35.1 134.038 35.1C135.724 35.1 137.004 34.5987 137.878 33.596C138.774 32.5934 139.222 31.1107 139.222 29.148C139.222 27.2494 138.785 25.852 137.91 24.956C137.036 24.0387 135.745 23.58 134.038 23.58Z" fill="#1784E8"/>
<path d="M217.924 22.172C217.924 20.5934 217.626 19.292 217.028 18.268C216.452 17.2227 215.567 16.4547 214.372 15.964C213.199 15.452 211.716 15.196 209.924 15.196H206.34V29.692H210.468C212.026 29.692 213.359 29.4254 214.468 28.892C215.578 28.3587 216.431 27.5374 217.028 26.428C217.626 25.3187 217.924 23.9 217.924 22.172ZM228.74 22.14C228.74 25.5747 228.004 28.412 226.532 30.652C225.06 32.892 223.002 34.5667 220.356 35.676C217.711 36.764 214.639 37.308 211.14 37.308H206.34V52.06H195.844V7.70802H209.796C215.812 7.70802 220.474 8.90269 223.78 11.292C227.087 13.6814 228.74 17.2974 228.74 22.14Z" fill="#1784E8"/>
<path d="M249.419 16.956C252.918 16.956 255.894 17.7027 258.347 19.196C260.801 20.6894 262.678 22.7907 263.979 25.5C265.281 28.188 265.931 31.3454 265.931 34.972C265.931 38.748 265.27 42.0014 263.947 44.732C262.646 47.4414 260.769 49.5214 258.315 50.972C255.862 52.4227 252.897 53.148 249.419 53.148C245.963 53.148 242.998 52.4334 240.523 51.004C238.07 49.5747 236.182 47.5054 234.859 44.796C233.558 42.0867 232.907 38.8334 232.907 35.036C232.907 31.4307 233.558 28.2734 234.859 25.564C236.182 22.8547 238.07 20.7427 240.523 19.228C242.998 17.7134 245.963 16.956 249.419 16.956ZM249.419 24.412C247.35 24.412 245.814 25.2654 244.811 26.972C243.83 28.6574 243.339 31.3454 243.339 35.036C243.339 38.7907 243.83 41.5107 244.811 43.196C245.814 44.8814 247.35 45.724 249.419 45.724C251.489 45.724 253.014 44.8814 253.995 43.196C254.998 41.5107 255.499 38.7694 255.499 34.972C255.499 31.3027 254.998 28.6254 253.995 26.94C253.014 25.2547 251.489 24.412 249.419 24.412Z" fill="#1784E8"/>
<path d="M286.706 45.916C288.392 45.916 289.746 45.6494 290.77 45.116C291.816 44.5827 292.338 43.7827 292.338 42.716C292.338 41.9907 292.136 41.3827 291.73 40.892C291.325 40.4014 290.546 39.932 289.394 39.484C288.242 39.036 286.536 38.5027 284.274 37.884C282.205 37.3294 280.37 36.6254 278.77 35.772C277.192 34.9187 275.954 33.82 275.058 32.476C274.184 31.132 273.746 29.4574 273.746 27.452C273.746 25.4254 274.312 23.6227 275.442 22.044C276.573 20.4654 278.237 19.228 280.434 18.332C282.632 17.4147 285.32 16.956 288.498 16.956C291.528 16.956 294.162 17.3507 296.402 18.14C298.664 18.908 300.616 19.8894 302.258 21.084L298.226 27.036C296.818 26.1614 295.304 25.468 293.682 24.956C292.061 24.4227 290.429 24.156 288.786 24.156C287.144 24.156 285.917 24.38 285.106 24.828C284.317 25.2547 283.922 25.9054 283.922 26.78C283.922 27.356 284.125 27.8574 284.53 28.284C284.957 28.6894 285.746 29.116 286.898 29.564C288.05 29.9907 289.736 30.524 291.954 31.164C294.152 31.7827 296.061 32.4974 297.682 33.308C299.325 34.1187 300.594 35.2067 301.49 36.572C302.386 37.916 302.834 39.6974 302.834 41.916C302.834 44.3907 302.098 46.4707 300.626 48.156C299.154 49.82 297.202 51.068 294.77 51.9C292.338 52.732 289.672 53.148 286.77 53.148C283.485 53.148 280.584 52.6787 278.066 51.74C275.549 50.8014 273.405 49.564 271.634 48.028L276.722 42.332C278.045 43.356 279.538 44.2094 281.202 44.892C282.888 45.5747 284.722 45.916 286.706 45.916Z" fill="#1784E8"/>
<path d="M342.041 50.076C340.719 50.9294 339.119 51.6547 337.241 52.252C335.364 52.8494 333.252 53.148 330.905 53.148C326.468 53.148 323.172 52.0174 321.017 49.756C318.863 47.4734 317.785 44.38 317.785 40.476V25.052H310.649V18.076H317.785V10.716L327.897 9.50002V18.076H338.841L337.849 25.052H327.897V40.476C327.897 42.1614 328.281 43.3667 329.049 44.092C329.817 44.8174 331.044 45.18 332.729 45.18C333.924 45.18 335.012 45.0414 335.993 44.764C336.996 44.4654 337.892 44.092 338.681 43.644L342.041 50.076Z" fill="#1784E8"/>
<path d="M363.456 45.916C365.142 45.916 366.496 45.6494 367.52 45.116C368.566 44.5827 369.088 43.7827 369.088 42.716C369.088 41.9907 368.886 41.3827 368.48 40.892C368.075 40.4014 367.296 39.932 366.144 39.484C364.992 39.036 363.286 38.5027 361.024 37.884C358.955 37.3294 357.12 36.6254 355.52 35.772C353.942 34.9187 352.704 33.82 351.808 32.476C350.934 31.132 350.496 29.4574 350.496 27.452C350.496 25.4254 351.062 23.6227 352.192 22.044C353.323 20.4654 354.987 19.228 357.184 18.332C359.382 17.4147 362.07 16.956 365.248 16.956C368.278 16.956 370.912 17.3507 373.152 18.14C375.414 18.908 377.366 19.8894 379.008 21.084L374.976 27.036C373.568 26.1614 372.054 25.468 370.432 24.956C368.811 24.4227 367.179 24.156 365.536 24.156C363.894 24.156 362.667 24.38 361.856 24.828C361.067 25.2547 360.672 25.9054 360.672 26.78C360.672 27.356 360.875 27.8574 361.28 28.284C361.707 28.6894 362.496 29.116 363.648 29.564C364.8 29.9907 366.486 30.524 368.704 31.164C370.902 31.7827 372.811 32.4974 374.432 33.308C376.075 34.1187 377.344 35.2067 378.24 36.572C379.136 37.916 379.584 39.6974 379.584 41.916C379.584 44.3907 378.848 46.4707 377.376 48.156C375.904 49.82 373.952 51.068 371.52 51.9C369.088 52.732 366.422 53.148 363.52 53.148C360.235 53.148 357.334 52.6787 354.816 51.74C352.299 50.8014 350.155 49.564 348.384 48.028L353.472 42.332C354.795 43.356 356.288 44.2094 357.952 44.892C359.638 45.5747 361.472 45.916 363.456 45.916Z" fill="#1784E8"/>
<mask id="path-2-outside-1_42_46" maskUnits="userSpaceOnUse" x="0.615723" y="0.894043" width="381" height="66" fill="black">
<rect fill="white" x="0.615723" y="0.894043" width="381" height="66"/>
<path d="M24.7597 36.974C24.7597 35.4167 24.4504 34.19 23.8317 33.294C23.2344 32.3767 22.3811 31.726 21.2717 31.342C20.1837 30.958 18.9037 30.766 17.4317 30.766H13.1117V42.734H16.9837C18.0077 42.734 18.9784 42.6594 19.8957 42.51C20.8344 42.3607 21.6664 42.0834 22.3917 41.678C23.1384 41.2727 23.7144 40.6967 24.1197 39.95C24.5464 39.182 24.7597 38.19 24.7597 36.974ZM23.0957 18.414C23.0957 16.6647 22.5411 15.406 21.4317 14.638C20.3437 13.8487 18.6477 13.454 16.3437 13.454H13.1117V23.726H16.6637C18.9251 23.726 20.5571 23.31 21.5597 22.478C22.5837 21.646 23.0957 20.2914 23.0957 18.414ZM35.5757 37.39C35.5757 39.95 35.0851 42.0727 34.1037 43.758C33.1224 45.4434 31.7784 46.766 30.0717 47.726C28.3651 48.686 26.4131 49.3687 24.2157 49.774C22.0397 50.1794 19.7464 50.382 17.3357 50.382H2.61572V6.03004H16.6637C18.9464 6.03004 21.1011 6.22204 23.1277 6.60604C25.1757 6.96871 26.9891 7.58738 28.5677 8.46204C30.1464 9.31538 31.3837 10.478 32.2797 11.95C33.1971 13.4007 33.6557 15.2034 33.6557 17.358C33.6557 19.1287 33.2824 20.6647 32.5357 21.966C31.7891 23.246 30.7971 24.302 29.5597 25.134C28.3224 25.9447 26.9784 26.5314 25.5277 26.894C27.1064 27.15 28.6637 27.6514 30.1997 28.398C31.7571 29.1234 33.0371 30.2114 34.0397 31.662C35.0637 33.1127 35.5757 35.022 35.5757 37.39ZM59.6147 2.89404V39.694C59.6147 41.0594 59.9987 42.0407 60.7667 42.638C61.5561 43.214 62.6334 43.502 63.9987 43.502C64.8734 43.502 65.7161 43.406 66.5267 43.214C67.3374 43.0007 68.0947 42.7554 68.7987 42.478L71.2307 49.23C70.0787 49.8274 68.6921 50.35 67.0707 50.798C65.4494 51.246 63.5614 51.47 61.4067 51.47C57.3107 51.47 54.3027 50.2967 52.3827 47.95C50.4627 45.582 49.5027 42.414 49.5027 38.446V9.80605H39.4867V2.89404H59.6147ZM94.9817 15.278C98.4804 15.278 101.456 16.0247 103.91 17.518C106.363 19.0114 108.24 21.1127 109.542 23.822C110.843 26.51 111.494 29.6674 111.494 33.294C111.494 37.07 110.832 40.3234 109.51 43.054C108.208 45.7634 106.331 47.8434 103.878 49.294C101.424 50.7447 98.4591 51.47 94.9817 51.47C91.5257 51.47 88.5604 50.7554 86.0857 49.326C83.6324 47.8967 81.7444 45.8274 80.4217 43.118C79.1204 40.4087 78.4697 37.1554 78.4697 33.358C78.4697 29.7527 79.1204 26.5954 80.4217 23.886C81.7444 21.1767 83.6324 19.0647 86.0857 17.55C88.5604 16.0354 91.5257 15.278 94.9817 15.278ZM94.9817 22.734C92.9124 22.734 91.3764 23.5874 90.3737 25.294C89.3924 26.9794 88.9017 29.6674 88.9017 33.358C88.9017 37.1127 89.3924 39.8327 90.3737 41.518C91.3764 43.2034 92.9124 44.046 94.9817 44.046C97.0511 44.046 98.5764 43.2034 99.5577 41.518C100.56 39.8327 101.062 37.0914 101.062 33.294C101.062 29.6247 100.56 26.9474 99.5577 25.262C98.5764 23.5767 97.0511 22.734 94.9817 22.734ZM148.813 10.958L151.181 18.382C149.986 18.8514 148.589 19.1927 146.989 19.406C145.389 19.6194 143.522 19.726 141.389 19.726C143.522 20.6434 145.143 21.7847 146.253 23.15C147.383 24.494 147.949 26.2647 147.949 28.462C147.949 30.6594 147.362 32.622 146.189 34.35C145.015 36.0567 143.351 37.4007 141.197 38.382C139.042 39.3634 136.493 39.854 133.549 39.854C132.823 39.854 132.141 39.822 131.501 39.758C130.861 39.694 130.231 39.598 129.613 39.47C129.25 39.662 128.973 39.9394 128.781 40.302C128.589 40.6647 128.493 41.038 128.493 41.422C128.493 41.9554 128.706 42.4354 129.133 42.862C129.581 43.2887 130.615 43.502 132.237 43.502H137.805C140.45 43.502 142.733 43.9287 144.653 44.782C146.594 45.6354 148.098 46.798 149.165 48.27C150.231 49.742 150.765 51.4274 150.765 53.326C150.765 56.8034 149.239 59.5447 146.189 61.55C143.138 63.5554 138.605 64.558 132.589 64.558C128.237 64.558 124.866 64.11 122.477 63.214C120.109 62.3394 118.455 61.0807 117.517 59.438C116.599 57.8167 116.141 55.886 116.141 53.646H125.101C125.101 54.6274 125.293 55.4274 125.677 56.046C126.082 56.686 126.839 57.1554 127.949 57.454C129.079 57.7527 130.711 57.902 132.845 57.902C134.999 57.902 136.642 57.7314 137.773 57.39C138.903 57.0487 139.671 56.5794 140.077 55.982C140.503 55.406 140.717 54.7554 140.717 54.03C140.717 53.0274 140.322 52.2167 139.533 51.598C138.743 50.9794 137.495 50.67 135.789 50.67H130.381C126.711 50.67 124.045 49.998 122.381 48.654C120.717 47.2887 119.885 45.6994 119.885 43.886C119.885 42.6274 120.215 41.4327 120.877 40.302C121.559 39.1714 122.509 38.222 123.725 37.454C121.549 36.302 119.991 34.9474 119.053 33.39C118.114 31.8114 117.645 29.9234 117.645 27.726C117.645 25.166 118.295 22.9687 119.597 21.134C120.898 19.278 122.69 17.8487 124.973 16.846C127.277 15.8434 129.901 15.342 132.845 15.342C135.383 15.3847 137.591 15.214 139.469 14.83C141.346 14.4247 143.031 13.8807 144.525 13.198C146.018 12.494 147.447 11.7474 148.813 10.958ZM133.101 21.902C131.501 21.902 130.231 22.414 129.293 23.438C128.354 24.4407 127.885 25.8274 127.885 27.598C127.885 29.4754 128.365 30.9154 129.325 31.918C130.285 32.9207 131.543 33.422 133.101 33.422C134.786 33.422 136.066 32.9207 136.941 31.918C137.837 30.9154 138.285 29.4327 138.285 27.47C138.285 25.5714 137.847 24.174 136.973 23.278C136.098 22.3607 134.807 21.902 133.101 21.902ZM216.987 20.494C216.987 18.9154 216.688 17.614 216.091 16.59C215.515 15.5447 214.629 14.7767 213.435 14.286C212.261 13.774 210.779 13.518 208.987 13.518H205.403V28.014H209.531C211.088 28.014 212.421 27.7474 213.531 27.214C214.64 26.6807 215.493 25.8594 216.091 24.75C216.688 23.6407 216.987 22.222 216.987 20.494ZM227.803 20.462C227.803 23.8967 227.067 26.734 225.595 28.974C224.123 31.214 222.064 32.8887 219.419 33.998C216.773 35.086 213.701 35.63 210.203 35.63H205.403V50.382H194.907V6.03004H208.859C214.875 6.03004 219.536 7.22471 222.843 9.61404C226.149 12.0034 227.803 15.6194 227.803 20.462ZM248.482 15.278C251.98 15.278 254.956 16.0247 257.41 17.518C259.863 19.0114 261.74 21.1127 263.042 23.822C264.343 26.51 264.994 29.6674 264.994 33.294C264.994 37.07 264.332 40.3234 263.01 43.054C261.708 45.7634 259.831 47.8434 257.378 49.294C254.924 50.7447 251.959 51.47 248.482 51.47C245.026 51.47 242.06 50.7554 239.586 49.326C237.132 47.8967 235.244 45.8274 233.922 43.118C232.62 40.4087 231.97 37.1554 231.97 33.358C231.97 29.7527 232.62 26.5954 233.922 23.886C235.244 21.1767 237.132 19.0647 239.586 17.55C242.06 16.0354 245.026 15.278 248.482 15.278ZM248.482 22.734C246.412 22.734 244.876 23.5874 243.874 25.294C242.892 26.9794 242.402 29.6674 242.402 33.358C242.402 37.1127 242.892 39.8327 243.874 41.518C244.876 43.2034 246.412 44.046 248.482 44.046C250.551 44.046 252.076 43.2034 253.058 41.518C254.06 39.8327 254.562 37.0914 254.562 33.294C254.562 29.6247 254.06 26.9474 253.058 25.262C252.076 23.5767 250.551 22.734 248.482 22.734ZM285.769 44.238C287.454 44.238 288.809 43.9714 289.833 43.438C290.878 42.9047 291.401 42.1047 291.401 41.038C291.401 40.3127 291.198 39.7047 290.793 39.214C290.387 38.7234 289.609 38.254 288.457 37.806C287.305 37.358 285.598 36.8247 283.337 36.206C281.267 35.6514 279.433 34.9474 277.833 34.094C276.254 33.2407 275.017 32.142 274.121 30.798C273.246 29.454 272.809 27.7794 272.809 25.774C272.809 23.7474 273.374 21.9447 274.505 20.366C275.635 18.7874 277.299 17.55 279.497 16.654C281.694 15.7367 284.382 15.278 287.561 15.278C290.59 15.278 293.225 15.6727 295.465 16.462C297.726 17.23 299.678 18.2114 301.321 19.406L297.289 25.358C295.881 24.4834 294.366 23.79 292.745 23.278C291.123 22.7447 289.491 22.478 287.849 22.478C286.206 22.478 284.979 22.702 284.169 23.15C283.379 23.5767 282.985 24.2274 282.985 25.102C282.985 25.678 283.187 26.1794 283.593 26.606C284.019 27.0114 284.809 27.438 285.961 27.886C287.113 28.3127 288.798 28.846 291.017 29.486C293.214 30.1047 295.123 30.8194 296.745 31.63C298.387 32.4407 299.657 33.5287 300.553 34.894C301.449 36.238 301.897 38.0194 301.897 40.238C301.897 42.7127 301.161 44.7927 299.689 46.478C298.217 48.142 296.265 49.39 293.833 50.222C291.401 51.054 288.734 51.47 285.833 51.47C282.547 51.47 279.646 51.0007 277.129 50.062C274.611 49.1234 272.467 47.886 270.697 46.35L275.785 40.654C277.107 41.678 278.601 42.5314 280.265 43.214C281.95 43.8967 283.785 44.238 285.769 44.238ZM341.104 48.398C339.781 49.2514 338.181 49.9767 336.304 50.574C334.426 51.1714 332.314 51.47 329.968 51.47C325.53 51.47 322.234 50.3394 320.08 48.078C317.925 45.7954 316.848 42.702 316.848 38.798V23.374H309.712V16.398H316.848V9.03804L326.96 7.82204V16.398H337.904L336.912 23.374H326.96V38.798C326.96 40.4834 327.344 41.6887 328.112 42.414C328.88 43.1394 330.106 43.502 331.792 43.502C332.986 43.502 334.074 43.3634 335.056 43.086C336.058 42.7874 336.954 42.414 337.744 41.966L341.104 48.398ZM362.519 44.238C364.204 44.238 365.559 43.9714 366.583 43.438C367.628 42.9047 368.151 42.1047 368.151 41.038C368.151 40.3127 367.948 39.7047 367.543 39.214C367.137 38.7234 366.359 38.254 365.207 37.806C364.055 37.358 362.348 36.8247 360.087 36.206C358.017 35.6514 356.183 34.9474 354.583 34.094C353.004 33.2407 351.767 32.142 350.871 30.798C349.996 29.454 349.559 27.7794 349.559 25.774C349.559 23.7474 350.124 21.9447 351.255 20.366C352.385 18.7874 354.049 17.55 356.247 16.654C358.444 15.7367 361.132 15.278 364.311 15.278C367.34 15.278 369.975 15.6727 372.215 16.462C374.476 17.23 376.428 18.2114 378.071 19.406L374.039 25.358C372.631 24.4834 371.116 23.79 369.495 23.278C367.873 22.7447 366.241 22.478 364.599 22.478C362.956 22.478 361.729 22.702 360.919 23.15C360.129 23.5767 359.735 24.2274 359.735 25.102C359.735 25.678 359.937 26.1794 360.343 26.606C360.769 27.0114 361.559 27.438 362.711 27.886C363.863 28.3127 365.548 28.846 367.767 29.486C369.964 30.1047 371.873 30.8194 373.495 31.63C375.137 32.4407 376.407 33.5287 377.303 34.894C378.199 36.238 378.647 38.0194 378.647 40.238C378.647 42.7127 377.911 44.7927 376.439 46.478C374.967 48.142 373.015 49.39 370.583 50.222C368.151 51.054 365.484 51.47 362.583 51.47C359.297 51.47 356.396 51.0007 353.879 50.062C351.361 49.1234 349.217 47.886 347.447 46.35L352.535 40.654C353.857 41.678 355.351 42.5314 357.015 43.214C358.7 43.8967 360.535 44.238 362.519 44.238Z"/>
</mask>
<path d="M24.7597 36.974C24.7597 35.4167 24.4504 34.19 23.8317 33.294C23.2344 32.3767 22.3811 31.726 21.2717 31.342C20.1837 30.958 18.9037 30.766 17.4317 30.766H13.1117V42.734H16.9837C18.0077 42.734 18.9784 42.6594 19.8957 42.51C20.8344 42.3607 21.6664 42.0834 22.3917 41.678C23.1384 41.2727 23.7144 40.6967 24.1197 39.95C24.5464 39.182 24.7597 38.19 24.7597 36.974ZM23.0957 18.414C23.0957 16.6647 22.5411 15.406 21.4317 14.638C20.3437 13.8487 18.6477 13.454 16.3437 13.454H13.1117V23.726H16.6637C18.9251 23.726 20.5571 23.31 21.5597 22.478C22.5837 21.646 23.0957 20.2914 23.0957 18.414ZM35.5757 37.39C35.5757 39.95 35.0851 42.0727 34.1037 43.758C33.1224 45.4434 31.7784 46.766 30.0717 47.726C28.3651 48.686 26.4131 49.3687 24.2157 49.774C22.0397 50.1794 19.7464 50.382 17.3357 50.382H2.61572V6.03004H16.6637C18.9464 6.03004 21.1011 6.22204 23.1277 6.60604C25.1757 6.96871 26.9891 7.58738 28.5677 8.46204C30.1464 9.31538 31.3837 10.478 32.2797 11.95C33.1971 13.4007 33.6557 15.2034 33.6557 17.358C33.6557 19.1287 33.2824 20.6647 32.5357 21.966C31.7891 23.246 30.7971 24.302 29.5597 25.134C28.3224 25.9447 26.9784 26.5314 25.5277 26.894C27.1064 27.15 28.6637 27.6514 30.1997 28.398C31.7571 29.1234 33.0371 30.2114 34.0397 31.662C35.0637 33.1127 35.5757 35.022 35.5757 37.39ZM59.6147 2.89404V39.694C59.6147 41.0594 59.9987 42.0407 60.7667 42.638C61.5561 43.214 62.6334 43.502 63.9987 43.502C64.8734 43.502 65.7161 43.406 66.5267 43.214C67.3374 43.0007 68.0947 42.7554 68.7987 42.478L71.2307 49.23C70.0787 49.8274 68.6921 50.35 67.0707 50.798C65.4494 51.246 63.5614 51.47 61.4067 51.47C57.3107 51.47 54.3027 50.2967 52.3827 47.95C50.4627 45.582 49.5027 42.414 49.5027 38.446V9.80605H39.4867V2.89404H59.6147ZM94.9817 15.278C98.4804 15.278 101.456 16.0247 103.91 17.518C106.363 19.0114 108.24 21.1127 109.542 23.822C110.843 26.51 111.494 29.6674 111.494 33.294C111.494 37.07 110.832 40.3234 109.51 43.054C108.208 45.7634 106.331 47.8434 103.878 49.294C101.424 50.7447 98.4591 51.47 94.9817 51.47C91.5257 51.47 88.5604 50.7554 86.0857 49.326C83.6324 47.8967 81.7444 45.8274 80.4217 43.118C79.1204 40.4087 78.4697 37.1554 78.4697 33.358C78.4697 29.7527 79.1204 26.5954 80.4217 23.886C81.7444 21.1767 83.6324 19.0647 86.0857 17.55C88.5604 16.0354 91.5257 15.278 94.9817 15.278ZM94.9817 22.734C92.9124 22.734 91.3764 23.5874 90.3737 25.294C89.3924 26.9794 88.9017 29.6674 88.9017 33.358C88.9017 37.1127 89.3924 39.8327 90.3737 41.518C91.3764 43.2034 92.9124 44.046 94.9817 44.046C97.0511 44.046 98.5764 43.2034 99.5577 41.518C100.56 39.8327 101.062 37.0914 101.062 33.294C101.062 29.6247 100.56 26.9474 99.5577 25.262C98.5764 23.5767 97.0511 22.734 94.9817 22.734ZM148.813 10.958L151.181 18.382C149.986 18.8514 148.589 19.1927 146.989 19.406C145.389 19.6194 143.522 19.726 141.389 19.726C143.522 20.6434 145.143 21.7847 146.253 23.15C147.383 24.494 147.949 26.2647 147.949 28.462C147.949 30.6594 147.362 32.622 146.189 34.35C145.015 36.0567 143.351 37.4007 141.197 38.382C139.042 39.3634 136.493 39.854 133.549 39.854C132.823 39.854 132.141 39.822 131.501 39.758C130.861 39.694 130.231 39.598 129.613 39.47C129.25 39.662 128.973 39.9394 128.781 40.302C128.589 40.6647 128.493 41.038 128.493 41.422C128.493 41.9554 128.706 42.4354 129.133 42.862C129.581 43.2887 130.615 43.502 132.237 43.502H137.805C140.45 43.502 142.733 43.9287 144.653 44.782C146.594 45.6354 148.098 46.798 149.165 48.27C150.231 49.742 150.765 51.4274 150.765 53.326C150.765 56.8034 149.239 59.5447 146.189 61.55C143.138 63.5554 138.605 64.558 132.589 64.558C128.237 64.558 124.866 64.11 122.477 63.214C120.109 62.3394 118.455 61.0807 117.517 59.438C116.599 57.8167 116.141 55.886 116.141 53.646H125.101C125.101 54.6274 125.293 55.4274 125.677 56.046C126.082 56.686 126.839 57.1554 127.949 57.454C129.079 57.7527 130.711 57.902 132.845 57.902C134.999 57.902 136.642 57.7314 137.773 57.39C138.903 57.0487 139.671 56.5794 140.077 55.982C140.503 55.406 140.717 54.7554 140.717 54.03C140.717 53.0274 140.322 52.2167 139.533 51.598C138.743 50.9794 137.495 50.67 135.789 50.67H130.381C126.711 50.67 124.045 49.998 122.381 48.654C120.717 47.2887 119.885 45.6994 119.885 43.886C119.885 42.6274 120.215 41.4327 120.877 40.302C121.559 39.1714 122.509 38.222 123.725 37.454C121.549 36.302 119.991 34.9474 119.053 33.39C118.114 31.8114 117.645 29.9234 117.645 27.726C117.645 25.166 118.295 22.9687 119.597 21.134C120.898 19.278 122.69 17.8487 124.973 16.846C127.277 15.8434 129.901 15.342 132.845 15.342C135.383 15.3847 137.591 15.214 139.469 14.83C141.346 14.4247 143.031 13.8807 144.525 13.198C146.018 12.494 147.447 11.7474 148.813 10.958ZM133.101 21.902C131.501 21.902 130.231 22.414 129.293 23.438C128.354 24.4407 127.885 25.8274 127.885 27.598C127.885 29.4754 128.365 30.9154 129.325 31.918C130.285 32.9207 131.543 33.422 133.101 33.422C134.786 33.422 136.066 32.9207 136.941 31.918C137.837 30.9154 138.285 29.4327 138.285 27.47C138.285 25.5714 137.847 24.174 136.973 23.278C136.098 22.3607 134.807 21.902 133.101 21.902ZM216.987 20.494C216.987 18.9154 216.688 17.614 216.091 16.59C215.515 15.5447 214.629 14.7767 213.435 14.286C212.261 13.774 210.779 13.518 208.987 13.518H205.403V28.014H209.531C211.088 28.014 212.421 27.7474 213.531 27.214C214.64 26.6807 215.493 25.8594 216.091 24.75C216.688 23.6407 216.987 22.222 216.987 20.494ZM227.803 20.462C227.803 23.8967 227.067 26.734 225.595 28.974C224.123 31.214 222.064 32.8887 219.419 33.998C216.773 35.086 213.701 35.63 210.203 35.63H205.403V50.382H194.907V6.03004H208.859C214.875 6.03004 219.536 7.22471 222.843 9.61404C226.149 12.0034 227.803 15.6194 227.803 20.462ZM248.482 15.278C251.98 15.278 254.956 16.0247 257.41 17.518C259.863 19.0114 261.74 21.1127 263.042 23.822C264.343 26.51 264.994 29.6674 264.994 33.294C264.994 37.07 264.332 40.3234 263.01 43.054C261.708 45.7634 259.831 47.8434 257.378 49.294C254.924 50.7447 251.959 51.47 248.482 51.47C245.026 51.47 242.06 50.7554 239.586 49.326C237.132 47.8967 235.244 45.8274 233.922 43.118C232.62 40.4087 231.97 37.1554 231.97 33.358C231.97 29.7527 232.62 26.5954 233.922 23.886C235.244 21.1767 237.132 19.0647 239.586 17.55C242.06 16.0354 245.026 15.278 248.482 15.278ZM248.482 22.734C246.412 22.734 244.876 23.5874 243.874 25.294C242.892 26.9794 242.402 29.6674 242.402 33.358C242.402 37.1127 242.892 39.8327 243.874 41.518C244.876 43.2034 246.412 44.046 248.482 44.046C250.551 44.046 252.076 43.2034 253.058 41.518C254.06 39.8327 254.562 37.0914 254.562 33.294C254.562 29.6247 254.06 26.9474 253.058 25.262C252.076 23.5767 250.551 22.734 248.482 22.734ZM285.769 44.238C287.454 44.238 288.809 43.9714 289.833 43.438C290.878 42.9047 291.401 42.1047 291.401 41.038C291.401 40.3127 291.198 39.7047 290.793 39.214C290.387 38.7234 289.609 38.254 288.457 37.806C287.305 37.358 285.598 36.8247 283.337 36.206C281.267 35.6514 279.433 34.9474 277.833 34.094C276.254 33.2407 275.017 32.142 274.121 30.798C273.246 29.454 272.809 27.7794 272.809 25.774C272.809 23.7474 273.374 21.9447 274.505 20.366C275.635 18.7874 277.299 17.55 279.497 16.654C281.694 15.7367 284.382 15.278 287.561 15.278C290.59 15.278 293.225 15.6727 295.465 16.462C297.726 17.23 299.678 18.2114 301.321 19.406L297.289 25.358C295.881 24.4834 294.366 23.79 292.745 23.278C291.123 22.7447 289.491 22.478 287.849 22.478C286.206 22.478 284.979 22.702 284.169 23.15C283.379 23.5767 282.985 24.2274 282.985 25.102C282.985 25.678 283.187 26.1794 283.593 26.606C284.019 27.0114 284.809 27.438 285.961 27.886C287.113 28.3127 288.798 28.846 291.017 29.486C293.214 30.1047 295.123 30.8194 296.745 31.63C298.387 32.4407 299.657 33.5287 300.553 34.894C301.449 36.238 301.897 38.0194 301.897 40.238C301.897 42.7127 301.161 44.7927 299.689 46.478C298.217 48.142 296.265 49.39 293.833 50.222C291.401 51.054 288.734 51.47 285.833 51.47C282.547 51.47 279.646 51.0007 277.129 50.062C274.611 49.1234 272.467 47.886 270.697 46.35L275.785 40.654C277.107 41.678 278.601 42.5314 280.265 43.214C281.95 43.8967 283.785 44.238 285.769 44.238ZM341.104 48.398C339.781 49.2514 338.181 49.9767 336.304 50.574C334.426 51.1714 332.314 51.47 329.968 51.47C325.53 51.47 322.234 50.3394 320.08 48.078C317.925 45.7954 316.848 42.702 316.848 38.798V23.374H309.712V16.398H316.848V9.03804L326.96 7.82204V16.398H337.904L336.912 23.374H326.96V38.798C326.96 40.4834 327.344 41.6887 328.112 42.414C328.88 43.1394 330.106 43.502 331.792 43.502C332.986 43.502 334.074 43.3634 335.056 43.086C336.058 42.7874 336.954 42.414 337.744 41.966L341.104 48.398ZM362.519 44.238C364.204 44.238 365.559 43.9714 366.583 43.438C367.628 42.9047 368.151 42.1047 368.151 41.038C368.151 40.3127 367.948 39.7047 367.543 39.214C367.137 38.7234 366.359 38.254 365.207 37.806C364.055 37.358 362.348 36.8247 360.087 36.206C358.017 35.6514 356.183 34.9474 354.583 34.094C353.004 33.2407 351.767 32.142 350.871 30.798C349.996 29.454 349.559 27.7794 349.559 25.774C349.559 23.7474 350.124 21.9447 351.255 20.366C352.385 18.7874 354.049 17.55 356.247 16.654C358.444 15.7367 361.132 15.278 364.311 15.278C367.34 15.278 369.975 15.6727 372.215 16.462C374.476 17.23 376.428 18.2114 378.071 19.406L374.039 25.358C372.631 24.4834 371.116 23.79 369.495 23.278C367.873 22.7447 366.241 22.478 364.599 22.478C362.956 22.478 361.729 22.702 360.919 23.15C360.129 23.5767 359.735 24.2274 359.735 25.102C359.735 25.678 359.937 26.1794 360.343 26.606C360.769 27.0114 361.559 27.438 362.711 27.886C363.863 28.3127 365.548 28.846 367.767 29.486C369.964 30.1047 371.873 30.8194 373.495 31.63C375.137 32.4407 376.407 33.5287 377.303 34.894C378.199 36.238 378.647 38.0194 378.647 40.238C378.647 42.7127 377.911 44.7927 376.439 46.478C374.967 48.142 373.015 49.39 370.583 50.222C368.151 51.054 365.484 51.47 362.583 51.47C359.297 51.47 356.396 51.0007 353.879 50.062C351.361 49.1234 349.217 47.886 347.447 46.35L352.535 40.654C353.857 41.678 355.351 42.5314 357.015 43.214C358.7 43.8967 360.535 44.238 362.519 44.238Z" stroke="#222222" stroke-width="4" mask="url(#path-2-outside-1_42_46)"/>
</svg>
