<svg width="73" height="101" viewBox="0 0 73 101" fill="none" xmlns="http://www.w3.org/2000/svg">
<path d="M0.10486 80.6866L12.4134 1.92578C12.5638 0.959847 13.3151 0.198395 14.2789 0.0346592C15.2427 -0.129076 16.2031 0.341987 16.6639 1.20408L29.3931 24.9459L34.4669 15.2855C34.8598 14.5385 35.6345 14.0708 36.4786 14.0708C37.3227 14.0708 38.0972 14.5385 38.4903 15.2855L72.8416 80.6865L0.10486 80.6866Z" fill="#FFA000"/>
<path d="M42.6277 50.0063L29.3873 24.9346L0.10486 80.6866L42.6277 50.0063Z" fill="#F57C00"/>
<path d="M72.8416 80.6865L63.4148 22.349C63.2723 21.5113 62.6745 20.8231 61.8648 20.5637C61.0551 20.3043 60.169 20.5202 59.5677 21.1208L0.104938 80.6858L33.0072 99.1372C35.0733 100.291 37.5896 100.291 39.6558 99.1372L72.8422 80.6858L72.8416 80.6865Z" fill="#FFCA28"/>
<path d="M63.4148 22.349C63.2723 21.5113 62.6745 20.8231 61.8648 20.5637C61.0551 20.3043 60.169 20.5202 59.5677 21.1208L47.7656 32.9528L38.4851 15.2851C38.0922 14.5381 37.3176 14.0704 36.4735 14.0704C35.6294 14.0704 34.8548 14.5381 34.4618 15.2851L29.388 24.9455L16.6582 1.20408C16.1966 0.341758 15.235 -0.128542 14.2701 0.0364138C13.3052 0.20137 12.5564 0.964731 12.4077 1.93142L0.10486 80.6866H0.0651855L0.10486 80.7321L0.428745 80.8912L59.5504 21.7012C60.1514 21.0973 61.0398 20.8802 61.8516 21.1389C62.6634 21.3975 63.2623 22.0884 63.4033 22.9286L72.7512 80.7433L72.8422 80.6858L63.4148 22.349ZM0.212822 80.5787L12.4134 2.4884C12.562 1.5217 13.3125 0.758344 14.2766 0.593388C15.2407 0.428432 16.2023 0.89858 16.6647 1.76105L29.3931 25.5029L34.4669 15.8424C34.8598 15.0955 35.6345 14.6278 36.4786 14.6278C37.3227 14.6278 38.0972 15.0955 38.4903 15.8424L47.5824 33.1346L0.212822 80.5787Z" fill="white" fill-opacity="0.2"/>
<path d="M39.6558 98.5812C37.5896 99.7348 35.0733 99.7348 33.0072 98.5812L0.184439 80.181L0.10486 80.6866L33.0071 99.1326C35.0733 100.286 37.5896 100.286 39.6557 99.1326L72.8416 80.6865L72.7569 80.1641L39.6558 98.5812Z" fill="#A52714"/>
<path d="M63.3205 22.3611C63.1786 21.5236 62.5827 20.8351 61.7759 20.5773C60.9691 20.3194 60.0861 20.5338 59.4868 21.1342L47.7254 32.9602L38.4781 15.3007C38.0865 14.5541 37.3146 14.0865 36.4735 14.0865C35.6325 14.0865 34.8606 14.5541 34.469 15.3007L29.4122 24.957L16.7277 1.22536C16.2676 0.363427 15.3094 -0.106797 14.3487 0.0582351C13.3879 0.223267 12.6401 0.986018 12.492 1.95248L0.232049 80.6731L33.0193 99.1108C35.0782 100.264 37.5857 100.264 39.6447 99.1108L72.715 80.6731L63.3205 22.3611Z" fill="url(#paint0_linear_23_79)"/>
<defs>
<linearGradient id="paint0_linear_23_79" x1="-2.29757" y1="17.037" x2="88.1547" y2="64.7495" gradientUnits="userSpaceOnUse">
<stop stop-color="white" stop-opacity="0.1"/>
<stop offset="0.14" stop-color="white" stop-opacity="0.08"/>
<stop offset="0.61" stop-color="white" stop-opacity="0.02"/>
<stop offset="1" stop-color="white" stop-opacity="0"/>
</linearGradient>
</defs>
</svg>
