<svg width="72" height="101" viewBox="0 0 72 101" fill="none" xmlns="http://www.w3.org/2000/svg">
<path d="M6.80737 0.550781H11.2996V5.00391H15.4402V0.550781H19.9324V14.0273H15.4402V9.53516H11.3386V14.0273H6.80737V0.550781ZM25.8699 5.04297H21.905V0.550781H34.3464V5.04297H30.3621V14.0273H25.8699V5.04297ZM36.3191 0.550781H41.0261L43.9167 5.29688L46.8074 0.550781H51.5144V14.0273H47.0222V7.34766L43.8777 12.1914L40.7332 7.34766V14.0273H36.3191V0.550781ZM53.741 0.550781H58.2332V9.57422H64.6003V14.0273H53.741" fill="black"/>
<path d="M6.65112 92.543L0.205811 20.1992H71.0652L64.6199 92.5039L35.5769 100.551" fill="#E44D26"/>
<path d="M35.6355 94.3984V26.1367H64.6003L59.073 87.8555" fill="#F16529"/>
<path d="M13.3699 34.9844H35.6355V43.8516H23.0964L23.9167 52.9336H35.6355V61.7812H15.7917L13.3699 34.9844ZM16.1824 66.2344H25.0886L25.7136 73.3242L35.6355 75.9805V85.2383L17.4324 80.1602" fill="#EBEBEB"/>
<path d="M57.823 34.9844H35.5964V43.8516H57.0027L57.823 34.9844ZM56.2019 52.9336H35.5964V61.8008H46.5339L45.4988 73.3242L35.5964 75.9805V85.1992L53.7605 80.1602" fill="white"/>
</svg>
