<svg width="101" height="101" viewBox="0 0 101 101" fill="none" xmlns="http://www.w3.org/2000/svg">
<path d="M100.938 0.550781H0.937866V100.551H100.938V0.550781Z" fill="#F0DB4F"/>
<path d="M68.1125 78.6762C70.1268 81.9651 72.7474 84.3825 77.3823 84.3825C81.276 84.3825 83.7633 82.4365 83.7633 79.7476C83.7633 76.5254 81.2077 75.3841 76.922 73.5095L74.5728 72.5016C67.7918 69.6127 63.2871 65.9936 63.2871 58.3428C63.2871 51.2952 68.6569 45.9301 77.049 45.9301C83.0236 45.9301 87.3188 48.0095 90.4141 53.454L83.0966 58.1524C81.4855 55.2635 79.7474 54.1254 77.049 54.1254C74.2966 54.1254 72.5522 55.8714 72.5522 58.1524C72.5522 60.9714 74.2982 62.1127 78.3299 63.8587L80.6791 64.8651C88.6633 68.2889 93.1712 71.7794 93.1712 79.627C93.1712 88.0873 86.5252 92.7222 77.5998 92.7222C68.8728 92.7222 63.2347 88.5635 60.476 83.1127L68.1125 78.6762ZM34.9172 79.4905C36.3934 82.1095 37.7363 84.3238 40.9649 84.3238C44.0522 84.3238 45.9998 83.1159 45.9998 78.419V46.4667H55.3966V78.546C55.3966 88.2762 49.6918 92.7048 41.3649 92.7048C33.841 92.7048 29.4839 88.8111 27.268 84.1214L34.9172 79.4905Z" fill="#323330"/>
</svg>
