<svg width="113" height="101" viewBox="0 0 113 101" fill="none" xmlns="http://www.w3.org/2000/svg">
<path d="M65.3234 50.0505C65.3234 54.8809 61.4077 58.7966 56.5774 58.7966C51.7471 58.7966 47.8313 54.8809 47.8313 50.0505C47.8313 45.2202 51.7471 41.3045 56.5774 41.3045C61.4077 41.3045 65.3234 45.2202 65.3234 50.0505Z" fill="#61DAFB"/>
<path fill-rule="evenodd" clip-rule="evenodd" d="M103.76 54.3199C105.785 52.3546 106.183 50.9138 106.183 50.0505C106.183 49.1872 105.785 47.7464 103.76 45.7812C101.716 43.7964 98.4147 41.7068 93.801 39.8125C84.6051 36.0369 71.448 33.5499 56.5774 33.5499C41.7068 33.5499 28.5497 36.0369 19.3537 39.8125C14.7401 41.7068 11.4392 43.7964 9.39449 45.7812C7.36995 47.7464 6.97142 49.1872 6.97142 50.0505C6.97142 50.9138 7.36995 52.3546 9.39449 54.3199C11.4392 56.3047 14.7401 58.3943 19.3537 60.2885C28.5497 64.0642 41.7068 66.5512 56.5774 66.5512C71.448 66.5512 84.6051 64.0642 93.801 60.2885C98.4147 58.3943 101.716 56.3047 103.76 54.3199ZM56.5774 73.1107C87.5967 73.1107 112.743 62.7863 112.743 50.0505C112.743 37.3148 87.5967 26.9904 56.5774 26.9904C25.558 26.9904 0.411865 37.3148 0.411865 50.0505C0.411865 62.7863 25.558 73.1107 56.5774 73.1107Z" fill="#61DAFB"/>
<path fill-rule="evenodd" clip-rule="evenodd" d="M83.8662 11.3236C83.1765 8.5877 82.128 7.52217 81.3804 7.09052C80.6327 6.65887 79.1857 6.28361 76.4715 7.05429C73.7303 7.83263 70.2702 9.64649 66.3228 12.6949C58.4551 18.771 49.7227 28.9219 42.2874 41.8002C34.8521 54.6786 30.4274 67.3164 29.0992 77.1682C28.4328 82.1109 28.5921 86.0143 29.2886 88.7775C29.9783 91.5134 31.0268 92.5789 31.7744 93.0106C32.522 93.4422 33.9691 93.8175 36.6833 93.0468C39.4245 92.2684 42.8846 90.4546 46.8319 87.4062C54.6997 81.3301 63.432 71.1792 70.8673 58.3008C78.3027 45.4225 82.7274 32.7846 84.0556 22.9329C84.7219 17.9902 84.5627 14.0867 83.8662 11.3236ZM76.5481 61.5806C92.0578 34.7171 95.6897 7.77767 84.6601 1.40978C73.6306 -4.95812 52.1164 11.6569 36.6067 38.5204C21.097 65.384 17.4651 92.3234 28.4946 98.6913C39.5241 105.059 61.0384 88.4442 76.5481 61.5806Z" fill="#61DAFB"/>
<path fill-rule="evenodd" clip-rule="evenodd" d="M76.4715 93.0468C79.1857 93.8175 80.6327 93.4422 81.3803 93.0106C82.128 92.5789 83.1765 91.5134 83.8662 88.7775C84.5627 86.0143 84.7219 82.1109 84.0555 77.1682C82.7274 67.3164 78.3026 54.6786 70.8673 41.8002C63.432 28.9219 54.6997 18.771 46.8319 12.6949C42.8846 9.64649 39.4245 7.83264 36.6833 7.0543C33.9691 6.28361 32.522 6.65887 31.7744 7.09052C31.0268 7.52217 29.9783 8.58771 29.2886 11.3236C28.592 14.0867 28.4328 17.9902 29.0992 22.9329C30.4274 32.7846 34.8521 45.4225 42.2874 58.3009C49.7227 71.1792 58.4551 81.3301 66.3228 87.4062C70.2701 90.4546 73.7303 92.2684 76.4715 93.0468ZM36.6067 61.5806C52.1163 88.4442 73.6306 105.059 84.6601 98.6913C95.6896 92.3234 92.0577 65.384 76.5481 38.5205C61.0384 11.6569 39.5241 -4.95811 28.4946 1.40978C17.4651 7.77767 21.097 34.7171 36.6067 61.5806Z" fill="#61DAFB"/>
</svg>
