<svg width="134" height="101" viewBox="0 0 134 101" fill="none" xmlns="http://www.w3.org/2000/svg">
<path d="M115.145 57.4885C110.493 57.5129 106.45 58.6333 103.065 60.2895C101.823 57.8295 100.58 55.6375 100.361 54.03C100.118 52.1546 99.8254 51.0099 100.118 48.7692C100.41 46.5284 101.725 43.3378 101.701 43.0943C101.676 42.8507 101.408 41.706 98.7294 41.6816C96.0502 41.6573 93.7364 42.1931 93.4685 42.8994C93.2006 43.6057 92.6891 45.2132 92.3481 46.8694C91.8854 49.305 86.9899 58 84.1889 62.5545C83.2878 60.7766 82.5084 59.2178 82.3379 57.9757C82.0944 56.1003 81.8021 54.9555 82.0944 52.7148C82.3866 50.4741 83.7018 47.2835 83.6775 47.0399C83.6531 46.7963 83.3852 45.6516 80.7061 45.6273C78.0269 45.6029 75.7131 46.1387 75.4452 46.8451C75.1773 47.5514 74.885 49.2076 74.3248 50.8151C73.7647 52.4225 67.2617 66.9386 65.5568 70.6894C64.68 72.6135 63.9249 74.1479 63.3891 75.1952C63.3891 75.1952 63.3647 75.2683 63.2917 75.39C62.8289 76.2912 62.561 76.7783 62.561 76.7783C62.561 76.7783 62.561 76.7783 62.561 76.8027C62.1957 77.4603 61.806 78.0692 61.6111 78.0692C61.465 78.0692 61.1971 76.3156 61.6598 73.9287C62.6341 68.887 64.9479 61.0445 64.9235 60.7766C64.9235 60.6304 65.3619 59.2665 63.4135 58.5602C61.5137 57.8539 60.8317 59.023 60.6612 59.023C60.4908 59.023 60.369 59.437 60.369 59.437C60.369 59.437 62.4879 50.6202 56.3259 50.6202C52.4777 50.6202 47.1681 54.8338 44.5377 58.6333C42.8815 59.5344 39.3499 61.4585 35.5748 63.5288C34.1378 64.3325 32.6521 65.1363 31.2638 65.8913C31.1664 65.7939 31.069 65.6721 30.9715 65.5747C23.5187 57.6103 9.73328 51.9841 10.3178 41.2919C10.537 37.395 11.8766 27.1656 36.7926 14.7441C57.3001 4.63647 73.6185 7.43738 76.4438 13.6481C80.4869 22.5136 67.7001 38.9781 46.5105 41.365C38.4244 42.2662 34.1865 39.1486 33.1148 37.9795C31.9945 36.7618 31.824 36.6887 31.4099 36.9323C30.728 37.2976 31.1664 38.3936 31.4099 39.0268C32.0432 40.683 34.6493 43.6057 39.0577 45.0427C42.9546 46.3092 52.429 47.0156 63.9006 42.5828C76.7361 37.6142 86.7707 23.8045 83.8236 12.2355C80.8766 0.495981 61.3919 -3.37659 42.9546 3.17512C31.9945 7.07205 20.1089 13.2097 11.56 21.1984C1.4036 30.6972 -0.20388 38.9538 0.453726 42.4123C2.81624 54.6876 19.7435 62.6763 26.5144 68.5948C26.1734 68.7896 25.8568 68.9601 25.5889 69.1063C22.2035 70.7868 9.29488 77.5334 6.07992 84.6696C2.42655 92.7557 6.66445 98.5524 9.46537 99.3318C18.1604 101.743 27.099 97.4077 31.8971 90.2471C36.6951 83.0865 36.1106 73.7826 33.8942 69.5203C33.8699 69.4716 33.8455 69.4229 33.7968 69.3742C34.6736 68.8627 35.5748 68.3269 36.4516 67.8154C38.1809 66.7924 39.8858 65.8426 41.3471 65.0632C40.519 67.3283 39.9101 70.0318 39.6178 73.9287C39.2525 78.5076 41.1279 84.4504 43.5878 86.7886C44.6838 87.8115 45.9747 87.8359 46.8028 87.8359C49.6768 87.8359 50.9676 85.449 52.4046 82.6237C54.1583 79.1652 55.7414 75.1465 55.7414 75.1465C55.7414 75.1465 53.7686 86.0092 59.1268 86.0092C61.0753 86.0092 63.0481 83.4762 63.9249 82.1853C63.9249 82.2097 63.9249 82.2097 63.9249 82.2097C63.9249 82.2097 63.9736 82.1366 64.0711 81.9661C64.2659 81.6495 64.3877 81.4546 64.3877 81.4546C64.3877 81.4546 64.3877 81.4303 64.3877 81.4059C65.1671 80.042 66.9207 76.9488 69.5268 71.8097C72.8879 65.185 76.1272 56.904 76.1272 56.904C76.1272 56.904 76.4194 58.9255 77.418 62.2866C78.0026 64.2595 79.2204 66.4271 80.1946 68.5217C79.4152 69.6177 78.9281 70.2266 78.9281 70.2266C78.9281 70.2266 78.9281 70.2266 78.9524 70.251C78.3192 71.0791 77.6372 71.9802 76.8822 72.857C74.2274 76.0233 71.0612 79.6523 70.6228 80.6996C70.1113 81.9417 70.2331 82.8429 71.2073 83.5736C71.9136 84.1094 73.1801 84.1825 74.471 84.1094C76.8578 83.9389 78.5384 83.3544 79.3665 82.9891C80.6574 82.5263 82.1674 81.82 83.58 80.7727C86.1861 78.8486 87.7692 76.0964 87.6231 72.4674C87.55 70.4702 86.8924 68.473 86.0887 66.5976C86.3323 66.2566 86.5515 65.9156 86.795 65.5747C90.9111 59.5588 94.1018 52.9584 94.1018 52.9584C94.1018 52.9584 94.394 54.9799 95.3926 58.341C95.8797 60.0459 96.8783 61.8969 97.7551 63.6993C93.8826 66.8412 91.4957 70.4945 90.6432 72.8814C89.1088 77.3142 90.3023 79.3113 92.5673 79.7741C93.5903 79.9933 95.0516 79.5062 96.1233 79.0434C97.4872 78.605 99.0947 77.85 100.629 76.7296C103.235 74.8055 105.744 72.1264 105.598 68.4974C105.525 66.8412 105.086 65.2093 104.477 63.6262C107.765 62.2623 112.003 61.5072 117.41 62.1405C129.004 63.5044 131.293 70.7381 130.855 73.7826C130.416 76.827 127.981 78.4832 127.177 78.9947C126.373 79.5062 126.105 79.6767 126.178 80.042C126.276 80.5778 126.665 80.5535 127.347 80.456C128.297 80.2856 133.436 77.9961 133.656 72.3943C134.021 65.2337 127.201 57.4155 115.145 57.4885ZM25.7107 87.641C21.8625 91.8302 16.5042 93.4133 14.1904 92.0738C11.7061 90.6368 12.6803 84.4504 17.4054 80.0176C20.2793 77.3142 23.9814 74.8055 26.4414 73.2711C27.0015 72.9301 27.8296 72.443 28.8282 71.8341C28.9987 71.7367 29.0961 71.688 29.0961 71.688C29.291 71.5662 29.4858 71.4444 29.6807 71.3226C31.4099 77.6551 29.7537 83.2326 25.7107 87.641ZM53.7198 68.5948C52.3803 71.8585 49.5794 80.2125 47.8745 79.7497C46.4131 79.36 45.5119 73.0275 47.5822 66.7681C48.6295 63.6262 50.8459 59.8754 52.1367 58.4141C54.2313 56.0759 56.5451 55.2965 57.1053 56.2464C57.8116 57.4885 54.5479 66.5489 53.7198 68.5948ZM76.8335 79.6523C76.2733 79.9446 75.7375 80.1394 75.4939 79.9933C75.3234 79.8959 75.7375 79.5062 75.7375 79.5062C75.7375 79.5062 78.6358 76.3886 79.7805 74.976C80.4382 74.1479 81.2175 73.1737 82.0456 72.0777C82.0456 72.1751 82.0456 72.2969 82.0456 72.3943C82.0456 76.1207 78.441 78.6294 76.8335 79.6523ZM94.6619 75.5849C94.2479 75.2926 94.321 74.3184 95.7092 71.2739C96.2451 70.0805 97.5116 68.0833 99.6792 66.1592C99.9228 66.9386 100.093 67.6936 100.069 68.3999C100.045 73.1006 96.6835 74.8542 94.6619 75.5849Z" fill="#CD6799"/>
</svg>
