<svg width="22" height="25" viewBox="0 0 22 25" fill="none" xmlns="http://www.w3.org/2000/svg">
<path d="M16.6243 6.32828C16.6243 9.53138 14.0276 12.128 10.8245 12.128C7.62144 12.128 5.02481 9.53138 5.02481 6.32828C5.02481 3.12519 7.62144 0.528564 10.8245 0.528564C14.0276 0.528564 16.6243 3.12519 16.6243 6.32828Z" fill="#EFEFEF"/>
<path d="M0.264648 23.5543C0.264648 17.7223 4.99245 12.9945 10.8245 12.9945C16.6565 12.9945 21.3843 17.7223 21.3843 23.5544V24.5286H0.264648V23.5543Z" fill="#EFEFEF"/>
<path fill-rule="evenodd" clip-rule="evenodd" d="M10.8245 11.628C13.7515 11.628 16.1243 9.25524 16.1243 6.32828C16.1243 3.40133 13.7515 1.02856 10.8245 1.02856C7.89758 1.02856 5.52481 3.40133 5.52481 6.32828C5.52481 9.25524 7.89758 11.628 10.8245 11.628ZM20.8843 24.0286V23.5544C20.8843 17.9985 16.3804 13.4945 10.8245 13.4945C5.26859 13.4945 0.764648 17.9985 0.764648 23.5543V24.0286H20.8843ZM10.8245 12.128C14.0276 12.128 16.6243 9.53138 16.6243 6.32828C16.6243 3.12519 14.0276 0.528564 10.8245 0.528564C7.62144 0.528564 5.02481 3.12519 5.02481 6.32828C5.02481 9.53138 7.62144 12.128 10.8245 12.128ZM10.8245 12.9945C4.99245 12.9945 0.264648 17.7223 0.264648 23.5543V24.5286H21.3843V23.5544C21.3843 17.7223 16.6565 12.9945 10.8245 12.9945Z" fill="#222222"/>
</svg>
