<svg width="25" height="25" viewBox="0 0 25 25" fill="none" xmlns="http://www.w3.org/2000/svg">
<path d="M1.57108 0.774322C1.22913 0.774322 0.951935 1.05152 0.951935 1.39347V17.8117C0.951935 18.1536 1.22914 18.4308 1.57108 18.4308H4.83334L2.47406 24.3671L7.64927 18.4308H24.0777C24.4197 18.4308 24.6969 18.1536 24.6969 17.8117V1.39347C24.6969 1.05152 24.4197 0.774322 24.0777 0.774322H1.57108Z" fill="#EFEFEF"/>
<path fill-rule="evenodd" clip-rule="evenodd" d="M1.57108 1.02008C1.36486 1.02008 1.19769 1.18725 1.19769 1.39347V17.8117C1.19769 18.0179 1.36486 18.185 1.57108 18.185H5.19547L3.23325 23.1222L7.53748 18.185H24.0777C24.284 18.185 24.4511 18.0179 24.4511 17.8117V1.39347C24.4511 1.18725 24.284 1.02008 24.0777 1.02008H1.57108ZM0.706177 1.39347C0.706177 0.915793 1.09341 0.528564 1.57108 0.528564H24.0777C24.5554 0.528564 24.9426 0.915794 24.9426 1.39347V17.8117C24.9426 18.2893 24.5554 18.6766 24.0777 18.6766H7.76106L2.65931 24.5286L2.24568 24.2763L4.47121 18.6766H1.57108C1.09341 18.6766 0.706177 18.2893 0.706177 17.8117V1.39347Z" fill="#222222"/>
</svg>
