<svg width="19" height="25" viewBox="0 0 19 25" fill="none" xmlns="http://www.w3.org/2000/svg">
<path d="M9.51312 1.00856C11.02 1.00856 12.2886 1.23702 13.3191 1.69393C14.3593 2.14112 15.2051 2.75844 15.8564 3.54588C16.5175 4.33332 17.023 5.24715 17.373 6.28735C17.7327 7.31783 17.9806 8.41636 18.1167 9.58294C18.2528 10.7398 18.3208 11.9161 18.3208 13.1119C18.3208 15.5617 18.2042 17.5983 17.9708 19.2218C17.7472 20.8356 17.3292 22.0411 16.7168 22.8382C16.1043 23.6451 15.2099 24.0486 14.0336 24.0486C13.4309 24.0486 12.9108 23.9027 12.4733 23.6111C12.0358 23.3195 11.6762 22.95 11.3942 22.5028C11.1123 22.0654 10.9082 21.6133 10.7818 21.1467C10.6554 20.6703 10.5971 20.2572 10.6068 19.9072H10.4901C10.3151 20.3544 10.0624 20.7967 9.73185 21.2342C9.41104 21.6619 8.98815 22.0168 8.46319 22.2987C7.93823 22.5903 7.28689 22.7362 6.50917 22.7362C5.44952 22.7362 4.59403 22.4494 3.94268 21.8758C3.30106 21.3022 2.83443 20.5099 2.54279 19.4989C2.25114 18.4879 2.10532 17.3407 2.10532 16.0575C2.10532 13.5202 2.61084 11.6342 3.62187 10.3996C4.63291 9.1552 6.03281 8.53302 7.82157 8.53302C8.50208 8.53302 9.15342 8.60593 9.7756 8.75175C10.3978 8.89758 11.1172 9.18922 11.9338 9.62669V18.2448C11.9338 19.2947 12.0261 20.0968 12.2108 20.6509C12.3955 21.1953 12.6434 21.5696 12.9545 21.7737C13.2656 21.9779 13.6107 22.08 13.9899 22.08C14.4468 22.08 14.8016 21.8515 15.0544 21.3946C15.3071 20.9377 15.487 20.3009 15.5939 19.4843C15.7009 18.6677 15.7641 17.7199 15.7835 16.6408C15.8029 15.552 15.8127 14.3854 15.8127 13.141C15.8127 11.7508 15.7349 10.453 15.5793 9.24755C15.4238 8.03236 15.1273 6.96785 14.6898 6.05403C14.2524 5.14021 13.6205 4.42568 12.7941 3.91044C11.9678 3.3952 10.8838 3.13758 9.54228 3.13758C8.59929 3.13758 7.56881 3.31256 6.45084 3.66254C5.34258 4.00279 4.16628 4.72218 2.92193 5.82072L1.52203 4.1875C2.82471 3.05008 4.15656 2.23834 5.51757 1.75226C6.8883 1.25646 8.22015 1.00856 9.51312 1.00856ZM7.93823 10.3412C6.60638 10.3412 5.69742 10.8224 5.21134 11.7849C4.72527 12.7473 4.48223 14.1715 4.48223 16.0575C4.48223 17.0102 4.55028 17.8511 4.68638 18.5802C4.8322 19.2996 5.07524 19.8683 5.41549 20.2863C5.75575 20.6946 6.21752 20.8988 6.80081 20.8988C7.48132 20.8988 8.016 20.7432 8.40486 20.4322C8.80344 20.1211 9.10481 19.7662 9.30896 19.3677C9.52284 18.9593 9.6881 18.6142 9.80476 18.3323V10.7787C9.50339 10.6231 9.20203 10.5113 8.90066 10.4433C8.60901 10.3752 8.2882 10.3412 7.93823 10.3412Z" fill="#EFEFEF"/>
<path fill-rule="evenodd" clip-rule="evenodd" d="M1.8881 3.87705C3.07395 2.90116 4.28379 2.1929 5.51757 1.75226C6.8883 1.25646 8.22015 1.00856 9.51312 1.00856C11.02 1.00856 12.2886 1.23702 13.3191 1.69393C14.3593 2.14112 15.2051 2.75844 15.8564 3.54588C16.5175 4.33332 17.023 5.24715 17.373 6.28735C17.7327 7.31783 17.9806 8.41636 18.1167 9.58294C18.2528 10.7398 18.3208 11.9161 18.3208 13.1119C18.3208 15.5617 18.2042 17.5983 17.9708 19.2218C17.7472 20.8356 17.3292 22.0411 16.7168 22.8382C16.1043 23.6451 15.2099 24.0486 14.0336 24.0486C13.4309 24.0486 12.9108 23.9027 12.4733 23.6111C12.0358 23.3195 11.6762 22.95 11.3942 22.5028C11.1123 22.0654 10.9082 21.6133 10.7818 21.1467C10.7363 20.9753 10.6996 20.8121 10.6718 20.6571C10.6333 20.4428 10.6116 20.2441 10.6068 20.0611C10.6058 20.0242 10.6055 19.9881 10.6059 19.9525C10.6061 19.9373 10.6064 19.9222 10.6068 19.9072H10.4901C10.4031 20.1296 10.2969 20.3507 10.1714 20.5707C10.0445 20.7931 9.89803 21.0142 9.73185 21.2342C9.41104 21.6619 8.98815 22.0168 8.46319 22.2987C7.93823 22.5903 7.28689 22.7362 6.50917 22.7362C5.44952 22.7362 4.59403 22.4494 3.94268 21.8758C3.30106 21.3022 2.83443 20.5099 2.54279 19.4989C2.25114 18.4879 2.10532 17.3407 2.10532 16.0575C2.10532 13.5202 2.61084 11.6342 3.62187 10.3996C4.63291 9.1552 6.03281 8.53302 7.82157 8.53302C8.50208 8.53302 9.15342 8.60593 9.7756 8.75175C10.3978 8.89758 11.1172 9.18922 11.9338 9.62669V18.2448C11.9338 19.2947 12.0261 20.0968 12.2108 20.6509C12.3955 21.1953 12.6434 21.5696 12.9545 21.7737C13.2656 21.9779 13.6107 22.08 13.9899 22.08C14.4468 22.08 14.8016 21.8515 15.0544 21.3946C15.3071 20.9377 15.487 20.3009 15.5939 19.4843C15.7009 18.6677 15.7641 17.7199 15.7835 16.6408C15.8029 15.552 15.8127 14.3854 15.8127 13.141C15.8127 11.7508 15.7349 10.453 15.5793 9.24755C15.4238 8.03236 15.1273 6.96785 14.6898 6.05403C14.2524 5.14021 13.6205 4.42568 12.7941 3.91044C11.9678 3.3952 10.8838 3.13758 9.54228 3.13758C8.59929 3.13758 7.56881 3.31256 6.45084 3.66254C5.45134 3.9694 4.39647 4.58464 3.28628 5.50826C3.16547 5.60876 3.04404 5.71291 2.92193 5.82072L1.52203 4.1875C1.59941 4.11993 1.67688 4.05351 1.75448 3.98824C1.79898 3.9508 1.84352 3.91374 1.8881 3.87705ZM15.3035 16.6321C15.3229 15.5466 15.3326 14.3829 15.3326 13.141C15.3326 11.7685 15.2558 10.4914 15.1033 9.30898L15.1032 9.30849C14.9528 8.1338 14.6682 7.12047 14.2569 6.26129C13.8571 5.42632 13.2858 4.78267 12.5401 4.31775C11.8136 3.86474 10.8267 3.61758 9.54226 3.61758C8.65802 3.61758 7.67653 3.78181 6.59421 4.12062L6.59169 4.12141C5.5706 4.4349 4.45319 5.10916 3.23957 6.18056L2.87443 6.5029L0.848022 4.13875L1.2063 3.82593C2.5453 2.6568 3.92792 1.81044 5.35519 1.30055C6.77135 0.788425 8.15813 0.528564 9.51309 0.528564C11.0644 0.528564 12.403 0.763199 13.5112 1.25403C14.6119 1.72767 15.5209 2.38764 16.2251 3.23856C16.9262 4.07398 17.4594 5.04007 17.827 6.13157C18.1986 7.19698 18.4536 8.32932 18.5934 9.52732M18.5934 9.52732C18.7317 10.7031 18.8008 11.898 18.8008 13.1119C18.8008 15.574 18.6837 17.635 18.4461 19.289C18.2175 20.9381 17.783 22.2377 17.0982 23.1296C16.3796 24.0755 15.3321 24.5286 14.0336 24.5286C13.3504 24.5286 12.7344 24.3621 12.207 24.0105C11.7137 23.6816 11.3069 23.2639 10.9894 22.7608C10.6835 22.2856 10.4585 21.7892 10.3184 21.2722L10.3178 21.2698C10.316 21.2628 10.3141 21.2559 10.3123 21.249C10.2496 21.3408 10.1839 21.4321 10.1153 21.5229C9.74876 22.0114 9.27102 22.4092 8.69327 22.72C8.0796 23.0601 7.34364 23.2162 6.50914 23.2162C5.35966 23.2162 4.38274 22.9029 3.62544 22.236L3.62275 22.2337C2.90024 21.5878 2.39264 20.7103 2.08157 19.6319C1.77507 18.5694 1.62529 17.3762 1.62529 16.0575C1.62529 13.4711 2.13807 11.4544 3.2499 10.0961C4.36335 8.72618 5.90752 8.05302 7.82155 8.05302C8.53655 8.05302 9.22478 8.12965 9.8851 8.28442C10.5619 8.44303 11.3219 8.75435 12.1604 9.20358L12.4137 9.33929V18.2448C12.4137 19.2764 12.5057 20.0169 12.6657 20.4978C12.8337 20.9922 13.0336 21.2515 13.2179 21.3724C13.4492 21.5242 13.7024 21.6 13.9898 21.6C14.2439 21.6 14.4515 21.4927 14.6343 21.1622C14.8461 20.7795 15.0148 20.2094 15.118 19.422C15.222 18.6277 15.2843 17.6984 15.3035 16.6321M8.10951 20.0538C8.46017 19.7801 8.71328 19.4777 8.88172 19.1488L8.88372 19.1449C9.07156 18.7863 9.21787 18.4837 9.32474 18.2352V11.0833C9.1457 11.0078 8.96913 10.9508 8.79491 10.9115L8.79156 10.9108C8.54107 10.8523 8.25745 10.8212 7.9382 10.8212C6.73636 10.8212 6.02346 11.2416 5.63977 12.0013C5.20418 12.8637 4.9622 14.1983 4.9622 16.0575C4.9622 16.9869 5.02857 17.796 5.15752 18.4885C5.293 19.1547 5.5106 19.6419 5.78599 19.9812C6.02524 20.2671 6.34534 20.4188 6.80079 20.4188C7.41194 20.4188 7.82774 20.2791 8.10498 20.0573L8.10951 20.0538ZM4.68638 18.5802C4.55028 17.8511 4.48223 17.0102 4.48223 16.0575C4.48223 14.1715 4.72527 12.7473 5.21134 11.7849C5.69742 10.8224 6.60638 10.3412 7.93823 10.3412C8.2882 10.3412 8.60901 10.3752 8.90066 10.4433C9.20203 10.5113 9.50339 10.6231 9.80476 10.7787V18.3323C9.6881 18.6142 9.52284 18.9593 9.30896 19.3677C9.10481 19.7662 8.80344 20.1211 8.40486 20.4322C8.016 20.7432 7.48132 20.8988 6.80081 20.8988C6.21752 20.8988 5.75575 20.6946 5.41549 20.2863C5.07524 19.8683 4.8322 19.2996 4.68638 18.5802Z" fill="#222222"/>
</svg>
