<svg width="17" height="25" viewBox="0 0 17 25" fill="none" xmlns="http://www.w3.org/2000/svg">
<path d="M5.72139 21.315C5.4367 21.315 5.19701 21.105 5.15383 20.8236C4.82217 18.6619 3.92441 14.7783 2.44116 13.2951C1.34566 12.1995 1.00218 10.7108 0.959686 9.55112C0.911252 9.19656 0.88623 8.83455 0.88623 8.4667C0.88623 4.08259 4.44025 0.528564 8.82436 0.528564C13.2085 0.528564 16.7625 4.08259 16.7625 8.4667C16.7625 8.61239 16.7586 8.75717 16.7508 8.90093C16.8226 10.1 16.5908 11.9806 15.2763 13.2951C13.7931 14.7783 12.8953 18.6619 12.5637 20.8236C12.5205 21.105 12.2808 21.315 11.9961 21.315H5.72139Z" fill="#EFEFEF"/>
<path d="M5.58434 21.3149H12.1751C12.1751 21.5996 12.0867 21.8637 11.9359 22.0811C11.912 22.8034 11.319 23.3817 10.5908 23.3817H10.4815C10.3854 24.0306 9.826 24.5286 9.15031 24.5286H8.60911C7.93342 24.5286 7.37403 24.0306 7.27791 23.3817H7.16862C6.44049 23.3817 5.84744 22.8034 5.82359 22.0811C5.67276 21.8636 5.58434 21.5996 5.58434 21.3149Z" fill="#EFEFEF"/>
<path fill-rule="evenodd" clip-rule="evenodd" d="M1.45844 9.50803L1.45935 9.53281C1.49939 10.6255 1.82301 11.9698 2.79472 12.9415C3.62841 13.7752 4.25238 15.2201 4.70605 16.6541C5.16702 18.1111 5.47941 19.6486 5.64805 20.7477C5.65449 20.7897 5.68773 20.8141 5.71974 20.8149H11.9977C12.0298 20.8141 12.063 20.7897 12.0694 20.7477C12.2381 19.6486 12.5505 18.1111 13.0114 16.6541C13.4651 15.2201 14.0891 13.7752 14.9228 12.9415C16.0914 11.7729 16.3196 10.0657 16.2517 8.9308L16.25 8.90241L16.2515 8.87401C16.2588 8.73921 16.2625 8.60341 16.2625 8.4667C16.2625 4.35873 12.9323 1.02856 8.82436 1.02856C4.7164 1.02856 1.38623 4.35873 1.38623 8.4667C1.38623 8.81185 1.40971 9.15126 1.45509 9.48345L1.45844 9.50803ZM12.565 20.8149C12.5645 20.8178 12.5641 20.8207 12.5637 20.8236C12.5299 21.0433 12.3764 21.2195 12.1751 21.2862C12.1201 21.3044 12.0616 21.3144 12.001 21.3149H12.1751C12.1751 21.4904 12.1415 21.658 12.0805 21.8117C12.08 21.8128 12.0796 21.8139 12.0792 21.8149C12.0413 21.9094 11.9931 21.9986 11.9359 22.0811C11.912 22.8034 11.319 23.3817 10.5908 23.3817H10.4815C10.3854 24.0306 9.826 24.5286 9.15031 24.5286H8.60911C7.93342 24.5286 7.37403 24.0306 7.27791 23.3817H7.16862C6.44049 23.3817 5.84744 22.8034 5.82359 22.0811C5.76638 21.9986 5.71815 21.9094 5.68031 21.8149C5.68021 21.8147 5.68011 21.8144 5.68001 21.8142C5.61829 21.6598 5.58434 21.4913 5.58434 21.3149H5.71647C5.67105 21.3146 5.6268 21.3088 5.58434 21.2983C5.3627 21.2434 5.18986 21.0584 5.15383 20.8236C5.15339 20.8207 5.15295 20.8178 5.15251 20.8149C4.81978 18.6516 3.92244 14.7763 2.44116 13.2951C1.34566 12.1995 1.00218 10.7108 0.959686 9.55112C0.911252 9.19656 0.88623 8.83455 0.88623 8.4667C0.88623 4.08259 4.44025 0.528564 8.82436 0.528564C13.2085 0.528564 16.7625 4.08259 16.7625 8.4667C16.7625 8.61239 16.7586 8.75717 16.7508 8.90093C16.8226 10.1 16.5908 11.9806 15.2763 13.2951C13.7951 14.7763 12.8977 18.6516 12.565 20.8149ZM11.5119 21.815H6.24751L6.31846 21.9173L6.32332 22.0646C6.3383 22.5182 6.71112 22.8817 7.16862 22.8817H7.70931L7.77251 23.3084C7.83286 23.7158 8.18489 24.0286 8.60911 24.0286H9.15031C9.57453 24.0286 9.92656 23.7158 9.98691 23.3084L10.0501 22.8817H10.5908C11.0483 22.8817 11.4212 22.5182 11.4361 22.0646L11.441 21.9172L11.5119 21.815Z" fill="#222222"/>
</svg>
