<svg width="383" height="52" viewBox="0 0 383 52" fill="none" xmlns="http://www.w3.org/2000/svg">
<path d="M23.881 4.26587C27.0597 4.26587 29.7584 4.69254 31.977 5.54587C34.217 6.37787 36.265 7.56187 38.121 9.09787L32.969 15.3059C31.753 14.3032 30.409 13.5139 28.937 12.9379C27.465 12.3405 25.865 12.0419 24.137 12.0419C22.281 12.0419 20.585 12.5752 19.049 13.6419C17.513 14.6872 16.2864 16.3512 15.369 18.6339C14.4517 20.8952 13.993 23.8392 13.993 27.4659C13.993 31.0285 14.4304 33.9405 15.305 36.2019C16.201 38.4419 17.4277 40.0952 18.985 41.1619C20.5424 42.2072 22.3237 42.7299 24.329 42.7299C26.5477 42.7299 28.393 42.3139 29.865 41.4819C31.337 40.6499 32.6917 39.7432 33.929 38.7619L38.697 44.8419C37.033 46.4845 34.985 47.8925 32.553 49.0659C30.121 50.2392 27.1877 50.8259 23.753 50.8259C19.7424 50.8259 16.1797 49.9405 13.065 48.1699C9.97169 46.3779 7.53969 43.7539 5.76902 40.2979C4.01969 36.8205 3.14502 32.5432 3.14502 27.4659C3.14502 22.5165 4.05169 18.3139 5.86502 14.8579C7.69969 11.4019 10.185 8.77787 13.321 6.98587C16.457 5.17254 19.977 4.26587 23.881 4.26587Z" fill="#222222"/>
<path d="M58.544 14.6339C62.0427 14.6339 65.0187 15.3805 67.472 16.8739C69.9254 18.3672 71.8027 20.4685 73.104 23.1779C74.4053 25.8659 75.056 29.0232 75.056 32.6499C75.056 36.4259 74.3947 39.6792 73.072 42.4099C71.7707 45.1192 69.8933 47.1992 67.44 48.6499C64.9867 50.1005 62.0214 50.8259 58.544 50.8259C55.088 50.8259 52.1227 50.1112 49.648 48.6819C47.1947 47.2525 45.3067 45.1832 43.984 42.4739C42.6827 39.7645 42.032 36.5112 42.032 32.7139C42.032 29.1085 42.6827 25.9512 43.984 23.2419C45.3067 20.5325 47.1947 18.4205 49.648 16.9059C52.1227 15.3912 55.088 14.6339 58.544 14.6339ZM58.544 22.0899C56.4747 22.0899 54.9387 22.9432 53.936 24.6499C52.9547 26.3352 52.464 29.0232 52.464 32.7139C52.464 36.4685 52.9547 39.1885 53.936 40.8739C54.9387 42.5592 56.4747 43.4019 58.544 43.4019C60.6134 43.4019 62.1387 42.5592 63.12 40.8739C64.1227 39.1885 64.624 36.4472 64.624 32.6499C64.624 28.9805 64.1227 26.3032 63.12 24.6179C62.1387 22.9325 60.6134 22.0899 58.544 22.0899Z" fill="#222222"/>
<path d="M82.199 49.7379V15.7539H91.031L91.735 19.6899C93.2497 17.9832 94.8497 16.7139 96.535 15.8819C98.2204 15.0499 100.14 14.6339 102.295 14.6339C105.196 14.6339 107.479 15.5192 109.143 17.2899C110.807 19.0605 111.639 21.5565 111.639 24.7779V49.7379H101.527V27.6899C101.527 26.3032 101.431 25.2045 101.239 24.3939C101.047 23.5619 100.706 22.9752 100.215 22.6339C99.7457 22.2712 99.095 22.0899 98.263 22.0899C97.559 22.0899 96.8657 22.2499 96.183 22.5699C95.5217 22.8685 94.871 23.3059 94.231 23.8819C93.591 24.4579 92.951 25.1512 92.311 25.9619V49.7379H82.199Z" fill="#222222"/>
<path d="M151.166 47.7539C149.843 48.6072 148.243 49.3325 146.366 49.9299C144.489 50.5272 142.377 50.8259 140.03 50.8259C135.593 50.8259 132.297 49.6952 130.142 47.4339C127.987 45.1512 126.91 42.0579 126.91 38.1539V22.7299H119.774V15.7539H126.91V8.39387L137.022 7.17787V15.7539H147.966L146.974 22.7299H137.022V38.1539C137.022 39.8392 137.406 41.0445 138.174 41.7699C138.942 42.4952 140.169 42.8579 141.854 42.8579C143.049 42.8579 144.137 42.7192 145.118 42.4419C146.121 42.1432 147.017 41.7699 147.806 41.3219L151.166 47.7539Z" fill="#222222"/>
<path d="M187.557 39.9459C187.557 41.2259 187.728 42.1539 188.069 42.7299C188.432 43.3059 189.008 43.7432 189.797 44.0419L187.717 50.6979C185.712 50.5059 184.016 50.0685 182.629 49.3859C181.264 48.6819 180.186 47.6259 179.397 46.2179C178.096 47.7752 176.432 48.9379 174.405 49.7059C172.378 50.4525 170.309 50.8259 168.197 50.8259C164.698 50.8259 161.904 49.8339 159.813 47.8499C157.744 45.8445 156.709 43.2739 156.709 40.1379C156.709 36.4472 158.149 33.5992 161.029 31.5939C163.93 29.5885 168.005 28.5859 173.253 28.5859H177.829V27.3059C177.829 25.5352 177.253 24.2232 176.101 23.3699C174.97 22.5165 173.306 22.0899 171.109 22.0899C170.021 22.0899 168.624 22.2499 166.917 22.5699C165.21 22.8685 163.504 23.3059 161.797 23.8819L159.461 17.1619C161.658 16.3299 163.941 15.7005 166.309 15.2739C168.698 14.8472 170.832 14.6339 172.709 14.6339C177.765 14.6339 181.498 15.6685 183.909 17.7379C186.341 19.7859 187.557 22.7512 187.557 26.6339V39.9459ZM171.685 43.5939C172.773 43.5939 173.914 43.2739 175.109 42.6339C176.304 41.9725 177.21 41.0445 177.829 39.8499V34.3459H175.333C172.517 34.3459 170.448 34.7832 169.125 35.6579C167.802 36.5112 167.141 37.7699 167.141 39.4339C167.141 40.7352 167.536 41.7592 168.325 42.5059C169.136 43.2312 170.256 43.5939 171.685 43.5939Z" fill="#222222"/>
<path d="M215.34 42.8579C216.727 42.8579 218.028 42.5912 219.244 42.0579C220.481 41.5032 221.708 40.7992 222.924 39.9459L227.436 46.3459C225.943 47.6259 224.119 48.6925 221.964 49.5459C219.831 50.3992 217.441 50.8259 214.796 50.8259C211.148 50.8259 208.012 50.0792 205.388 48.5859C202.764 47.0712 200.748 44.9805 199.34 42.3139C197.932 39.6259 197.228 36.5112 197.228 32.9699C197.228 29.4285 197.943 26.2819 199.372 23.5299C200.823 20.7565 202.871 18.5805 205.516 17.0019C208.183 15.4232 211.34 14.6339 214.988 14.6339C217.569 14.6339 219.863 14.9965 221.868 15.7219C223.895 16.4259 225.751 17.4819 227.436 18.8899L223.052 24.9699C221.9 24.1592 220.684 23.5299 219.404 23.0819C218.124 22.6339 216.791 22.4099 215.404 22.4099C213.121 22.4099 211.276 23.2205 209.868 24.8419C208.481 26.4419 207.788 29.1512 207.788 32.9699C207.788 35.4659 208.119 37.4392 208.78 38.8899C209.441 40.3192 210.337 41.3432 211.468 41.9619C212.62 42.5592 213.911 42.8579 215.34 42.8579Z" fill="#222222"/>
<path d="M266.291 47.7539C264.968 48.6072 263.368 49.3325 261.491 49.9299C259.614 50.5272 257.502 50.8259 255.155 50.8259C250.718 50.8259 247.422 49.6952 245.267 47.4339C243.112 45.1512 242.035 42.0579 242.035 38.1539V22.7299H234.899V15.7539H242.035V8.39387L252.147 7.17787V15.7539H263.091L262.099 22.7299H252.147V38.1539C252.147 39.8392 252.531 41.0445 253.299 41.7699C254.067 42.4952 255.294 42.8579 256.979 42.8579C258.174 42.8579 259.262 42.7192 260.243 42.4419C261.246 42.1432 262.142 41.7699 262.931 41.3219L266.291 47.7539Z" fill="#222222"/>
<path d="M342.753 5.38587L345.249 49.7379H336.097L335.553 30.7619C335.51 28.9912 335.489 27.4125 335.489 26.0259C335.51 24.6392 335.542 23.3379 335.585 22.1219C335.628 20.8845 335.692 19.6472 335.777 18.4099C335.884 17.1512 335.99 15.7859 336.097 14.3139L331.105 42.1859H323.169L317.793 14.3139C317.921 15.7219 318.028 17.0552 318.113 18.3139C318.22 19.5512 318.294 20.7992 318.337 22.0579C318.38 23.3165 318.412 24.6712 318.433 26.1219C318.454 27.5512 318.444 29.1512 318.401 30.9219L318.081 49.7379H309.089L311.585 5.38587H322.369L327.297 34.0579L331.969 5.38587H342.753Z" fill="#222222"/>
<path d="M359.592 35.6899C359.827 37.5459 360.307 39.0499 361.032 40.2019C361.779 41.3325 362.728 42.1645 363.88 42.6979C365.032 43.2099 366.323 43.4659 367.752 43.4659C369.309 43.4659 370.813 43.2099 372.264 42.6979C373.715 42.1859 375.112 41.5032 376.456 40.6499L380.52 46.1539C378.92 47.5192 376.979 48.6392 374.696 49.5139C372.435 50.3885 369.853 50.8259 366.952 50.8259C363.069 50.8259 359.816 50.0579 357.192 48.5219C354.568 46.9645 352.595 44.8312 351.272 42.1219C349.949 39.4125 349.288 36.2979 349.288 32.7779C349.288 29.4285 349.928 26.3885 351.208 23.6579C352.488 20.9059 354.355 18.7192 356.808 17.0979C359.283 15.4552 362.301 14.6339 365.864 14.6339C369.107 14.6339 371.912 15.3272 374.28 16.7139C376.669 18.1005 378.515 20.0952 379.816 22.6979C381.139 25.3005 381.8 28.4259 381.8 32.0739C381.8 32.6499 381.779 33.2685 381.736 33.9299C381.715 34.5912 381.672 35.1779 381.608 35.6899H359.592ZM365.864 21.4179C364.051 21.4179 362.589 22.0685 361.48 23.3699C360.371 24.6712 359.699 26.7512 359.464 29.6099H371.944C371.923 27.1352 371.443 25.1512 370.504 23.6579C369.565 22.1645 368.019 21.4179 365.864 21.4179Z" fill="#222222"/>
<mask id="path-2-outside-1_42_43" maskUnits="userSpaceOnUse" x="0.20752" y="0.587891" width="383" height="51" fill="black">
<rect fill="white" x="0.20752" y="0.587891" width="383" height="51"/>
<path d="M22.9435 2.58789C26.1222 2.58789 28.8209 3.01456 31.0395 3.86789C33.2795 4.69989 35.3275 5.88389 37.1835 7.41989L32.0315 13.6279C30.8155 12.6252 29.4715 11.8359 27.9995 11.2599C26.5275 10.6626 24.9275 10.3639 23.1995 10.3639C21.3435 10.3639 19.6475 10.8972 18.1115 11.9639C16.5755 13.0092 15.3489 14.6732 14.4315 16.9559C13.5142 19.2172 13.0555 22.1612 13.0555 25.7879C13.0555 29.3506 13.4929 32.2626 14.3675 34.5239C15.2635 36.7639 16.4902 38.4172 18.0475 39.4839C19.6049 40.5292 21.3862 41.0519 23.3915 41.0519C25.6102 41.0519 27.4555 40.6359 28.9275 39.8039C30.3995 38.9719 31.7542 38.0652 32.9915 37.0839L37.7595 43.1639C36.0955 44.8066 34.0475 46.2146 31.6155 47.3879C29.1835 48.5612 26.2502 49.1479 22.8155 49.1479C18.8049 49.1479 15.2422 48.2626 12.1275 46.4919C9.03419 44.6999 6.60219 42.0759 4.83152 38.6199C3.08219 35.1426 2.20752 30.8652 2.20752 25.7879C2.20752 20.8386 3.11419 16.6359 4.92752 13.1799C6.76219 9.72389 9.24752 7.09989 12.3835 5.30789C15.5195 3.49456 19.0395 2.58789 22.9435 2.58789ZM57.6065 12.9559C61.1052 12.9559 64.0812 13.7026 66.5345 15.1959C68.9879 16.6892 70.8652 18.7906 72.1665 21.4999C73.4678 24.1879 74.1185 27.3452 74.1185 30.9719C74.1185 34.7479 73.4572 38.0012 72.1345 40.7319C70.8332 43.4412 68.9558 45.5212 66.5025 46.9719C64.0492 48.4226 61.0839 49.1479 57.6065 49.1479C54.1505 49.1479 51.1852 48.4332 48.7105 47.0039C46.2572 45.5746 44.3692 43.5052 43.0465 40.7959C41.7452 38.0866 41.0945 34.8332 41.0945 31.0359C41.0945 27.4306 41.7452 24.2732 43.0465 21.5639C44.3692 18.8546 46.2572 16.7426 48.7105 15.2279C51.1852 13.7132 54.1505 12.9559 57.6065 12.9559ZM57.6065 20.4119C55.5372 20.4119 54.0012 21.2652 52.9985 22.9719C52.0172 24.6572 51.5265 27.3452 51.5265 31.0359C51.5265 34.7906 52.0172 37.5106 52.9985 39.1959C54.0012 40.8812 55.5372 41.7239 57.6065 41.7239C59.6759 41.7239 61.2012 40.8812 62.1825 39.1959C63.1852 37.5106 63.6865 34.7692 63.6865 30.9719C63.6865 27.3026 63.1852 24.6252 62.1825 22.9399C61.2012 21.2546 59.6759 20.4119 57.6065 20.4119ZM81.2615 48.0599V14.0759H90.0935L90.7975 18.0119C92.3122 16.3052 93.9122 15.0359 95.5975 14.2039C97.2829 13.3719 99.2029 12.9559 101.358 12.9559C104.259 12.9559 106.542 13.8412 108.206 15.6119C109.87 17.3826 110.702 19.8786 110.702 23.0999V48.0599H100.59V26.0119C100.59 24.6252 100.494 23.5266 100.302 22.7159C100.11 21.8839 99.7682 21.2972 99.2775 20.9559C98.8082 20.5932 98.1575 20.4119 97.3255 20.4119C96.6215 20.4119 95.9282 20.5719 95.2455 20.8919C94.5842 21.1906 93.9335 21.6279 93.2935 22.2039C92.6535 22.7799 92.0135 23.4732 91.3735 24.2839V48.0599H81.2615ZM150.229 46.0759C148.906 46.9292 147.306 47.6546 145.429 48.2519C143.551 48.8492 141.439 49.1479 139.093 49.1479C134.655 49.1479 131.359 48.0172 129.205 45.7559C127.05 43.4732 125.973 40.3799 125.973 36.4759V21.0519H118.837V14.0759H125.973V6.71589L136.085 5.49989V14.0759H147.029L146.037 21.0519H136.085V36.4759C136.085 38.1612 136.469 39.3666 137.237 40.0919C138.005 40.8172 139.231 41.1799 140.917 41.1799C142.111 41.1799 143.199 41.0412 144.181 40.7639C145.183 40.4652 146.079 40.0919 146.869 39.6439L150.229 46.0759ZM186.62 38.2679C186.62 39.5479 186.79 40.4759 187.132 41.0519C187.494 41.6279 188.07 42.0652 188.86 42.3639L186.78 49.0199C184.774 48.8279 183.078 48.3906 181.692 47.7079C180.326 47.0039 179.249 45.9479 178.46 44.5399C177.158 46.0972 175.494 47.2599 173.468 48.0279C171.441 48.7746 169.372 49.1479 167.26 49.1479C163.761 49.1479 160.966 48.1559 158.876 46.1719C156.806 44.1666 155.772 41.5959 155.772 38.4599C155.772 34.7692 157.212 31.9212 160.092 29.9159C162.993 27.9106 167.068 26.9079 172.316 26.9079H176.892V25.6279C176.892 23.8572 176.316 22.5452 175.164 21.6919C174.033 20.8386 172.369 20.4119 170.172 20.4119C169.084 20.4119 167.686 20.5719 165.98 20.8919C164.273 21.1906 162.566 21.6279 160.86 22.2039L158.524 15.4839C160.721 14.6519 163.004 14.0226 165.372 13.5959C167.761 13.1692 169.894 12.9559 171.772 12.9559C176.828 12.9559 180.561 13.9906 182.972 16.0599C185.404 18.1079 186.62 21.0732 186.62 24.9559V38.2679ZM170.748 41.9159C171.836 41.9159 172.977 41.5959 174.172 40.9559C175.366 40.2946 176.273 39.3666 176.892 38.1719V32.6679H174.396C171.58 32.6679 169.51 33.1052 168.188 33.9799C166.865 34.8332 166.204 36.0919 166.204 37.7559C166.204 39.0572 166.598 40.0812 167.388 40.8279C168.198 41.5532 169.318 41.9159 170.748 41.9159ZM214.403 41.1799C215.789 41.1799 217.091 40.9132 218.307 40.3799C219.544 39.8252 220.771 39.1212 221.987 38.2679L226.499 44.6679C225.005 45.9479 223.181 47.0146 221.027 47.8679C218.893 48.7212 216.504 49.1479 213.859 49.1479C210.211 49.1479 207.075 48.4012 204.451 46.9079C201.827 45.3932 199.811 43.3026 198.403 40.6359C196.995 37.9479 196.291 34.8332 196.291 31.2919C196.291 27.7506 197.005 24.6039 198.435 21.8519C199.885 19.0786 201.933 16.9026 204.579 15.3239C207.245 13.7452 210.403 12.9559 214.051 12.9559C216.632 12.9559 218.925 13.3186 220.931 14.0439C222.957 14.7479 224.813 15.8039 226.499 17.2119L222.115 23.2919C220.963 22.4812 219.747 21.8519 218.467 21.4039C217.187 20.9559 215.853 20.7319 214.467 20.7319C212.184 20.7319 210.339 21.5426 208.931 23.1639C207.544 24.7639 206.851 27.4732 206.851 31.2919C206.851 33.7879 207.181 35.7612 207.843 37.2119C208.504 38.6412 209.4 39.6652 210.531 40.2839C211.683 40.8812 212.973 41.1799 214.403 41.1799ZM265.354 46.0759C264.031 46.9292 262.431 47.6546 260.554 48.2519C258.676 48.8492 256.564 49.1479 254.218 49.1479C249.78 49.1479 246.484 48.0172 244.33 45.7559C242.175 43.4732 241.098 40.3799 241.098 36.4759V21.0519H233.962V14.0759H241.098V6.71589L251.21 5.49989V14.0759H262.154L261.162 21.0519H251.21V36.4759C251.21 38.1612 251.594 39.3666 252.362 40.0919C253.13 40.8172 254.356 41.1799 256.042 41.1799C257.236 41.1799 258.324 41.0412 259.306 40.7639C260.308 40.4652 261.204 40.0919 261.994 39.6439L265.354 46.0759ZM341.816 3.70789L344.312 48.0599H335.16L334.616 29.0839C334.573 27.3132 334.552 25.7346 334.552 24.3479C334.573 22.9612 334.605 21.6599 334.648 20.4439C334.69 19.2066 334.754 17.9692 334.84 16.7319C334.946 15.4732 335.053 14.1079 335.16 12.6359L330.168 40.5079H322.232L316.856 12.6359C316.984 14.0439 317.09 15.3772 317.176 16.6359C317.282 17.8732 317.357 19.1212 317.4 20.3799C317.442 21.6386 317.474 22.9932 317.496 24.4439C317.517 25.8732 317.506 27.4732 317.464 29.2439L317.144 48.0599H308.152L310.648 3.70789H321.432L326.36 32.3799L331.032 3.70789H341.816ZM358.655 34.0119C358.889 35.8679 359.369 37.3719 360.095 38.5239C360.841 39.6546 361.791 40.4866 362.943 41.0199C364.095 41.5319 365.385 41.7879 366.815 41.7879C368.372 41.7879 369.876 41.5319 371.327 41.0199C372.777 40.5079 374.175 39.8252 375.519 38.9719L379.583 44.4759C377.983 45.8412 376.041 46.9612 373.759 47.8359C371.497 48.7106 368.916 49.1479 366.015 49.1479C362.132 49.1479 358.879 48.3799 356.255 46.8439C353.631 45.2866 351.657 43.1532 350.335 40.4439C349.012 37.7346 348.351 34.6199 348.351 31.0999C348.351 27.7506 348.991 24.7106 350.271 21.9799C351.551 19.2279 353.417 17.0412 355.871 15.4199C358.345 13.7772 361.364 12.9559 364.927 12.9559C368.169 12.9559 370.975 13.6492 373.343 15.0359C375.732 16.4226 377.577 18.4172 378.879 21.0199C380.201 23.6226 380.863 26.7479 380.863 30.3959C380.863 30.9719 380.841 31.5906 380.799 32.2519C380.777 32.9132 380.735 33.4999 380.671 34.0119H358.655ZM364.927 19.7399C363.113 19.7399 361.652 20.3906 360.543 21.6919C359.433 22.9932 358.761 25.0732 358.527 27.9319H371.007C370.985 25.4572 370.505 23.4732 369.567 21.9799C368.628 20.4866 367.081 19.7399 364.927 19.7399Z"/>
</mask>
<path d="M22.9435 2.58789C26.1222 2.58789 28.8209 3.01456 31.0395 3.86789C33.2795 4.69989 35.3275 5.88389 37.1835 7.41989L32.0315 13.6279C30.8155 12.6252 29.4715 11.8359 27.9995 11.2599C26.5275 10.6626 24.9275 10.3639 23.1995 10.3639C21.3435 10.3639 19.6475 10.8972 18.1115 11.9639C16.5755 13.0092 15.3489 14.6732 14.4315 16.9559C13.5142 19.2172 13.0555 22.1612 13.0555 25.7879C13.0555 29.3506 13.4929 32.2626 14.3675 34.5239C15.2635 36.7639 16.4902 38.4172 18.0475 39.4839C19.6049 40.5292 21.3862 41.0519 23.3915 41.0519C25.6102 41.0519 27.4555 40.6359 28.9275 39.8039C30.3995 38.9719 31.7542 38.0652 32.9915 37.0839L37.7595 43.1639C36.0955 44.8066 34.0475 46.2146 31.6155 47.3879C29.1835 48.5612 26.2502 49.1479 22.8155 49.1479C18.8049 49.1479 15.2422 48.2626 12.1275 46.4919C9.03419 44.6999 6.60219 42.0759 4.83152 38.6199C3.08219 35.1426 2.20752 30.8652 2.20752 25.7879C2.20752 20.8386 3.11419 16.6359 4.92752 13.1799C6.76219 9.72389 9.24752 7.09989 12.3835 5.30789C15.5195 3.49456 19.0395 2.58789 22.9435 2.58789ZM57.6065 12.9559C61.1052 12.9559 64.0812 13.7026 66.5345 15.1959C68.9879 16.6892 70.8652 18.7906 72.1665 21.4999C73.4678 24.1879 74.1185 27.3452 74.1185 30.9719C74.1185 34.7479 73.4572 38.0012 72.1345 40.7319C70.8332 43.4412 68.9558 45.5212 66.5025 46.9719C64.0492 48.4226 61.0839 49.1479 57.6065 49.1479C54.1505 49.1479 51.1852 48.4332 48.7105 47.0039C46.2572 45.5746 44.3692 43.5052 43.0465 40.7959C41.7452 38.0866 41.0945 34.8332 41.0945 31.0359C41.0945 27.4306 41.7452 24.2732 43.0465 21.5639C44.3692 18.8546 46.2572 16.7426 48.7105 15.2279C51.1852 13.7132 54.1505 12.9559 57.6065 12.9559ZM57.6065 20.4119C55.5372 20.4119 54.0012 21.2652 52.9985 22.9719C52.0172 24.6572 51.5265 27.3452 51.5265 31.0359C51.5265 34.7906 52.0172 37.5106 52.9985 39.1959C54.0012 40.8812 55.5372 41.7239 57.6065 41.7239C59.6759 41.7239 61.2012 40.8812 62.1825 39.1959C63.1852 37.5106 63.6865 34.7692 63.6865 30.9719C63.6865 27.3026 63.1852 24.6252 62.1825 22.9399C61.2012 21.2546 59.6759 20.4119 57.6065 20.4119ZM81.2615 48.0599V14.0759H90.0935L90.7975 18.0119C92.3122 16.3052 93.9122 15.0359 95.5975 14.2039C97.2829 13.3719 99.2029 12.9559 101.358 12.9559C104.259 12.9559 106.542 13.8412 108.206 15.6119C109.87 17.3826 110.702 19.8786 110.702 23.0999V48.0599H100.59V26.0119C100.59 24.6252 100.494 23.5266 100.302 22.7159C100.11 21.8839 99.7682 21.2972 99.2775 20.9559C98.8082 20.5932 98.1575 20.4119 97.3255 20.4119C96.6215 20.4119 95.9282 20.5719 95.2455 20.8919C94.5842 21.1906 93.9335 21.6279 93.2935 22.2039C92.6535 22.7799 92.0135 23.4732 91.3735 24.2839V48.0599H81.2615ZM150.229 46.0759C148.906 46.9292 147.306 47.6546 145.429 48.2519C143.551 48.8492 141.439 49.1479 139.093 49.1479C134.655 49.1479 131.359 48.0172 129.205 45.7559C127.05 43.4732 125.973 40.3799 125.973 36.4759V21.0519H118.837V14.0759H125.973V6.71589L136.085 5.49989V14.0759H147.029L146.037 21.0519H136.085V36.4759C136.085 38.1612 136.469 39.3666 137.237 40.0919C138.005 40.8172 139.231 41.1799 140.917 41.1799C142.111 41.1799 143.199 41.0412 144.181 40.7639C145.183 40.4652 146.079 40.0919 146.869 39.6439L150.229 46.0759ZM186.62 38.2679C186.62 39.5479 186.79 40.4759 187.132 41.0519C187.494 41.6279 188.07 42.0652 188.86 42.3639L186.78 49.0199C184.774 48.8279 183.078 48.3906 181.692 47.7079C180.326 47.0039 179.249 45.9479 178.46 44.5399C177.158 46.0972 175.494 47.2599 173.468 48.0279C171.441 48.7746 169.372 49.1479 167.26 49.1479C163.761 49.1479 160.966 48.1559 158.876 46.1719C156.806 44.1666 155.772 41.5959 155.772 38.4599C155.772 34.7692 157.212 31.9212 160.092 29.9159C162.993 27.9106 167.068 26.9079 172.316 26.9079H176.892V25.6279C176.892 23.8572 176.316 22.5452 175.164 21.6919C174.033 20.8386 172.369 20.4119 170.172 20.4119C169.084 20.4119 167.686 20.5719 165.98 20.8919C164.273 21.1906 162.566 21.6279 160.86 22.2039L158.524 15.4839C160.721 14.6519 163.004 14.0226 165.372 13.5959C167.761 13.1692 169.894 12.9559 171.772 12.9559C176.828 12.9559 180.561 13.9906 182.972 16.0599C185.404 18.1079 186.62 21.0732 186.62 24.9559V38.2679ZM170.748 41.9159C171.836 41.9159 172.977 41.5959 174.172 40.9559C175.366 40.2946 176.273 39.3666 176.892 38.1719V32.6679H174.396C171.58 32.6679 169.51 33.1052 168.188 33.9799C166.865 34.8332 166.204 36.0919 166.204 37.7559C166.204 39.0572 166.598 40.0812 167.388 40.8279C168.198 41.5532 169.318 41.9159 170.748 41.9159ZM214.403 41.1799C215.789 41.1799 217.091 40.9132 218.307 40.3799C219.544 39.8252 220.771 39.1212 221.987 38.2679L226.499 44.6679C225.005 45.9479 223.181 47.0146 221.027 47.8679C218.893 48.7212 216.504 49.1479 213.859 49.1479C210.211 49.1479 207.075 48.4012 204.451 46.9079C201.827 45.3932 199.811 43.3026 198.403 40.6359C196.995 37.9479 196.291 34.8332 196.291 31.2919C196.291 27.7506 197.005 24.6039 198.435 21.8519C199.885 19.0786 201.933 16.9026 204.579 15.3239C207.245 13.7452 210.403 12.9559 214.051 12.9559C216.632 12.9559 218.925 13.3186 220.931 14.0439C222.957 14.7479 224.813 15.8039 226.499 17.2119L222.115 23.2919C220.963 22.4812 219.747 21.8519 218.467 21.4039C217.187 20.9559 215.853 20.7319 214.467 20.7319C212.184 20.7319 210.339 21.5426 208.931 23.1639C207.544 24.7639 206.851 27.4732 206.851 31.2919C206.851 33.7879 207.181 35.7612 207.843 37.2119C208.504 38.6412 209.4 39.6652 210.531 40.2839C211.683 40.8812 212.973 41.1799 214.403 41.1799ZM265.354 46.0759C264.031 46.9292 262.431 47.6546 260.554 48.2519C258.676 48.8492 256.564 49.1479 254.218 49.1479C249.78 49.1479 246.484 48.0172 244.33 45.7559C242.175 43.4732 241.098 40.3799 241.098 36.4759V21.0519H233.962V14.0759H241.098V6.71589L251.21 5.49989V14.0759H262.154L261.162 21.0519H251.21V36.4759C251.21 38.1612 251.594 39.3666 252.362 40.0919C253.13 40.8172 254.356 41.1799 256.042 41.1799C257.236 41.1799 258.324 41.0412 259.306 40.7639C260.308 40.4652 261.204 40.0919 261.994 39.6439L265.354 46.0759ZM341.816 3.70789L344.312 48.0599H335.16L334.616 29.0839C334.573 27.3132 334.552 25.7346 334.552 24.3479C334.573 22.9612 334.605 21.6599 334.648 20.4439C334.69 19.2066 334.754 17.9692 334.84 16.7319C334.946 15.4732 335.053 14.1079 335.16 12.6359L330.168 40.5079H322.232L316.856 12.6359C316.984 14.0439 317.09 15.3772 317.176 16.6359C317.282 17.8732 317.357 19.1212 317.4 20.3799C317.442 21.6386 317.474 22.9932 317.496 24.4439C317.517 25.8732 317.506 27.4732 317.464 29.2439L317.144 48.0599H308.152L310.648 3.70789H321.432L326.36 32.3799L331.032 3.70789H341.816ZM358.655 34.0119C358.889 35.8679 359.369 37.3719 360.095 38.5239C360.841 39.6546 361.791 40.4866 362.943 41.0199C364.095 41.5319 365.385 41.7879 366.815 41.7879C368.372 41.7879 369.876 41.5319 371.327 41.0199C372.777 40.5079 374.175 39.8252 375.519 38.9719L379.583 44.4759C377.983 45.8412 376.041 46.9612 373.759 47.8359C371.497 48.7106 368.916 49.1479 366.015 49.1479C362.132 49.1479 358.879 48.3799 356.255 46.8439C353.631 45.2866 351.657 43.1532 350.335 40.4439C349.012 37.7346 348.351 34.6199 348.351 31.0999C348.351 27.7506 348.991 24.7106 350.271 21.9799C351.551 19.2279 353.417 17.0412 355.871 15.4199C358.345 13.7772 361.364 12.9559 364.927 12.9559C368.169 12.9559 370.975 13.6492 373.343 15.0359C375.732 16.4226 377.577 18.4172 378.879 21.0199C380.201 23.6226 380.863 26.7479 380.863 30.3959C380.863 30.9719 380.841 31.5906 380.799 32.2519C380.777 32.9132 380.735 33.4999 380.671 34.0119H358.655ZM364.927 19.7399C363.113 19.7399 361.652 20.3906 360.543 21.6919C359.433 22.9932 358.761 25.0732 358.527 27.9319H371.007C370.985 25.4572 370.505 23.4732 369.567 21.9799C368.628 20.4866 367.081 19.7399 364.927 19.7399Z" stroke="black" stroke-width="4" mask="url(#path-2-outside-1_42_43)"/>
</svg>
