<svg width="222" height="164" viewBox="0 0 222 164" fill="none" xmlns="http://www.w3.org/2000/svg">
<path d="M205.84 106.433C197.111 138.048 150.751 152.832 102.291 139.452C53.8316 126.073 21.6233 89.5983 30.3518 57.983C39.0804 26.3676 85.4406 11.5841 133.9 24.9631C182.36 38.3422 214.568 74.8173 205.84 106.433Z" fill="#1784E8"/>
<path d="M102.291 141.456C150.751 154.835 197.111 140.051 205.839 108.436C206.328 106.665 206.689 104.879 206.925 103.083C207.606 108.445 207.281 113.8 205.839 119.023C197.111 150.638 150.751 165.422 102.291 152.043C56.5455 139.413 25.2817 106.201 29.2661 75.9255C32.7077 103.022 61.8366 130.287 102.291 141.456Z" fill="#0B4274"/>
<path fill-rule="evenodd" clip-rule="evenodd" d="M153.986 137.929C172.329 132.08 185.426 120.857 189.554 105.906C193.682 90.9542 188.198 74.6015 175.454 60.1697C162.725 45.7541 142.91 33.4738 118.996 26.8716C95.0824 20.2693 71.7736 20.6437 53.4513 26.4864C35.1084 32.3356 22.0111 43.5582 17.8832 58.5098C13.7552 73.4614 19.2394 89.8141 31.9829 104.246C44.7123 118.662 64.5273 130.942 88.4411 137.544C112.355 144.146 135.664 143.772 153.986 137.929ZM87.9142 139.452C136.374 152.832 182.734 138.048 191.462 106.433C200.191 74.8173 167.983 38.3422 119.523 24.9631C71.0635 11.5841 24.7033 26.3676 15.9747 57.983C7.24619 89.5983 39.4546 126.073 87.9142 139.452Z" fill="#222222"/>
</svg>
