<svg width="652" height="463" viewBox="0 0 652 463" fill="none" xmlns="http://www.w3.org/2000/svg">
<path d="M646.236 292.243C616.772 398.961 460.284 448.862 296.709 403.701C133.134 358.541 24.4145 235.419 53.8777 128.701C83.3409 21.9839 239.829 -27.9177 403.405 17.2431C566.98 62.404 675.699 185.526 646.236 292.243Z" fill="#1784E8"/>
<path d="M296.708 410.463C460.283 455.623 616.772 405.722 646.235 299.004C647.885 293.028 649.102 287 649.9 280.937C652.199 299.036 651.102 317.112 646.235 334.741C616.772 441.458 460.283 491.36 296.708 446.199C142.294 403.567 36.7633 291.462 50.2125 189.266C61.8296 280.73 160.154 372.762 296.708 410.463Z" fill="#0B4274"/>
<path fill-rule="evenodd" clip-rule="evenodd" d="M471.204 398.56C533.12 378.816 577.33 340.934 591.264 290.465C605.197 239.996 586.686 184.797 543.67 136.083C500.702 87.4229 433.817 45.9709 353.096 23.685C272.375 1.39913 193.696 2.6629 131.849 22.3849C69.9331 42.1289 25.7232 80.0108 11.7894 130.48C-2.14438 180.949 16.3673 236.147 59.3831 284.862C102.351 333.522 169.236 374.974 249.957 397.259C330.678 419.545 409.357 418.282 471.204 398.56ZM248.179 403.701C411.754 448.862 568.242 398.961 597.706 292.243C627.169 185.526 518.45 62.404 354.874 17.2431C191.299 -27.9177 34.8108 21.9839 5.34756 128.701C-24.1157 235.419 84.6035 358.541 248.179 403.701Z" fill="#222222"/>
</svg>
