<svg width="645" height="501" viewBox="0 0 645 501" fill="none" xmlns="http://www.w3.org/2000/svg">
<path d="M511.31 85.0219V43.909L432.712 225.289V262.775L511.31 85.0219Z" fill="#0B7448"/>
<path d="M276.423 262.17L38.8085 158.111L46.6739 179.34L281.864 284.54L276.423 262.17Z" fill="#D1FAE9"/>
<path d="M310.772 171.537L406.394 3.81861L507.329 40.2461L426.885 230.731L643.173 311.934L610.54 401.485L376.797 305.104L309.254 474.34L194.66 411.351L271.309 257.293L39.0841 155.6L73.9937 89.575L310.772 171.537Z" fill="#17E890"/>
<path d="M310.188 500.111L308.746 477.046L194.064 413.618L195.665 434.281L310.188 500.111Z" fill="#D1FAE9"/>
<path d="M377.219 331.99V311.826L310.188 477.223L311.823 500.112L377.219 331.99Z" fill="#0B7448"/>
<path d="M610.465 430.249V405.763L378.298 308.12L379.205 331.095L610.465 430.249Z" fill="#0B7448"/>
<path fill-rule="evenodd" clip-rule="evenodd" d="M370.652 0.111694L476.978 38.4851L396.518 229.008L612.662 310.156L577.925 405.481L344.095 309.064L276.419 478.636L156.285 412.602L232.813 258.789L0.514648 157.064L38.157 85.8704L275.013 167.859L370.652 0.111694ZM373.385 7.52564L277.779 175.215L41.0786 93.2797L8.90167 154.136L241.054 255.797L164.283 410.099L273.338 470.044L340.747 301.144L574.403 397.489L604.932 313.712L388.499 232.455L468.928 42.0073L373.385 7.52564Z" fill="#222222"/>
<path d="M643.707 343.706L644.524 314.551L612.789 406.345V430.529L643.707 343.706Z" fill="#0B7448"/>
</svg>
