<svg width="212" height="165" viewBox="0 0 212 165" fill="none" xmlns="http://www.w3.org/2000/svg">
<path d="M167.993 28.733V15.2703L142.255 74.6648V86.9397L167.993 28.733Z" fill="#0B7448"/>
<path d="M91.0771 86.7417L13.2684 52.6666L15.844 59.6182L92.8589 94.067L91.0771 86.7417Z" fill="#D1FAE9"/>
<path d="M102.325 57.063L133.637 2.14233L166.689 14.0708L140.347 76.4468L211.172 103.037L200.487 132.362L123.946 100.801L101.828 156.219L64.3031 135.592L89.4026 85.1447L13.3586 51.8443L24.79 30.224L102.325 57.063Z" fill="#17E890"/>
<path d="M102.134 164.657L101.662 157.105L64.108 136.335L64.6325 143.101L102.134 164.657Z" fill="#D1FAE9"/>
<path d="M124.084 109.605V103.002L102.134 157.163L102.669 164.658L124.084 109.605Z" fill="#0B7448"/>
<path d="M200.462 141.781V133.762L124.437 101.788L124.734 109.312L200.462 141.781Z" fill="#0B7448"/>
<path fill-rule="evenodd" clip-rule="evenodd" d="M121.933 0.928467L156.751 13.4941L130.404 75.8824L201.182 102.455L189.807 133.67L113.237 102.098L91.0759 157.625L51.737 136.002L76.7967 85.6345L0.728821 52.3237L13.0551 29.0109L90.6157 55.8587L121.933 0.928467ZM122.828 3.35622L91.5215 58.2673L14.0118 31.4371L3.47522 51.365L79.4954 84.6549L54.3561 135.182L90.0672 154.812L112.141 99.504L188.653 131.053L198.65 103.62L127.778 77.0113L154.115 14.6475L122.828 3.35622Z" fill="#222222"/>
<path d="M211.347 113.441L211.615 103.894L201.223 133.953V141.872L211.347 113.441Z" fill="#0B7448"/>
</svg>
