<svg width="41" height="41" viewBox="0 0 41 41" fill="none" xmlns="http://www.w3.org/2000/svg">
<path d="M24.9617 39.9483C33.8192 37.8914 40.4196 29.9496 40.4196 20.4663C40.4196 9.42061 31.4653 0.466309 20.4196 0.466309C9.37386 0.466309 0.419556 9.42061 0.419556 20.4663C0.419556 29.7583 6.75627 37.5703 15.3441 39.8166V34.617H11.7302C11.6103 34.617 11.4988 34.5806 11.4062 34.5187C11.3823 34.5056 11.359 34.4903 11.3362 34.4732C11.3152 34.4573 11.2953 34.4397 11.2766 34.4209L7.18457 30.3295H6.6411C6.51603 30.3295 6.40063 30.2903 6.30569 30.2232C6.15618 30.118 6.05897 29.944 6.05897 29.7473V29.4938C6.05897 29.172 6.31933 28.9117 6.6411 28.9117H7.50691C7.62743 28.9117 7.73942 28.9481 7.83208 29.0106C7.84857 29.022 7.86505 29.0339 7.8804 29.047C7.92304 29.072 7.9634 29.1027 7.99979 29.1391L11.6347 32.774C11.666 32.7689 11.6978 32.766 11.7302 32.766H15.7699C16.0052 32.4329 16.3259 32.164 16.7005 31.9917L16.6988 31.9446V29.9219C11.6501 28.8315 7.96511 25.4132 7.96511 21.365C7.96511 19.5703 8.68936 17.8989 9.93606 16.4999L10.0071 11.0645C10.0128 10.6234 10.4886 10.3488 10.8735 10.5643L15.4578 13.131C16.9035 12.6887 18.4901 12.4448 20.1546 12.4448C21.486 12.4448 22.7674 12.6006 23.9664 12.8894L23.9925 12.8701L24.0096 12.8581L24.0471 12.8354L29.2709 9.9105C29.6558 9.69504 30.1316 9.96962 30.1373 10.4108L30.2146 16.3265C31.558 17.7602 32.3442 19.4952 32.3442 21.365C32.3442 25.4132 28.6592 28.8315 23.6105 29.9219V31.9446L23.6088 31.9917C24.0909 32.2135 24.4843 32.5955 24.7207 33.069C24.8077 33.2424 24.8731 33.4289 24.9146 33.6239C24.9476 33.7802 24.9652 33.9422 24.9652 34.1082V39.8841C24.9652 39.9058 24.964 39.9272 24.9617 39.9483Z" fill="#EFEFEF"/>
<path d="M20.4846 40.4662H20.3545C20.3762 40.4663 20.3979 40.4663 20.4196 40.4663C20.4412 40.4663 20.4629 40.4663 20.4846 40.4662Z" fill="#EFEFEF"/>
</svg>
