<svg width="40" height="41" viewBox="0 0 40 41" fill="none" xmlns="http://www.w3.org/2000/svg">
<path d="M8.5574 11.7851V40.4663H0.896693V11.7851H8.5574ZM0.419556 4.30991C0.419556 3.19659 0.808334 2.27766 1.58589 1.55312C2.36345 0.828579 3.40608 0.466309 4.71379 0.466309C6.00383 0.466309 7.03763 0.828579 7.81518 1.55312C8.61041 2.27766 9.00803 3.19659 9.00803 4.30991C9.00803 5.42323 8.61041 6.34216 7.81518 7.06671C7.03763 7.79125 6.00383 8.15352 4.71379 8.15352C3.40608 8.15352 2.36345 7.79125 1.58589 7.06671C0.808334 6.34216 0.419556 5.42323 0.419556 4.30991Z" fill="#EFEFEF"/>
<path d="M22.3414 17.9083V40.4663H14.7072V11.7851H21.8642L22.3414 17.9083ZM21.228 25.1184H19.1604C19.1604 22.9978 19.4344 21.0892 19.9822 19.3927C20.53 17.6786 21.2987 16.2207 22.2883 15.019C23.278 13.7996 24.4531 12.8719 25.8139 12.2357C27.1923 11.5818 28.7297 11.2549 30.4262 11.2549C31.7692 11.2549 32.9974 11.4493 34.1107 11.8381C35.2241 12.2269 36.1783 12.8454 36.9736 13.6936C37.7865 14.5419 38.405 15.664 38.8291 17.0601C39.2709 18.4561 39.4918 20.1615 39.4918 22.1761V40.4663H31.8046V22.1495C31.8046 20.8772 31.6279 19.8876 31.2744 19.1807C30.921 18.4738 30.3997 17.979 29.7105 17.6963C29.039 17.3958 28.2084 17.2456 27.2188 17.2456C26.1938 17.2456 25.3014 17.4489 24.5415 17.8553C23.7993 18.2618 23.1808 18.8273 22.686 19.5518C22.2088 20.2587 21.8466 21.0892 21.5991 22.0435C21.3517 22.9978 21.228 24.0227 21.228 25.1184Z" fill="#EFEFEF"/>
</svg>
