<svg width="48" height="41" viewBox="0 0 48 41" fill="none" xmlns="http://www.w3.org/2000/svg">
<path d="M0.491821 0.466309H25.2341V5.13264H15.169V12.7535L20.3798 12.7423C25.5041 12.7423 29.6581 16.8964 29.6581 22.0207C29.6581 25.6124 27.6173 28.7274 24.6321 30.2695L24.6788 30.3356C26.8287 33.2729 33.4307 39.305 42.64 39.9349C37.4529 41.0349 24.8363 40.4974 15.867 29.5482C16.2878 29.5286 17.5545 29.3187 20.1532 28.4048L20.159 28.4056V28.4031C22.9995 27.6803 25.1003 25.1056 25.1003 22.0401C25.1003 19.0977 23.1646 16.6073 20.4971 15.773C18.7843 15.3183 17.3062 15.2478 15.169 15.2653V39.9672H10.557V15.3272C10.249 15.3291 9.93029 15.3301 9.59991 15.3301C4.8518 15.3301 2.24704 13.6122 1.5159 12.7829L10.557 12.7634V5.13264H0.491821V0.466309Z" fill="#EFEFEF"/>
<path d="M47.768 38.8573C47.768 39.7459 47.0476 40.4663 46.1589 40.4663C45.2703 40.4663 44.5499 39.7459 44.5499 38.8573C44.5499 37.9686 45.2703 37.2482 46.1589 37.2482C47.0476 37.2482 47.768 37.9686 47.768 38.8573Z" fill="#EFEFEF"/>
</svg>
