<svg width="36" height="41" viewBox="0 0 36 41" fill="none" xmlns="http://www.w3.org/2000/svg">
<path d="M19.4339 8.21819V30.1959H13.0826V8.21819H5.55017V3.35791H27.2762L26.6178 8.21819H19.4339Z" fill="#EFEFEF"/>
<path d="M20.9301 30.2027H22.4268L28.2359 40.4655H35.4198L28.3908 29.1377C29.3977 28.7375 30.3078 28.2083 31.121 27.5499C31.9343 26.8915 32.5798 26.0847 33.0574 25.1294C33.535 24.1742 33.7739 23.0575 33.7739 21.7795C33.7739 19.0041 32.8444 16.9515 30.9855 15.6219C29.1266 14.2923 26.3705 13.6274 22.7172 13.6274H20.9301V18.0811H22.7366C24.2211 18.0811 25.3378 18.378 26.0865 18.9718C26.8481 19.5527 27.2289 20.4886 27.2289 21.7795C27.2289 23.1995 26.8675 24.2323 26.1446 24.8777C25.4217 25.5232 24.3696 25.8459 22.9883 25.8459H20.9301V30.2027Z" fill="#EFEFEF"/>
<path fill-rule="evenodd" clip-rule="evenodd" d="M21.2133 6.1835H14.4475V26.8821H8.46591V6.1835H1.37185V1.6061H21.8334L21.2133 6.1835ZM7.32612 7.32329H0.232056V0.466309H23.138L22.2091 7.32329H15.5873V28.0219H7.32612V7.32329Z" fill="white"/>
<path fill-rule="evenodd" clip-rule="evenodd" d="M24.9993 36.555L19.5283 26.8895H18.1187V22.7863H20.0571C21.358 22.7863 22.3489 22.4823 23.0297 21.8745C23.7105 21.2666 24.051 20.2939 24.051 18.9566C24.051 17.7408 23.6923 16.8594 22.975 16.3123C22.2698 15.753 21.2182 15.4734 19.8201 15.4734H18.1187V11.279H19.8018C23.2425 11.279 25.8382 11.9051 27.5889 13.1573C29.3396 14.4096 30.215 16.3427 30.215 18.9566C30.215 20.1602 29.99 21.2119 29.5402 22.1115C29.0904 23.0112 28.4825 23.7711 27.7165 24.3911C27.2418 24.7754 26.732 25.1131 26.1871 25.404C25.853 25.5824 25.5057 25.7432 25.1452 25.8865L31.7651 36.555H24.9993ZM26.7892 26.3743C27.372 26.0581 27.9206 25.6924 28.4337 25.277C29.3288 24.5524 30.0386 23.6634 30.5597 22.6213C31.1027 21.5351 31.3547 20.3027 31.3547 18.9566C31.3547 16.0639 30.3676 13.7436 28.252 12.2303C26.2232 10.7791 23.3491 10.1392 19.8018 10.1392H16.9789V16.6132H19.8201C21.0953 16.6132 21.8478 16.873 22.2667 17.2053L22.2752 17.212L22.2838 17.2185C22.6271 17.4804 22.9112 17.9632 22.9112 18.9566C22.9112 20.1227 22.6145 20.7172 22.2706 21.0242C21.8725 21.3797 21.1961 21.6465 20.0571 21.6465H16.9789V28.0293H18.8637L24.3347 37.6948H33.8137L26.7892 26.3743Z" fill="white"/>
</svg>
