<svg width="71" height="101" viewBox="0 0 71 101" fill="none" xmlns="http://www.w3.org/2000/svg">
<path d="M70.8768 20.2031L64.4225 92.5076L35.4102 100.551L6.47773 92.5189L0.0302734 20.2031H70.8768Z" fill="#264DE4"/>
<path d="M58.8969 87.9035L64.4125 26.116H35.4535V94.4029L58.8969 87.9035Z" fill="#2965F1"/>
<path d="M14.8109 52.9369L15.6059 61.8061H35.4535V52.9369H14.8109Z" fill="#EBEBEB"/>
<path d="M35.4535 34.9854H35.4228H13.2137L14.0199 43.8547H35.4535V34.9854Z" fill="#EBEBEB"/>
<path d="M35.4535 85.199V75.9713L35.4146 75.9816L25.5369 73.3145L24.9055 66.2408H16.0021L17.2447 80.1668L35.4127 85.2104L35.4535 85.199Z" fill="#EBEBEB"/>
<path d="M16.7035 0.550781H27.4457V5.04297H21.1957V9.53516H27.4457V14.0273H16.7035V0.550781Z" fill="black"/>
<path d="M29.5941 0.550781H40.3363V4.45703H34.0863V5.23828H40.3363V14.2227H29.5941V10.1211H35.8441V9.33984H29.5941V0.550781Z" fill="black"/>
<path d="M42.4848 0.550781H53.227V4.45703H46.977V5.23828H53.227V14.2227H42.4848V10.1211H48.7348V9.33984H42.4848V0.550781Z" fill="black"/>
<path d="M46.3443 61.8061L45.3148 73.3088L35.4229 75.9787V85.2061L53.6053 80.1668L55.8228 55.3186L56.0393 52.9369L57.6404 34.9854H35.4228L35.4229 43.8547H47.9205L47.1135 52.9369H35.4229V61.8061H46.3443Z" fill="white"/>
</svg>
