<svg width="390" height="389" viewBox="0 0 390 389" fill="none" xmlns="http://www.w3.org/2000/svg">
<path d="M4.86154 2.14091C4.86154 3.25805 3.95592 4.16366 2.83879 4.16366C1.72166 4.16366 0.81604 3.25805 0.81604 2.14091C0.81604 1.02378 1.72166 0.118164 2.83879 0.118164C3.95592 0.118164 4.86154 1.02378 4.86154 2.14091Z" fill="#222222"/>
<path d="M25.089 2.14091C25.089 3.25805 24.1834 4.16366 23.0663 4.16366C21.9492 4.16366 21.0435 3.25805 21.0435 2.14091C21.0435 1.02378 21.9492 0.118164 23.0663 0.118164C24.1834 0.118164 25.089 1.02378 25.089 2.14091Z" fill="#222222"/>
<path d="M45.3165 2.14091C45.3165 3.25805 44.4109 4.16366 43.2938 4.16366C42.1767 4.16366 41.271 3.25805 41.271 2.14091C41.271 1.02378 42.1767 0.118164 43.2938 0.118164C44.4109 0.118164 45.3165 1.02378 45.3165 2.14091Z" fill="#222222"/>
<path d="M65.544 2.14091C65.544 3.25805 64.6384 4.16366 63.5213 4.16366C62.4042 4.16366 61.4985 3.25805 61.4985 2.14091C61.4985 1.02378 62.4042 0.118164 63.5213 0.118164C64.6384 0.118164 65.544 1.02378 65.544 2.14091Z" fill="#222222"/>
<path d="M85.7715 2.14091C85.7715 3.25805 84.8659 4.16366 83.7488 4.16366C82.6317 4.16366 81.726 3.25805 81.726 2.14091C81.726 1.02378 82.6317 0.118164 83.7488 0.118164C84.8659 0.118164 85.7715 1.02378 85.7715 2.14091Z" fill="#222222"/>
<path d="M105.999 2.14091C105.999 3.25805 105.093 4.16366 103.976 4.16366C102.859 4.16366 101.954 3.25805 101.954 2.14091C101.954 1.02378 102.859 0.118164 103.976 0.118164C105.093 0.118164 105.999 1.02378 105.999 2.14091Z" fill="#222222"/>
<path d="M126.227 2.14091C126.227 3.25805 125.321 4.16366 124.204 4.16366C123.087 4.16366 122.181 3.25805 122.181 2.14091C122.181 1.02378 123.087 0.118164 124.204 0.118164C125.321 0.118164 126.227 1.02378 126.227 2.14091Z" fill="#222222"/>
<path d="M146.454 2.14091C146.454 3.25805 145.548 4.16366 144.431 4.16366C143.314 4.16366 142.409 3.25805 142.409 2.14091C142.409 1.02378 143.314 0.118164 144.431 0.118164C145.548 0.118164 146.454 1.02378 146.454 2.14091Z" fill="#222222"/>
<path d="M166.682 2.14091C166.682 3.25805 165.776 4.16366 164.659 4.16366C163.542 4.16366 162.636 3.25805 162.636 2.14091C162.636 1.02378 163.542 0.118164 164.659 0.118164C165.776 0.118164 166.682 1.02378 166.682 2.14091Z" fill="#222222"/>
<path d="M186.909 2.14091C186.909 3.25805 186.003 4.16366 184.886 4.16366C183.769 4.16366 182.864 3.25805 182.864 2.14091C182.864 1.02378 183.769 0.118164 184.886 0.118164C186.003 0.118164 186.909 1.02378 186.909 2.14091Z" fill="#222222"/>
<path d="M4.86154 22.3684C4.86154 23.4855 3.95592 24.3912 2.83879 24.3912C1.72166 24.3912 0.81604 23.4855 0.81604 22.3684C0.81604 21.2513 1.72166 20.3457 2.83879 20.3457C3.95592 20.3457 4.86154 21.2513 4.86154 22.3684Z" fill="#222222"/>
<path d="M25.089 22.3684C25.089 23.4855 24.1834 24.3912 23.0663 24.3912C21.9492 24.3912 21.0435 23.4855 21.0435 22.3684C21.0435 21.2513 21.9492 20.3457 23.0663 20.3457C24.1834 20.3457 25.089 21.2513 25.089 22.3684Z" fill="#222222"/>
<path d="M45.3165 22.3684C45.3165 23.4855 44.4109 24.3912 43.2938 24.3912C42.1767 24.3912 41.271 23.4855 41.271 22.3684C41.271 21.2513 42.1767 20.3457 43.2938 20.3457C44.4109 20.3457 45.3165 21.2513 45.3165 22.3684Z" fill="#222222"/>
<path d="M65.544 22.3684C65.544 23.4855 64.6384 24.3912 63.5213 24.3912C62.4042 24.3912 61.4985 23.4855 61.4985 22.3684C61.4985 21.2513 62.4042 20.3457 63.5213 20.3457C64.6384 20.3457 65.544 21.2513 65.544 22.3684Z" fill="#222222"/>
<path d="M85.7715 22.3684C85.7715 23.4855 84.8659 24.3912 83.7488 24.3912C82.6317 24.3912 81.726 23.4855 81.726 22.3684C81.726 21.2513 82.6317 20.3457 83.7488 20.3457C84.8659 20.3457 85.7715 21.2513 85.7715 22.3684Z" fill="#222222"/>
<path d="M105.999 22.3684C105.999 23.4855 105.093 24.3912 103.976 24.3912C102.859 24.3912 101.954 23.4855 101.954 22.3684C101.954 21.2513 102.859 20.3457 103.976 20.3457C105.093 20.3457 105.999 21.2513 105.999 22.3684Z" fill="#222222"/>
<path d="M126.227 22.3684C126.227 23.4855 125.321 24.3912 124.204 24.3912C123.087 24.3912 122.181 23.4855 122.181 22.3684C122.181 21.2513 123.087 20.3457 124.204 20.3457C125.321 20.3457 126.227 21.2513 126.227 22.3684Z" fill="#222222"/>
<path d="M146.454 22.3684C146.454 23.4855 145.548 24.3912 144.431 24.3912C143.314 24.3912 142.409 23.4855 142.409 22.3684C142.409 21.2513 143.314 20.3457 144.431 20.3457C145.548 20.3457 146.454 21.2513 146.454 22.3684Z" fill="#222222"/>
<path d="M166.682 22.3684C166.682 23.4855 165.776 24.3912 164.659 24.3912C163.542 24.3912 162.636 23.4855 162.636 22.3684C162.636 21.2513 163.542 20.3457 164.659 20.3457C165.776 20.3457 166.682 21.2513 166.682 22.3684Z" fill="#222222"/>
<path d="M186.909 22.3684C186.909 23.4855 186.003 24.3912 184.886 24.3912C183.769 24.3912 182.864 23.4855 182.864 22.3684C182.864 21.2513 183.769 20.3457 184.886 20.3457C186.003 20.3457 186.909 21.2513 186.909 22.3684Z" fill="#222222"/>
<path d="M4.86154 42.5959C4.86154 43.7131 3.95592 44.6187 2.83879 44.6187C1.72166 44.6187 0.81604 43.7131 0.81604 42.5959C0.81604 41.4788 1.72166 40.5732 2.83879 40.5732C3.95592 40.5732 4.86154 41.4788 4.86154 42.5959Z" fill="#222222"/>
<path d="M25.089 42.5959C25.089 43.7131 24.1834 44.6187 23.0663 44.6187C21.9492 44.6187 21.0435 43.7131 21.0435 42.5959C21.0435 41.4788 21.9492 40.5732 23.0663 40.5732C24.1834 40.5732 25.089 41.4788 25.089 42.5959Z" fill="#222222"/>
<path d="M45.3165 42.5959C45.3165 43.7131 44.4109 44.6187 43.2938 44.6187C42.1767 44.6187 41.271 43.7131 41.271 42.5959C41.271 41.4788 42.1767 40.5732 43.2938 40.5732C44.4109 40.5732 45.3165 41.4788 45.3165 42.5959Z" fill="#222222"/>
<path d="M65.544 42.5959C65.544 43.7131 64.6384 44.6187 63.5213 44.6187C62.4042 44.6187 61.4985 43.7131 61.4985 42.5959C61.4985 41.4788 62.4042 40.5732 63.5213 40.5732C64.6384 40.5732 65.544 41.4788 65.544 42.5959Z" fill="#222222"/>
<path d="M85.7715 42.5959C85.7715 43.7131 84.8659 44.6187 83.7488 44.6187C82.6317 44.6187 81.726 43.7131 81.726 42.5959C81.726 41.4788 82.6317 40.5732 83.7488 40.5732C84.8659 40.5732 85.7715 41.4788 85.7715 42.5959Z" fill="#222222"/>
<path d="M105.999 42.5959C105.999 43.7131 105.093 44.6187 103.976 44.6187C102.859 44.6187 101.954 43.7131 101.954 42.5959C101.954 41.4788 102.859 40.5732 103.976 40.5732C105.093 40.5732 105.999 41.4788 105.999 42.5959Z" fill="#222222"/>
<path d="M126.227 42.5959C126.227 43.7131 125.321 44.6187 124.204 44.6187C123.087 44.6187 122.181 43.7131 122.181 42.5959C122.181 41.4788 123.087 40.5732 124.204 40.5732C125.321 40.5732 126.227 41.4788 126.227 42.5959Z" fill="#222222"/>
<path d="M146.454 42.5959C146.454 43.7131 145.548 44.6187 144.431 44.6187C143.314 44.6187 142.409 43.7131 142.409 42.5959C142.409 41.4788 143.314 40.5732 144.431 40.5732C145.548 40.5732 146.454 41.4788 146.454 42.5959Z" fill="#222222"/>
<path d="M166.682 42.5959C166.682 43.7131 165.776 44.6187 164.659 44.6187C163.542 44.6187 162.636 43.7131 162.636 42.5959C162.636 41.4788 163.542 40.5732 164.659 40.5732C165.776 40.5732 166.682 41.4788 166.682 42.5959Z" fill="#222222"/>
<path d="M186.909 42.5959C186.909 43.7131 186.003 44.6187 184.886 44.6187C183.769 44.6187 182.864 43.7131 182.864 42.5959C182.864 41.4788 183.769 40.5732 184.886 40.5732C186.003 40.5732 186.909 41.4788 186.909 42.5959Z" fill="#222222"/>
<path d="M4.86154 62.8234C4.86154 63.9406 3.95592 64.8462 2.83879 64.8462C1.72166 64.8462 0.81604 63.9406 0.81604 62.8234C0.81604 61.7063 1.72166 60.8007 2.83879 60.8007C3.95592 60.8007 4.86154 61.7063 4.86154 62.8234Z" fill="#222222"/>
<path d="M25.089 62.8235C25.089 63.9406 24.1834 64.8462 23.0663 64.8462C21.9492 64.8462 21.0435 63.9406 21.0435 62.8235C21.0435 61.7063 21.9492 60.8007 23.0663 60.8007C24.1834 60.8007 25.089 61.7063 25.089 62.8235Z" fill="#222222"/>
<path d="M45.3165 62.8235C45.3165 63.9406 44.4109 64.8462 43.2938 64.8462C42.1767 64.8462 41.271 63.9406 41.271 62.8235C41.271 61.7063 42.1767 60.8007 43.2938 60.8007C44.4109 60.8007 45.3165 61.7063 45.3165 62.8235Z" fill="#222222"/>
<path d="M65.544 62.8235C65.544 63.9406 64.6384 64.8462 63.5213 64.8462C62.4042 64.8462 61.4985 63.9406 61.4985 62.8235C61.4985 61.7063 62.4042 60.8007 63.5213 60.8007C64.6384 60.8007 65.544 61.7063 65.544 62.8235Z" fill="#222222"/>
<path d="M85.7715 62.8235C85.7715 63.9406 84.8659 64.8462 83.7488 64.8462C82.6317 64.8462 81.726 63.9406 81.726 62.8235C81.726 61.7063 82.6317 60.8007 83.7488 60.8007C84.8659 60.8007 85.7715 61.7063 85.7715 62.8235Z" fill="#222222"/>
<path d="M105.999 62.8235C105.999 63.9406 105.093 64.8462 103.976 64.8462C102.859 64.8462 101.954 63.9406 101.954 62.8235C101.954 61.7063 102.859 60.8007 103.976 60.8007C105.093 60.8007 105.999 61.7063 105.999 62.8235Z" fill="#222222"/>
<path d="M126.227 62.8235C126.227 63.9406 125.321 64.8462 124.204 64.8462C123.087 64.8462 122.181 63.9406 122.181 62.8235C122.181 61.7063 123.087 60.8007 124.204 60.8007C125.321 60.8007 126.227 61.7063 126.227 62.8235Z" fill="#222222"/>
<path d="M146.454 62.8235C146.454 63.9406 145.548 64.8462 144.431 64.8462C143.314 64.8462 142.409 63.9406 142.409 62.8235C142.409 61.7063 143.314 60.8007 144.431 60.8007C145.548 60.8007 146.454 61.7063 146.454 62.8235Z" fill="#222222"/>
<path d="M166.682 62.8235C166.682 63.9406 165.776 64.8462 164.659 64.8462C163.542 64.8462 162.636 63.9406 162.636 62.8235C162.636 61.7063 163.542 60.8007 164.659 60.8007C165.776 60.8007 166.682 61.7063 166.682 62.8235Z" fill="#222222"/>
<path d="M186.909 62.8235C186.909 63.9406 186.003 64.8462 184.886 64.8462C183.769 64.8462 182.864 63.9406 182.864 62.8235C182.864 61.7063 183.769 60.8007 184.886 60.8007C186.003 60.8007 186.909 61.7063 186.909 62.8235Z" fill="#222222"/>
<path d="M4.86154 83.051C4.86154 84.1682 3.95592 85.0738 2.83879 85.0738C1.72166 85.0738 0.81604 84.1682 0.81604 83.051C0.81604 81.9339 1.72166 81.0283 2.83879 81.0283C3.95592 81.0283 4.86154 81.9339 4.86154 83.051Z" fill="#222222"/>
<path d="M25.089 83.051C25.089 84.1681 24.1834 85.0737 23.0663 85.0737C21.9492 85.0737 21.0435 84.1681 21.0435 83.051C21.0435 81.9338 21.9492 81.0282 23.0663 81.0282C24.1834 81.0282 25.089 81.9338 25.089 83.051Z" fill="#222222"/>
<path d="M45.3165 83.051C45.3165 84.1681 44.4109 85.0737 43.2938 85.0737C42.1767 85.0737 41.271 84.1681 41.271 83.051C41.271 81.9338 42.1767 81.0282 43.2938 81.0282C44.4109 81.0282 45.3165 81.9338 45.3165 83.051Z" fill="#222222"/>
<path d="M65.544 83.051C65.544 84.1681 64.6384 85.0737 63.5213 85.0737C62.4042 85.0737 61.4985 84.1681 61.4985 83.051C61.4985 81.9338 62.4042 81.0282 63.5213 81.0282C64.6384 81.0282 65.544 81.9338 65.544 83.051Z" fill="#222222"/>
<path d="M85.7715 83.051C85.7715 84.1681 84.8659 85.0737 83.7488 85.0737C82.6317 85.0737 81.726 84.1681 81.726 83.051C81.726 81.9338 82.6317 81.0282 83.7488 81.0282C84.8659 81.0282 85.7715 81.9338 85.7715 83.051Z" fill="#222222"/>
<path d="M105.999 83.051C105.999 84.1681 105.093 85.0737 103.976 85.0737C102.859 85.0737 101.954 84.1681 101.954 83.051C101.954 81.9338 102.859 81.0282 103.976 81.0282C105.093 81.0282 105.999 81.9338 105.999 83.051Z" fill="#222222"/>
<path d="M126.227 83.051C126.227 84.1681 125.321 85.0737 124.204 85.0737C123.087 85.0737 122.181 84.1681 122.181 83.051C122.181 81.9338 123.087 81.0282 124.204 81.0282C125.321 81.0282 126.227 81.9338 126.227 83.051Z" fill="#222222"/>
<path d="M146.454 83.051C146.454 84.1681 145.548 85.0737 144.431 85.0737C143.314 85.0737 142.409 84.1681 142.409 83.051C142.409 81.9338 143.314 81.0282 144.431 81.0282C145.548 81.0282 146.454 81.9338 146.454 83.051Z" fill="#222222"/>
<path d="M166.682 83.051C166.682 84.1681 165.776 85.0737 164.659 85.0737C163.542 85.0737 162.636 84.1681 162.636 83.051C162.636 81.9338 163.542 81.0282 164.659 81.0282C165.776 81.0282 166.682 81.9338 166.682 83.051Z" fill="#222222"/>
<path d="M186.909 83.051C186.909 84.1681 186.003 85.0737 184.886 85.0737C183.769 85.0737 182.864 84.1681 182.864 83.051C182.864 81.9338 183.769 81.0282 184.886 81.0282C186.003 81.0282 186.909 81.9338 186.909 83.051Z" fill="#222222"/>
<path d="M4.86154 103.279C4.86154 104.396 3.95592 105.301 2.83879 105.301C1.72166 105.301 0.81604 104.396 0.81604 103.279C0.81604 102.161 1.72166 101.256 2.83879 101.256C3.95592 101.256 4.86154 102.161 4.86154 103.279Z" fill="#222222"/>
<path d="M25.089 103.279C25.089 104.396 24.1834 105.301 23.0663 105.301C21.9492 105.301 21.0435 104.396 21.0435 103.279C21.0435 102.161 21.9492 101.256 23.0663 101.256C24.1834 101.256 25.089 102.161 25.089 103.279Z" fill="#222222"/>
<path d="M45.3165 103.279C45.3165 104.396 44.4109 105.301 43.2938 105.301C42.1767 105.301 41.271 104.396 41.271 103.279C41.271 102.161 42.1767 101.256 43.2938 101.256C44.4109 101.256 45.3165 102.161 45.3165 103.279Z" fill="#222222"/>
<path d="M65.544 103.279C65.544 104.396 64.6384 105.301 63.5213 105.301C62.4042 105.301 61.4985 104.396 61.4985 103.279C61.4985 102.161 62.4042 101.256 63.5213 101.256C64.6384 101.256 65.544 102.161 65.544 103.279Z" fill="#222222"/>
<path d="M85.7715 103.279C85.7715 104.396 84.8659 105.301 83.7488 105.301C82.6317 105.301 81.726 104.396 81.726 103.279C81.726 102.161 82.6317 101.256 83.7488 101.256C84.8659 101.256 85.7715 102.161 85.7715 103.279Z" fill="#222222"/>
<path d="M105.999 103.279C105.999 104.396 105.093 105.301 103.976 105.301C102.859 105.301 101.954 104.396 101.954 103.279C101.954 102.161 102.859 101.256 103.976 101.256C105.093 101.256 105.999 102.161 105.999 103.279Z" fill="#222222"/>
<path d="M126.227 103.279C126.227 104.396 125.321 105.301 124.204 105.301C123.087 105.301 122.181 104.396 122.181 103.279C122.181 102.161 123.087 101.256 124.204 101.256C125.321 101.256 126.227 102.161 126.227 103.279Z" fill="#222222"/>
<path d="M146.454 103.279C146.454 104.396 145.548 105.301 144.431 105.301C143.314 105.301 142.409 104.396 142.409 103.279C142.409 102.161 143.314 101.256 144.431 101.256C145.548 101.256 146.454 102.161 146.454 103.279Z" fill="#222222"/>
<path d="M166.682 103.279C166.682 104.396 165.776 105.301 164.659 105.301C163.542 105.301 162.636 104.396 162.636 103.279C162.636 102.161 163.542 101.256 164.659 101.256C165.776 101.256 166.682 102.161 166.682 103.279Z" fill="#222222"/>
<path d="M186.909 103.279C186.909 104.396 186.003 105.301 184.886 105.301C183.769 105.301 182.864 104.396 182.864 103.279C182.864 102.161 183.769 101.256 184.886 101.256C186.003 101.256 186.909 102.161 186.909 103.279Z" fill="#222222"/>
<path d="M4.86154 123.506C4.86154 124.623 3.95592 125.529 2.83879 125.529C1.72166 125.529 0.81604 124.623 0.81604 123.506C0.81604 122.389 1.72166 121.483 2.83879 121.483C3.95592 121.483 4.86154 122.389 4.86154 123.506Z" fill="#222222"/>
<path d="M25.089 123.506C25.089 124.623 24.1834 125.529 23.0663 125.529C21.9492 125.529 21.0435 124.623 21.0435 123.506C21.0435 122.389 21.9492 121.483 23.0663 121.483C24.1834 121.483 25.089 122.389 25.089 123.506Z" fill="#222222"/>
<path d="M45.3165 123.506C45.3165 124.623 44.4109 125.529 43.2938 125.529C42.1767 125.529 41.271 124.623 41.271 123.506C41.271 122.389 42.1767 121.483 43.2938 121.483C44.4109 121.483 45.3165 122.389 45.3165 123.506Z" fill="#222222"/>
<path d="M65.544 123.506C65.544 124.623 64.6384 125.529 63.5213 125.529C62.4042 125.529 61.4985 124.623 61.4985 123.506C61.4985 122.389 62.4042 121.483 63.5213 121.483C64.6384 121.483 65.544 122.389 65.544 123.506Z" fill="#222222"/>
<path d="M85.7715 123.506C85.7715 124.623 84.8659 125.529 83.7488 125.529C82.6317 125.529 81.726 124.623 81.726 123.506C81.726 122.389 82.6317 121.483 83.7488 121.483C84.8659 121.483 85.7715 122.389 85.7715 123.506Z" fill="#222222"/>
<path d="M105.999 123.506C105.999 124.623 105.093 125.529 103.976 125.529C102.859 125.529 101.954 124.623 101.954 123.506C101.954 122.389 102.859 121.483 103.976 121.483C105.093 121.483 105.999 122.389 105.999 123.506Z" fill="#222222"/>
<path d="M126.227 123.506C126.227 124.623 125.321 125.529 124.204 125.529C123.087 125.529 122.181 124.623 122.181 123.506C122.181 122.389 123.087 121.483 124.204 121.483C125.321 121.483 126.227 122.389 126.227 123.506Z" fill="#222222"/>
<path d="M146.454 123.506C146.454 124.623 145.548 125.529 144.431 125.529C143.314 125.529 142.409 124.623 142.409 123.506C142.409 122.389 143.314 121.483 144.431 121.483C145.548 121.483 146.454 122.389 146.454 123.506Z" fill="#222222"/>
<path d="M166.682 123.506C166.682 124.623 165.776 125.529 164.659 125.529C163.542 125.529 162.636 124.623 162.636 123.506C162.636 122.389 163.542 121.483 164.659 121.483C165.776 121.483 166.682 122.389 166.682 123.506Z" fill="#222222"/>
<path d="M186.909 123.506C186.909 124.623 186.003 125.529 184.886 125.529C183.769 125.529 182.864 124.623 182.864 123.506C182.864 122.389 183.769 121.483 184.886 121.483C186.003 121.483 186.909 122.389 186.909 123.506Z" fill="#222222"/>
<path d="M4.86154 143.734C4.86154 144.851 3.95592 145.756 2.83879 145.756C1.72166 145.756 0.81604 144.851 0.81604 143.734C0.81604 142.616 1.72166 141.711 2.83879 141.711C3.95592 141.711 4.86154 142.616 4.86154 143.734Z" fill="#222222"/>
<path d="M25.089 143.734C25.089 144.851 24.1834 145.756 23.0663 145.756C21.9492 145.756 21.0435 144.851 21.0435 143.734C21.0435 142.616 21.9492 141.711 23.0663 141.711C24.1834 141.711 25.089 142.616 25.089 143.734Z" fill="#222222"/>
<path d="M45.3165 143.734C45.3165 144.851 44.4109 145.756 43.2938 145.756C42.1767 145.756 41.271 144.851 41.271 143.734C41.271 142.616 42.1767 141.711 43.2938 141.711C44.4109 141.711 45.3165 142.616 45.3165 143.734Z" fill="#222222"/>
<path d="M65.544 143.734C65.544 144.851 64.6384 145.756 63.5213 145.756C62.4042 145.756 61.4985 144.851 61.4985 143.734C61.4985 142.616 62.4042 141.711 63.5213 141.711C64.6384 141.711 65.544 142.616 65.544 143.734Z" fill="#222222"/>
<path d="M85.7715 143.734C85.7715 144.851 84.8659 145.756 83.7488 145.756C82.6317 145.756 81.726 144.851 81.726 143.734C81.726 142.616 82.6317 141.711 83.7488 141.711C84.8659 141.711 85.7715 142.616 85.7715 143.734Z" fill="#222222"/>
<path d="M105.999 143.734C105.999 144.851 105.093 145.756 103.976 145.756C102.859 145.756 101.954 144.851 101.954 143.734C101.954 142.616 102.859 141.711 103.976 141.711C105.093 141.711 105.999 142.616 105.999 143.734Z" fill="#222222"/>
<path d="M126.227 143.734C126.227 144.851 125.321 145.756 124.204 145.756C123.087 145.756 122.181 144.851 122.181 143.734C122.181 142.616 123.087 141.711 124.204 141.711C125.321 141.711 126.227 142.616 126.227 143.734Z" fill="#222222"/>
<path d="M146.454 143.734C146.454 144.851 145.548 145.756 144.431 145.756C143.314 145.756 142.409 144.851 142.409 143.734C142.409 142.616 143.314 141.711 144.431 141.711C145.548 141.711 146.454 142.616 146.454 143.734Z" fill="#222222"/>
<path d="M166.682 143.734C166.682 144.851 165.776 145.756 164.659 145.756C163.542 145.756 162.636 144.851 162.636 143.734C162.636 142.616 163.542 141.711 164.659 141.711C165.776 141.711 166.682 142.616 166.682 143.734Z" fill="#222222"/>
<path d="M186.909 143.734C186.909 144.851 186.003 145.756 184.886 145.756C183.769 145.756 182.864 144.851 182.864 143.734C182.864 142.616 183.769 141.711 184.886 141.711C186.003 141.711 186.909 142.616 186.909 143.734Z" fill="#222222"/>
<path d="M4.86154 163.961C4.86154 165.078 3.95592 165.984 2.83879 165.984C1.72166 165.984 0.81604 165.078 0.81604 163.961C0.81604 162.844 1.72166 161.938 2.83879 161.938C3.95592 161.938 4.86154 162.844 4.86154 163.961Z" fill="#222222"/>
<path d="M25.089 163.961C25.089 165.078 24.1834 165.984 23.0663 165.984C21.9492 165.984 21.0435 165.078 21.0435 163.961C21.0435 162.844 21.9492 161.938 23.0663 161.938C24.1834 161.938 25.089 162.844 25.089 163.961Z" fill="#222222"/>
<path d="M45.3165 163.961C45.3165 165.078 44.4109 165.984 43.2938 165.984C42.1767 165.984 41.271 165.078 41.271 163.961C41.271 162.844 42.1767 161.938 43.2938 161.938C44.4109 161.938 45.3165 162.844 45.3165 163.961Z" fill="#222222"/>
<path d="M65.544 163.961C65.544 165.078 64.6384 165.984 63.5213 165.984C62.4042 165.984 61.4985 165.078 61.4985 163.961C61.4985 162.844 62.4042 161.938 63.5213 161.938C64.6384 161.938 65.544 162.844 65.544 163.961Z" fill="#222222"/>
<path d="M85.7715 163.961C85.7715 165.078 84.8659 165.984 83.7488 165.984C82.6317 165.984 81.726 165.078 81.726 163.961C81.726 162.844 82.6317 161.938 83.7488 161.938C84.8659 161.938 85.7715 162.844 85.7715 163.961Z" fill="#222222"/>
<path d="M105.999 163.961C105.999 165.078 105.093 165.984 103.976 165.984C102.859 165.984 101.954 165.078 101.954 163.961C101.954 162.844 102.859 161.938 103.976 161.938C105.093 161.938 105.999 162.844 105.999 163.961Z" fill="#222222"/>
<path d="M126.227 163.961C126.227 165.078 125.321 165.984 124.204 165.984C123.087 165.984 122.181 165.078 122.181 163.961C122.181 162.844 123.087 161.938 124.204 161.938C125.321 161.938 126.227 162.844 126.227 163.961Z" fill="#222222"/>
<path d="M146.454 163.961C146.454 165.078 145.548 165.984 144.431 165.984C143.314 165.984 142.409 165.078 142.409 163.961C142.409 162.844 143.314 161.938 144.431 161.938C145.548 161.938 146.454 162.844 146.454 163.961Z" fill="#222222"/>
<path d="M166.682 163.961C166.682 165.078 165.776 165.984 164.659 165.984C163.542 165.984 162.636 165.078 162.636 163.961C162.636 162.844 163.542 161.938 164.659 161.938C165.776 161.938 166.682 162.844 166.682 163.961Z" fill="#222222"/>
<path d="M186.909 163.961C186.909 165.078 186.003 165.984 184.886 165.984C183.769 165.984 182.864 165.078 182.864 163.961C182.864 162.844 183.769 161.938 184.886 161.938C186.003 161.938 186.909 162.844 186.909 163.961Z" fill="#222222"/>
<path d="M4.86154 184.189C4.86154 185.306 3.95592 186.211 2.83879 186.211C1.72166 186.211 0.81604 185.306 0.81604 184.189C0.81604 183.071 1.72166 182.166 2.83879 182.166C3.95592 182.166 4.86154 183.071 4.86154 184.189Z" fill="#222222"/>
<path d="M25.089 184.189C25.089 185.306 24.1834 186.211 23.0663 186.211C21.9492 186.211 21.0435 185.306 21.0435 184.189C21.0435 183.071 21.9492 182.166 23.0663 182.166C24.1834 182.166 25.089 183.071 25.089 184.189Z" fill="#222222"/>
<path d="M45.3165 184.189C45.3165 185.306 44.4109 186.211 43.2938 186.211C42.1767 186.211 41.271 185.306 41.271 184.189C41.271 183.071 42.1767 182.166 43.2938 182.166C44.4109 182.166 45.3165 183.071 45.3165 184.189Z" fill="#222222"/>
<path d="M65.544 184.189C65.544 185.306 64.6384 186.211 63.5213 186.211C62.4042 186.211 61.4985 185.306 61.4985 184.189C61.4985 183.071 62.4042 182.166 63.5213 182.166C64.6384 182.166 65.544 183.071 65.544 184.189Z" fill="#222222"/>
<path d="M85.7715 184.189C85.7715 185.306 84.8659 186.211 83.7488 186.211C82.6317 186.211 81.726 185.306 81.726 184.189C81.726 183.071 82.6317 182.166 83.7488 182.166C84.8659 182.166 85.7715 183.071 85.7715 184.189Z" fill="#222222"/>
<path d="M105.999 184.189C105.999 185.306 105.093 186.211 103.976 186.211C102.859 186.211 101.954 185.306 101.954 184.189C101.954 183.071 102.859 182.166 103.976 182.166C105.093 182.166 105.999 183.071 105.999 184.189Z" fill="#222222"/>
<path d="M126.227 184.189C126.227 185.306 125.321 186.211 124.204 186.211C123.087 186.211 122.181 185.306 122.181 184.189C122.181 183.071 123.087 182.166 124.204 182.166C125.321 182.166 126.227 183.071 126.227 184.189Z" fill="#222222"/>
<path d="M146.454 184.189C146.454 185.306 145.548 186.211 144.431 186.211C143.314 186.211 142.409 185.306 142.409 184.189C142.409 183.071 143.314 182.166 144.431 182.166C145.548 182.166 146.454 183.071 146.454 184.189Z" fill="#222222"/>
<path d="M166.682 184.189C166.682 185.306 165.776 186.211 164.659 186.211C163.542 186.211 162.636 185.306 162.636 184.189C162.636 183.071 163.542 182.166 164.659 182.166C165.776 182.166 166.682 183.071 166.682 184.189Z" fill="#222222"/>
<path d="M186.909 184.189C186.909 185.306 186.003 186.211 184.886 186.211C183.769 186.211 182.864 185.306 182.864 184.189C182.864 183.071 183.769 182.166 184.886 182.166C186.003 182.166 186.909 183.071 186.909 184.189Z" fill="#222222"/>
<path d="M4.86154 204.416C4.86154 205.533 3.95592 206.439 2.83879 206.439C1.72166 206.439 0.81604 205.533 0.81604 204.416C0.81604 203.299 1.72166 202.393 2.83879 202.393C3.95592 202.393 4.86154 203.299 4.86154 204.416Z" fill="#222222"/>
<path d="M25.089 204.416C25.089 205.533 24.1834 206.439 23.0663 206.439C21.9492 206.439 21.0435 205.533 21.0435 204.416C21.0435 203.299 21.9492 202.393 23.0663 202.393C24.1834 202.393 25.089 203.299 25.089 204.416Z" fill="#222222"/>
<path d="M45.3165 204.416C45.3165 205.533 44.4109 206.439 43.2938 206.439C42.1767 206.439 41.271 205.533 41.271 204.416C41.271 203.299 42.1767 202.393 43.2938 202.393C44.4109 202.393 45.3165 203.299 45.3165 204.416Z" fill="#222222"/>
<path d="M65.544 204.416C65.544 205.533 64.6384 206.439 63.5213 206.439C62.4042 206.439 61.4985 205.533 61.4985 204.416C61.4985 203.299 62.4042 202.393 63.5213 202.393C64.6384 202.393 65.544 203.299 65.544 204.416Z" fill="#222222"/>
<path d="M85.7715 204.416C85.7715 205.533 84.8659 206.439 83.7488 206.439C82.6317 206.439 81.726 205.533 81.726 204.416C81.726 203.299 82.6317 202.393 83.7488 202.393C84.8659 202.393 85.7715 203.299 85.7715 204.416Z" fill="#222222"/>
<path d="M105.999 204.416C105.999 205.533 105.093 206.439 103.976 206.439C102.859 206.439 101.954 205.533 101.954 204.416C101.954 203.299 102.859 202.393 103.976 202.393C105.093 202.393 105.999 203.299 105.999 204.416Z" fill="#222222"/>
<path d="M126.227 204.416C126.227 205.533 125.321 206.439 124.204 206.439C123.087 206.439 122.181 205.533 122.181 204.416C122.181 203.299 123.087 202.393 124.204 202.393C125.321 202.393 126.227 203.299 126.227 204.416Z" fill="#222222"/>
<path d="M146.454 204.416C146.454 205.533 145.548 206.439 144.431 206.439C143.314 206.439 142.409 205.533 142.409 204.416C142.409 203.299 143.314 202.393 144.431 202.393C145.548 202.393 146.454 203.299 146.454 204.416Z" fill="#222222"/>
<path d="M166.682 204.416C166.682 205.533 165.776 206.439 164.659 206.439C163.542 206.439 162.636 205.533 162.636 204.416C162.636 203.299 163.542 202.393 164.659 202.393C165.776 202.393 166.682 203.299 166.682 204.416Z" fill="#222222"/>
<path d="M186.909 204.416C186.909 205.533 186.003 206.439 184.886 206.439C183.769 206.439 182.864 205.533 182.864 204.416C182.864 203.299 183.769 202.393 184.886 202.393C186.003 202.393 186.909 203.299 186.909 204.416Z" fill="#222222"/>
<path d="M4.86154 224.644C4.86154 225.761 3.95592 226.666 2.83879 226.666C1.72166 226.666 0.81604 225.761 0.81604 224.644C0.81604 223.526 1.72166 222.621 2.83879 222.621C3.95592 222.621 4.86154 223.526 4.86154 224.644Z" fill="#222222"/>
<path d="M25.089 224.644C25.089 225.761 24.1834 226.666 23.0663 226.666C21.9492 226.666 21.0435 225.761 21.0435 224.644C21.0435 223.526 21.9492 222.621 23.0663 222.621C24.1834 222.621 25.089 223.526 25.089 224.644Z" fill="#222222"/>
<path d="M45.3165 224.644C45.3165 225.761 44.4109 226.666 43.2938 226.666C42.1767 226.666 41.271 225.761 41.271 224.644C41.271 223.526 42.1767 222.621 43.2938 222.621C44.4109 222.621 45.3165 223.526 45.3165 224.644Z" fill="#222222"/>
<path d="M65.544 224.644C65.544 225.761 64.6384 226.666 63.5213 226.666C62.4042 226.666 61.4985 225.761 61.4985 224.644C61.4985 223.526 62.4042 222.621 63.5213 222.621C64.6384 222.621 65.544 223.526 65.544 224.644Z" fill="#222222"/>
<path d="M85.7715 224.644C85.7715 225.761 84.8659 226.666 83.7488 226.666C82.6317 226.666 81.726 225.761 81.726 224.644C81.726 223.526 82.6317 222.621 83.7488 222.621C84.8659 222.621 85.7715 223.526 85.7715 224.644Z" fill="#222222"/>
<path d="M105.999 224.644C105.999 225.761 105.093 226.666 103.976 226.666C102.859 226.666 101.954 225.761 101.954 224.644C101.954 223.526 102.859 222.621 103.976 222.621C105.093 222.621 105.999 223.526 105.999 224.644Z" fill="#222222"/>
<path d="M126.227 224.644C126.227 225.761 125.321 226.666 124.204 226.666C123.087 226.666 122.181 225.761 122.181 224.644C122.181 223.526 123.087 222.621 124.204 222.621C125.321 222.621 126.227 223.526 126.227 224.644Z" fill="#222222"/>
<path d="M146.454 224.644C146.454 225.761 145.548 226.666 144.431 226.666C143.314 226.666 142.409 225.761 142.409 224.644C142.409 223.526 143.314 222.621 144.431 222.621C145.548 222.621 146.454 223.526 146.454 224.644Z" fill="#222222"/>
<path d="M166.682 224.644C166.682 225.761 165.776 226.666 164.659 226.666C163.542 226.666 162.636 225.761 162.636 224.644C162.636 223.526 163.542 222.621 164.659 222.621C165.776 222.621 166.682 223.526 166.682 224.644Z" fill="#222222"/>
<path d="M186.909 224.644C186.909 225.761 186.003 226.666 184.886 226.666C183.769 226.666 182.864 225.761 182.864 224.644C182.864 223.526 183.769 222.621 184.886 222.621C186.003 222.621 186.909 223.526 186.909 224.644Z" fill="#222222"/>
<path d="M4.86154 244.871C4.86154 245.988 3.95592 246.894 2.83879 246.894C1.72166 246.894 0.81604 245.988 0.81604 244.871C0.81604 243.754 1.72166 242.848 2.83879 242.848C3.95592 242.848 4.86154 243.754 4.86154 244.871Z" fill="#222222"/>
<path d="M25.089 244.871C25.089 245.988 24.1834 246.894 23.0663 246.894C21.9492 246.894 21.0435 245.988 21.0435 244.871C21.0435 243.754 21.9492 242.848 23.0663 242.848C24.1834 242.848 25.089 243.754 25.089 244.871Z" fill="#222222"/>
<path d="M45.3165 244.871C45.3165 245.988 44.4109 246.894 43.2938 246.894C42.1767 246.894 41.271 245.988 41.271 244.871C41.271 243.754 42.1767 242.848 43.2938 242.848C44.4109 242.848 45.3165 243.754 45.3165 244.871Z" fill="#222222"/>
<path d="M65.544 244.871C65.544 245.988 64.6384 246.894 63.5213 246.894C62.4042 246.894 61.4985 245.988 61.4985 244.871C61.4985 243.754 62.4042 242.848 63.5213 242.848C64.6384 242.848 65.544 243.754 65.544 244.871Z" fill="#222222"/>
<path d="M85.7715 244.871C85.7715 245.988 84.8659 246.894 83.7488 246.894C82.6317 246.894 81.726 245.988 81.726 244.871C81.726 243.754 82.6317 242.848 83.7488 242.848C84.8659 242.848 85.7715 243.754 85.7715 244.871Z" fill="#222222"/>
<path d="M105.999 244.871C105.999 245.988 105.093 246.894 103.976 246.894C102.859 246.894 101.954 245.988 101.954 244.871C101.954 243.754 102.859 242.848 103.976 242.848C105.093 242.848 105.999 243.754 105.999 244.871Z" fill="#222222"/>
<path d="M126.227 244.871C126.227 245.988 125.321 246.894 124.204 246.894C123.087 246.894 122.181 245.988 122.181 244.871C122.181 243.754 123.087 242.848 124.204 242.848C125.321 242.848 126.227 243.754 126.227 244.871Z" fill="#222222"/>
<path d="M146.454 244.871C146.454 245.988 145.548 246.894 144.431 246.894C143.314 246.894 142.409 245.988 142.409 244.871C142.409 243.754 143.314 242.848 144.431 242.848C145.548 242.848 146.454 243.754 146.454 244.871Z" fill="#222222"/>
<path d="M166.682 244.871C166.682 245.988 165.776 246.894 164.659 246.894C163.542 246.894 162.636 245.988 162.636 244.871C162.636 243.754 163.542 242.848 164.659 242.848C165.776 242.848 166.682 243.754 166.682 244.871Z" fill="#222222"/>
<path d="M186.909 244.871C186.909 245.988 186.003 246.894 184.886 246.894C183.769 246.894 182.864 245.988 182.864 244.871C182.864 243.754 183.769 242.848 184.886 242.848C186.003 242.848 186.909 243.754 186.909 244.871Z" fill="#222222"/>
<path d="M4.86154 265.099C4.86154 266.216 3.95592 267.121 2.83879 267.121C1.72166 267.121 0.81604 266.216 0.81604 265.099C0.81604 263.982 1.72166 263.076 2.83879 263.076C3.95592 263.076 4.86154 263.982 4.86154 265.099Z" fill="#222222"/>
<path d="M25.089 265.099C25.089 266.216 24.1834 267.121 23.0663 267.121C21.9492 267.121 21.0435 266.216 21.0435 265.099C21.0435 263.982 21.9492 263.076 23.0663 263.076C24.1834 263.076 25.089 263.982 25.089 265.099Z" fill="#222222"/>
<path d="M45.3165 265.099C45.3165 266.216 44.4109 267.121 43.2938 267.121C42.1767 267.121 41.271 266.216 41.271 265.099C41.271 263.982 42.1767 263.076 43.2938 263.076C44.4109 263.076 45.3165 263.982 45.3165 265.099Z" fill="#222222"/>
<path d="M65.544 265.099C65.544 266.216 64.6384 267.121 63.5213 267.121C62.4042 267.121 61.4985 266.216 61.4985 265.099C61.4985 263.982 62.4042 263.076 63.5213 263.076C64.6384 263.076 65.544 263.982 65.544 265.099Z" fill="#222222"/>
<path d="M85.7715 265.099C85.7715 266.216 84.8659 267.121 83.7488 267.121C82.6317 267.121 81.726 266.216 81.726 265.099C81.726 263.982 82.6317 263.076 83.7488 263.076C84.8659 263.076 85.7715 263.982 85.7715 265.099Z" fill="#222222"/>
<path d="M105.999 265.099C105.999 266.216 105.093 267.121 103.976 267.121C102.859 267.121 101.954 266.216 101.954 265.099C101.954 263.982 102.859 263.076 103.976 263.076C105.093 263.076 105.999 263.982 105.999 265.099Z" fill="#222222"/>
<path d="M126.227 265.099C126.227 266.216 125.321 267.121 124.204 267.121C123.087 267.121 122.181 266.216 122.181 265.099C122.181 263.982 123.087 263.076 124.204 263.076C125.321 263.076 126.227 263.982 126.227 265.099Z" fill="#222222"/>
<path d="M146.454 265.099C146.454 266.216 145.548 267.121 144.431 267.121C143.314 267.121 142.409 266.216 142.409 265.099C142.409 263.982 143.314 263.076 144.431 263.076C145.548 263.076 146.454 263.982 146.454 265.099Z" fill="#222222"/>
<path d="M166.682 265.099C166.682 266.216 165.776 267.121 164.659 267.121C163.542 267.121 162.636 266.216 162.636 265.099C162.636 263.982 163.542 263.076 164.659 263.076C165.776 263.076 166.682 263.982 166.682 265.099Z" fill="#222222"/>
<path d="M186.909 265.099C186.909 266.216 186.003 267.121 184.886 267.121C183.769 267.121 182.864 266.216 182.864 265.099C182.864 263.982 183.769 263.076 184.886 263.076C186.003 263.076 186.909 263.982 186.909 265.099Z" fill="#222222"/>
<path d="M4.86154 285.326C4.86154 286.443 3.95592 287.349 2.83879 287.349C1.72166 287.349 0.81604 286.443 0.81604 285.326C0.81604 284.209 1.72166 283.303 2.83879 283.303C3.95592 283.303 4.86154 284.209 4.86154 285.326Z" fill="#222222"/>
<path d="M25.089 285.326C25.089 286.443 24.1834 287.349 23.0663 287.349C21.9492 287.349 21.0435 286.443 21.0435 285.326C21.0435 284.209 21.9492 283.303 23.0663 283.303C24.1834 283.303 25.089 284.209 25.089 285.326Z" fill="#222222"/>
<path d="M45.3165 285.326C45.3165 286.443 44.4109 287.349 43.2938 287.349C42.1767 287.349 41.271 286.443 41.271 285.326C41.271 284.209 42.1767 283.303 43.2938 283.303C44.4109 283.303 45.3165 284.209 45.3165 285.326Z" fill="#222222"/>
<path d="M65.544 285.326C65.544 286.443 64.6384 287.349 63.5213 287.349C62.4042 287.349 61.4985 286.443 61.4985 285.326C61.4985 284.209 62.4042 283.303 63.5213 283.303C64.6384 283.303 65.544 284.209 65.544 285.326Z" fill="#222222"/>
<path d="M85.7715 285.326C85.7715 286.443 84.8659 287.349 83.7488 287.349C82.6317 287.349 81.726 286.443 81.726 285.326C81.726 284.209 82.6317 283.303 83.7488 283.303C84.8659 283.303 85.7715 284.209 85.7715 285.326Z" fill="#222222"/>
<path d="M105.999 285.326C105.999 286.443 105.093 287.349 103.976 287.349C102.859 287.349 101.954 286.443 101.954 285.326C101.954 284.209 102.859 283.303 103.976 283.303C105.093 283.303 105.999 284.209 105.999 285.326Z" fill="#222222"/>
<path d="M126.227 285.326C126.227 286.443 125.321 287.349 124.204 287.349C123.087 287.349 122.181 286.443 122.181 285.326C122.181 284.209 123.087 283.303 124.204 283.303C125.321 283.303 126.227 284.209 126.227 285.326Z" fill="#222222"/>
<path d="M146.454 285.326C146.454 286.443 145.548 287.349 144.431 287.349C143.314 287.349 142.409 286.443 142.409 285.326C142.409 284.209 143.314 283.303 144.431 283.303C145.548 283.303 146.454 284.209 146.454 285.326Z" fill="#222222"/>
<path d="M166.682 285.326C166.682 286.443 165.776 287.349 164.659 287.349C163.542 287.349 162.636 286.443 162.636 285.326C162.636 284.209 163.542 283.303 164.659 283.303C165.776 283.303 166.682 284.209 166.682 285.326Z" fill="#222222"/>
<path d="M186.909 285.326C186.909 286.443 186.003 287.349 184.886 287.349C183.769 287.349 182.864 286.443 182.864 285.326C182.864 284.209 183.769 283.303 184.886 283.303C186.003 283.303 186.909 284.209 186.909 285.326Z" fill="#222222"/>
<path d="M4.86154 305.554C4.86154 306.671 3.95592 307.576 2.83879 307.576C1.72166 307.576 0.81604 306.671 0.81604 305.554C0.81604 304.437 1.72166 303.531 2.83879 303.531C3.95592 303.531 4.86154 304.437 4.86154 305.554Z" fill="#222222"/>
<path d="M25.089 305.554C25.089 306.671 24.1834 307.576 23.0663 307.576C21.9492 307.576 21.0435 306.671 21.0435 305.554C21.0435 304.437 21.9492 303.531 23.0663 303.531C24.1834 303.531 25.089 304.437 25.089 305.554Z" fill="#222222"/>
<path d="M45.3165 305.554C45.3165 306.671 44.4109 307.576 43.2938 307.576C42.1767 307.576 41.271 306.671 41.271 305.554C41.271 304.437 42.1767 303.531 43.2938 303.531C44.4109 303.531 45.3165 304.437 45.3165 305.554Z" fill="#222222"/>
<path d="M65.544 305.554C65.544 306.671 64.6384 307.576 63.5213 307.576C62.4042 307.576 61.4985 306.671 61.4985 305.554C61.4985 304.437 62.4042 303.531 63.5213 303.531C64.6384 303.531 65.544 304.437 65.544 305.554Z" fill="#222222"/>
<path d="M85.7715 305.554C85.7715 306.671 84.8659 307.576 83.7488 307.576C82.6317 307.576 81.726 306.671 81.726 305.554C81.726 304.437 82.6317 303.531 83.7488 303.531C84.8659 303.531 85.7715 304.437 85.7715 305.554Z" fill="#222222"/>
<path d="M105.999 305.554C105.999 306.671 105.093 307.576 103.976 307.576C102.859 307.576 101.954 306.671 101.954 305.554C101.954 304.437 102.859 303.531 103.976 303.531C105.093 303.531 105.999 304.437 105.999 305.554Z" fill="#222222"/>
<path d="M126.227 305.554C126.227 306.671 125.321 307.576 124.204 307.576C123.087 307.576 122.181 306.671 122.181 305.554C122.181 304.437 123.087 303.531 124.204 303.531C125.321 303.531 126.227 304.437 126.227 305.554Z" fill="#222222"/>
<path d="M146.454 305.554C146.454 306.671 145.548 307.576 144.431 307.576C143.314 307.576 142.409 306.671 142.409 305.554C142.409 304.437 143.314 303.531 144.431 303.531C145.548 303.531 146.454 304.437 146.454 305.554Z" fill="#222222"/>
<path d="M166.682 305.554C166.682 306.671 165.776 307.576 164.659 307.576C163.542 307.576 162.636 306.671 162.636 305.554C162.636 304.437 163.542 303.531 164.659 303.531C165.776 303.531 166.682 304.437 166.682 305.554Z" fill="#222222"/>
<path d="M186.909 305.554C186.909 306.671 186.003 307.576 184.886 307.576C183.769 307.576 182.864 306.671 182.864 305.554C182.864 304.437 183.769 303.531 184.886 303.531C186.003 303.531 186.909 304.437 186.909 305.554Z" fill="#222222"/>
<path d="M4.86154 325.781C4.86154 326.898 3.95592 327.804 2.83879 327.804C1.72166 327.804 0.81604 326.898 0.81604 325.781C0.81604 324.664 1.72166 323.758 2.83879 323.758C3.95592 323.758 4.86154 324.664 4.86154 325.781Z" fill="#222222"/>
<path d="M25.089 325.781C25.089 326.898 24.1834 327.804 23.0663 327.804C21.9492 327.804 21.0435 326.898 21.0435 325.781C21.0435 324.664 21.9492 323.758 23.0663 323.758C24.1834 323.758 25.089 324.664 25.089 325.781Z" fill="#222222"/>
<path d="M45.3165 325.781C45.3165 326.898 44.4109 327.804 43.2938 327.804C42.1767 327.804 41.271 326.898 41.271 325.781C41.271 324.664 42.1767 323.758 43.2938 323.758C44.4109 323.758 45.3165 324.664 45.3165 325.781Z" fill="#222222"/>
<path d="M65.544 325.781C65.544 326.898 64.6384 327.804 63.5213 327.804C62.4042 327.804 61.4985 326.898 61.4985 325.781C61.4985 324.664 62.4042 323.758 63.5213 323.758C64.6384 323.758 65.544 324.664 65.544 325.781Z" fill="#222222"/>
<path d="M85.7715 325.781C85.7715 326.898 84.8659 327.804 83.7488 327.804C82.6317 327.804 81.726 326.898 81.726 325.781C81.726 324.664 82.6317 323.758 83.7488 323.758C84.8659 323.758 85.7715 324.664 85.7715 325.781Z" fill="#222222"/>
<path d="M105.999 325.781C105.999 326.898 105.093 327.804 103.976 327.804C102.859 327.804 101.954 326.898 101.954 325.781C101.954 324.664 102.859 323.758 103.976 323.758C105.093 323.758 105.999 324.664 105.999 325.781Z" fill="#222222"/>
<path d="M126.227 325.781C126.227 326.898 125.321 327.804 124.204 327.804C123.087 327.804 122.181 326.898 122.181 325.781C122.181 324.664 123.087 323.758 124.204 323.758C125.321 323.758 126.227 324.664 126.227 325.781Z" fill="#222222"/>
<path d="M146.454 325.781C146.454 326.898 145.548 327.804 144.431 327.804C143.314 327.804 142.409 326.898 142.409 325.781C142.409 324.664 143.314 323.758 144.431 323.758C145.548 323.758 146.454 324.664 146.454 325.781Z" fill="#222222"/>
<path d="M166.682 325.781C166.682 326.898 165.776 327.804 164.659 327.804C163.542 327.804 162.636 326.898 162.636 325.781C162.636 324.664 163.542 323.758 164.659 323.758C165.776 323.758 166.682 324.664 166.682 325.781Z" fill="#222222"/>
<path d="M186.909 325.781C186.909 326.898 186.003 327.804 184.886 327.804C183.769 327.804 182.864 326.898 182.864 325.781C182.864 324.664 183.769 323.758 184.886 323.758C186.003 323.758 186.909 324.664 186.909 325.781Z" fill="#222222"/>
<path d="M4.86154 346.009C4.86154 347.126 3.95592 348.032 2.83879 348.032C1.72166 348.032 0.81604 347.126 0.81604 346.009C0.81604 344.892 1.72166 343.986 2.83879 343.986C3.95592 343.986 4.86154 344.892 4.86154 346.009Z" fill="#222222"/>
<path d="M25.089 346.009C25.089 347.126 24.1834 348.031 23.0663 348.031C21.9492 348.031 21.0435 347.126 21.0435 346.009C21.0435 344.892 21.9492 343.986 23.0663 343.986C24.1834 343.986 25.089 344.892 25.089 346.009Z" fill="#222222"/>
<path d="M45.3165 346.009C45.3165 347.126 44.4109 348.031 43.2938 348.031C42.1767 348.031 41.271 347.126 41.271 346.009C41.271 344.892 42.1767 343.986 43.2938 343.986C44.4109 343.986 45.3165 344.892 45.3165 346.009Z" fill="#222222"/>
<path d="M65.544 346.009C65.544 347.126 64.6384 348.031 63.5213 348.031C62.4042 348.031 61.4985 347.126 61.4985 346.009C61.4985 344.892 62.4042 343.986 63.5213 343.986C64.6384 343.986 65.544 344.892 65.544 346.009Z" fill="#222222"/>
<path d="M85.7715 346.009C85.7715 347.126 84.8659 348.031 83.7488 348.031C82.6317 348.031 81.726 347.126 81.726 346.009C81.726 344.892 82.6317 343.986 83.7488 343.986C84.8659 343.986 85.7715 344.892 85.7715 346.009Z" fill="#222222"/>
<path d="M105.999 346.009C105.999 347.126 105.093 348.031 103.976 348.031C102.859 348.031 101.954 347.126 101.954 346.009C101.954 344.892 102.859 343.986 103.976 343.986C105.093 343.986 105.999 344.892 105.999 346.009Z" fill="#222222"/>
<path d="M126.227 346.009C126.227 347.126 125.321 348.031 124.204 348.031C123.087 348.031 122.181 347.126 122.181 346.009C122.181 344.892 123.087 343.986 124.204 343.986C125.321 343.986 126.227 344.892 126.227 346.009Z" fill="#222222"/>
<path d="M146.454 346.009C146.454 347.126 145.548 348.031 144.431 348.031C143.314 348.031 142.409 347.126 142.409 346.009C142.409 344.892 143.314 343.986 144.431 343.986C145.548 343.986 146.454 344.892 146.454 346.009Z" fill="#222222"/>
<path d="M166.682 346.009C166.682 347.126 165.776 348.031 164.659 348.031C163.542 348.031 162.636 347.126 162.636 346.009C162.636 344.892 163.542 343.986 164.659 343.986C165.776 343.986 166.682 344.892 166.682 346.009Z" fill="#222222"/>
<path d="M186.909 346.009C186.909 347.126 186.003 348.031 184.886 348.031C183.769 348.031 182.864 347.126 182.864 346.009C182.864 344.892 183.769 343.986 184.886 343.986C186.003 343.986 186.909 344.892 186.909 346.009Z" fill="#222222"/>
<path d="M4.86154 366.236C4.86154 367.353 3.95592 368.259 2.83879 368.259C1.72166 368.259 0.81604 367.353 0.81604 366.236C0.81604 365.119 1.72166 364.214 2.83879 364.214C3.95592 364.214 4.86154 365.119 4.86154 366.236Z" fill="#222222"/>
<path d="M25.089 366.236C25.089 367.353 24.1834 368.259 23.0663 368.259C21.9492 368.259 21.0435 367.353 21.0435 366.236C21.0435 365.119 21.9492 364.214 23.0663 364.214C24.1834 364.214 25.089 365.119 25.089 366.236Z" fill="#222222"/>
<path d="M45.3165 366.236C45.3165 367.353 44.4109 368.259 43.2938 368.259C42.1767 368.259 41.271 367.353 41.271 366.236C41.271 365.119 42.1767 364.214 43.2938 364.214C44.4109 364.214 45.3165 365.119 45.3165 366.236Z" fill="#222222"/>
<path d="M65.544 366.236C65.544 367.353 64.6384 368.259 63.5213 368.259C62.4042 368.259 61.4985 367.353 61.4985 366.236C61.4985 365.119 62.4042 364.214 63.5213 364.214C64.6384 364.214 65.544 365.119 65.544 366.236Z" fill="#222222"/>
<path d="M85.7715 366.236C85.7715 367.353 84.8659 368.259 83.7488 368.259C82.6317 368.259 81.726 367.353 81.726 366.236C81.726 365.119 82.6317 364.214 83.7488 364.214C84.8659 364.214 85.7715 365.119 85.7715 366.236Z" fill="#222222"/>
<path d="M105.999 366.236C105.999 367.353 105.093 368.259 103.976 368.259C102.859 368.259 101.954 367.353 101.954 366.236C101.954 365.119 102.859 364.214 103.976 364.214C105.093 364.214 105.999 365.119 105.999 366.236Z" fill="#222222"/>
<path d="M126.227 366.236C126.227 367.353 125.321 368.259 124.204 368.259C123.087 368.259 122.181 367.353 122.181 366.236C122.181 365.119 123.087 364.214 124.204 364.214C125.321 364.214 126.227 365.119 126.227 366.236Z" fill="#222222"/>
<path d="M146.454 366.236C146.454 367.353 145.548 368.259 144.431 368.259C143.314 368.259 142.409 367.353 142.409 366.236C142.409 365.119 143.314 364.214 144.431 364.214C145.548 364.214 146.454 365.119 146.454 366.236Z" fill="#222222"/>
<path d="M166.682 366.236C166.682 367.353 165.776 368.259 164.659 368.259C163.542 368.259 162.636 367.353 162.636 366.236C162.636 365.119 163.542 364.214 164.659 364.214C165.776 364.214 166.682 365.119 166.682 366.236Z" fill="#222222"/>
<path d="M186.909 366.236C186.909 367.353 186.003 368.259 184.886 368.259C183.769 368.259 182.864 367.353 182.864 366.236C182.864 365.119 183.769 364.214 184.886 364.214C186.003 364.214 186.909 365.119 186.909 366.236Z" fill="#222222"/>
<path d="M4.86154 386.464C4.86154 387.581 3.95592 388.487 2.83879 388.487C1.72166 388.487 0.81604 387.581 0.81604 386.464C0.81604 385.347 1.72166 384.441 2.83879 384.441C3.95592 384.441 4.86154 385.347 4.86154 386.464Z" fill="#222222"/>
<path d="M25.089 386.464C25.089 387.581 24.1834 388.487 23.0663 388.487C21.9492 388.487 21.0435 387.581 21.0435 386.464C21.0435 385.347 21.9492 384.441 23.0663 384.441C24.1834 384.441 25.089 385.347 25.089 386.464Z" fill="#222222"/>
<path d="M45.3165 386.464C45.3165 387.581 44.4109 388.487 43.2938 388.487C42.1767 388.487 41.271 387.581 41.271 386.464C41.271 385.347 42.1767 384.441 43.2938 384.441C44.4109 384.441 45.3165 385.347 45.3165 386.464Z" fill="#222222"/>
<path d="M65.544 386.464C65.544 387.581 64.6384 388.487 63.5213 388.487C62.4042 388.487 61.4985 387.581 61.4985 386.464C61.4985 385.347 62.4042 384.441 63.5213 384.441C64.6384 384.441 65.544 385.347 65.544 386.464Z" fill="#222222"/>
<path d="M85.7715 386.464C85.7715 387.581 84.8659 388.487 83.7488 388.487C82.6317 388.487 81.726 387.581 81.726 386.464C81.726 385.347 82.6317 384.441 83.7488 384.441C84.8659 384.441 85.7715 385.347 85.7715 386.464Z" fill="#222222"/>
<path d="M105.999 386.464C105.999 387.581 105.093 388.487 103.976 388.487C102.859 388.487 101.954 387.581 101.954 386.464C101.954 385.347 102.859 384.441 103.976 384.441C105.093 384.441 105.999 385.347 105.999 386.464Z" fill="#222222"/>
<path d="M126.227 386.464C126.227 387.581 125.321 388.487 124.204 388.487C123.087 388.487 122.181 387.581 122.181 386.464C122.181 385.347 123.087 384.441 124.204 384.441C125.321 384.441 126.227 385.347 126.227 386.464Z" fill="#222222"/>
<path d="M146.454 386.464C146.454 387.581 145.548 388.487 144.431 388.487C143.314 388.487 142.409 387.581 142.409 386.464C142.409 385.347 143.314 384.441 144.431 384.441C145.548 384.441 146.454 385.347 146.454 386.464Z" fill="#222222"/>
<path d="M166.682 386.464C166.682 387.581 165.776 388.487 164.659 388.487C163.542 388.487 162.636 387.581 162.636 386.464C162.636 385.347 163.542 384.441 164.659 384.441C165.776 384.441 166.682 385.347 166.682 386.464Z" fill="#222222"/>
<path d="M186.909 386.464C186.909 387.581 186.003 388.487 184.886 388.487C183.769 388.487 182.864 387.581 182.864 386.464C182.864 385.347 183.769 384.441 184.886 384.441C186.003 384.441 186.909 385.347 186.909 386.464Z" fill="#222222"/>
<path d="M207.137 2.14091C207.137 3.25805 206.231 4.16366 205.114 4.16366C203.997 4.16366 203.091 3.25805 203.091 2.14091C203.091 1.02378 203.997 0.118164 205.114 0.118164C206.231 0.118164 207.137 1.02378 207.137 2.14091Z" fill="#222222"/>
<path d="M227.364 2.14091C227.364 3.25805 226.458 4.16366 225.341 4.16366C224.224 4.16366 223.319 3.25805 223.319 2.14091C223.319 1.02378 224.224 0.118164 225.341 0.118164C226.458 0.118164 227.364 1.02378 227.364 2.14091Z" fill="#222222"/>
<path d="M247.592 2.14091C247.592 3.25805 246.686 4.16366 245.569 4.16366C244.452 4.16366 243.546 3.25805 243.546 2.14091C243.546 1.02378 244.452 0.118164 245.569 0.118164C246.686 0.118164 247.592 1.02378 247.592 2.14091Z" fill="#222222"/>
<path d="M267.819 2.14091C267.819 3.25805 266.913 4.16366 265.796 4.16366C264.679 4.16366 263.774 3.25805 263.774 2.14091C263.774 1.02378 264.679 0.118164 265.796 0.118164C266.913 0.118164 267.819 1.02378 267.819 2.14091Z" fill="#222222"/>
<path d="M288.047 2.14091C288.047 3.25805 287.141 4.16366 286.024 4.16366C284.907 4.16366 284.001 3.25805 284.001 2.14091C284.001 1.02378 284.907 0.118164 286.024 0.118164C287.141 0.118164 288.047 1.02378 288.047 2.14091Z" fill="#222222"/>
<path d="M308.274 2.14091C308.274 3.25805 307.368 4.16366 306.251 4.16366C305.134 4.16366 304.229 3.25805 304.229 2.14091C304.229 1.02378 305.134 0.118164 306.251 0.118164C307.368 0.118164 308.274 1.02378 308.274 2.14091Z" fill="#222222"/>
<path d="M328.502 2.14091C328.502 3.25805 327.596 4.16366 326.479 4.16366C325.362 4.16366 324.456 3.25805 324.456 2.14091C324.456 1.02378 325.362 0.118164 326.479 0.118164C327.596 0.118164 328.502 1.02378 328.502 2.14091Z" fill="#222222"/>
<path d="M348.729 2.14091C348.729 3.25805 347.823 4.16366 346.706 4.16366C345.589 4.16366 344.684 3.25805 344.684 2.14091C344.684 1.02378 345.589 0.118164 346.706 0.118164C347.823 0.118164 348.729 1.02378 348.729 2.14091Z" fill="#222222"/>
<path d="M368.957 2.14091C368.957 3.25805 368.051 4.16366 366.934 4.16366C365.817 4.16366 364.911 3.25805 364.911 2.14091C364.911 1.02378 365.817 0.118164 366.934 0.118164C368.051 0.118164 368.957 1.02378 368.957 2.14091Z" fill="#222222"/>
<path d="M389.184 2.14091C389.184 3.25805 388.278 4.16366 387.161 4.16366C386.044 4.16366 385.139 3.25805 385.139 2.14091C385.139 1.02378 386.044 0.118164 387.161 0.118164C388.278 0.118164 389.184 1.02378 389.184 2.14091Z" fill="#222222"/>
<path d="M207.137 22.3684C207.137 23.4855 206.231 24.3912 205.114 24.3912C203.997 24.3912 203.091 23.4855 203.091 22.3684C203.091 21.2513 203.997 20.3457 205.114 20.3457C206.231 20.3457 207.137 21.2513 207.137 22.3684Z" fill="#222222"/>
<path d="M227.364 22.3684C227.364 23.4855 226.458 24.3912 225.341 24.3912C224.224 24.3912 223.319 23.4855 223.319 22.3684C223.319 21.2513 224.224 20.3457 225.341 20.3457C226.458 20.3457 227.364 21.2513 227.364 22.3684Z" fill="#222222"/>
<path d="M247.592 22.3684C247.592 23.4855 246.686 24.3912 245.569 24.3912C244.452 24.3912 243.546 23.4855 243.546 22.3684C243.546 21.2513 244.452 20.3457 245.569 20.3457C246.686 20.3457 247.592 21.2513 247.592 22.3684Z" fill="#222222"/>
<path d="M267.819 22.3684C267.819 23.4855 266.913 24.3912 265.796 24.3912C264.679 24.3912 263.774 23.4855 263.774 22.3684C263.774 21.2513 264.679 20.3457 265.796 20.3457C266.913 20.3457 267.819 21.2513 267.819 22.3684Z" fill="#222222"/>
<path d="M288.047 22.3684C288.047 23.4855 287.141 24.3912 286.024 24.3912C284.907 24.3912 284.001 23.4855 284.001 22.3684C284.001 21.2513 284.907 20.3457 286.024 20.3457C287.141 20.3457 288.047 21.2513 288.047 22.3684Z" fill="#222222"/>
<path d="M308.274 22.3684C308.274 23.4855 307.368 24.3912 306.251 24.3912C305.134 24.3912 304.229 23.4855 304.229 22.3684C304.229 21.2513 305.134 20.3457 306.251 20.3457C307.368 20.3457 308.274 21.2513 308.274 22.3684Z" fill="#222222"/>
<path d="M328.502 22.3684C328.502 23.4855 327.596 24.3912 326.479 24.3912C325.362 24.3912 324.456 23.4855 324.456 22.3684C324.456 21.2513 325.362 20.3457 326.479 20.3457C327.596 20.3457 328.502 21.2513 328.502 22.3684Z" fill="#222222"/>
<path d="M348.729 22.3684C348.729 23.4855 347.823 24.3912 346.706 24.3912C345.589 24.3912 344.684 23.4855 344.684 22.3684C344.684 21.2513 345.589 20.3457 346.706 20.3457C347.823 20.3457 348.729 21.2513 348.729 22.3684Z" fill="#222222"/>
<path d="M368.957 22.3684C368.957 23.4855 368.051 24.3912 366.934 24.3912C365.817 24.3912 364.911 23.4855 364.911 22.3684C364.911 21.2513 365.817 20.3457 366.934 20.3457C368.051 20.3457 368.957 21.2513 368.957 22.3684Z" fill="#222222"/>
<path d="M389.184 22.3684C389.184 23.4855 388.278 24.3912 387.161 24.3912C386.044 24.3912 385.139 23.4855 385.139 22.3684C385.139 21.2513 386.044 20.3457 387.161 20.3457C388.278 20.3457 389.184 21.2513 389.184 22.3684Z" fill="#222222"/>
<path d="M207.137 42.5959C207.137 43.7131 206.231 44.6187 205.114 44.6187C203.997 44.6187 203.091 43.7131 203.091 42.5959C203.091 41.4788 203.997 40.5732 205.114 40.5732C206.231 40.5732 207.137 41.4788 207.137 42.5959Z" fill="#222222"/>
<path d="M227.364 42.5959C227.364 43.7131 226.458 44.6187 225.341 44.6187C224.224 44.6187 223.319 43.7131 223.319 42.5959C223.319 41.4788 224.224 40.5732 225.341 40.5732C226.458 40.5732 227.364 41.4788 227.364 42.5959Z" fill="#222222"/>
<path d="M247.592 42.5959C247.592 43.7131 246.686 44.6187 245.569 44.6187C244.452 44.6187 243.546 43.7131 243.546 42.5959C243.546 41.4788 244.452 40.5732 245.569 40.5732C246.686 40.5732 247.592 41.4788 247.592 42.5959Z" fill="#222222"/>
<path d="M267.819 42.5959C267.819 43.7131 266.913 44.6187 265.796 44.6187C264.679 44.6187 263.774 43.7131 263.774 42.5959C263.774 41.4788 264.679 40.5732 265.796 40.5732C266.913 40.5732 267.819 41.4788 267.819 42.5959Z" fill="#222222"/>
<path d="M288.047 42.5959C288.047 43.7131 287.141 44.6187 286.024 44.6187C284.907 44.6187 284.001 43.7131 284.001 42.5959C284.001 41.4788 284.907 40.5732 286.024 40.5732C287.141 40.5732 288.047 41.4788 288.047 42.5959Z" fill="#222222"/>
<path d="M308.274 42.5959C308.274 43.7131 307.368 44.6187 306.251 44.6187C305.134 44.6187 304.229 43.7131 304.229 42.5959C304.229 41.4788 305.134 40.5732 306.251 40.5732C307.368 40.5732 308.274 41.4788 308.274 42.5959Z" fill="#222222"/>
<path d="M328.502 42.5959C328.502 43.7131 327.596 44.6187 326.479 44.6187C325.362 44.6187 324.456 43.7131 324.456 42.5959C324.456 41.4788 325.362 40.5732 326.479 40.5732C327.596 40.5732 328.502 41.4788 328.502 42.5959Z" fill="#222222"/>
<path d="M348.729 42.5959C348.729 43.7131 347.823 44.6187 346.706 44.6187C345.589 44.6187 344.684 43.7131 344.684 42.5959C344.684 41.4788 345.589 40.5732 346.706 40.5732C347.823 40.5732 348.729 41.4788 348.729 42.5959Z" fill="#222222"/>
<path d="M368.957 42.5959C368.957 43.7131 368.051 44.6187 366.934 44.6187C365.817 44.6187 364.911 43.7131 364.911 42.5959C364.911 41.4788 365.817 40.5732 366.934 40.5732C368.051 40.5732 368.957 41.4788 368.957 42.5959Z" fill="#222222"/>
<path d="M389.184 42.5959C389.184 43.7131 388.278 44.6187 387.161 44.6187C386.044 44.6187 385.139 43.7131 385.139 42.5959C385.139 41.4788 386.044 40.5732 387.161 40.5732C388.278 40.5732 389.184 41.4788 389.184 42.5959Z" fill="#222222"/>
<path d="M207.137 62.8234C207.137 63.9406 206.231 64.8462 205.114 64.8462C203.997 64.8462 203.091 63.9406 203.091 62.8234C203.091 61.7063 203.997 60.8007 205.114 60.8007C206.231 60.8007 207.137 61.7063 207.137 62.8234Z" fill="#222222"/>
<path d="M227.364 62.8235C227.364 63.9406 226.458 64.8462 225.341 64.8462C224.224 64.8462 223.319 63.9406 223.319 62.8235C223.319 61.7063 224.224 60.8007 225.341 60.8007C226.458 60.8007 227.364 61.7063 227.364 62.8235Z" fill="#222222"/>
<path d="M247.592 62.8235C247.592 63.9406 246.686 64.8462 245.569 64.8462C244.452 64.8462 243.546 63.9406 243.546 62.8235C243.546 61.7063 244.452 60.8007 245.569 60.8007C246.686 60.8007 247.592 61.7063 247.592 62.8235Z" fill="#222222"/>
<path d="M267.819 62.8235C267.819 63.9406 266.913 64.8462 265.796 64.8462C264.679 64.8462 263.774 63.9406 263.774 62.8235C263.774 61.7063 264.679 60.8007 265.796 60.8007C266.913 60.8007 267.819 61.7063 267.819 62.8235Z" fill="#222222"/>
<path d="M288.047 62.8235C288.047 63.9406 287.141 64.8462 286.024 64.8462C284.907 64.8462 284.001 63.9406 284.001 62.8235C284.001 61.7063 284.907 60.8007 286.024 60.8007C287.141 60.8007 288.047 61.7063 288.047 62.8235Z" fill="#222222"/>
<path d="M308.274 62.8235C308.274 63.9406 307.368 64.8462 306.251 64.8462C305.134 64.8462 304.229 63.9406 304.229 62.8235C304.229 61.7063 305.134 60.8007 306.251 60.8007C307.368 60.8007 308.274 61.7063 308.274 62.8235Z" fill="#222222"/>
<path d="M328.502 62.8235C328.502 63.9406 327.596 64.8462 326.479 64.8462C325.362 64.8462 324.456 63.9406 324.456 62.8235C324.456 61.7063 325.362 60.8007 326.479 60.8007C327.596 60.8007 328.502 61.7063 328.502 62.8235Z" fill="#222222"/>
<path d="M348.729 62.8235C348.729 63.9406 347.823 64.8462 346.706 64.8462C345.589 64.8462 344.684 63.9406 344.684 62.8235C344.684 61.7063 345.589 60.8007 346.706 60.8007C347.823 60.8007 348.729 61.7063 348.729 62.8235Z" fill="#222222"/>
<path d="M368.957 62.8235C368.957 63.9406 368.051 64.8462 366.934 64.8462C365.817 64.8462 364.911 63.9406 364.911 62.8235C364.911 61.7063 365.817 60.8007 366.934 60.8007C368.051 60.8007 368.957 61.7063 368.957 62.8235Z" fill="#222222"/>
<path d="M389.184 62.8235C389.184 63.9406 388.278 64.8462 387.161 64.8462C386.044 64.8462 385.139 63.9406 385.139 62.8235C385.139 61.7063 386.044 60.8007 387.161 60.8007C388.278 60.8007 389.184 61.7063 389.184 62.8235Z" fill="#222222"/>
<path d="M207.137 83.051C207.137 84.1682 206.231 85.0738 205.114 85.0738C203.997 85.0738 203.091 84.1682 203.091 83.051C203.091 81.9339 203.997 81.0283 205.114 81.0283C206.231 81.0283 207.137 81.9339 207.137 83.051Z" fill="#222222"/>
<path d="M227.364 83.051C227.364 84.1681 226.458 85.0737 225.341 85.0737C224.224 85.0737 223.319 84.1681 223.319 83.051C223.319 81.9338 224.224 81.0282 225.341 81.0282C226.458 81.0282 227.364 81.9338 227.364 83.051Z" fill="#222222"/>
<path d="M247.592 83.051C247.592 84.1681 246.686 85.0737 245.569 85.0737C244.452 85.0737 243.546 84.1681 243.546 83.051C243.546 81.9338 244.452 81.0282 245.569 81.0282C246.686 81.0282 247.592 81.9338 247.592 83.051Z" fill="#222222"/>
<path d="M267.819 83.051C267.819 84.1681 266.913 85.0737 265.796 85.0737C264.679 85.0737 263.774 84.1681 263.774 83.051C263.774 81.9338 264.679 81.0282 265.796 81.0282C266.913 81.0282 267.819 81.9338 267.819 83.051Z" fill="#222222"/>
<path d="M288.047 83.051C288.047 84.1681 287.141 85.0737 286.024 85.0737C284.907 85.0737 284.001 84.1681 284.001 83.051C284.001 81.9338 284.907 81.0282 286.024 81.0282C287.141 81.0282 288.047 81.9338 288.047 83.051Z" fill="#222222"/>
<path d="M308.274 83.051C308.274 84.1681 307.368 85.0737 306.251 85.0737C305.134 85.0737 304.229 84.1681 304.229 83.051C304.229 81.9338 305.134 81.0282 306.251 81.0282C307.368 81.0282 308.274 81.9338 308.274 83.051Z" fill="#222222"/>
<path d="M328.502 83.051C328.502 84.1681 327.596 85.0737 326.479 85.0737C325.362 85.0737 324.456 84.1681 324.456 83.051C324.456 81.9338 325.362 81.0282 326.479 81.0282C327.596 81.0282 328.502 81.9338 328.502 83.051Z" fill="#222222"/>
<path d="M348.729 83.051C348.729 84.1681 347.823 85.0737 346.706 85.0737C345.589 85.0737 344.684 84.1681 344.684 83.051C344.684 81.9338 345.589 81.0282 346.706 81.0282C347.823 81.0282 348.729 81.9338 348.729 83.051Z" fill="#222222"/>
<path d="M368.957 83.051C368.957 84.1681 368.051 85.0737 366.934 85.0737C365.817 85.0737 364.911 84.1681 364.911 83.051C364.911 81.9338 365.817 81.0282 366.934 81.0282C368.051 81.0282 368.957 81.9338 368.957 83.051Z" fill="#222222"/>
<path d="M389.184 83.051C389.184 84.1681 388.278 85.0737 387.161 85.0737C386.044 85.0737 385.139 84.1681 385.139 83.051C385.139 81.9338 386.044 81.0282 387.161 81.0282C388.278 81.0282 389.184 81.9338 389.184 83.051Z" fill="#222222"/>
<path d="M207.137 103.279C207.137 104.396 206.231 105.301 205.114 105.301C203.997 105.301 203.091 104.396 203.091 103.279C203.091 102.161 203.997 101.256 205.114 101.256C206.231 101.256 207.137 102.161 207.137 103.279Z" fill="#222222"/>
<path d="M227.364 103.279C227.364 104.396 226.458 105.301 225.341 105.301C224.224 105.301 223.319 104.396 223.319 103.279C223.319 102.161 224.224 101.256 225.341 101.256C226.458 101.256 227.364 102.161 227.364 103.279Z" fill="#222222"/>
<path d="M247.592 103.279C247.592 104.396 246.686 105.301 245.569 105.301C244.452 105.301 243.546 104.396 243.546 103.279C243.546 102.161 244.452 101.256 245.569 101.256C246.686 101.256 247.592 102.161 247.592 103.279Z" fill="#222222"/>
<path d="M267.819 103.279C267.819 104.396 266.913 105.301 265.796 105.301C264.679 105.301 263.774 104.396 263.774 103.279C263.774 102.161 264.679 101.256 265.796 101.256C266.913 101.256 267.819 102.161 267.819 103.279Z" fill="#222222"/>
<path d="M288.047 103.279C288.047 104.396 287.141 105.301 286.024 105.301C284.907 105.301 284.001 104.396 284.001 103.279C284.001 102.161 284.907 101.256 286.024 101.256C287.141 101.256 288.047 102.161 288.047 103.279Z" fill="#222222"/>
<path d="M308.274 103.279C308.274 104.396 307.368 105.301 306.251 105.301C305.134 105.301 304.229 104.396 304.229 103.279C304.229 102.161 305.134 101.256 306.251 101.256C307.368 101.256 308.274 102.161 308.274 103.279Z" fill="#222222"/>
<path d="M328.502 103.279C328.502 104.396 327.596 105.301 326.479 105.301C325.362 105.301 324.456 104.396 324.456 103.279C324.456 102.161 325.362 101.256 326.479 101.256C327.596 101.256 328.502 102.161 328.502 103.279Z" fill="#222222"/>
<path d="M348.729 103.279C348.729 104.396 347.823 105.301 346.706 105.301C345.589 105.301 344.684 104.396 344.684 103.279C344.684 102.161 345.589 101.256 346.706 101.256C347.823 101.256 348.729 102.161 348.729 103.279Z" fill="#222222"/>
<path d="M368.957 103.279C368.957 104.396 368.051 105.301 366.934 105.301C365.817 105.301 364.911 104.396 364.911 103.279C364.911 102.161 365.817 101.256 366.934 101.256C368.051 101.256 368.957 102.161 368.957 103.279Z" fill="#222222"/>
<path d="M389.184 103.279C389.184 104.396 388.278 105.301 387.161 105.301C386.044 105.301 385.139 104.396 385.139 103.279C385.139 102.161 386.044 101.256 387.161 101.256C388.278 101.256 389.184 102.161 389.184 103.279Z" fill="#222222"/>
<path d="M207.137 123.506C207.137 124.623 206.231 125.529 205.114 125.529C203.997 125.529 203.091 124.623 203.091 123.506C203.091 122.389 203.997 121.483 205.114 121.483C206.231 121.483 207.137 122.389 207.137 123.506Z" fill="#222222"/>
<path d="M227.364 123.506C227.364 124.623 226.458 125.529 225.341 125.529C224.224 125.529 223.319 124.623 223.319 123.506C223.319 122.389 224.224 121.483 225.341 121.483C226.458 121.483 227.364 122.389 227.364 123.506Z" fill="#222222"/>
<path d="M247.592 123.506C247.592 124.623 246.686 125.529 245.569 125.529C244.452 125.529 243.546 124.623 243.546 123.506C243.546 122.389 244.452 121.483 245.569 121.483C246.686 121.483 247.592 122.389 247.592 123.506Z" fill="#222222"/>
<path d="M267.819 123.506C267.819 124.623 266.913 125.529 265.796 125.529C264.679 125.529 263.774 124.623 263.774 123.506C263.774 122.389 264.679 121.483 265.796 121.483C266.913 121.483 267.819 122.389 267.819 123.506Z" fill="#222222"/>
<path d="M288.047 123.506C288.047 124.623 287.141 125.529 286.024 125.529C284.907 125.529 284.001 124.623 284.001 123.506C284.001 122.389 284.907 121.483 286.024 121.483C287.141 121.483 288.047 122.389 288.047 123.506Z" fill="#222222"/>
<path d="M308.274 123.506C308.274 124.623 307.368 125.529 306.251 125.529C305.134 125.529 304.229 124.623 304.229 123.506C304.229 122.389 305.134 121.483 306.251 121.483C307.368 121.483 308.274 122.389 308.274 123.506Z" fill="#222222"/>
<path d="M328.502 123.506C328.502 124.623 327.596 125.529 326.479 125.529C325.362 125.529 324.456 124.623 324.456 123.506C324.456 122.389 325.362 121.483 326.479 121.483C327.596 121.483 328.502 122.389 328.502 123.506Z" fill="#222222"/>
<path d="M348.729 123.506C348.729 124.623 347.823 125.529 346.706 125.529C345.589 125.529 344.684 124.623 344.684 123.506C344.684 122.389 345.589 121.483 346.706 121.483C347.823 121.483 348.729 122.389 348.729 123.506Z" fill="#222222"/>
<path d="M368.957 123.506C368.957 124.623 368.051 125.529 366.934 125.529C365.817 125.529 364.911 124.623 364.911 123.506C364.911 122.389 365.817 121.483 366.934 121.483C368.051 121.483 368.957 122.389 368.957 123.506Z" fill="#222222"/>
<path d="M389.184 123.506C389.184 124.623 388.278 125.529 387.161 125.529C386.044 125.529 385.139 124.623 385.139 123.506C385.139 122.389 386.044 121.483 387.161 121.483C388.278 121.483 389.184 122.389 389.184 123.506Z" fill="#222222"/>
<path d="M207.137 143.734C207.137 144.851 206.231 145.756 205.114 145.756C203.997 145.756 203.091 144.851 203.091 143.734C203.091 142.616 203.997 141.711 205.114 141.711C206.231 141.711 207.137 142.616 207.137 143.734Z" fill="#222222"/>
<path d="M227.364 143.734C227.364 144.851 226.458 145.756 225.341 145.756C224.224 145.756 223.319 144.851 223.319 143.734C223.319 142.616 224.224 141.711 225.341 141.711C226.458 141.711 227.364 142.616 227.364 143.734Z" fill="#222222"/>
<path d="M247.592 143.734C247.592 144.851 246.686 145.756 245.569 145.756C244.452 145.756 243.546 144.851 243.546 143.734C243.546 142.616 244.452 141.711 245.569 141.711C246.686 141.711 247.592 142.616 247.592 143.734Z" fill="#222222"/>
<path d="M267.819 143.734C267.819 144.851 266.913 145.756 265.796 145.756C264.679 145.756 263.774 144.851 263.774 143.734C263.774 142.616 264.679 141.711 265.796 141.711C266.913 141.711 267.819 142.616 267.819 143.734Z" fill="#222222"/>
<path d="M288.047 143.734C288.047 144.851 287.141 145.756 286.024 145.756C284.907 145.756 284.001 144.851 284.001 143.734C284.001 142.616 284.907 141.711 286.024 141.711C287.141 141.711 288.047 142.616 288.047 143.734Z" fill="#222222"/>
<path d="M308.274 143.734C308.274 144.851 307.368 145.756 306.251 145.756C305.134 145.756 304.229 144.851 304.229 143.734C304.229 142.616 305.134 141.711 306.251 141.711C307.368 141.711 308.274 142.616 308.274 143.734Z" fill="#222222"/>
<path d="M328.502 143.734C328.502 144.851 327.596 145.756 326.479 145.756C325.362 145.756 324.456 144.851 324.456 143.734C324.456 142.616 325.362 141.711 326.479 141.711C327.596 141.711 328.502 142.616 328.502 143.734Z" fill="#222222"/>
<path d="M348.729 143.734C348.729 144.851 347.823 145.756 346.706 145.756C345.589 145.756 344.684 144.851 344.684 143.734C344.684 142.616 345.589 141.711 346.706 141.711C347.823 141.711 348.729 142.616 348.729 143.734Z" fill="#222222"/>
<path d="M368.957 143.734C368.957 144.851 368.051 145.756 366.934 145.756C365.817 145.756 364.911 144.851 364.911 143.734C364.911 142.616 365.817 141.711 366.934 141.711C368.051 141.711 368.957 142.616 368.957 143.734Z" fill="#222222"/>
<path d="M389.184 143.734C389.184 144.851 388.278 145.756 387.161 145.756C386.044 145.756 385.139 144.851 385.139 143.734C385.139 142.616 386.044 141.711 387.161 141.711C388.278 141.711 389.184 142.616 389.184 143.734Z" fill="#222222"/>
<path d="M207.137 163.961C207.137 165.078 206.231 165.984 205.114 165.984C203.997 165.984 203.091 165.078 203.091 163.961C203.091 162.844 203.997 161.938 205.114 161.938C206.231 161.938 207.137 162.844 207.137 163.961Z" fill="#222222"/>
<path d="M227.364 163.961C227.364 165.078 226.458 165.984 225.341 165.984C224.224 165.984 223.319 165.078 223.319 163.961C223.319 162.844 224.224 161.938 225.341 161.938C226.458 161.938 227.364 162.844 227.364 163.961Z" fill="#222222"/>
<path d="M247.592 163.961C247.592 165.078 246.686 165.984 245.569 165.984C244.452 165.984 243.546 165.078 243.546 163.961C243.546 162.844 244.452 161.938 245.569 161.938C246.686 161.938 247.592 162.844 247.592 163.961Z" fill="#222222"/>
<path d="M267.819 163.961C267.819 165.078 266.913 165.984 265.796 165.984C264.679 165.984 263.774 165.078 263.774 163.961C263.774 162.844 264.679 161.938 265.796 161.938C266.913 161.938 267.819 162.844 267.819 163.961Z" fill="#222222"/>
<path d="M288.047 163.961C288.047 165.078 287.141 165.984 286.024 165.984C284.907 165.984 284.001 165.078 284.001 163.961C284.001 162.844 284.907 161.938 286.024 161.938C287.141 161.938 288.047 162.844 288.047 163.961Z" fill="#222222"/>
<path d="M308.274 163.961C308.274 165.078 307.368 165.984 306.251 165.984C305.134 165.984 304.229 165.078 304.229 163.961C304.229 162.844 305.134 161.938 306.251 161.938C307.368 161.938 308.274 162.844 308.274 163.961Z" fill="#222222"/>
<path d="M328.502 163.961C328.502 165.078 327.596 165.984 326.479 165.984C325.362 165.984 324.456 165.078 324.456 163.961C324.456 162.844 325.362 161.938 326.479 161.938C327.596 161.938 328.502 162.844 328.502 163.961Z" fill="#222222"/>
<path d="M348.729 163.961C348.729 165.078 347.823 165.984 346.706 165.984C345.589 165.984 344.684 165.078 344.684 163.961C344.684 162.844 345.589 161.938 346.706 161.938C347.823 161.938 348.729 162.844 348.729 163.961Z" fill="#222222"/>
<path d="M368.957 163.961C368.957 165.078 368.051 165.984 366.934 165.984C365.817 165.984 364.911 165.078 364.911 163.961C364.911 162.844 365.817 161.938 366.934 161.938C368.051 161.938 368.957 162.844 368.957 163.961Z" fill="#222222"/>
<path d="M389.184 163.961C389.184 165.078 388.278 165.984 387.161 165.984C386.044 165.984 385.139 165.078 385.139 163.961C385.139 162.844 386.044 161.938 387.161 161.938C388.278 161.938 389.184 162.844 389.184 163.961Z" fill="#222222"/>
<path d="M207.137 184.189C207.137 185.306 206.231 186.211 205.114 186.211C203.997 186.211 203.091 185.306 203.091 184.189C203.091 183.071 203.997 182.166 205.114 182.166C206.231 182.166 207.137 183.071 207.137 184.189Z" fill="#222222"/>
<path d="M227.364 184.189C227.364 185.306 226.458 186.211 225.341 186.211C224.224 186.211 223.319 185.306 223.319 184.189C223.319 183.071 224.224 182.166 225.341 182.166C226.458 182.166 227.364 183.071 227.364 184.189Z" fill="#222222"/>
<path d="M247.592 184.189C247.592 185.306 246.686 186.211 245.569 186.211C244.452 186.211 243.546 185.306 243.546 184.189C243.546 183.071 244.452 182.166 245.569 182.166C246.686 182.166 247.592 183.071 247.592 184.189Z" fill="#222222"/>
<path d="M267.819 184.189C267.819 185.306 266.913 186.211 265.796 186.211C264.679 186.211 263.774 185.306 263.774 184.189C263.774 183.071 264.679 182.166 265.796 182.166C266.913 182.166 267.819 183.071 267.819 184.189Z" fill="#222222"/>
<path d="M288.047 184.189C288.047 185.306 287.141 186.211 286.024 186.211C284.907 186.211 284.001 185.306 284.001 184.189C284.001 183.071 284.907 182.166 286.024 182.166C287.141 182.166 288.047 183.071 288.047 184.189Z" fill="#222222"/>
<path d="M308.274 184.189C308.274 185.306 307.368 186.211 306.251 186.211C305.134 186.211 304.229 185.306 304.229 184.189C304.229 183.071 305.134 182.166 306.251 182.166C307.368 182.166 308.274 183.071 308.274 184.189Z" fill="#222222"/>
<path d="M328.502 184.189C328.502 185.306 327.596 186.211 326.479 186.211C325.362 186.211 324.456 185.306 324.456 184.189C324.456 183.071 325.362 182.166 326.479 182.166C327.596 182.166 328.502 183.071 328.502 184.189Z" fill="#222222"/>
<path d="M348.729 184.189C348.729 185.306 347.823 186.211 346.706 186.211C345.589 186.211 344.684 185.306 344.684 184.189C344.684 183.071 345.589 182.166 346.706 182.166C347.823 182.166 348.729 183.071 348.729 184.189Z" fill="#222222"/>
<path d="M368.957 184.189C368.957 185.306 368.051 186.211 366.934 186.211C365.817 186.211 364.911 185.306 364.911 184.189C364.911 183.071 365.817 182.166 366.934 182.166C368.051 182.166 368.957 183.071 368.957 184.189Z" fill="#222222"/>
<path d="M389.184 184.189C389.184 185.306 388.278 186.211 387.161 186.211C386.044 186.211 385.139 185.306 385.139 184.189C385.139 183.071 386.044 182.166 387.161 182.166C388.278 182.166 389.184 183.071 389.184 184.189Z" fill="#222222"/>
<path d="M207.137 204.416C207.137 205.533 206.231 206.439 205.114 206.439C203.997 206.439 203.091 205.533 203.091 204.416C203.091 203.299 203.997 202.393 205.114 202.393C206.231 202.393 207.137 203.299 207.137 204.416Z" fill="#222222"/>
<path d="M227.364 204.416C227.364 205.533 226.458 206.439 225.341 206.439C224.224 206.439 223.319 205.533 223.319 204.416C223.319 203.299 224.224 202.393 225.341 202.393C226.458 202.393 227.364 203.299 227.364 204.416Z" fill="#222222"/>
<path d="M247.592 204.416C247.592 205.533 246.686 206.439 245.569 206.439C244.452 206.439 243.546 205.533 243.546 204.416C243.546 203.299 244.452 202.393 245.569 202.393C246.686 202.393 247.592 203.299 247.592 204.416Z" fill="#222222"/>
<path d="M267.819 204.416C267.819 205.533 266.913 206.439 265.796 206.439C264.679 206.439 263.774 205.533 263.774 204.416C263.774 203.299 264.679 202.393 265.796 202.393C266.913 202.393 267.819 203.299 267.819 204.416Z" fill="#222222"/>
<path d="M288.047 204.416C288.047 205.533 287.141 206.439 286.024 206.439C284.907 206.439 284.001 205.533 284.001 204.416C284.001 203.299 284.907 202.393 286.024 202.393C287.141 202.393 288.047 203.299 288.047 204.416Z" fill="#222222"/>
<path d="M308.274 204.416C308.274 205.533 307.368 206.439 306.251 206.439C305.134 206.439 304.229 205.533 304.229 204.416C304.229 203.299 305.134 202.393 306.251 202.393C307.368 202.393 308.274 203.299 308.274 204.416Z" fill="#222222"/>
<path d="M328.502 204.416C328.502 205.533 327.596 206.439 326.479 206.439C325.362 206.439 324.456 205.533 324.456 204.416C324.456 203.299 325.362 202.393 326.479 202.393C327.596 202.393 328.502 203.299 328.502 204.416Z" fill="#222222"/>
<path d="M348.729 204.416C348.729 205.533 347.823 206.439 346.706 206.439C345.589 206.439 344.684 205.533 344.684 204.416C344.684 203.299 345.589 202.393 346.706 202.393C347.823 202.393 348.729 203.299 348.729 204.416Z" fill="#222222"/>
<path d="M368.957 204.416C368.957 205.533 368.051 206.439 366.934 206.439C365.817 206.439 364.911 205.533 364.911 204.416C364.911 203.299 365.817 202.393 366.934 202.393C368.051 202.393 368.957 203.299 368.957 204.416Z" fill="#222222"/>
<path d="M389.184 204.416C389.184 205.533 388.278 206.439 387.161 206.439C386.044 206.439 385.139 205.533 385.139 204.416C385.139 203.299 386.044 202.393 387.161 202.393C388.278 202.393 389.184 203.299 389.184 204.416Z" fill="#222222"/>
<path d="M207.137 224.644C207.137 225.761 206.231 226.666 205.114 226.666C203.997 226.666 203.091 225.761 203.091 224.644C203.091 223.526 203.997 222.621 205.114 222.621C206.231 222.621 207.137 223.526 207.137 224.644Z" fill="#222222"/>
<path d="M227.364 224.644C227.364 225.761 226.458 226.666 225.341 226.666C224.224 226.666 223.319 225.761 223.319 224.644C223.319 223.526 224.224 222.621 225.341 222.621C226.458 222.621 227.364 223.526 227.364 224.644Z" fill="#222222"/>
<path d="M247.592 224.644C247.592 225.761 246.686 226.666 245.569 226.666C244.452 226.666 243.546 225.761 243.546 224.644C243.546 223.526 244.452 222.621 245.569 222.621C246.686 222.621 247.592 223.526 247.592 224.644Z" fill="#222222"/>
<path d="M267.819 224.644C267.819 225.761 266.913 226.666 265.796 226.666C264.679 226.666 263.774 225.761 263.774 224.644C263.774 223.526 264.679 222.621 265.796 222.621C266.913 222.621 267.819 223.526 267.819 224.644Z" fill="#222222"/>
<path d="M288.047 224.644C288.047 225.761 287.141 226.666 286.024 226.666C284.907 226.666 284.001 225.761 284.001 224.644C284.001 223.526 284.907 222.621 286.024 222.621C287.141 222.621 288.047 223.526 288.047 224.644Z" fill="#222222"/>
<path d="M308.274 224.644C308.274 225.761 307.368 226.666 306.251 226.666C305.134 226.666 304.229 225.761 304.229 224.644C304.229 223.526 305.134 222.621 306.251 222.621C307.368 222.621 308.274 223.526 308.274 224.644Z" fill="#222222"/>
<path d="M328.502 224.644C328.502 225.761 327.596 226.666 326.479 226.666C325.362 226.666 324.456 225.761 324.456 224.644C324.456 223.526 325.362 222.621 326.479 222.621C327.596 222.621 328.502 223.526 328.502 224.644Z" fill="#222222"/>
<path d="M348.729 224.644C348.729 225.761 347.823 226.666 346.706 226.666C345.589 226.666 344.684 225.761 344.684 224.644C344.684 223.526 345.589 222.621 346.706 222.621C347.823 222.621 348.729 223.526 348.729 224.644Z" fill="#222222"/>
<path d="M368.957 224.644C368.957 225.761 368.051 226.666 366.934 226.666C365.817 226.666 364.911 225.761 364.911 224.644C364.911 223.526 365.817 222.621 366.934 222.621C368.051 222.621 368.957 223.526 368.957 224.644Z" fill="#222222"/>
<path d="M389.184 224.644C389.184 225.761 388.278 226.666 387.161 226.666C386.044 226.666 385.139 225.761 385.139 224.644C385.139 223.526 386.044 222.621 387.161 222.621C388.278 222.621 389.184 223.526 389.184 224.644Z" fill="#222222"/>
<path d="M207.137 244.871C207.137 245.988 206.231 246.894 205.114 246.894C203.997 246.894 203.091 245.988 203.091 244.871C203.091 243.754 203.997 242.848 205.114 242.848C206.231 242.848 207.137 243.754 207.137 244.871Z" fill="#222222"/>
<path d="M227.364 244.871C227.364 245.988 226.458 246.894 225.341 246.894C224.224 246.894 223.319 245.988 223.319 244.871C223.319 243.754 224.224 242.848 225.341 242.848C226.458 242.848 227.364 243.754 227.364 244.871Z" fill="#222222"/>
<path d="M247.592 244.871C247.592 245.988 246.686 246.894 245.569 246.894C244.452 246.894 243.546 245.988 243.546 244.871C243.546 243.754 244.452 242.848 245.569 242.848C246.686 242.848 247.592 243.754 247.592 244.871Z" fill="#222222"/>
<path d="M267.819 244.871C267.819 245.988 266.913 246.894 265.796 246.894C264.679 246.894 263.774 245.988 263.774 244.871C263.774 243.754 264.679 242.848 265.796 242.848C266.913 242.848 267.819 243.754 267.819 244.871Z" fill="#222222"/>
<path d="M288.047 244.871C288.047 245.988 287.141 246.894 286.024 246.894C284.907 246.894 284.001 245.988 284.001 244.871C284.001 243.754 284.907 242.848 286.024 242.848C287.141 242.848 288.047 243.754 288.047 244.871Z" fill="#222222"/>
<path d="M308.274 244.871C308.274 245.988 307.368 246.894 306.251 246.894C305.134 246.894 304.229 245.988 304.229 244.871C304.229 243.754 305.134 242.848 306.251 242.848C307.368 242.848 308.274 243.754 308.274 244.871Z" fill="#222222"/>
<path d="M328.502 244.871C328.502 245.988 327.596 246.894 326.479 246.894C325.362 246.894 324.456 245.988 324.456 244.871C324.456 243.754 325.362 242.848 326.479 242.848C327.596 242.848 328.502 243.754 328.502 244.871Z" fill="#222222"/>
<path d="M348.729 244.871C348.729 245.988 347.823 246.894 346.706 246.894C345.589 246.894 344.684 245.988 344.684 244.871C344.684 243.754 345.589 242.848 346.706 242.848C347.823 242.848 348.729 243.754 348.729 244.871Z" fill="#222222"/>
<path d="M368.957 244.871C368.957 245.988 368.051 246.894 366.934 246.894C365.817 246.894 364.911 245.988 364.911 244.871C364.911 243.754 365.817 242.848 366.934 242.848C368.051 242.848 368.957 243.754 368.957 244.871Z" fill="#222222"/>
<path d="M389.184 244.871C389.184 245.988 388.278 246.894 387.161 246.894C386.044 246.894 385.139 245.988 385.139 244.871C385.139 243.754 386.044 242.848 387.161 242.848C388.278 242.848 389.184 243.754 389.184 244.871Z" fill="#222222"/>
<path d="M207.137 265.099C207.137 266.216 206.231 267.121 205.114 267.121C203.997 267.121 203.091 266.216 203.091 265.099C203.091 263.982 203.997 263.076 205.114 263.076C206.231 263.076 207.137 263.982 207.137 265.099Z" fill="#222222"/>
<path d="M227.364 265.099C227.364 266.216 226.458 267.121 225.341 267.121C224.224 267.121 223.319 266.216 223.319 265.099C223.319 263.982 224.224 263.076 225.341 263.076C226.458 263.076 227.364 263.982 227.364 265.099Z" fill="#222222"/>
<path d="M247.592 265.099C247.592 266.216 246.686 267.121 245.569 267.121C244.452 267.121 243.546 266.216 243.546 265.099C243.546 263.982 244.452 263.076 245.569 263.076C246.686 263.076 247.592 263.982 247.592 265.099Z" fill="#222222"/>
<path d="M267.819 265.099C267.819 266.216 266.913 267.121 265.796 267.121C264.679 267.121 263.774 266.216 263.774 265.099C263.774 263.982 264.679 263.076 265.796 263.076C266.913 263.076 267.819 263.982 267.819 265.099Z" fill="#222222"/>
<path d="M288.047 265.099C288.047 266.216 287.141 267.121 286.024 267.121C284.907 267.121 284.001 266.216 284.001 265.099C284.001 263.982 284.907 263.076 286.024 263.076C287.141 263.076 288.047 263.982 288.047 265.099Z" fill="#222222"/>
<path d="M308.274 265.099C308.274 266.216 307.368 267.121 306.251 267.121C305.134 267.121 304.229 266.216 304.229 265.099C304.229 263.982 305.134 263.076 306.251 263.076C307.368 263.076 308.274 263.982 308.274 265.099Z" fill="#222222"/>
<path d="M328.502 265.099C328.502 266.216 327.596 267.121 326.479 267.121C325.362 267.121 324.456 266.216 324.456 265.099C324.456 263.982 325.362 263.076 326.479 263.076C327.596 263.076 328.502 263.982 328.502 265.099Z" fill="#222222"/>
<path d="M348.729 265.099C348.729 266.216 347.823 267.121 346.706 267.121C345.589 267.121 344.684 266.216 344.684 265.099C344.684 263.982 345.589 263.076 346.706 263.076C347.823 263.076 348.729 263.982 348.729 265.099Z" fill="#222222"/>
<path d="M368.957 265.099C368.957 266.216 368.051 267.121 366.934 267.121C365.817 267.121 364.911 266.216 364.911 265.099C364.911 263.982 365.817 263.076 366.934 263.076C368.051 263.076 368.957 263.982 368.957 265.099Z" fill="#222222"/>
<path d="M389.184 265.099C389.184 266.216 388.278 267.121 387.161 267.121C386.044 267.121 385.139 266.216 385.139 265.099C385.139 263.982 386.044 263.076 387.161 263.076C388.278 263.076 389.184 263.982 389.184 265.099Z" fill="#222222"/>
<path d="M207.137 285.326C207.137 286.443 206.231 287.349 205.114 287.349C203.997 287.349 203.091 286.443 203.091 285.326C203.091 284.209 203.997 283.303 205.114 283.303C206.231 283.303 207.137 284.209 207.137 285.326Z" fill="#222222"/>
<path d="M227.364 285.326C227.364 286.443 226.458 287.349 225.341 287.349C224.224 287.349 223.319 286.443 223.319 285.326C223.319 284.209 224.224 283.303 225.341 283.303C226.458 283.303 227.364 284.209 227.364 285.326Z" fill="#222222"/>
<path d="M247.592 285.326C247.592 286.443 246.686 287.349 245.569 287.349C244.452 287.349 243.546 286.443 243.546 285.326C243.546 284.209 244.452 283.303 245.569 283.303C246.686 283.303 247.592 284.209 247.592 285.326Z" fill="#222222"/>
<path d="M267.819 285.326C267.819 286.443 266.913 287.349 265.796 287.349C264.679 287.349 263.774 286.443 263.774 285.326C263.774 284.209 264.679 283.303 265.796 283.303C266.913 283.303 267.819 284.209 267.819 285.326Z" fill="#222222"/>
<path d="M288.047 285.326C288.047 286.443 287.141 287.349 286.024 287.349C284.907 287.349 284.001 286.443 284.001 285.326C284.001 284.209 284.907 283.303 286.024 283.303C287.141 283.303 288.047 284.209 288.047 285.326Z" fill="#222222"/>
<path d="M308.274 285.326C308.274 286.443 307.368 287.349 306.251 287.349C305.134 287.349 304.229 286.443 304.229 285.326C304.229 284.209 305.134 283.303 306.251 283.303C307.368 283.303 308.274 284.209 308.274 285.326Z" fill="#222222"/>
<path d="M328.502 285.326C328.502 286.443 327.596 287.349 326.479 287.349C325.362 287.349 324.456 286.443 324.456 285.326C324.456 284.209 325.362 283.303 326.479 283.303C327.596 283.303 328.502 284.209 328.502 285.326Z" fill="#222222"/>
<path d="M348.729 285.326C348.729 286.443 347.823 287.349 346.706 287.349C345.589 287.349 344.684 286.443 344.684 285.326C344.684 284.209 345.589 283.303 346.706 283.303C347.823 283.303 348.729 284.209 348.729 285.326Z" fill="#222222"/>
<path d="M368.957 285.326C368.957 286.443 368.051 287.349 366.934 287.349C365.817 287.349 364.911 286.443 364.911 285.326C364.911 284.209 365.817 283.303 366.934 283.303C368.051 283.303 368.957 284.209 368.957 285.326Z" fill="#222222"/>
<path d="M389.184 285.326C389.184 286.443 388.278 287.349 387.161 287.349C386.044 287.349 385.139 286.443 385.139 285.326C385.139 284.209 386.044 283.303 387.161 283.303C388.278 283.303 389.184 284.209 389.184 285.326Z" fill="#222222"/>
<path d="M207.137 305.554C207.137 306.671 206.231 307.576 205.114 307.576C203.997 307.576 203.091 306.671 203.091 305.554C203.091 304.437 203.997 303.531 205.114 303.531C206.231 303.531 207.137 304.437 207.137 305.554Z" fill="#222222"/>
<path d="M227.364 305.554C227.364 306.671 226.458 307.576 225.341 307.576C224.224 307.576 223.319 306.671 223.319 305.554C223.319 304.437 224.224 303.531 225.341 303.531C226.458 303.531 227.364 304.437 227.364 305.554Z" fill="#222222"/>
<path d="M247.592 305.554C247.592 306.671 246.686 307.576 245.569 307.576C244.452 307.576 243.546 306.671 243.546 305.554C243.546 304.437 244.452 303.531 245.569 303.531C246.686 303.531 247.592 304.437 247.592 305.554Z" fill="#222222"/>
<path d="M267.819 305.554C267.819 306.671 266.913 307.576 265.796 307.576C264.679 307.576 263.774 306.671 263.774 305.554C263.774 304.437 264.679 303.531 265.796 303.531C266.913 303.531 267.819 304.437 267.819 305.554Z" fill="#222222"/>
<path d="M288.047 305.554C288.047 306.671 287.141 307.576 286.024 307.576C284.907 307.576 284.001 306.671 284.001 305.554C284.001 304.437 284.907 303.531 286.024 303.531C287.141 303.531 288.047 304.437 288.047 305.554Z" fill="#222222"/>
<path d="M308.274 305.554C308.274 306.671 307.368 307.576 306.251 307.576C305.134 307.576 304.229 306.671 304.229 305.554C304.229 304.437 305.134 303.531 306.251 303.531C307.368 303.531 308.274 304.437 308.274 305.554Z" fill="#222222"/>
<path d="M328.502 305.554C328.502 306.671 327.596 307.576 326.479 307.576C325.362 307.576 324.456 306.671 324.456 305.554C324.456 304.437 325.362 303.531 326.479 303.531C327.596 303.531 328.502 304.437 328.502 305.554Z" fill="#222222"/>
<path d="M348.729 305.554C348.729 306.671 347.823 307.576 346.706 307.576C345.589 307.576 344.684 306.671 344.684 305.554C344.684 304.437 345.589 303.531 346.706 303.531C347.823 303.531 348.729 304.437 348.729 305.554Z" fill="#222222"/>
<path d="M368.957 305.554C368.957 306.671 368.051 307.576 366.934 307.576C365.817 307.576 364.911 306.671 364.911 305.554C364.911 304.437 365.817 303.531 366.934 303.531C368.051 303.531 368.957 304.437 368.957 305.554Z" fill="#222222"/>
<path d="M389.184 305.554C389.184 306.671 388.278 307.576 387.161 307.576C386.044 307.576 385.139 306.671 385.139 305.554C385.139 304.437 386.044 303.531 387.161 303.531C388.278 303.531 389.184 304.437 389.184 305.554Z" fill="#222222"/>
<path d="M207.137 325.781C207.137 326.898 206.231 327.804 205.114 327.804C203.997 327.804 203.091 326.898 203.091 325.781C203.091 324.664 203.997 323.758 205.114 323.758C206.231 323.758 207.137 324.664 207.137 325.781Z" fill="#222222"/>
<path d="M227.364 325.781C227.364 326.898 226.458 327.804 225.341 327.804C224.224 327.804 223.319 326.898 223.319 325.781C223.319 324.664 224.224 323.758 225.341 323.758C226.458 323.758 227.364 324.664 227.364 325.781Z" fill="#222222"/>
<path d="M247.592 325.781C247.592 326.898 246.686 327.804 245.569 327.804C244.452 327.804 243.546 326.898 243.546 325.781C243.546 324.664 244.452 323.758 245.569 323.758C246.686 323.758 247.592 324.664 247.592 325.781Z" fill="#222222"/>
<path d="M267.819 325.781C267.819 326.898 266.913 327.804 265.796 327.804C264.679 327.804 263.774 326.898 263.774 325.781C263.774 324.664 264.679 323.758 265.796 323.758C266.913 323.758 267.819 324.664 267.819 325.781Z" fill="#222222"/>
<path d="M288.047 325.781C288.047 326.898 287.141 327.804 286.024 327.804C284.907 327.804 284.001 326.898 284.001 325.781C284.001 324.664 284.907 323.758 286.024 323.758C287.141 323.758 288.047 324.664 288.047 325.781Z" fill="#222222"/>
<path d="M308.274 325.781C308.274 326.898 307.368 327.804 306.251 327.804C305.134 327.804 304.229 326.898 304.229 325.781C304.229 324.664 305.134 323.758 306.251 323.758C307.368 323.758 308.274 324.664 308.274 325.781Z" fill="#222222"/>
<path d="M328.502 325.781C328.502 326.898 327.596 327.804 326.479 327.804C325.362 327.804 324.456 326.898 324.456 325.781C324.456 324.664 325.362 323.758 326.479 323.758C327.596 323.758 328.502 324.664 328.502 325.781Z" fill="#222222"/>
<path d="M348.729 325.781C348.729 326.898 347.823 327.804 346.706 327.804C345.589 327.804 344.684 326.898 344.684 325.781C344.684 324.664 345.589 323.758 346.706 323.758C347.823 323.758 348.729 324.664 348.729 325.781Z" fill="#222222"/>
<path d="M368.957 325.781C368.957 326.898 368.051 327.804 366.934 327.804C365.817 327.804 364.911 326.898 364.911 325.781C364.911 324.664 365.817 323.758 366.934 323.758C368.051 323.758 368.957 324.664 368.957 325.781Z" fill="#222222"/>
<path d="M389.184 325.781C389.184 326.898 388.278 327.804 387.161 327.804C386.044 327.804 385.139 326.898 385.139 325.781C385.139 324.664 386.044 323.758 387.161 323.758C388.278 323.758 389.184 324.664 389.184 325.781Z" fill="#222222"/>
<path d="M207.137 346.009C207.137 347.126 206.231 348.032 205.114 348.032C203.997 348.032 203.091 347.126 203.091 346.009C203.091 344.892 203.997 343.986 205.114 343.986C206.231 343.986 207.137 344.892 207.137 346.009Z" fill="#222222"/>
<path d="M227.364 346.009C227.364 347.126 226.458 348.031 225.341 348.031C224.224 348.031 223.319 347.126 223.319 346.009C223.319 344.892 224.224 343.986 225.341 343.986C226.458 343.986 227.364 344.892 227.364 346.009Z" fill="#222222"/>
<path d="M247.592 346.009C247.592 347.126 246.686 348.031 245.569 348.031C244.452 348.031 243.546 347.126 243.546 346.009C243.546 344.892 244.452 343.986 245.569 343.986C246.686 343.986 247.592 344.892 247.592 346.009Z" fill="#222222"/>
<path d="M267.819 346.009C267.819 347.126 266.913 348.031 265.796 348.031C264.679 348.031 263.774 347.126 263.774 346.009C263.774 344.892 264.679 343.986 265.796 343.986C266.913 343.986 267.819 344.892 267.819 346.009Z" fill="#222222"/>
<path d="M288.047 346.009C288.047 347.126 287.141 348.031 286.024 348.031C284.907 348.031 284.001 347.126 284.001 346.009C284.001 344.892 284.907 343.986 286.024 343.986C287.141 343.986 288.047 344.892 288.047 346.009Z" fill="#222222"/>
<path d="M308.274 346.009C308.274 347.126 307.368 348.031 306.251 348.031C305.134 348.031 304.229 347.126 304.229 346.009C304.229 344.892 305.134 343.986 306.251 343.986C307.368 343.986 308.274 344.892 308.274 346.009Z" fill="#222222"/>
<path d="M328.502 346.009C328.502 347.126 327.596 348.031 326.479 348.031C325.362 348.031 324.456 347.126 324.456 346.009C324.456 344.892 325.362 343.986 326.479 343.986C327.596 343.986 328.502 344.892 328.502 346.009Z" fill="#222222"/>
<path d="M348.729 346.009C348.729 347.126 347.823 348.031 346.706 348.031C345.589 348.031 344.684 347.126 344.684 346.009C344.684 344.892 345.589 343.986 346.706 343.986C347.823 343.986 348.729 344.892 348.729 346.009Z" fill="#222222"/>
<path d="M368.957 346.009C368.957 347.126 368.051 348.031 366.934 348.031C365.817 348.031 364.911 347.126 364.911 346.009C364.911 344.892 365.817 343.986 366.934 343.986C368.051 343.986 368.957 344.892 368.957 346.009Z" fill="#222222"/>
<path d="M389.184 346.009C389.184 347.126 388.278 348.031 387.161 348.031C386.044 348.031 385.139 347.126 385.139 346.009C385.139 344.892 386.044 343.986 387.161 343.986C388.278 343.986 389.184 344.892 389.184 346.009Z" fill="#222222"/>
<path d="M207.137 366.236C207.137 367.353 206.231 368.259 205.114 368.259C203.997 368.259 203.091 367.353 203.091 366.236C203.091 365.119 203.997 364.214 205.114 364.214C206.231 364.214 207.137 365.119 207.137 366.236Z" fill="#222222"/>
<path d="M227.364 366.236C227.364 367.353 226.458 368.259 225.341 368.259C224.224 368.259 223.319 367.353 223.319 366.236C223.319 365.119 224.224 364.214 225.341 364.214C226.458 364.214 227.364 365.119 227.364 366.236Z" fill="#222222"/>
<path d="M247.592 366.236C247.592 367.353 246.686 368.259 245.569 368.259C244.452 368.259 243.546 367.353 243.546 366.236C243.546 365.119 244.452 364.214 245.569 364.214C246.686 364.214 247.592 365.119 247.592 366.236Z" fill="#222222"/>
<path d="M267.819 366.236C267.819 367.353 266.913 368.259 265.796 368.259C264.679 368.259 263.774 367.353 263.774 366.236C263.774 365.119 264.679 364.214 265.796 364.214C266.913 364.214 267.819 365.119 267.819 366.236Z" fill="#222222"/>
<path d="M288.047 366.236C288.047 367.353 287.141 368.259 286.024 368.259C284.907 368.259 284.001 367.353 284.001 366.236C284.001 365.119 284.907 364.214 286.024 364.214C287.141 364.214 288.047 365.119 288.047 366.236Z" fill="#222222"/>
<path d="M308.274 366.236C308.274 367.353 307.368 368.259 306.251 368.259C305.134 368.259 304.229 367.353 304.229 366.236C304.229 365.119 305.134 364.214 306.251 364.214C307.368 364.214 308.274 365.119 308.274 366.236Z" fill="#222222"/>
<path d="M328.502 366.236C328.502 367.353 327.596 368.259 326.479 368.259C325.362 368.259 324.456 367.353 324.456 366.236C324.456 365.119 325.362 364.214 326.479 364.214C327.596 364.214 328.502 365.119 328.502 366.236Z" fill="#222222"/>
<path d="M348.729 366.236C348.729 367.353 347.823 368.259 346.706 368.259C345.589 368.259 344.684 367.353 344.684 366.236C344.684 365.119 345.589 364.214 346.706 364.214C347.823 364.214 348.729 365.119 348.729 366.236Z" fill="#222222"/>
<path d="M368.957 366.236C368.957 367.353 368.051 368.259 366.934 368.259C365.817 368.259 364.911 367.353 364.911 366.236C364.911 365.119 365.817 364.214 366.934 364.214C368.051 364.214 368.957 365.119 368.957 366.236Z" fill="#222222"/>
<path d="M389.184 366.236C389.184 367.353 388.278 368.259 387.161 368.259C386.044 368.259 385.139 367.353 385.139 366.236C385.139 365.119 386.044 364.214 387.161 364.214C388.278 364.214 389.184 365.119 389.184 366.236Z" fill="#222222"/>
<path d="M207.137 386.464C207.137 387.581 206.231 388.487 205.114 388.487C203.997 388.487 203.091 387.581 203.091 386.464C203.091 385.347 203.997 384.441 205.114 384.441C206.231 384.441 207.137 385.347 207.137 386.464Z" fill="#222222"/>
<path d="M227.364 386.464C227.364 387.581 226.458 388.487 225.341 388.487C224.224 388.487 223.319 387.581 223.319 386.464C223.319 385.347 224.224 384.441 225.341 384.441C226.458 384.441 227.364 385.347 227.364 386.464Z" fill="#222222"/>
<path d="M247.592 386.464C247.592 387.581 246.686 388.487 245.569 388.487C244.452 388.487 243.546 387.581 243.546 386.464C243.546 385.347 244.452 384.441 245.569 384.441C246.686 384.441 247.592 385.347 247.592 386.464Z" fill="#222222"/>
<path d="M267.819 386.464C267.819 387.581 266.913 388.487 265.796 388.487C264.679 388.487 263.774 387.581 263.774 386.464C263.774 385.347 264.679 384.441 265.796 384.441C266.913 384.441 267.819 385.347 267.819 386.464Z" fill="#222222"/>
<path d="M288.047 386.464C288.047 387.581 287.141 388.487 286.024 388.487C284.907 388.487 284.001 387.581 284.001 386.464C284.001 385.347 284.907 384.441 286.024 384.441C287.141 384.441 288.047 385.347 288.047 386.464Z" fill="#222222"/>
<path d="M308.274 386.464C308.274 387.581 307.368 388.487 306.251 388.487C305.134 388.487 304.229 387.581 304.229 386.464C304.229 385.347 305.134 384.441 306.251 384.441C307.368 384.441 308.274 385.347 308.274 386.464Z" fill="#222222"/>
<path d="M328.502 386.464C328.502 387.581 327.596 388.487 326.479 388.487C325.362 388.487 324.456 387.581 324.456 386.464C324.456 385.347 325.362 384.441 326.479 384.441C327.596 384.441 328.502 385.347 328.502 386.464Z" fill="#222222"/>
<path d="M348.729 386.464C348.729 387.581 347.823 388.487 346.706 388.487C345.589 388.487 344.684 387.581 344.684 386.464C344.684 385.347 345.589 384.441 346.706 384.441C347.823 384.441 348.729 385.347 348.729 386.464Z" fill="#222222"/>
<path d="M368.957 386.464C368.957 387.581 368.051 388.487 366.934 388.487C365.817 388.487 364.911 387.581 364.911 386.464C364.911 385.347 365.817 384.441 366.934 384.441C368.051 384.441 368.957 385.347 368.957 386.464Z" fill="#222222"/>
<path d="M389.184 386.464C389.184 387.581 388.278 388.487 387.161 388.487C386.044 388.487 385.139 387.581 385.139 386.464C385.139 385.347 386.044 384.441 387.161 384.441C388.278 384.441 389.184 385.347 389.184 386.464Z" fill="#222222"/>
</svg>
