<svg width="67" height="101" viewBox="0 0 67 101" fill="none" xmlns="http://www.w3.org/2000/svg">
<path d="M16.9687 100.002C26.1687 100.002 33.6353 92.5358 33.6353 83.3358V66.6691H16.9687C7.76867 66.6691 0.302002 74.1358 0.302002 83.3358C0.302002 92.5358 7.76867 100.002 16.9687 100.002Z" fill="#0ACF83"/>
<path d="M0.302002 50.0024C0.302002 40.8024 7.76867 33.3358 16.9687 33.3358H33.6353V66.6691H16.9687C7.76867 66.6691 0.302002 59.2024 0.302002 50.0024Z" fill="#A259FF"/>
<path d="M0.302002 16.6691C0.302002 7.46911 7.76867 0.00244141 16.9687 0.00244141H33.6353V33.3358H16.9687C7.76867 33.3358 0.302002 25.8691 0.302002 16.6691Z" fill="#F24E1E"/>
<path d="M33.6353 0.00244141H50.302C59.502 0.00244141 66.9687 7.46911 66.9687 16.6691C66.9687 25.8691 59.502 33.3358 50.302 33.3358H33.6353V0.00244141Z" fill="#FF7262"/>
<path d="M66.9687 50.0024C66.9687 59.2024 59.502 66.6691 50.302 66.6691C41.102 66.6691 33.6353 59.2024 33.6353 50.0024C33.6353 40.8024 41.102 33.3358 50.302 33.3358C59.502 33.3358 66.9687 40.8024 66.9687 50.0024Z" fill="#1ABCFE"/>
</svg>
