<svg width="422" height="72" viewBox="0 0 422 72" fill="none" xmlns="http://www.w3.org/2000/svg">
<path d="M36.7534 12.03L39.2494 56.382H30.0974L29.5534 37.406C29.5107 35.6353 29.4894 34.0566 29.4894 32.67C29.5107 31.2833 29.5427 29.982 29.5854 28.766C29.628 27.5286 29.692 26.2913 29.7774 25.054C29.884 23.7953 29.9907 22.43 30.0974 20.958L25.1054 48.83H17.1694L11.7934 20.958C11.9214 22.366 12.028 23.6993 12.1134 24.958C12.22 26.1953 12.2947 27.4433 12.3374 28.702C12.38 29.9606 12.412 31.3153 12.4334 32.766C12.4547 34.1953 12.444 35.7953 12.4014 37.566L12.0814 56.382H3.08936L5.58536 12.03H16.3694L21.2974 40.702L25.9694 12.03H36.7534Z" fill="#E86217"/>
<path d="M76.9524 22.398L65.6244 56.382C64.6217 59.39 63.2884 61.9073 61.6244 63.934C59.9817 65.982 57.923 67.5606 55.4484 68.67C52.995 69.7793 50.0404 70.43 46.5844 70.622L45.4324 63.486C47.6724 63.2086 49.475 62.7926 50.8404 62.238C52.227 61.6833 53.3364 60.926 54.1684 59.966C55.0217 59.0273 55.7577 57.8326 56.3764 56.382H52.9204L42.1364 22.398H52.8244L59.4164 49.918L66.5844 22.398H76.9524Z" fill="#E86217"/>
<path d="M143.174 26.494C143.174 24.9153 142.876 23.614 142.278 22.59C141.702 21.5446 140.817 20.7766 139.622 20.286C138.449 19.774 136.966 19.518 135.174 19.518H131.59V34.014H135.718C137.276 34.014 138.609 33.7473 139.718 33.214C140.828 32.6806 141.681 31.8593 142.278 30.75C142.876 29.6406 143.174 28.222 143.174 26.494ZM153.99 26.462C153.99 29.8966 153.254 32.734 151.782 34.974C150.31 37.214 148.252 38.8886 145.606 39.998C142.961 41.086 139.889 41.63 136.39 41.63H131.59V56.382H121.094V12.03H135.046C141.062 12.03 145.724 13.2246 149.03 15.614C152.337 18.0033 153.99 21.6193 153.99 26.462Z" fill="#E86217"/>
<path d="M160.269 56.382V49.598H164.749V29.118H160.269V22.398H172.461L174.317 30.046C175.533 27.1233 177.08 24.9473 178.957 23.518C180.856 22.0886 183.171 21.374 185.901 21.374C187.053 21.374 188.077 21.47 188.973 21.662C189.869 21.8326 190.712 22.078 191.501 22.398L188.429 30.75C187.811 30.5793 187.192 30.4513 186.573 30.366C185.955 30.2806 185.272 30.238 184.525 30.238C182.307 30.238 180.355 31.1446 178.669 32.958C177.005 34.7713 175.736 37.0753 174.861 39.87V49.598H181.581V56.382H160.269ZM183.277 36.606V26.686L184.781 22.398H191.501L189.613 36.606H183.277Z" fill="#E86217"/>
<path d="M213.044 21.278C216.543 21.278 219.519 22.0246 221.972 23.518C224.426 25.0113 226.303 27.1126 227.604 29.822C228.906 32.51 229.556 35.6673 229.556 39.294C229.556 43.07 228.895 46.3233 227.572 49.054C226.271 51.7633 224.394 53.8433 221.94 55.294C219.487 56.7446 216.522 57.47 213.044 57.47C209.588 57.47 206.623 56.7553 204.148 55.326C201.695 53.8966 199.807 51.8273 198.484 49.118C197.183 46.4086 196.532 43.1553 196.532 39.358C196.532 35.7526 197.183 32.5953 198.484 29.886C199.807 27.1766 201.695 25.0646 204.148 23.55C206.623 22.0353 209.588 21.278 213.044 21.278ZM213.044 28.734C210.975 28.734 209.439 29.5873 208.436 31.294C207.455 32.9793 206.964 35.6673 206.964 39.358C206.964 43.1126 207.455 45.8326 208.436 47.518C209.439 49.2033 210.975 50.046 213.044 50.046C215.114 50.046 216.639 49.2033 217.62 47.518C218.623 45.8326 219.124 43.0913 219.124 39.294C219.124 35.6246 218.623 32.9473 217.62 31.262C216.639 29.5766 215.114 28.734 213.044 28.734Z" fill="#E86217"/>
<path d="M262.459 22.398V46.526C262.459 51.4326 261.542 55.4646 259.707 58.622C257.894 61.8006 255.185 64.318 251.579 66.174C247.995 68.0513 243.558 69.5126 238.267 70.558L236.667 62.846C240.102 62.0566 242.982 61.0753 245.307 59.902C247.633 58.7286 249.382 57.1393 250.555 55.134C251.75 53.1073 252.347 50.4513 252.347 47.166V29.31H240.123V22.398H262.459ZM255.899 4.60596C257.649 4.60596 259.078 5.14996 260.187 6.23796C261.297 7.32596 261.851 8.68062 261.851 10.302C261.851 11.9233 261.297 13.2886 260.187 14.398C259.078 15.486 257.649 16.03 255.899 16.03C254.129 16.03 252.678 15.486 251.547 14.398C250.438 13.2886 249.883 11.9233 249.883 10.302C249.883 8.68062 250.438 7.32596 251.547 6.23796C252.678 5.14996 254.129 4.60596 255.899 4.60596Z" fill="#E86217"/>
<path d="M283.842 42.334C284.077 44.19 284.557 45.694 285.282 46.846C286.029 47.9766 286.978 48.8086 288.13 49.342C289.282 49.854 290.573 50.11 292.002 50.11C293.56 50.11 295.064 49.854 296.514 49.342C297.965 48.83 299.362 48.1473 300.706 47.294L304.77 52.798C303.17 54.1633 301.229 55.2833 298.946 56.158C296.685 57.0326 294.104 57.47 291.202 57.47C287.32 57.47 284.066 56.702 281.442 55.166C278.818 53.6086 276.845 51.4753 275.522 48.766C274.2 46.0566 273.538 42.942 273.538 39.422C273.538 36.0726 274.178 33.0326 275.458 30.302C276.738 27.55 278.605 25.3633 281.058 23.742C283.533 22.0993 286.552 21.278 290.114 21.278C293.357 21.278 296.162 21.9713 298.53 23.358C300.92 24.7446 302.765 26.7393 304.066 29.342C305.389 31.9446 306.05 35.07 306.05 38.718C306.05 39.294 306.029 39.9126 305.986 40.574C305.965 41.2353 305.922 41.822 305.858 42.334H283.842ZM290.114 28.062C288.301 28.062 286.84 28.7126 285.73 30.014C284.621 31.3153 283.949 33.3953 283.714 36.254H296.194C296.173 33.7793 295.693 31.7953 294.754 30.302C293.816 28.8086 292.269 28.062 290.114 28.062Z" fill="#E86217"/>
<path d="M331.465 49.502C332.852 49.502 334.153 49.2353 335.369 48.702C336.607 48.1473 337.833 47.4433 339.049 46.59L343.561 52.99C342.068 54.27 340.244 55.3366 338.089 56.19C335.956 57.0433 333.567 57.47 330.921 57.47C327.273 57.47 324.137 56.7233 321.513 55.23C318.889 53.7153 316.873 51.6246 315.465 48.958C314.057 46.27 313.353 43.1553 313.353 39.614C313.353 36.0726 314.068 32.926 315.497 30.174C316.948 27.4006 318.996 25.2246 321.641 23.646C324.308 22.0673 327.465 21.278 331.113 21.278C333.695 21.278 335.988 21.6406 337.993 22.366C340.02 23.07 341.876 24.126 343.561 25.534L339.177 31.614C338.025 30.8033 336.809 30.174 335.529 29.726C334.249 29.278 332.916 29.054 331.529 29.054C329.247 29.054 327.401 29.8646 325.993 31.486C324.607 33.086 323.913 35.7953 323.913 39.614C323.913 42.11 324.244 44.0833 324.905 45.534C325.567 46.9633 326.463 47.9873 327.593 48.606C328.745 49.2033 330.036 49.502 331.465 49.502Z" fill="#E86217"/>
<path d="M382.416 54.398C381.094 55.2513 379.494 55.9766 377.616 56.574C375.739 57.1713 373.627 57.47 371.28 57.47C366.843 57.47 363.547 56.3393 361.392 54.078C359.238 51.7953 358.16 48.702 358.16 44.798V29.374H351.024V22.398H358.16V15.038L368.272 13.822V22.398H379.216L378.224 29.374H368.272V44.798C368.272 46.4833 368.656 47.6886 369.424 48.414C370.192 49.1393 371.419 49.502 373.104 49.502C374.299 49.502 375.387 49.3633 376.368 49.086C377.371 48.7873 378.267 48.414 379.056 47.966L382.416 54.398Z" fill="#E86217"/>
<path d="M403.831 50.238C405.517 50.238 406.871 49.9713 407.895 49.438C408.941 48.9046 409.463 48.1046 409.463 47.038C409.463 46.3126 409.261 45.7046 408.855 45.214C408.45 44.7233 407.671 44.254 406.519 43.806C405.367 43.358 403.661 42.8246 401.399 42.206C399.33 41.6513 397.495 40.9473 395.895 40.094C394.317 39.2406 393.079 38.142 392.183 36.798C391.309 35.454 390.871 33.7793 390.871 31.774C390.871 29.7473 391.437 27.9446 392.567 26.366C393.698 24.7873 395.362 23.55 397.559 22.654C399.757 21.7366 402.445 21.278 405.623 21.278C408.653 21.278 411.287 21.6726 413.527 22.462C415.789 23.23 417.741 24.2113 419.383 25.406L415.351 31.358C413.943 30.4833 412.429 29.79 410.807 29.278C409.186 28.7446 407.554 28.478 405.911 28.478C404.269 28.478 403.042 28.702 402.231 29.15C401.442 29.5766 401.047 30.2273 401.047 31.102C401.047 31.678 401.25 32.1793 401.655 32.606C402.082 33.0113 402.871 33.438 404.023 33.886C405.175 34.3126 406.861 34.846 409.079 35.486C411.277 36.1046 413.186 36.8193 414.807 37.63C416.45 38.4406 417.719 39.5286 418.615 40.894C419.511 42.238 419.959 44.0193 419.959 46.238C419.959 48.7126 419.223 50.7926 417.751 52.478C416.279 54.142 414.327 55.39 411.895 56.222C409.463 57.054 406.797 57.47 403.895 57.47C400.61 57.47 397.709 57.0006 395.191 56.062C392.674 55.1233 390.53 53.886 388.759 52.35L393.847 46.654C395.17 47.678 396.663 48.5313 398.327 49.214C400.013 49.8966 401.847 50.238 403.831 50.238Z" fill="#E86217"/>
<mask id="path-2-outside-1_42_49" maskUnits="userSpaceOnUse" x="-0.848145" y="0.927979" width="423" height="71" fill="black">
<rect fill="white" x="-0.848145" y="0.927979" width="423" height="71"/>
<path d="M35.8159 10.352L38.3119 54.704H29.1599L28.6159 35.728C28.5732 33.9573 28.5519 32.3786 28.5519 30.992C28.5732 29.6053 28.6052 28.304 28.6479 27.088C28.6905 25.8506 28.7545 24.6133 28.8399 23.376C28.9465 22.1173 29.0532 20.752 29.1599 19.28L24.1679 47.152H16.2319L10.8559 19.28C10.9839 20.688 11.0905 22.0213 11.1759 23.28C11.2825 24.5173 11.3572 25.7653 11.3999 27.024C11.4425 28.2826 11.4745 29.6373 11.4959 31.088C11.5172 32.5173 11.5065 34.1173 11.4639 35.888L11.1439 54.704H2.15186L4.64786 10.352H15.4319L20.3599 39.024L25.0319 10.352H35.8159ZM76.0149 20.72L64.6869 54.704C63.6842 57.712 62.3509 60.2293 60.6869 62.256C59.0442 64.304 56.9855 65.8826 54.5109 66.992C52.0575 68.1013 49.1029 68.752 45.6469 68.944L44.4949 61.808C46.7349 61.5306 48.5375 61.1146 49.9029 60.56C51.2895 60.0053 52.3989 59.248 53.2309 58.288C54.0842 57.3493 54.8202 56.1546 55.4389 54.704H51.9829L41.1989 20.72H51.8869L58.4789 48.24L65.6469 20.72H76.0149ZM142.237 24.816C142.237 23.2373 141.938 21.936 141.341 20.912C140.765 19.8666 139.88 19.0986 138.685 18.608C137.512 18.096 136.029 17.84 134.237 17.84H130.653V32.336H134.781C136.338 32.336 137.672 32.0693 138.781 31.536C139.89 31.0026 140.744 30.1813 141.341 29.072C141.938 27.9626 142.237 26.544 142.237 24.816ZM153.053 24.784C153.053 28.2186 152.317 31.056 150.845 33.296C149.373 35.536 147.314 37.2106 144.669 38.32C142.024 39.408 138.952 39.952 135.453 39.952H130.653V54.704H120.157V10.352H134.109C140.125 10.352 144.786 11.5466 148.093 13.936C151.4 16.3253 153.053 19.9413 153.053 24.784ZM159.332 54.704V47.92H163.812V27.44H159.332V20.72H171.524L173.38 28.368C174.596 25.4453 176.143 23.2693 178.02 21.84C179.919 20.4106 182.233 19.696 184.964 19.696C186.116 19.696 187.14 19.792 188.036 19.984C188.932 20.1546 189.775 20.4 190.564 20.72L187.492 29.072C186.873 28.9013 186.255 28.7733 185.636 28.688C185.017 28.6026 184.335 28.56 183.588 28.56C181.369 28.56 179.417 29.4666 177.732 31.28C176.068 33.0933 174.799 35.3973 173.924 38.192V47.92H180.644V54.704H159.332ZM182.34 34.928V25.008L183.844 20.72H190.564L188.676 34.928H182.34ZM212.107 19.6C215.606 19.6 218.582 20.3466 221.035 21.84C223.488 23.3333 225.366 25.4346 226.667 28.144C227.968 30.832 228.619 33.9893 228.619 37.616C228.619 41.392 227.958 44.6453 226.635 47.376C225.334 50.0853 223.456 52.1653 221.003 53.616C218.55 55.0666 215.584 55.792 212.107 55.792C208.651 55.792 205.686 55.0773 203.211 53.648C200.758 52.2186 198.87 50.1493 197.547 47.44C196.246 44.7306 195.595 41.4773 195.595 37.68C195.595 34.0746 196.246 30.9173 197.547 28.208C198.87 25.4986 200.758 23.3866 203.211 21.872C205.686 20.3573 208.651 19.6 212.107 19.6ZM212.107 27.056C210.038 27.056 208.502 27.9093 207.499 29.616C206.518 31.3013 206.027 33.9893 206.027 37.68C206.027 41.4346 206.518 44.1546 207.499 45.84C208.502 47.5253 210.038 48.368 212.107 48.368C214.176 48.368 215.702 47.5253 216.683 45.84C217.686 44.1546 218.187 41.4133 218.187 37.616C218.187 33.9466 217.686 31.2693 216.683 29.584C215.702 27.8986 214.176 27.056 212.107 27.056ZM261.522 20.72V44.848C261.522 49.7546 260.605 53.7866 258.77 56.944C256.957 60.1226 254.247 62.64 250.642 64.496C247.058 66.3733 242.621 67.8346 237.33 68.88L235.73 61.168C239.165 60.3786 242.045 59.3973 244.37 58.224C246.695 57.0506 248.445 55.4613 249.618 53.456C250.813 51.4293 251.41 48.7733 251.41 45.488V27.632H239.186V20.72H261.522ZM254.962 2.92798C256.711 2.92798 258.141 3.47198 259.25 4.55998C260.359 5.64798 260.914 7.00265 260.914 8.62398C260.914 10.2453 260.359 11.6106 259.25 12.72C258.141 13.808 256.711 14.352 254.962 14.352C253.191 14.352 251.741 13.808 250.61 12.72C249.501 11.6106 248.946 10.2453 248.946 8.62398C248.946 7.00265 249.501 5.64798 250.61 4.55998C251.741 3.47198 253.191 2.92798 254.962 2.92798ZM282.905 40.656C283.14 42.512 283.62 44.016 284.345 45.168C285.092 46.2986 286.041 47.1306 287.193 47.664C288.345 48.176 289.636 48.432 291.065 48.432C292.622 48.432 294.126 48.176 295.577 47.664C297.027 47.152 298.425 46.4693 299.769 45.616L303.833 51.12C302.233 52.4853 300.292 53.6053 298.009 54.48C295.748 55.3546 293.166 55.792 290.265 55.792C286.382 55.792 283.129 55.024 280.505 53.488C277.881 51.9306 275.908 49.7973 274.585 47.088C273.262 44.3786 272.601 41.264 272.601 37.744C272.601 34.3946 273.241 31.3546 274.521 28.624C275.801 25.872 277.668 23.6853 280.121 22.064C282.596 20.4213 285.614 19.6 289.177 19.6C292.42 19.6 295.225 20.2933 297.593 21.68C299.982 23.0666 301.828 25.0613 303.129 27.664C304.452 30.2666 305.113 33.392 305.113 37.04C305.113 37.616 305.092 38.2346 305.049 38.896C305.028 39.5573 304.985 40.144 304.921 40.656H282.905ZM289.177 26.384C287.364 26.384 285.902 27.0346 284.793 28.336C283.684 29.6373 283.012 31.7173 282.777 34.576H295.257C295.236 32.1013 294.756 30.1173 293.817 28.624C292.878 27.1306 291.332 26.384 289.177 26.384ZM330.528 47.824C331.915 47.824 333.216 47.5573 334.432 47.024C335.669 46.4693 336.896 45.7653 338.112 44.912L342.624 51.312C341.131 52.592 339.307 53.6586 337.152 54.512C335.019 55.3653 332.629 55.792 329.984 55.792C326.336 55.792 323.2 55.0453 320.576 53.552C317.952 52.0373 315.936 49.9466 314.528 47.28C313.12 44.592 312.416 41.4773 312.416 37.936C312.416 34.3946 313.131 31.248 314.56 28.496C316.01 25.7226 318.059 23.5466 320.704 21.968C323.371 20.3893 326.528 19.6 330.176 19.6C332.757 19.6 335.051 19.9626 337.056 20.688C339.083 21.392 340.939 22.448 342.624 23.856L338.24 29.936C337.088 29.1253 335.872 28.496 334.592 28.048C333.312 27.6 331.979 27.376 330.592 27.376C328.309 27.376 326.464 28.1866 325.056 29.808C323.669 31.408 322.976 34.1173 322.976 37.936C322.976 40.432 323.307 42.4053 323.968 43.856C324.629 45.2853 325.525 46.3093 326.656 46.928C327.808 47.5253 329.099 47.824 330.528 47.824ZM381.479 52.72C380.156 53.5733 378.556 54.2986 376.679 54.896C374.802 55.4933 372.69 55.792 370.343 55.792C365.906 55.792 362.61 54.6613 360.455 52.4C358.3 50.1173 357.223 47.024 357.223 43.12V27.696H350.087V20.72H357.223V13.36L367.335 12.144V20.72H378.279L377.287 27.696H367.335V43.12C367.335 44.8053 367.719 46.0106 368.487 46.736C369.255 47.4613 370.482 47.824 372.167 47.824C373.362 47.824 374.45 47.6853 375.431 47.408C376.434 47.1093 377.33 46.736 378.119 46.288L381.479 52.72ZM402.894 48.56C404.579 48.56 405.934 48.2933 406.958 47.76C408.003 47.2266 408.526 46.4266 408.526 45.36C408.526 44.6346 408.323 44.0266 407.918 43.536C407.513 43.0453 406.734 42.576 405.582 42.128C404.43 41.68 402.723 41.1466 400.462 40.528C398.393 39.9733 396.558 39.2693 394.958 38.416C393.379 37.5626 392.142 36.464 391.246 35.12C390.371 33.776 389.934 32.1013 389.934 30.096C389.934 28.0693 390.499 26.2666 391.63 24.688C392.761 23.1093 394.425 21.872 396.622 20.976C398.819 20.0586 401.507 19.6 404.686 19.6C407.715 19.6 410.35 19.9946 412.59 20.784C414.851 21.552 416.803 22.5333 418.446 23.728L414.414 29.68C413.006 28.8053 411.491 28.112 409.87 27.6C408.249 27.0666 406.617 26.8 404.974 26.8C403.331 26.8 402.105 27.024 401.294 27.472C400.505 27.8986 400.11 28.5493 400.11 29.424C400.11 30 400.313 30.5013 400.718 30.928C401.145 31.3333 401.934 31.76 403.086 32.208C404.238 32.6346 405.923 33.168 408.142 33.808C410.339 34.4266 412.249 35.1413 413.87 35.952C415.513 36.7626 416.782 37.8506 417.678 39.216C418.574 40.56 419.022 42.3413 419.022 44.56C419.022 47.0346 418.286 49.1146 416.814 50.8C415.342 52.464 413.39 53.712 410.958 54.544C408.526 55.376 405.859 55.792 402.958 55.792C399.673 55.792 396.771 55.3226 394.254 54.384C391.737 53.4453 389.593 52.208 387.822 50.672L392.91 44.976C394.233 46 395.726 46.8533 397.39 47.536C399.075 48.2186 400.91 48.56 402.894 48.56Z"/>
</mask>
<path d="M35.8159 10.352L37.8127 10.2396L37.7065 8.35198H35.8159V10.352ZM38.3119 54.704V56.704H40.4276L40.3087 54.5916L38.3119 54.704ZM29.1599 54.704L27.1607 54.7613L27.2164 56.704H29.1599V54.704ZM28.6159 35.728L26.6164 35.7762L26.6167 35.7853L28.6159 35.728ZM28.5519 30.992L26.5521 30.9612L26.5519 30.9766V30.992H28.5519ZM28.6479 27.088L30.6466 27.1581L30.6467 27.1569L28.6479 27.088ZM28.8399 23.376L26.847 23.2071L26.8457 23.2227L26.8446 23.2384L28.8399 23.376ZM29.1599 19.28L31.1546 19.4245L27.1912 18.9274L29.1599 19.28ZM24.1679 47.152V49.152H25.8415L26.1365 47.5046L24.1679 47.152ZM16.2319 47.152L14.2681 47.5308L14.5808 49.152H16.2319V47.152ZM10.8559 19.28L12.8197 18.9012L8.86407 19.4611L10.8559 19.28ZM11.1759 23.28L9.18044 23.4153L9.18167 23.4335L9.18325 23.4518L11.1759 23.28ZM11.3999 27.024L9.401 27.0917V27.0917L11.3999 27.024ZM11.4959 31.088L9.49607 31.1174L9.49608 31.1178L11.4959 31.088ZM11.4639 35.888L9.46444 35.8398L9.46427 35.8469L9.46414 35.854L11.4639 35.888ZM11.1439 54.704V56.704H13.1101L13.1436 54.738L11.1439 54.704ZM2.15186 54.704L0.155015 54.5916L0.0361366 56.704H2.15186V54.704ZM4.64786 10.352V8.35198H2.75725L2.65102 10.2396L4.64786 10.352ZM15.4319 10.352L17.403 10.0132L17.1174 8.35198H15.4319V10.352ZM20.3599 39.024L18.3888 39.3628L22.3338 39.3456L20.3599 39.024ZM25.0319 10.352V8.35198H23.3314L23.0579 10.0303L25.0319 10.352ZM76.0149 20.72L77.9122 21.3524L78.7897 18.72H76.0149V20.72ZM64.6869 54.704L62.7895 54.0715L64.6869 54.704ZM60.6869 62.256L59.1411 60.9869L59.1339 60.9957L59.1267 61.0046L60.6869 62.256ZM54.5109 66.992L53.6927 65.167L53.6868 65.1696L54.5109 66.992ZM45.6469 68.944L43.6724 69.2627L43.9595 71.0408L45.7578 70.9409L45.6469 68.944ZM44.4949 61.808L44.2491 59.8231L42.1897 60.0781L42.5204 62.1267L44.4949 61.808ZM49.9029 60.56L49.1601 58.703L49.1501 58.707L49.9029 60.56ZM53.2309 58.288L51.751 56.9426L51.735 56.9602L51.7195 56.9781L53.2309 58.288ZM55.4389 54.704L57.2785 55.4886L58.4661 52.704H55.4389V54.704ZM51.9829 54.704L50.0765 55.3089L50.5192 56.704H51.9829V54.704ZM41.1989 20.72V18.72H38.4659L39.2925 21.3249L41.1989 20.72ZM51.8869 20.72L53.8318 20.2541L53.4644 18.72H51.8869V20.72ZM58.4789 48.24L56.5339 48.7059L60.4143 48.7441L58.4789 48.24ZM65.6469 20.72V18.72H64.1011L63.7114 20.2159L65.6469 20.72ZM141.341 20.912L139.589 21.8772L139.601 21.8986L139.613 21.9197L141.341 20.912ZM138.685 18.608L137.885 20.4411L137.905 20.4498L137.925 20.458L138.685 18.608ZM130.653 17.84V15.84H128.653V17.84H130.653ZM130.653 32.336H128.653V34.336H130.653V32.336ZM138.781 31.536L137.914 29.7335L138.781 31.536ZM141.341 29.072L139.58 28.1238V28.1238L141.341 29.072ZM150.845 33.296L152.516 34.3943V34.3943L150.845 33.296ZM144.669 38.32L145.43 40.1697L145.442 40.1644L144.669 38.32ZM130.653 39.952V37.952H128.653V39.952H130.653ZM130.653 54.704V56.704H132.653V54.704H130.653ZM120.157 54.704H118.157V56.704H120.157V54.704ZM120.157 10.352V8.35198H118.157V10.352H120.157ZM159.332 54.704H157.332V56.704H159.332V54.704ZM159.332 47.92V45.92H157.332V47.92H159.332ZM163.812 47.92V49.92H165.812V47.92H163.812ZM163.812 27.44H165.812V25.44H163.812V27.44ZM159.332 27.44H157.332V29.44H159.332V27.44ZM159.332 20.72V18.72H157.332V20.72H159.332ZM171.524 20.72L173.467 20.2483L173.097 18.72H171.524V20.72ZM173.38 28.368L171.436 28.8396L172.878 34.7806L175.226 29.1363L173.38 28.368ZM178.02 21.84L176.817 20.2421L176.808 20.2487L178.02 21.84ZM188.036 19.984L187.617 21.9396L187.639 21.9444L187.662 21.9487L188.036 19.984ZM190.564 20.72L192.546 20.9834L192.75 19.4483L191.315 18.8665L190.564 20.72ZM187.492 29.072L186.96 31L188.734 31.4893L189.369 29.7624L187.492 29.072ZM185.636 28.688L185.909 26.7067V26.7067L185.636 28.688ZM177.732 31.28L176.267 29.9184L176.258 29.9277L177.732 31.28ZM173.924 38.192L172.015 37.5946L171.924 37.8863V38.192H173.924ZM173.924 47.92H171.924V49.92H173.924V47.92ZM180.644 47.92H182.644V45.92H180.644V47.92ZM180.644 54.704V56.704H182.644V54.704H180.644ZM182.34 34.928H180.34V36.928H182.34V34.928ZM182.34 25.008L180.453 24.346L180.34 24.6674V25.008H182.34ZM183.844 20.72V18.72H182.426L181.957 20.058L183.844 20.72ZM188.676 34.928V36.928H190.428L190.658 35.1914L188.676 34.928ZM221.035 21.84L222.075 20.1316H222.075L221.035 21.84ZM226.667 28.144L224.864 29.0099L224.867 29.0155L226.667 28.144ZM226.635 47.376L224.835 46.5041L224.832 46.5101L226.635 47.376ZM203.211 53.648L202.204 55.3761L202.211 55.3799L203.211 53.648ZM197.547 47.44L195.744 48.3059L195.75 48.3174L197.547 47.44ZM197.547 28.208L195.75 27.3306L195.744 27.3421L197.547 28.208ZM203.211 21.872L202.167 20.1661L202.16 20.1702L203.211 21.872ZM207.499 29.616L205.774 28.6029L205.771 28.6096L207.499 29.616ZM207.499 45.84L205.771 46.8464L205.775 46.8545L205.78 46.8626L207.499 45.84ZM216.683 45.84L214.964 44.8174L214.959 44.8255L214.955 44.8336L216.683 45.84ZM216.683 29.584L214.955 30.5904L214.959 30.5985L214.964 30.6066L216.683 29.584ZM261.522 20.72H263.522V18.72H261.522V20.72ZM258.77 56.944L257.041 55.9391L257.037 55.946L257.033 55.953L258.77 56.944ZM250.642 64.496L249.726 62.7178L249.72 62.721L249.714 62.7243L250.642 64.496ZM237.33 68.88L235.372 69.2863L235.774 71.2261L237.718 70.842L237.33 68.88ZM235.73 61.168L235.282 59.2188L233.374 59.6573L233.772 61.5743L235.73 61.168ZM244.37 58.224L245.271 60.0095L244.37 58.224ZM249.618 53.456L247.895 52.4403L247.892 52.446L249.618 53.456ZM251.41 27.632H253.41V25.632H251.41V27.632ZM239.186 27.632H237.186V29.632H239.186V27.632ZM239.186 20.72V18.72H237.186V20.72H239.186ZM259.25 4.55998L257.849 5.98785V5.98786L259.25 4.55998ZM259.25 12.72L260.65 14.1479L260.657 14.1411L260.664 14.1342L259.25 12.72ZM250.61 12.72L249.196 14.1342L249.209 14.1478L249.223 14.1611L250.61 12.72ZM250.61 4.55998L249.223 3.11884L249.216 3.12544L249.209 3.1321L250.61 4.55998ZM282.905 40.656V38.656H280.636L280.921 40.9069L282.905 40.656ZM284.345 45.168L282.652 46.2336L282.664 46.252L282.676 46.2701L284.345 45.168ZM287.193 47.664L286.353 49.4789L286.367 49.4854L286.381 49.4916L287.193 47.664ZM295.577 47.664L296.242 49.55V49.55L295.577 47.664ZM299.769 45.616L301.378 44.428L300.271 42.9284L298.697 43.9276L299.769 45.616ZM303.833 51.12L305.131 52.6414L306.549 51.4314L305.442 49.932L303.833 51.12ZM298.009 54.48L297.293 52.6124L297.287 52.6147L298.009 54.48ZM280.505 53.488L279.484 55.2079L279.495 55.214L280.505 53.488ZM274.585 47.088L276.382 46.2106L274.585 47.088ZM274.521 28.624L276.332 29.4728L276.334 29.4674L274.521 28.624ZM280.121 22.064L281.224 23.7325L281.227 23.7303L280.121 22.064ZM297.593 21.68L296.582 23.4059L296.589 23.4098L297.593 21.68ZM303.129 27.664L301.34 28.5584L301.346 28.5701L303.129 27.664ZM305.049 38.896L303.053 38.7672L303.051 38.7993L303.05 38.8315L305.049 38.896ZM304.921 40.656V42.656H306.686L306.905 40.904L304.921 40.656ZM284.793 28.336L283.271 27.0385L284.793 28.336ZM282.777 34.576L280.784 34.4123L280.606 36.576H282.777V34.576ZM295.257 34.576V36.576H297.274L297.257 34.5587L295.257 34.576ZM293.817 28.624L295.51 27.5596V27.5596L293.817 28.624ZM334.432 47.024L335.235 48.8556L335.243 48.8523L335.25 48.849L334.432 47.024ZM338.112 44.912L339.746 43.7596L338.597 42.1285L336.963 43.2749L338.112 44.912ZM342.624 51.312L343.925 52.8305L345.307 51.6465L344.258 50.1596L342.624 51.312ZM337.152 54.512L336.415 52.6525L336.409 52.655L337.152 54.512ZM320.576 53.552L319.576 55.2841L319.587 55.2902L320.576 53.552ZM314.528 47.28L312.756 48.208L312.759 48.2138L314.528 47.28ZM314.56 28.496L312.788 27.569L312.785 27.5741L314.56 28.496ZM320.704 21.968L319.685 20.2469L319.679 20.2506L320.704 21.968ZM337.056 20.688L336.376 22.5687L336.388 22.5731L336.4 22.5772L337.056 20.688ZM342.624 23.856L344.246 25.0257L345.335 23.5151L343.906 22.3211L342.624 23.856ZM338.24 29.936L337.089 31.5716L338.706 32.7094L339.862 31.1057L338.24 29.936ZM334.592 28.048L335.253 26.1603L334.592 28.048ZM325.056 29.808L323.546 28.4966L323.544 28.4981L325.056 29.808ZM323.968 43.856L322.148 44.6856L322.153 44.6958L323.968 43.856ZM326.656 46.928L325.696 48.6825L325.715 48.6932L325.735 48.7035L326.656 46.928ZM381.479 52.72L382.563 54.4006L384.096 53.4113L383.252 51.7939L381.479 52.72ZM360.455 52.4L359 53.7728L359.007 53.7796L360.455 52.4ZM357.223 27.696H359.223V25.696H357.223V27.696ZM350.087 27.696H348.087V29.696H350.087V27.696ZM350.087 20.72V18.72H348.087V20.72H350.087ZM357.223 20.72V22.72H359.223V20.72H357.223ZM357.223 13.36L356.984 11.3743L355.223 11.5861V13.36H357.223ZM367.335 12.144H369.335V9.88906L367.096 10.1583L367.335 12.144ZM367.335 20.72H365.335V22.72H367.335V20.72ZM378.279 20.72L380.259 21.0016L380.583 18.72H378.279V20.72ZM377.287 27.696V29.696H379.023L379.267 27.9776L377.287 27.696ZM367.335 27.696V25.696H365.335V27.696H367.335ZM368.487 46.736L369.86 45.282L368.487 46.736ZM375.431 47.408L375.975 49.3326L375.988 49.3288L376.002 49.3247L375.431 47.408ZM378.119 46.288L379.892 45.3619L378.933 43.5264L377.132 44.5486L378.119 46.288ZM406.958 47.76L406.049 45.9785L406.041 45.9823L406.034 45.9862L406.958 47.76ZM405.582 42.128L404.857 43.992L405.582 42.128ZM400.462 40.528L400.99 38.5988L400.98 38.5962L400.462 40.528ZM394.958 38.416L394.007 40.1754L394.017 40.1807L394.958 38.416ZM391.246 35.12L389.57 36.2109L389.576 36.2202L389.582 36.2294L391.246 35.12ZM391.63 24.688L393.256 25.8525V25.8525L391.63 24.688ZM396.622 20.976L397.377 22.8279L397.385 22.8248L397.392 22.8216L396.622 20.976ZM412.59 20.784L411.925 22.6703L411.936 22.6741L411.947 22.6777L412.59 20.784ZM418.446 23.728L420.102 24.8497L421.187 23.2482L419.622 22.1105L418.446 23.728ZM414.414 29.68L413.358 31.3789L414.991 32.3933L416.07 30.8017L414.414 29.68ZM409.87 27.6L409.245 29.4998L409.256 29.5036L409.268 29.5071L409.87 27.6ZM401.294 27.472L402.245 29.2314L402.253 29.227L402.261 29.2225L401.294 27.472ZM400.718 30.928L399.268 32.3055L399.303 32.3427L399.34 32.378L400.718 30.928ZM403.086 32.208L402.361 34.072L402.376 34.0779L402.391 34.0835L403.086 32.208ZM408.142 33.808L407.588 35.7297L407.6 35.7331L408.142 33.808ZM413.87 35.952L412.975 37.7409L412.985 37.7455L413.87 35.952ZM417.678 39.216L416.006 40.3133L416.01 40.3194L416.014 40.3254L417.678 39.216ZM416.814 50.8L418.312 52.1252L418.32 52.1156L416.814 50.8ZM410.958 54.544L410.31 52.6517L410.958 54.544ZM394.254 54.384L393.555 56.2579L394.254 54.384ZM387.822 50.672L386.33 49.3396L384.978 50.853L386.511 52.1828L387.822 50.672ZM392.91 44.976L394.134 43.3945L392.66 42.2533L391.418 43.6436L392.91 44.976ZM397.39 47.536L396.631 49.3863L396.639 49.3897L397.39 47.536ZM33.819 10.4644L36.315 54.8164L40.3087 54.5916L37.8127 10.2396L33.819 10.4644ZM38.3119 52.704H29.1599V56.704H38.3119V52.704ZM31.159 54.6467L30.615 35.6707L26.6167 35.7853L27.1607 54.7613L31.159 54.6467ZM30.6153 35.6798C30.5729 33.921 30.5519 32.3589 30.5519 30.992H26.5519C26.5519 32.3984 26.5735 33.9936 26.6164 35.7762L30.6153 35.6798ZM30.5516 31.0227C30.5728 29.6474 30.6045 28.3593 30.6466 27.1581L26.6491 27.0178C26.6059 28.2486 26.5736 29.5632 26.5521 30.9612L30.5516 31.0227ZM30.6467 27.1569C30.6885 25.9425 30.7514 24.7281 30.8351 23.5136L26.8446 23.2384C26.7577 24.4985 26.6925 25.7588 26.649 27.0191L30.6467 27.1569ZM30.8327 23.5449C30.9402 22.2769 31.0475 20.9033 31.1546 19.4245L27.1651 19.1354C27.0589 20.6006 26.9529 21.9577 26.847 23.2071L30.8327 23.5449ZM27.1912 18.9274L22.1992 46.7994L26.1365 47.5046L31.1285 19.6326L27.1912 18.9274ZM24.1679 45.152H16.2319V49.152H24.1679V45.152ZM18.1957 46.7732L12.8197 18.9012L8.89205 19.6588L14.2681 47.5308L18.1957 46.7732ZM8.86407 19.4611C8.99085 20.8556 9.09625 22.1736 9.18044 23.4153L13.1713 23.1447C13.0848 21.8691 12.9769 20.5204 12.8476 19.0989L8.86407 19.4611ZM9.18325 23.4518C9.28689 24.654 9.3595 25.8673 9.401 27.0917L13.3987 26.9562C13.3549 25.6633 13.2782 24.3806 13.1685 23.1082L9.18325 23.4518ZM9.401 27.0917C9.44318 28.3359 9.4749 29.6776 9.49607 31.1174L13.4956 31.0586C13.4741 29.597 13.4419 28.2294 13.3987 26.9562L9.401 27.0917ZM9.49608 31.1178C9.51695 32.5159 9.50662 34.0893 9.46444 35.8398L13.4633 35.9362C13.5064 34.1453 13.5174 32.5187 13.4956 31.0581L9.49608 31.1178ZM9.46414 35.854L9.14415 54.67L13.1436 54.738L13.4636 35.922L9.46414 35.854ZM11.1439 52.704H2.15186V56.704H11.1439V52.704ZM4.1487 54.8164L6.6447 10.4644L2.65102 10.2396L0.155015 54.5916L4.1487 54.8164ZM4.64786 12.352H15.4319V8.35198H4.64786V12.352ZM13.4608 10.6908L18.3888 39.3628L22.331 38.6852L17.403 10.0132L13.4608 10.6908ZM22.3338 39.3456L27.0058 10.6736L23.0579 10.0303L18.3859 38.7023L22.3338 39.3456ZM25.0319 12.352H35.8159V8.35198H25.0319V12.352ZM74.1175 20.0875L62.7895 54.0715L66.5842 55.3364L77.9122 21.3524L74.1175 20.0875ZM62.7895 54.0715C61.8484 56.8948 60.6213 59.1841 59.1411 60.9869L62.2326 63.5251C64.0804 61.2745 65.52 58.5292 66.5842 55.3364L62.7895 54.0715ZM59.1267 61.0046C57.6891 62.797 55.888 64.1829 53.6927 65.167L55.329 68.817C58.0831 67.5824 60.3993 65.811 62.247 63.5074L59.1267 61.0046ZM53.6868 65.1696C51.5124 66.1528 48.8126 66.765 45.5359 66.9471L45.7578 70.9409C49.3931 70.7389 52.6026 70.0498 55.3349 68.8143L53.6868 65.1696ZM47.6213 68.6252L46.4693 61.4892L42.5204 62.1267L43.6724 69.2627L47.6213 68.6252ZM44.7406 63.7928C47.0729 63.5041 49.0659 63.0587 50.6556 62.4129L49.1501 58.707C48.0091 59.1706 46.3969 59.5572 44.2491 59.8231L44.7406 63.7928ZM50.6456 62.4169C52.2765 61.7646 53.6675 60.8379 54.7422 59.5978L51.7195 56.9781C51.1302 57.6581 50.3025 58.2461 49.1601 58.703L50.6456 62.4169ZM54.7107 59.6333C55.746 58.4945 56.5926 57.0969 57.2785 55.4886L53.5992 53.9194C53.0478 55.2124 52.4224 56.2041 51.751 56.9426L54.7107 59.6333ZM55.4389 52.704H51.9829V56.704H55.4389V52.704ZM53.8892 54.0991L43.1052 20.1151L39.2925 21.3249L50.0765 55.3089L53.8892 54.0991ZM41.1989 22.72H51.8869V18.72H41.1989V22.72ZM49.9419 21.1859L56.5339 48.7059L60.4238 47.7741L53.8318 20.2541L49.9419 21.1859ZM60.4143 48.7441L67.5823 21.2241L63.7114 20.2159L56.5434 47.7359L60.4143 48.7441ZM65.6469 22.72H76.0149V18.72H65.6469V22.72ZM144.237 24.816C144.237 22.9969 143.894 21.3193 143.068 19.9042L139.613 21.9197C139.983 22.5527 140.237 23.4777 140.237 24.816H144.237ZM143.093 19.9468C142.278 18.4683 141.024 17.4066 139.445 16.7579L137.925 20.458C138.735 20.7906 139.252 21.265 139.589 21.8772L143.093 19.9468ZM139.485 16.7749C137.98 16.1181 136.202 15.84 134.237 15.84V19.84C135.856 19.84 137.043 20.0739 137.885 20.4411L139.485 16.7749ZM134.237 15.84H130.653V19.84H134.237V15.84ZM128.653 17.84V32.336H132.653V17.84H128.653ZM130.653 34.336H134.781V30.336H130.653V34.336ZM134.781 34.336C136.561 34.336 138.206 34.0316 139.647 33.3385L137.914 29.7335C137.137 30.107 136.115 30.336 134.781 30.336V34.336ZM139.647 33.3385C141.147 32.6174 142.309 31.4922 143.102 30.0202L139.58 28.1238C139.178 28.8704 138.633 29.3878 137.914 29.7335L139.647 33.3385ZM143.102 30.0202C143.903 28.5314 144.237 26.7579 144.237 24.816H140.237C140.237 26.33 139.973 27.3939 139.58 28.1238L143.102 30.0202ZM151.053 24.784C151.053 27.9373 150.378 30.3643 149.173 32.1976L152.516 34.3943C154.256 31.7476 155.053 28.5 155.053 24.784H151.053ZM149.173 32.1976C147.935 34.0815 146.201 35.5088 143.895 36.4756L145.442 40.1644C148.427 38.9125 150.81 36.9905 152.516 34.3943L149.173 32.1976ZM143.908 36.4703C141.551 37.4396 138.747 37.952 135.453 37.952V41.952C139.156 41.952 142.496 41.3764 145.43 40.1696L143.908 36.4703ZM135.453 37.952H130.653V41.952H135.453V37.952ZM128.653 39.952V54.704H132.653V39.952H128.653ZM130.653 52.704H120.157V56.704H130.653V52.704ZM122.157 54.704V10.352H118.157V54.704H122.157ZM120.157 12.352H134.109V8.35198H120.157V12.352ZM134.109 12.352C139.894 12.352 144.083 13.506 146.921 15.5571L149.264 12.3149C145.489 9.58732 140.355 8.35198 134.109 8.35198V12.352ZM146.921 15.5571C149.606 17.497 151.053 20.447 151.053 24.784H155.053C155.053 19.4357 153.193 15.1536 149.264 12.3149L146.921 15.5571ZM161.332 54.704V47.92H157.332V54.704H161.332ZM159.332 49.92H163.812V45.92H159.332V49.92ZM165.812 47.92V27.44H161.812V47.92H165.812ZM163.812 25.44H159.332V29.44H163.812V25.44ZM161.332 27.44V20.72H157.332V27.44H161.332ZM159.332 22.72H171.524V18.72H159.332V22.72ZM169.58 21.1916L171.436 28.8396L175.323 27.8963L173.467 20.2483L169.58 21.1916ZM175.226 29.1363C176.352 26.4318 177.714 24.5862 179.231 23.4313L176.808 20.2487C174.571 21.9524 172.84 24.4588 171.533 27.5997L175.226 29.1363ZM179.223 23.4378C180.724 22.3073 182.6 21.696 184.964 21.696V17.696C181.867 17.696 179.113 18.514 176.817 20.2421L179.223 23.4378ZM184.964 21.696C186.009 21.696 186.888 21.7835 187.617 21.9396L188.455 18.0284C187.391 17.8005 186.223 17.696 184.964 17.696V21.696ZM187.662 21.9487C188.438 22.0965 189.153 22.3062 189.812 22.5735L191.315 18.8665C190.396 18.4938 189.426 18.2128 188.41 18.0193L187.662 21.9487ZM188.687 20.0296L185.615 28.3816L189.369 29.7624L192.441 21.4104L188.687 20.0296ZM188.024 27.144C187.322 26.9505 186.617 26.8044 185.909 26.7067L185.363 30.6692C185.892 30.7422 186.424 30.8521 186.96 31L188.024 27.144ZM185.909 26.7067C185.184 26.6068 184.409 26.56 183.588 26.56V30.56C184.26 30.56 184.85 30.5985 185.363 30.6692L185.909 26.7067ZM183.588 26.56C180.746 26.56 178.282 27.7501 176.267 29.9184L179.197 32.6415C180.552 31.1831 181.992 30.56 183.588 30.56V26.56ZM176.258 29.9277C174.361 31.9949 172.961 34.572 172.015 37.5946L175.833 38.7894C176.636 36.2226 177.774 34.1917 179.205 32.6322L176.258 29.9277ZM171.924 38.192V47.92H175.924V38.192H171.924ZM173.924 49.92H180.644V45.92H173.924V49.92ZM178.644 47.92V54.704H182.644V47.92H178.644ZM180.644 52.704H159.332V56.704H180.644V52.704ZM184.34 34.928V25.008H180.34V34.928H184.34ZM184.227 25.6699L185.731 21.3819L181.957 20.058L180.453 24.346L184.227 25.6699ZM183.844 22.72H190.564V18.72H183.844V22.72ZM188.581 20.4565L186.693 34.6645L190.658 35.1914L192.546 20.9834L188.581 20.4565ZM188.676 32.928H182.34V36.928H188.676V32.928ZM212.107 21.6C215.319 21.6 217.917 22.2835 219.995 23.5484L222.075 20.1316C219.246 18.4098 215.892 17.6 212.107 17.6V21.6ZM219.995 23.5484C222.102 24.8309 223.722 26.6322 224.864 29.0099L228.47 27.2781C227.009 24.2371 224.874 21.8357 222.075 20.1316L219.995 23.5484ZM224.867 29.0155C226.011 31.3798 226.619 34.2275 226.619 37.616H230.619C230.619 33.7511 229.925 30.2842 228.467 27.2725L224.867 29.0155ZM226.619 37.616C226.619 41.1621 225.998 44.1034 224.835 46.5041L228.435 48.2478C229.917 45.1872 230.619 41.6219 230.619 37.616H226.619ZM224.832 46.5101C223.692 48.8833 222.079 50.6564 219.985 51.8944L222.021 55.3375C224.834 53.6743 226.975 51.2873 228.438 48.2419L224.832 46.5101ZM219.985 51.8944C217.901 53.1266 215.305 53.792 212.107 53.792V57.792C215.864 57.792 219.198 57.0067 222.021 55.3375L219.985 51.8944ZM212.107 53.792C208.929 53.792 206.324 53.1364 204.211 51.9161L202.211 55.3799C205.047 57.0182 208.373 57.792 212.107 57.792V53.792ZM204.218 51.9199C202.128 50.7023 200.505 48.9395 199.344 46.5626L195.75 48.3174C197.235 51.3591 199.387 53.735 202.204 55.3761L204.218 51.9199ZM199.35 46.5741C198.208 44.1964 197.595 41.2542 197.595 37.68H193.595C193.595 41.7004 194.283 45.2649 195.744 48.3059L199.35 46.5741ZM197.595 37.68C197.595 34.3154 198.201 31.4644 199.35 29.0739L195.744 27.3421C194.29 30.3702 193.595 33.8339 193.595 37.68H197.595ZM199.344 29.0854C200.509 26.6996 202.145 24.8804 204.262 23.5738L202.16 20.1702C199.37 21.8929 197.23 24.2977 195.75 27.3306L199.344 29.0854ZM204.255 23.5778C206.36 22.2895 208.948 21.6 212.107 21.6V17.6C208.353 17.6 205.011 18.4251 202.167 20.1661L204.255 23.5778ZM212.107 25.056C209.368 25.056 207.156 26.2515 205.774 28.6029L209.223 30.6291C209.847 29.5671 210.707 29.056 212.107 29.056V25.056ZM205.771 28.6096C204.514 30.7681 204.027 33.9003 204.027 37.68H208.027C208.027 34.0783 208.521 31.8345 209.227 30.6224L205.771 28.6096ZM204.027 37.68C204.027 41.5162 204.512 44.6845 205.771 46.8464L209.227 44.8336C208.523 43.6248 208.027 41.3531 208.027 37.68H204.027ZM205.78 46.8626C207.167 49.1937 209.38 50.368 212.107 50.368V46.368C210.695 46.368 209.836 45.857 209.218 44.8174L205.78 46.8626ZM212.107 50.368C214.835 50.368 217.046 49.1915 218.411 46.8464L214.955 44.8336C214.357 45.8591 213.517 46.368 212.107 46.368V50.368ZM218.402 46.8626C219.692 44.6933 220.187 41.4932 220.187 37.616H216.187C216.187 41.3334 215.679 43.616 214.964 44.8174L218.402 46.8626ZM220.187 37.616C220.187 33.8514 219.688 30.7238 218.402 28.5614L214.964 30.6066C215.683 31.8149 216.187 34.0418 216.187 37.616H220.187ZM218.411 28.5776C217.046 26.2325 214.835 25.056 212.107 25.056V29.056C213.517 29.056 214.357 29.5648 214.955 30.5904L218.411 28.5776ZM259.522 20.72V44.848H263.522V20.72H259.522ZM259.522 44.848C259.522 49.5187 258.647 53.1744 257.041 55.9391L260.499 57.9488C262.562 54.3989 263.522 49.9906 263.522 44.848H259.522ZM257.033 55.953C255.432 58.7594 253.026 61.0192 249.726 62.7178L251.557 66.2742C255.468 64.2608 258.481 61.4859 260.507 57.935L257.033 55.953ZM249.714 62.7243C246.346 64.4886 242.103 65.8982 236.942 66.9179L237.718 70.842C243.138 69.7711 247.77 68.258 251.57 66.2676L249.714 62.7243ZM239.288 68.4737L237.688 60.7617L233.772 61.5743L235.372 69.2863L239.288 68.4737ZM236.178 63.1172C239.718 62.3035 242.761 61.2758 245.271 60.0095L243.469 56.4384C241.328 57.5188 238.611 58.4538 235.282 59.2188L236.178 63.1172ZM245.271 60.0095C247.897 58.6843 249.953 56.8432 251.344 54.466L247.892 52.446C246.936 54.0794 245.493 55.417 243.469 56.4384L245.271 60.0095ZM251.341 54.4716C252.775 52.0387 253.41 48.9956 253.41 45.488H249.41C249.41 48.551 248.85 50.8199 247.895 52.4404L251.341 54.4716ZM253.41 45.488V27.632H249.41V45.488H253.41ZM251.41 25.632H239.186V29.632H251.41V25.632ZM241.186 27.632V20.72H237.186V27.632H241.186ZM239.186 22.72H261.522V18.72H239.186V22.72ZM254.962 4.92798C256.259 4.92798 257.162 5.31388 257.849 5.98785L260.65 3.1321C259.119 1.63008 257.163 0.927979 254.962 0.927979V4.92798ZM257.849 5.98786C258.557 6.68184 258.914 7.51371 258.914 8.62398H262.914C262.914 6.49158 262.161 4.61412 260.65 3.1321L257.849 5.98786ZM258.914 8.62398C258.914 9.73471 258.556 10.5853 257.836 11.3058L260.664 14.1342C262.162 12.636 262.914 10.7559 262.914 8.62398H258.914ZM257.849 11.2921C257.162 11.9661 256.259 12.352 254.962 12.352V16.352C257.163 16.352 259.119 15.6499 260.65 14.1479L257.849 11.2921ZM254.962 12.352C253.636 12.352 252.706 11.9613 251.997 11.2788L249.223 14.1611C250.775 15.6547 252.746 16.352 254.962 16.352V12.352ZM252.024 11.3058C251.304 10.5853 250.946 9.73471 250.946 8.62398H246.946C246.946 10.7559 247.697 12.636 249.196 14.1342L252.024 11.3058ZM250.946 8.62398C250.946 7.51372 251.303 6.68184 252.01 5.98785L249.209 3.1321C247.698 4.61412 246.946 6.49157 246.946 8.62398H250.946ZM251.997 6.00112C252.706 5.31868 253.636 4.92798 254.962 4.92798V0.927979C252.746 0.927979 250.775 1.62527 249.223 3.11884L251.997 6.00112ZM280.921 40.9069C281.179 42.9504 281.725 44.7602 282.652 46.2336L286.037 44.1024C285.514 43.2717 285.1 42.0735 284.889 40.4051L280.921 40.9069ZM282.676 46.2701C283.613 47.689 284.841 48.7789 286.353 49.4789L288.033 45.849C287.241 45.4824 286.57 44.9083 286.014 44.0659L282.676 46.2701ZM286.381 49.4916C287.82 50.1315 289.393 50.432 291.065 50.432V46.432C289.878 46.432 288.869 46.2204 288.005 45.8364L286.381 49.4916ZM291.065 50.432C292.846 50.432 294.575 50.1384 296.242 49.55L294.911 45.778C293.677 46.2136 292.398 46.432 291.065 46.432V50.432ZM296.242 49.55C297.841 48.9859 299.374 48.2359 300.841 47.3044L298.697 43.9276C297.476 44.7027 296.215 45.318 294.911 45.778L296.242 49.55ZM298.16 46.804L302.224 52.308L305.442 49.932L301.378 44.428L298.16 46.804ZM302.535 49.5986C301.133 50.7944 299.397 51.8062 297.293 52.6124L298.724 56.3476C301.186 55.4044 303.332 54.1762 305.131 52.6414L302.535 49.5986ZM297.287 52.6147C295.297 53.3847 292.967 53.792 290.265 53.792V57.792C293.366 57.792 296.199 57.3246 298.73 56.3453L297.287 52.6147ZM290.265 53.792C286.641 53.792 283.759 53.0753 281.515 51.762L279.495 55.214C282.499 56.9726 286.124 57.792 290.265 57.792V53.792ZM281.526 51.7681C279.233 50.4073 277.531 48.5649 276.382 46.2106L272.788 47.9654C274.284 51.0297 276.529 53.454 279.484 55.2079L281.526 51.7681ZM276.382 46.2106C275.213 43.8167 274.601 41.0107 274.601 37.744H270.601C270.601 41.5173 271.311 44.9406 272.788 47.9654L276.382 46.2106ZM274.601 37.744C274.601 34.6553 275.189 31.9097 276.332 29.4728L272.71 27.7751C271.292 30.7996 270.601 34.134 270.601 37.744H274.601ZM276.334 29.4674C277.464 27.0396 279.089 25.1431 281.224 23.7325L279.018 20.3954C276.246 22.2275 274.138 24.7044 272.707 27.7805L276.334 29.4674ZM281.227 23.7303C283.313 22.3455 285.928 21.6 289.177 21.6V17.6C285.3 17.6 281.878 18.4972 279.015 20.3977L281.227 23.7303ZM289.177 21.6C292.129 21.6 294.572 22.2289 296.582 23.4058L298.604 19.9541C295.877 18.3577 292.71 17.6 289.177 17.6V21.6ZM296.589 23.4098C298.622 24.5898 300.203 26.2852 301.34 28.5584L304.918 26.7696C303.452 23.8374 301.342 21.5435 298.597 19.9502L296.589 23.4098ZM301.346 28.5701C302.495 30.8307 303.113 33.63 303.113 37.04H307.113C307.113 33.1539 306.408 29.7026 304.912 26.7579L301.346 28.5701ZM303.113 37.04C303.113 37.5672 303.093 38.1425 303.053 38.7672L307.045 39.0247C307.09 38.3268 307.113 37.6647 307.113 37.04H303.113ZM303.05 38.8315C303.03 39.4476 302.991 39.971 302.936 40.4079L306.905 40.904C306.979 40.3169 307.025 39.667 307.048 38.9605L303.05 38.8315ZM304.921 38.656H282.905V42.656H304.921V38.656ZM289.177 24.384C286.818 24.384 284.786 25.2616 283.271 27.0385L286.315 29.6334C287.019 28.8077 287.909 28.384 289.177 28.384V24.384ZM283.271 27.0385C281.76 28.8106 281.032 31.3915 280.784 34.4123L284.77 34.7396C284.992 32.0431 285.607 30.4641 286.315 29.6334L283.271 27.0385ZM282.777 36.576H295.257V32.576H282.777V36.576ZM297.257 34.5587C297.233 31.856 296.71 29.469 295.51 27.5596L292.124 29.6883C292.801 30.7657 293.238 32.3466 293.257 34.5932L297.257 34.5587ZM295.51 27.5596C294.121 25.3491 291.843 24.384 289.177 24.384V28.384C290.82 28.384 291.636 28.9121 292.124 29.6883L295.51 27.5596ZM330.528 49.824C332.179 49.824 333.755 49.5049 335.235 48.8556L333.629 45.1924C332.677 45.6097 331.651 45.824 330.528 45.824V49.824ZM335.25 48.849C336.614 48.2377 337.95 47.4686 339.261 46.5491L336.963 43.2749C335.841 44.0621 334.725 44.7009 333.614 45.199L335.25 48.849ZM336.477 46.0644L340.989 52.4644L344.258 50.1596L339.746 43.7596L336.477 46.0644ZM341.322 49.7935C340.024 50.9062 338.4 51.8665 336.415 52.6525L337.888 56.3715C340.213 55.4507 342.237 54.2778 343.925 52.8305L341.322 49.7935ZM336.409 52.655C334.545 53.4007 332.413 53.792 329.984 53.792V57.792C332.846 57.792 335.492 57.3299 337.895 56.3689L336.409 52.655ZM329.984 53.792C326.611 53.792 323.831 53.1031 321.565 51.8138L319.587 55.2902C322.569 56.9875 326.061 57.792 329.984 57.792V53.792ZM321.576 51.8198C319.276 50.4926 317.528 48.6779 316.296 46.3462L312.759 48.2138C314.344 51.2153 316.627 53.582 319.576 55.2841L321.576 51.8198ZM316.3 46.352C315.065 43.9947 314.416 41.2082 314.416 37.936H310.416C310.416 41.7465 311.175 45.1893 312.756 48.208L316.3 46.352ZM314.416 37.936C314.416 34.6696 315.073 31.8469 316.335 29.4178L312.785 27.5741C311.188 30.649 310.416 34.1197 310.416 37.936H314.416ZM316.332 29.423C317.614 26.9716 319.406 25.0715 321.729 23.6854L319.679 20.2506C316.711 22.0218 314.407 24.4737 312.788 27.569L316.332 29.423ZM321.723 23.689C324.03 22.3231 326.822 21.6 330.176 21.6V17.6C326.233 17.6 322.711 18.4556 319.685 20.247L321.723 23.689ZM330.176 21.6C332.573 21.6 334.629 21.9369 336.376 22.5687L337.736 18.8072C335.472 17.9884 332.942 17.6 330.176 17.6V21.6ZM336.4 22.5772C338.192 23.2 339.837 24.1341 341.342 25.3908L343.906 22.3211C342.04 20.7618 339.973 19.5839 337.712 18.7987L336.4 22.5772ZM341.002 22.6862L336.618 28.7662L339.862 31.1057L344.246 25.0257L341.002 22.6862ZM339.391 28.3004C338.094 27.3876 336.714 26.6716 335.253 26.1603L333.931 29.9357C335.03 30.3204 336.082 30.8631 337.089 31.5716L339.391 28.3004ZM335.253 26.1603C333.755 25.6363 332.198 25.376 330.592 25.376V29.376C331.759 29.376 332.868 29.5637 333.931 29.9357L335.253 26.1603ZM330.592 25.376C327.771 25.376 325.36 26.4075 323.546 28.4966L326.566 31.1194C327.568 29.9658 328.847 29.376 330.592 29.376V25.376ZM323.544 28.4981C321.673 30.6577 320.976 33.982 320.976 37.936H324.976C324.976 34.2527 325.666 32.1582 326.567 31.1178L323.544 28.4981ZM320.976 37.936C320.976 40.5733 321.32 42.8688 322.148 44.6856L325.788 43.0264C325.293 41.9418 324.976 40.2906 324.976 37.936H320.976ZM322.153 44.6958C322.953 46.4257 324.113 47.8162 325.696 48.6825L327.616 45.1735C326.938 44.8024 326.305 44.145 325.783 43.0161L322.153 44.6958ZM325.735 48.7035C327.2 49.4628 328.811 49.824 330.528 49.824V45.824C329.386 45.824 328.416 45.5878 327.576 45.1525L325.735 48.7035ZM380.395 51.0394C379.252 51.7763 377.822 52.4336 376.072 52.9901L377.285 56.8018C379.291 56.1637 381.06 55.3703 382.563 54.4006L380.395 51.0394ZM376.072 52.9901C374.425 53.5145 372.522 53.792 370.343 53.792V57.792C372.857 57.792 375.179 57.4722 377.285 56.8018L376.072 52.9901ZM370.343 53.792C366.219 53.792 363.544 52.7431 361.903 51.0203L359.007 53.7796C361.675 56.5795 365.592 57.792 370.343 57.792V53.792ZM361.909 51.0271C360.185 49.2008 359.223 46.644 359.223 43.12H355.223C355.223 47.404 356.415 51.0338 359 53.7728L361.909 51.0271ZM359.223 43.12V27.696H355.223V43.12H359.223ZM357.223 25.696H350.087V29.696H357.223V25.696ZM352.087 27.696V20.72H348.087V27.696H352.087ZM350.087 22.72H357.223V18.72H350.087V22.72ZM359.223 20.72V13.36H355.223V20.72H359.223ZM357.462 15.3457L367.574 14.1297L367.096 10.1583L356.984 11.3743L357.462 15.3457ZM365.335 12.144V20.72H369.335V12.144H365.335ZM367.335 22.72H378.279V18.72H367.335V22.72ZM376.299 20.4384L375.307 27.4144L379.267 27.9776L380.259 21.0016L376.299 20.4384ZM377.287 25.696H367.335V29.696H377.287V25.696ZM365.335 27.696V43.12H369.335V27.696H365.335ZM365.335 43.12C365.335 45.0371 365.762 46.9131 367.114 48.19L369.86 45.282C369.676 45.1082 369.335 44.5735 369.335 43.12H365.335ZM367.114 48.19C368.421 49.4245 370.261 49.824 372.167 49.824V45.824C370.702 45.824 370.089 45.4982 369.86 45.282L367.114 48.19ZM372.167 49.824C373.515 49.824 374.789 49.6676 375.975 49.3326L374.887 45.4834C374.11 45.703 373.208 45.824 372.167 45.824V49.824ZM376.002 49.3247C377.128 48.9893 378.167 48.5604 379.106 48.0274L377.132 44.5486C376.492 44.9116 375.739 45.2293 374.86 45.4912L376.002 49.3247ZM376.346 47.214L379.706 53.646L383.252 51.7939L379.892 45.3619L376.346 47.214ZM402.894 50.56C404.764 50.56 406.472 50.2683 407.882 49.5338L406.034 45.9862C405.396 46.3183 404.395 46.56 402.894 46.56V50.56ZM407.867 49.5415C408.63 49.1522 409.317 48.6056 409.808 47.8539C410.306 47.0916 410.526 46.2351 410.526 45.36H406.526C406.526 45.5515 406.484 45.6284 406.46 45.6661C406.428 45.7144 406.331 45.8344 406.049 45.9785L407.867 49.5415ZM410.526 45.36C410.526 44.2384 410.202 43.1609 409.46 42.2622L406.376 44.8097C406.444 44.8924 406.526 45.0309 406.526 45.36H410.526ZM409.46 42.2622C408.714 41.36 407.53 40.7395 406.307 40.264L404.857 43.992C405.938 44.4125 406.311 44.7307 406.376 44.8097L409.46 42.2622ZM406.307 40.264C405.056 39.7777 403.27 39.2227 400.99 38.5989L399.934 42.4571C402.176 43.0706 403.803 43.5822 404.857 43.992L406.307 40.264ZM400.98 38.5962C399.032 38.074 397.343 37.4214 395.899 36.6513L394.017 40.1807C395.773 41.1172 397.753 41.8726 399.944 42.4598L400.98 38.5962ZM395.909 36.6566C394.585 35.9409 393.605 35.0539 392.91 34.0106L389.582 36.2294C390.678 37.8741 392.173 39.1843 394.007 40.1754L395.909 36.6566ZM392.922 34.0291C392.306 33.0824 391.934 31.811 391.934 30.096H387.934C387.934 32.3917 388.436 34.4696 389.57 36.2109L392.922 34.0291ZM391.934 30.096C391.934 28.4676 392.379 27.0761 393.256 25.8525L390.004 23.5234C388.619 25.4572 387.934 27.671 387.934 30.096H391.934ZM393.256 25.8525C394.123 24.6424 395.451 23.6132 397.377 22.8279L395.867 19.124C393.398 20.1307 391.398 21.5763 390.004 23.5234L393.256 25.8525ZM397.392 22.8216C399.279 22.0341 401.688 21.6 404.686 21.6V17.6C401.326 17.6 398.36 18.0832 395.851 19.1304L397.392 22.8216ZM404.686 21.6C407.548 21.6 409.948 21.9737 411.925 22.6703L413.255 18.8977C410.751 18.0156 407.882 17.6 404.686 17.6V21.6ZM411.947 22.6777C414.05 23.3921 415.815 24.2879 417.27 25.3454L419.622 22.1105C417.791 20.7788 415.652 19.7119 413.233 18.8902L411.947 22.6777ZM416.79 22.6063L412.758 28.5583L416.07 30.8017L420.102 24.8497L416.79 22.6063ZM415.469 27.9811C413.916 27.0161 412.248 26.2538 410.472 25.6928L409.268 29.5071C410.734 29.9702 412.096 30.5945 413.358 31.3789L415.469 27.9811ZM410.495 25.7001C408.68 25.1031 406.837 24.8 404.974 24.8V28.8C406.396 28.8 407.817 29.0302 409.245 29.4998L410.495 25.7001ZM404.974 24.8C403.218 24.8 401.582 25.0276 400.326 25.7215L402.261 29.2225C402.627 29.0204 403.444 28.8 404.974 28.8V24.8ZM400.343 25.7126C399.692 26.0644 399.108 26.563 398.696 27.2428C398.282 27.9252 398.11 28.6766 398.11 29.424H402.11C402.11 29.356 402.117 29.3211 402.12 29.311C402.122 29.3024 402.122 29.3073 402.116 29.3172C402.11 29.3269 402.108 29.3255 402.122 29.3133C402.137 29.2998 402.173 29.2702 402.245 29.2314L400.343 25.7126ZM398.11 29.424C398.11 30.5249 398.518 31.5161 399.268 32.3055L402.168 29.5505C402.144 29.5255 402.131 29.5077 402.125 29.4979C402.119 29.4884 402.117 29.4835 402.116 29.4824C402.116 29.4813 402.115 29.4787 402.113 29.4722C402.112 29.4655 402.11 29.4502 402.11 29.424H398.11ZM399.34 32.378C400.069 33.0698 401.174 33.6106 402.361 34.072L403.811 30.344C402.693 29.9094 402.22 29.5968 402.095 29.478L399.34 32.378ZM402.391 34.0835C403.613 34.5361 405.355 35.0856 407.588 35.7296L408.696 31.8863C406.491 31.2504 404.862 30.7332 403.78 30.3325L402.391 34.0835ZM407.6 35.7331C409.705 36.3259 411.492 36.9989 412.975 37.7408L414.764 34.1631C413.005 33.2837 410.973 32.5273 408.684 31.8828L407.6 35.7331ZM412.985 37.7455C414.348 38.418 415.328 39.2811 416.006 40.3133L419.35 38.1187C418.235 36.4202 416.677 35.1073 414.755 34.1585L412.985 37.7455ZM416.014 40.3254C416.623 41.2392 417.022 42.5931 417.022 44.56H421.022C421.022 42.0895 420.525 39.8808 419.342 38.1066L416.014 40.3254ZM417.022 44.56C417.022 46.6059 416.427 48.2028 415.307 49.4843L418.32 52.1156C420.145 50.0264 421.022 47.4634 421.022 44.56H417.022ZM415.316 49.4748C414.107 50.841 412.467 51.914 410.31 52.6517L411.605 56.4363C414.313 55.5099 416.576 54.087 418.312 52.1251L415.316 49.4748ZM410.31 52.6517C408.112 53.4038 405.667 53.792 402.958 53.792V57.792C406.051 57.792 408.94 57.3481 411.605 56.4363L410.31 52.6517ZM402.958 53.792C399.86 53.792 397.203 53.3491 394.953 52.51L393.555 56.2579C396.34 57.2962 399.485 57.792 402.958 57.792V53.792ZM394.953 52.51C392.627 51.6428 390.698 50.5194 389.132 49.1612L386.511 52.1828C388.487 53.8965 390.846 55.2478 393.555 56.2579L394.953 52.51ZM389.313 52.0043L394.401 46.3083L391.418 43.6436L386.33 49.3396L389.313 52.0043ZM391.686 46.5574C393.161 47.6995 394.813 48.6405 396.631 49.3863L398.149 45.6856C396.639 45.0662 395.304 44.3004 394.134 43.3945L391.686 46.5574ZM396.639 49.3897C398.584 50.1774 400.676 50.56 402.894 50.56V46.56C401.144 46.56 399.567 46.2599 398.141 45.6823L396.639 49.3897Z" fill="#222222" mask="url(#path-2-outside-1_42_49)"/>
</svg>
