<svg width="168" height="101" viewBox="0 0 168 101" fill="none" xmlns="http://www.w3.org/2000/svg">
<path d="M82.1236 0.0352528C52.8255 0.966441 44.1177 21.8954 42.1222 33.2337C44.7224 29.0309 52.9162 19.8093 64.9801 19.8093C79.0396 19.8093 89.7429 35.5015 96.2737 40.3996C104.208 46.3505 120.152 54.2078 141.082 47.8375C157.772 42.758 165.513 25.0398 167.206 16.6345C159.133 27.6099 146.888 34.2022 131.74 26.4307C121.309 21.079 113.508 -0.962332 82.1236 0.0352528Z" fill="#07B6D5"/>
<path d="M40.6709 49.8329C11.3729 50.764 2.66509 71.693 0.669556 83.0313C3.26979 78.8285 11.4636 69.6069 23.5275 69.6069C37.5869 69.6069 48.2902 85.2991 54.821 90.1972C62.7555 96.1481 78.6991 104.005 99.6298 97.6351C116.32 92.5556 124.06 74.8374 125.753 66.4321C117.68 77.4075 105.435 83.9998 90.2871 76.2283C79.8559 70.8767 72.0552 48.8353 40.6709 49.8329Z" fill="#07B6D5"/>
</svg>
