<svg width="101" height="101" viewBox="0 0 101 101" fill="none" xmlns="http://www.w3.org/2000/svg">
<path d="M91.2318 0.550781H10.7631C5.36966 0.550781 0.997437 4.923 0.997437 10.3164V90.7852C0.997437 96.1786 5.36966 100.551 10.7631 100.551H91.2318C96.6252 100.551 100.997 96.1786 100.997 90.7852V10.3164C100.997 4.923 96.6252 0.550781 91.2318 0.550781Z" fill="#3178C6"/>
<path fill-rule="evenodd" clip-rule="evenodd" d="M62.9115 80.043V89.8086C64.4935 90.6289 66.4271 91.2344 68.5756 91.6445C70.724 92.0547 73.0677 92.25 75.4115 92.25C77.7552 92.25 79.9037 92.0352 82.0521 91.5859C84.2006 91.1367 85.9584 90.3945 87.5209 89.4375C89.1029 88.4023 90.4506 87.0938 91.2318 85.3359C92.0131 83.5781 92.6185 81.625 92.6185 79.0859C92.6185 77.3086 92.3451 75.7656 91.8177 74.3984C91.2904 73.0312 90.5287 71.8594 89.474 70.8828C88.4779 69.8477 87.3256 68.9297 85.9584 68.1484C84.5912 67.3672 83.0287 66.5469 81.2709 65.8047C79.9818 65.2773 78.9271 64.7695 77.7552 64.2617C76.7396 63.7539 75.8607 63.2461 75.2162 62.7383C74.4935 62.2109 73.9467 61.6641 73.556 61.0977C73.1654 60.5117 72.9701 59.8672 72.9701 59.1445C72.9701 58.4805 73.1439 57.875 73.4974 57.3281C73.851 56.7813 74.3373 56.332 74.9623 55.9414C75.5873 55.5508 76.3685 55.2578 77.306 55.043C78.224 54.8281 79.2396 54.7305 80.431 54.7305C81.2513 54.7305 82.1107 54.791 82.9701 54.9141C83.8685 55.0371 84.7865 55.2266 85.7045 55.4805C86.6224 55.7344 87.5209 56.0469 88.4388 56.4375C89.2982 56.8281 90.099 57.2773 90.7826 57.7852V48.6055C89.2982 48.0391 87.6576 47.6094 85.8998 47.3359C84.142 47.0625 82.1888 46.9258 79.8451 46.9258C77.5013 46.9258 75.3529 47.1797 73.2045 47.668C71.056 48.1562 69.2982 48.9375 67.7357 50.0117C66.1537 51.0664 65.0013 52.3555 64.0248 54.1133C63.1068 55.7539 62.6576 57.6289 62.6576 59.9727C62.6576 62.9023 63.4974 65.4414 65.1967 67.3945C66.8763 69.543 69.4935 71.1055 72.8138 72.668C74.1615 73.2148 75.3529 73.7617 76.5248 74.2891C77.6967 74.8164 78.6732 75.3633 79.4545 75.9297C80.2943 76.4961 80.9584 77.1211 81.4076 77.7852C81.8959 78.4492 82.1498 79.2305 82.1498 80.1289C82.1498 80.7539 81.9974 81.3398 81.7006 81.8867C81.4037 82.4336 80.9388 82.9023 80.3138 83.293C79.6888 83.6836 78.9271 83.9961 77.9701 84.2305C77.0521 84.4453 76.017 84.5625 74.6498 84.5625C72.5013 84.5625 70.3529 84.1914 68.3998 83.4492C66.2513 82.707 64.2982 81.5938 62.5404 80.1289L62.9115 80.043ZM46.5052 56.0195H59.0052V48.0117H24.0443V56.0195H36.5443V91.7617H46.5052V56.0195Z" fill="white"/>
</svg>
