<svg width="1352" height="772" viewBox="0 0 1352 772" fill="none" xmlns="http://www.w3.org/2000/svg">
<path d="M938.915 210.315C938.915 211.432 938.01 212.338 936.893 212.338C935.775 212.338 934.87 211.432 934.87 210.315C934.87 209.198 935.775 208.292 936.893 208.292C938.01 208.292 938.915 209.198 938.915 210.315Z" fill="#222222"/>
<path d="M959.143 210.315C959.143 211.432 958.237 212.338 957.12 212.338C956.003 212.338 955.097 211.432 955.097 210.315C955.097 209.198 956.003 208.292 957.12 208.292C958.237 208.292 959.143 209.198 959.143 210.315Z" fill="#222222"/>
<path d="M979.37 210.315C979.37 211.432 978.465 212.338 977.348 212.338C976.23 212.338 975.325 211.432 975.325 210.315C975.325 209.198 976.23 208.292 977.348 208.292C978.465 208.292 979.37 209.198 979.37 210.315Z" fill="#222222"/>
<path d="M999.598 210.315C999.598 211.432 998.692 212.338 997.575 212.338C996.458 212.338 995.552 211.432 995.552 210.315C995.552 209.198 996.458 208.292 997.575 208.292C998.692 208.292 999.598 209.198 999.598 210.315Z" fill="#222222"/>
<path d="M1019.83 210.315C1019.83 211.432 1018.92 212.338 1017.8 212.338C1016.69 212.338 1015.78 211.432 1015.78 210.315C1015.78 209.198 1016.69 208.292 1017.8 208.292C1018.92 208.292 1019.83 209.198 1019.83 210.315Z" fill="#222222"/>
<path d="M1040.05 210.315C1040.05 211.432 1039.15 212.338 1038.03 212.338C1036.91 212.338 1036.01 211.432 1036.01 210.315C1036.01 209.198 1036.91 208.292 1038.03 208.292C1039.15 208.292 1040.05 209.198 1040.05 210.315Z" fill="#222222"/>
<path d="M1060.28 210.315C1060.28 211.432 1059.37 212.338 1058.26 212.338C1057.14 212.338 1056.23 211.432 1056.23 210.315C1056.23 209.198 1057.14 208.292 1058.26 208.292C1059.37 208.292 1060.28 209.198 1060.28 210.315Z" fill="#222222"/>
<path d="M1080.51 210.315C1080.51 211.432 1079.6 212.338 1078.49 212.338C1077.37 212.338 1076.46 211.432 1076.46 210.315C1076.46 209.198 1077.37 208.292 1078.49 208.292C1079.6 208.292 1080.51 209.198 1080.51 210.315Z" fill="#222222"/>
<path d="M1100.74 210.315C1100.74 211.432 1099.83 212.338 1098.71 212.338C1097.6 212.338 1096.69 211.432 1096.69 210.315C1096.69 209.198 1097.6 208.292 1098.71 208.292C1099.83 208.292 1100.74 209.198 1100.74 210.315Z" fill="#222222"/>
<path d="M1120.96 210.315C1120.96 211.432 1120.06 212.338 1118.94 212.338C1117.82 212.338 1116.92 211.432 1116.92 210.315C1116.92 209.198 1117.82 208.292 1118.94 208.292C1120.06 208.292 1120.96 209.198 1120.96 210.315Z" fill="#222222"/>
<path d="M938.915 230.542C938.915 231.66 938.01 232.565 936.893 232.565C935.775 232.565 934.87 231.66 934.87 230.542C934.87 229.425 935.775 228.52 936.893 228.52C938.01 228.52 938.915 229.425 938.915 230.542Z" fill="#222222"/>
<path d="M959.143 230.542C959.143 231.66 958.237 232.565 957.12 232.565C956.003 232.565 955.097 231.66 955.097 230.542C955.097 229.425 956.003 228.52 957.12 228.52C958.237 228.52 959.143 229.425 959.143 230.542Z" fill="#222222"/>
<path d="M979.37 230.542C979.37 231.66 978.465 232.565 977.348 232.565C976.23 232.565 975.325 231.66 975.325 230.542C975.325 229.425 976.23 228.52 977.348 228.52C978.465 228.52 979.37 229.425 979.37 230.542Z" fill="#222222"/>
<path d="M999.598 230.542C999.598 231.66 998.692 232.565 997.575 232.565C996.458 232.565 995.552 231.66 995.552 230.542C995.552 229.425 996.458 228.52 997.575 228.52C998.692 228.52 999.598 229.425 999.598 230.542Z" fill="#222222"/>
<path d="M1019.83 230.542C1019.83 231.66 1018.92 232.565 1017.8 232.565C1016.69 232.565 1015.78 231.66 1015.78 230.542C1015.78 229.425 1016.69 228.52 1017.8 228.52C1018.92 228.52 1019.83 229.425 1019.83 230.542Z" fill="#222222"/>
<path d="M1040.05 230.542C1040.05 231.66 1039.15 232.565 1038.03 232.565C1036.91 232.565 1036.01 231.66 1036.01 230.542C1036.01 229.425 1036.91 228.52 1038.03 228.52C1039.15 228.52 1040.05 229.425 1040.05 230.542Z" fill="#222222"/>
<path d="M1060.28 230.542C1060.28 231.66 1059.37 232.565 1058.26 232.565C1057.14 232.565 1056.23 231.66 1056.23 230.542C1056.23 229.425 1057.14 228.52 1058.26 228.52C1059.37 228.52 1060.28 229.425 1060.28 230.542Z" fill="#222222"/>
<path d="M1080.51 230.542C1080.51 231.66 1079.6 232.565 1078.49 232.565C1077.37 232.565 1076.46 231.66 1076.46 230.542C1076.46 229.425 1077.37 228.52 1078.49 228.52C1079.6 228.52 1080.51 229.425 1080.51 230.542Z" fill="#222222"/>
<path d="M1100.74 230.542C1100.74 231.66 1099.83 232.565 1098.71 232.565C1097.6 232.565 1096.69 231.66 1096.69 230.542C1096.69 229.425 1097.6 228.52 1098.71 228.52C1099.83 228.52 1100.74 229.425 1100.74 230.542Z" fill="#222222"/>
<path d="M1120.96 230.542C1120.96 231.66 1120.06 232.565 1118.94 232.565C1117.82 232.565 1116.92 231.66 1116.92 230.542C1116.92 229.425 1117.82 228.52 1118.94 228.52C1120.06 228.52 1120.96 229.425 1120.96 230.542Z" fill="#222222"/>
<path d="M938.915 250.77C938.915 251.887 938.01 252.793 936.893 252.793C935.775 252.793 934.87 251.887 934.87 250.77C934.87 249.653 935.775 248.747 936.893 248.747C938.01 248.747 938.915 249.653 938.915 250.77Z" fill="#222222"/>
<path d="M959.143 250.77C959.143 251.887 958.237 252.793 957.12 252.793C956.003 252.793 955.097 251.887 955.097 250.77C955.097 249.653 956.003 248.747 957.12 248.747C958.237 248.747 959.143 249.653 959.143 250.77Z" fill="#222222"/>
<path d="M979.37 250.77C979.37 251.887 978.465 252.793 977.348 252.793C976.23 252.793 975.325 251.887 975.325 250.77C975.325 249.653 976.23 248.747 977.348 248.747C978.465 248.747 979.37 249.653 979.37 250.77Z" fill="#222222"/>
<path d="M999.598 250.77C999.598 251.887 998.692 252.793 997.575 252.793C996.458 252.793 995.552 251.887 995.552 250.77C995.552 249.653 996.458 248.747 997.575 248.747C998.692 248.747 999.598 249.653 999.598 250.77Z" fill="#222222"/>
<path d="M1019.83 250.77C1019.83 251.887 1018.92 252.793 1017.8 252.793C1016.69 252.793 1015.78 251.887 1015.78 250.77C1015.78 249.653 1016.69 248.747 1017.8 248.747C1018.92 248.747 1019.83 249.653 1019.83 250.77Z" fill="#222222"/>
<path d="M1040.05 250.77C1040.05 251.887 1039.15 252.793 1038.03 252.793C1036.91 252.793 1036.01 251.887 1036.01 250.77C1036.01 249.653 1036.91 248.747 1038.03 248.747C1039.15 248.747 1040.05 249.653 1040.05 250.77Z" fill="#222222"/>
<path d="M1060.28 250.77C1060.28 251.887 1059.37 252.793 1058.26 252.793C1057.14 252.793 1056.23 251.887 1056.23 250.77C1056.23 249.653 1057.14 248.747 1058.26 248.747C1059.37 248.747 1060.28 249.653 1060.28 250.77Z" fill="#222222"/>
<path d="M1080.51 250.77C1080.51 251.887 1079.6 252.793 1078.49 252.793C1077.37 252.793 1076.46 251.887 1076.46 250.77C1076.46 249.653 1077.37 248.747 1078.49 248.747C1079.6 248.747 1080.51 249.653 1080.51 250.77Z" fill="#222222"/>
<path d="M1100.74 250.77C1100.74 251.887 1099.83 252.793 1098.71 252.793C1097.6 252.793 1096.69 251.887 1096.69 250.77C1096.69 249.653 1097.6 248.747 1098.71 248.747C1099.83 248.747 1100.74 249.653 1100.74 250.77Z" fill="#222222"/>
<path d="M1120.96 250.77C1120.96 251.887 1120.06 252.793 1118.94 252.793C1117.82 252.793 1116.92 251.887 1116.92 250.77C1116.92 249.653 1117.82 248.747 1118.94 248.747C1120.06 248.747 1120.96 249.653 1120.96 250.77Z" fill="#222222"/>
<path d="M938.915 270.997C938.915 272.115 938.01 273.02 936.893 273.02C935.775 273.02 934.87 272.115 934.87 270.997C934.87 269.88 935.775 268.975 936.893 268.975C938.01 268.975 938.915 269.88 938.915 270.997Z" fill="#222222"/>
<path d="M959.143 270.998C959.143 272.115 958.237 273.02 957.12 273.02C956.003 273.02 955.097 272.115 955.097 270.998C955.097 269.88 956.003 268.975 957.12 268.975C958.237 268.975 959.143 269.88 959.143 270.998Z" fill="#222222"/>
<path d="M979.37 270.998C979.37 272.115 978.465 273.02 977.348 273.02C976.23 273.02 975.325 272.115 975.325 270.998C975.325 269.88 976.23 268.975 977.348 268.975C978.465 268.975 979.37 269.88 979.37 270.998Z" fill="#222222"/>
<path d="M999.598 270.998C999.598 272.115 998.692 273.02 997.575 273.02C996.458 273.02 995.552 272.115 995.552 270.998C995.552 269.88 996.458 268.975 997.575 268.975C998.692 268.975 999.598 269.88 999.598 270.998Z" fill="#222222"/>
<path d="M1019.83 270.998C1019.83 272.115 1018.92 273.02 1017.8 273.02C1016.69 273.02 1015.78 272.115 1015.78 270.998C1015.78 269.88 1016.69 268.975 1017.8 268.975C1018.92 268.975 1019.83 269.88 1019.83 270.998Z" fill="#222222"/>
<path d="M1040.05 270.998C1040.05 272.115 1039.15 273.02 1038.03 273.02C1036.91 273.02 1036.01 272.115 1036.01 270.998C1036.01 269.88 1036.91 268.975 1038.03 268.975C1039.15 268.975 1040.05 269.88 1040.05 270.998Z" fill="#222222"/>
<path d="M1060.28 270.998C1060.28 272.115 1059.37 273.02 1058.26 273.02C1057.14 273.02 1056.23 272.115 1056.23 270.998C1056.23 269.88 1057.14 268.975 1058.26 268.975C1059.37 268.975 1060.28 269.88 1060.28 270.998Z" fill="#222222"/>
<path d="M1080.51 270.998C1080.51 272.115 1079.6 273.02 1078.49 273.02C1077.37 273.02 1076.46 272.115 1076.46 270.998C1076.46 269.88 1077.37 268.975 1078.49 268.975C1079.6 268.975 1080.51 269.88 1080.51 270.998Z" fill="#222222"/>
<path d="M1100.74 270.998C1100.74 272.115 1099.83 273.02 1098.71 273.02C1097.6 273.02 1096.69 272.115 1096.69 270.998C1096.69 269.88 1097.6 268.975 1098.71 268.975C1099.83 268.975 1100.74 269.88 1100.74 270.998Z" fill="#222222"/>
<path d="M1120.96 270.998C1120.96 272.115 1120.06 273.02 1118.94 273.02C1117.82 273.02 1116.92 272.115 1116.92 270.998C1116.92 269.88 1117.82 268.975 1118.94 268.975C1120.06 268.975 1120.96 269.88 1120.96 270.998Z" fill="#222222"/>
<path d="M938.915 291.225C938.915 292.342 938.01 293.248 936.893 293.248C935.775 293.248 934.87 292.342 934.87 291.225C934.87 290.108 935.775 289.202 936.893 289.202C938.01 289.202 938.915 290.108 938.915 291.225Z" fill="#222222"/>
<path d="M959.143 291.225C959.143 292.342 958.237 293.248 957.12 293.248C956.003 293.248 955.097 292.342 955.097 291.225C955.097 290.108 956.003 289.202 957.12 289.202C958.237 289.202 959.143 290.108 959.143 291.225Z" fill="#222222"/>
<path d="M979.37 291.225C979.37 292.342 978.465 293.248 977.348 293.248C976.23 293.248 975.325 292.342 975.325 291.225C975.325 290.108 976.23 289.202 977.348 289.202C978.465 289.202 979.37 290.108 979.37 291.225Z" fill="#222222"/>
<path d="M999.598 291.225C999.598 292.342 998.692 293.248 997.575 293.248C996.458 293.248 995.552 292.342 995.552 291.225C995.552 290.108 996.458 289.202 997.575 289.202C998.692 289.202 999.598 290.108 999.598 291.225Z" fill="#222222"/>
<path d="M1019.83 291.225C1019.83 292.342 1018.92 293.248 1017.8 293.248C1016.69 293.248 1015.78 292.342 1015.78 291.225C1015.78 290.108 1016.69 289.202 1017.8 289.202C1018.92 289.202 1019.83 290.108 1019.83 291.225Z" fill="#222222"/>
<path d="M1040.05 291.225C1040.05 292.342 1039.15 293.248 1038.03 293.248C1036.91 293.248 1036.01 292.342 1036.01 291.225C1036.01 290.108 1036.91 289.202 1038.03 289.202C1039.15 289.202 1040.05 290.108 1040.05 291.225Z" fill="#222222"/>
<path d="M1060.28 291.225C1060.28 292.342 1059.37 293.248 1058.26 293.248C1057.14 293.248 1056.23 292.342 1056.23 291.225C1056.23 290.108 1057.14 289.202 1058.26 289.202C1059.37 289.202 1060.28 290.108 1060.28 291.225Z" fill="#222222"/>
<path d="M1080.51 291.225C1080.51 292.342 1079.6 293.248 1078.49 293.248C1077.37 293.248 1076.46 292.342 1076.46 291.225C1076.46 290.108 1077.37 289.202 1078.49 289.202C1079.6 289.202 1080.51 290.108 1080.51 291.225Z" fill="#222222"/>
<path d="M1100.74 291.225C1100.74 292.342 1099.83 293.248 1098.71 293.248C1097.6 293.248 1096.69 292.342 1096.69 291.225C1096.69 290.108 1097.6 289.202 1098.71 289.202C1099.83 289.202 1100.74 290.108 1100.74 291.225Z" fill="#222222"/>
<path d="M1120.96 291.225C1120.96 292.342 1120.06 293.248 1118.94 293.248C1117.82 293.248 1116.92 292.342 1116.92 291.225C1116.92 290.108 1117.82 289.202 1118.94 289.202C1120.06 289.202 1120.96 290.108 1120.96 291.225Z" fill="#222222"/>
<path d="M938.915 311.453C938.915 312.57 938.01 313.475 936.893 313.475C935.775 313.475 934.87 312.57 934.87 311.453C934.87 310.335 935.775 309.43 936.893 309.43C938.01 309.43 938.915 310.335 938.915 311.453Z" fill="#222222"/>
<path d="M959.143 311.453C959.143 312.57 958.237 313.475 957.12 313.475C956.003 313.475 955.097 312.57 955.097 311.453C955.097 310.335 956.003 309.43 957.12 309.43C958.237 309.43 959.143 310.335 959.143 311.453Z" fill="#222222"/>
<path d="M979.37 311.453C979.37 312.57 978.465 313.475 977.348 313.475C976.23 313.475 975.325 312.57 975.325 311.453C975.325 310.335 976.23 309.43 977.348 309.43C978.465 309.43 979.37 310.335 979.37 311.453Z" fill="#222222"/>
<path d="M999.598 311.453C999.598 312.57 998.692 313.475 997.575 313.475C996.458 313.475 995.552 312.57 995.552 311.453C995.552 310.335 996.458 309.43 997.575 309.43C998.692 309.43 999.598 310.335 999.598 311.453Z" fill="#222222"/>
<path d="M1019.83 311.453C1019.83 312.57 1018.92 313.475 1017.8 313.475C1016.69 313.475 1015.78 312.57 1015.78 311.453C1015.78 310.335 1016.69 309.43 1017.8 309.43C1018.92 309.43 1019.83 310.335 1019.83 311.453Z" fill="#222222"/>
<path d="M1040.05 311.453C1040.05 312.57 1039.15 313.475 1038.03 313.475C1036.91 313.475 1036.01 312.57 1036.01 311.453C1036.01 310.335 1036.91 309.43 1038.03 309.43C1039.15 309.43 1040.05 310.335 1040.05 311.453Z" fill="#222222"/>
<path d="M1060.28 311.453C1060.28 312.57 1059.37 313.475 1058.26 313.475C1057.14 313.475 1056.23 312.57 1056.23 311.453C1056.23 310.335 1057.14 309.43 1058.26 309.43C1059.37 309.43 1060.28 310.335 1060.28 311.453Z" fill="#222222"/>
<path d="M1080.51 311.453C1080.51 312.57 1079.6 313.475 1078.49 313.475C1077.37 313.475 1076.46 312.57 1076.46 311.453C1076.46 310.335 1077.37 309.43 1078.49 309.43C1079.6 309.43 1080.51 310.335 1080.51 311.453Z" fill="#222222"/>
<path d="M1100.74 311.453C1100.74 312.57 1099.83 313.475 1098.71 313.475C1097.6 313.475 1096.69 312.57 1096.69 311.453C1096.69 310.335 1097.6 309.43 1098.71 309.43C1099.83 309.43 1100.74 310.335 1100.74 311.453Z" fill="#222222"/>
<path d="M1120.96 311.453C1120.96 312.57 1120.06 313.475 1118.94 313.475C1117.82 313.475 1116.92 312.57 1116.92 311.453C1116.92 310.335 1117.82 309.43 1118.94 309.43C1120.06 309.43 1120.96 310.335 1120.96 311.453Z" fill="#222222"/>
<path d="M938.915 331.68C938.915 332.797 938.01 333.703 936.893 333.703C935.775 333.703 934.87 332.797 934.87 331.68C934.87 330.563 935.775 329.657 936.893 329.657C938.01 329.657 938.915 330.563 938.915 331.68Z" fill="#222222"/>
<path d="M959.143 331.68C959.143 332.797 958.237 333.703 957.12 333.703C956.003 333.703 955.097 332.797 955.097 331.68C955.097 330.563 956.003 329.657 957.12 329.657C958.237 329.657 959.143 330.563 959.143 331.68Z" fill="#222222"/>
<path d="M979.37 331.68C979.37 332.797 978.465 333.703 977.348 333.703C976.23 333.703 975.325 332.797 975.325 331.68C975.325 330.563 976.23 329.657 977.348 329.657C978.465 329.657 979.37 330.563 979.37 331.68Z" fill="#222222"/>
<path d="M999.598 331.68C999.598 332.797 998.692 333.703 997.575 333.703C996.458 333.703 995.552 332.797 995.552 331.68C995.552 330.563 996.458 329.657 997.575 329.657C998.692 329.657 999.598 330.563 999.598 331.68Z" fill="#222222"/>
<path d="M1019.83 331.68C1019.83 332.797 1018.92 333.703 1017.8 333.703C1016.69 333.703 1015.78 332.797 1015.78 331.68C1015.78 330.563 1016.69 329.657 1017.8 329.657C1018.92 329.657 1019.83 330.563 1019.83 331.68Z" fill="#222222"/>
<path d="M1040.05 331.68C1040.05 332.797 1039.15 333.703 1038.03 333.703C1036.91 333.703 1036.01 332.797 1036.01 331.68C1036.01 330.563 1036.91 329.657 1038.03 329.657C1039.15 329.657 1040.05 330.563 1040.05 331.68Z" fill="#222222"/>
<path d="M1060.28 331.68C1060.28 332.797 1059.37 333.703 1058.26 333.703C1057.14 333.703 1056.23 332.797 1056.23 331.68C1056.23 330.563 1057.14 329.657 1058.26 329.657C1059.37 329.657 1060.28 330.563 1060.28 331.68Z" fill="#222222"/>
<path d="M1080.51 331.68C1080.51 332.797 1079.6 333.703 1078.49 333.703C1077.37 333.703 1076.46 332.797 1076.46 331.68C1076.46 330.563 1077.37 329.657 1078.49 329.657C1079.6 329.657 1080.51 330.563 1080.51 331.68Z" fill="#222222"/>
<path d="M1100.74 331.68C1100.74 332.797 1099.83 333.703 1098.71 333.703C1097.6 333.703 1096.69 332.797 1096.69 331.68C1096.69 330.563 1097.6 329.657 1098.71 329.657C1099.83 329.657 1100.74 330.563 1100.74 331.68Z" fill="#222222"/>
<path d="M1120.96 331.68C1120.96 332.797 1120.06 333.703 1118.94 333.703C1117.82 333.703 1116.92 332.797 1116.92 331.68C1116.92 330.563 1117.82 329.657 1118.94 329.657C1120.06 329.657 1120.96 330.563 1120.96 331.68Z" fill="#222222"/>
<path d="M938.915 351.908C938.915 353.025 938.01 353.93 936.893 353.93C935.775 353.93 934.87 353.025 934.87 351.908C934.87 350.791 935.775 349.885 936.893 349.885C938.01 349.885 938.915 350.791 938.915 351.908Z" fill="#222222"/>
<path d="M959.143 351.908C959.143 353.025 958.237 353.93 957.12 353.93C956.003 353.93 955.097 353.025 955.097 351.908C955.097 350.79 956.003 349.885 957.12 349.885C958.237 349.885 959.143 350.79 959.143 351.908Z" fill="#222222"/>
<path d="M979.37 351.908C979.37 353.025 978.465 353.93 977.348 353.93C976.23 353.93 975.325 353.025 975.325 351.908C975.325 350.79 976.23 349.885 977.348 349.885C978.465 349.885 979.37 350.79 979.37 351.908Z" fill="#222222"/>
<path d="M999.598 351.908C999.598 353.025 998.692 353.93 997.575 353.93C996.458 353.93 995.552 353.025 995.552 351.908C995.552 350.79 996.458 349.885 997.575 349.885C998.692 349.885 999.598 350.79 999.598 351.908Z" fill="#222222"/>
<path d="M1019.83 351.908C1019.83 353.025 1018.92 353.93 1017.8 353.93C1016.69 353.93 1015.78 353.025 1015.78 351.908C1015.78 350.79 1016.69 349.885 1017.8 349.885C1018.92 349.885 1019.83 350.79 1019.83 351.908Z" fill="#222222"/>
<path d="M1040.05 351.908C1040.05 353.025 1039.15 353.93 1038.03 353.93C1036.91 353.93 1036.01 353.025 1036.01 351.908C1036.01 350.79 1036.91 349.885 1038.03 349.885C1039.15 349.885 1040.05 350.79 1040.05 351.908Z" fill="#222222"/>
<path d="M1060.28 351.908C1060.28 353.025 1059.37 353.93 1058.26 353.93C1057.14 353.93 1056.23 353.025 1056.23 351.908C1056.23 350.79 1057.14 349.885 1058.26 349.885C1059.37 349.885 1060.28 350.79 1060.28 351.908Z" fill="#222222"/>
<path d="M1080.51 351.908C1080.51 353.025 1079.6 353.93 1078.49 353.93C1077.37 353.93 1076.46 353.025 1076.46 351.908C1076.46 350.79 1077.37 349.885 1078.49 349.885C1079.6 349.885 1080.51 350.79 1080.51 351.908Z" fill="#222222"/>
<path d="M1100.74 351.908C1100.74 353.025 1099.83 353.93 1098.71 353.93C1097.6 353.93 1096.69 353.025 1096.69 351.908C1096.69 350.79 1097.6 349.885 1098.71 349.885C1099.83 349.885 1100.74 350.79 1100.74 351.908Z" fill="#222222"/>
<path d="M1120.96 351.908C1120.96 353.025 1120.06 353.93 1118.94 353.93C1117.82 353.93 1116.92 353.025 1116.92 351.908C1116.92 350.79 1117.82 349.885 1118.94 349.885C1120.06 349.885 1120.96 350.79 1120.96 351.908Z" fill="#222222"/>
<path d="M938.915 372.135C938.915 373.252 938.01 374.158 936.893 374.158C935.775 374.158 934.87 373.252 934.87 372.135C934.87 371.018 935.775 370.112 936.893 370.112C938.01 370.112 938.915 371.018 938.915 372.135Z" fill="#222222"/>
<path d="M959.143 372.135C959.143 373.252 958.237 374.158 957.12 374.158C956.003 374.158 955.097 373.252 955.097 372.135C955.097 371.018 956.003 370.112 957.12 370.112C958.237 370.112 959.143 371.018 959.143 372.135Z" fill="#222222"/>
<path d="M979.37 372.135C979.37 373.252 978.465 374.158 977.348 374.158C976.23 374.158 975.325 373.252 975.325 372.135C975.325 371.018 976.23 370.112 977.348 370.112C978.465 370.112 979.37 371.018 979.37 372.135Z" fill="#222222"/>
<path d="M999.598 372.135C999.598 373.252 998.692 374.158 997.575 374.158C996.458 374.158 995.552 373.252 995.552 372.135C995.552 371.018 996.458 370.112 997.575 370.112C998.692 370.112 999.598 371.018 999.598 372.135Z" fill="#222222"/>
<path d="M1019.83 372.135C1019.83 373.252 1018.92 374.158 1017.8 374.158C1016.69 374.158 1015.78 373.252 1015.78 372.135C1015.78 371.018 1016.69 370.112 1017.8 370.112C1018.92 370.112 1019.83 371.018 1019.83 372.135Z" fill="#222222"/>
<path d="M1040.05 372.135C1040.05 373.252 1039.15 374.158 1038.03 374.158C1036.91 374.158 1036.01 373.252 1036.01 372.135C1036.01 371.018 1036.91 370.112 1038.03 370.112C1039.15 370.112 1040.05 371.018 1040.05 372.135Z" fill="#222222"/>
<path d="M1060.28 372.135C1060.28 373.252 1059.37 374.158 1058.26 374.158C1057.14 374.158 1056.23 373.252 1056.23 372.135C1056.23 371.018 1057.14 370.112 1058.26 370.112C1059.37 370.112 1060.28 371.018 1060.28 372.135Z" fill="#222222"/>
<path d="M1080.51 372.135C1080.51 373.252 1079.6 374.158 1078.49 374.158C1077.37 374.158 1076.46 373.252 1076.46 372.135C1076.46 371.018 1077.37 370.112 1078.49 370.112C1079.6 370.112 1080.51 371.018 1080.51 372.135Z" fill="#222222"/>
<path d="M1100.74 372.135C1100.74 373.252 1099.83 374.158 1098.71 374.158C1097.6 374.158 1096.69 373.252 1096.69 372.135C1096.69 371.018 1097.6 370.112 1098.71 370.112C1099.83 370.112 1100.74 371.018 1100.74 372.135Z" fill="#222222"/>
<path d="M1120.96 372.135C1120.96 373.252 1120.06 374.158 1118.94 374.158C1117.82 374.158 1116.92 373.252 1116.92 372.135C1116.92 371.018 1117.82 370.112 1118.94 370.112C1120.06 370.112 1120.96 371.018 1120.96 372.135Z" fill="#222222"/>
<path d="M938.915 392.363C938.915 393.48 938.01 394.385 936.893 394.385C935.775 394.385 934.87 393.48 934.87 392.363C934.87 391.246 935.775 390.34 936.893 390.34C938.01 390.34 938.915 391.246 938.915 392.363Z" fill="#222222"/>
<path d="M959.143 392.363C959.143 393.48 958.237 394.385 957.12 394.385C956.003 394.385 955.097 393.48 955.097 392.363C955.097 391.246 956.003 390.34 957.12 390.34C958.237 390.34 959.143 391.246 959.143 392.363Z" fill="#222222"/>
<path d="M979.37 392.363C979.37 393.48 978.465 394.385 977.348 394.385C976.23 394.385 975.325 393.48 975.325 392.363C975.325 391.246 976.23 390.34 977.348 390.34C978.465 390.34 979.37 391.246 979.37 392.363Z" fill="#222222"/>
<path d="M999.598 392.363C999.598 393.48 998.692 394.385 997.575 394.385C996.458 394.385 995.552 393.48 995.552 392.363C995.552 391.246 996.458 390.34 997.575 390.34C998.692 390.34 999.598 391.246 999.598 392.363Z" fill="#222222"/>
<path d="M1019.83 392.363C1019.83 393.48 1018.92 394.385 1017.8 394.385C1016.69 394.385 1015.78 393.48 1015.78 392.363C1015.78 391.246 1016.69 390.34 1017.8 390.34C1018.92 390.34 1019.83 391.246 1019.83 392.363Z" fill="#222222"/>
<path d="M1040.05 392.363C1040.05 393.48 1039.15 394.385 1038.03 394.385C1036.91 394.385 1036.01 393.48 1036.01 392.363C1036.01 391.246 1036.91 390.34 1038.03 390.34C1039.15 390.34 1040.05 391.246 1040.05 392.363Z" fill="#222222"/>
<path d="M1060.28 392.363C1060.28 393.48 1059.37 394.385 1058.26 394.385C1057.14 394.385 1056.23 393.48 1056.23 392.363C1056.23 391.246 1057.14 390.34 1058.26 390.34C1059.37 390.34 1060.28 391.246 1060.28 392.363Z" fill="#222222"/>
<path d="M1080.51 392.363C1080.51 393.48 1079.6 394.385 1078.49 394.385C1077.37 394.385 1076.46 393.48 1076.46 392.363C1076.46 391.246 1077.37 390.34 1078.49 390.34C1079.6 390.34 1080.51 391.246 1080.51 392.363Z" fill="#222222"/>
<path d="M1100.74 392.363C1100.74 393.48 1099.83 394.385 1098.71 394.385C1097.6 394.385 1096.69 393.48 1096.69 392.363C1096.69 391.246 1097.6 390.34 1098.71 390.34C1099.83 390.34 1100.74 391.246 1100.74 392.363Z" fill="#222222"/>
<path d="M1120.96 392.363C1120.96 393.48 1120.06 394.385 1118.94 394.385C1117.82 394.385 1116.92 393.48 1116.92 392.363C1116.92 391.246 1117.82 390.34 1118.94 390.34C1120.06 390.34 1120.96 391.246 1120.96 392.363Z" fill="#222222"/>
<path d="M938.915 412.59C938.915 413.707 938.01 414.613 936.893 414.613C935.775 414.613 934.87 413.707 934.87 412.59C934.87 411.473 935.775 410.567 936.893 410.567C938.01 410.567 938.915 411.473 938.915 412.59Z" fill="#222222"/>
<path d="M959.143 412.59C959.143 413.707 958.237 414.613 957.12 414.613C956.003 414.613 955.097 413.707 955.097 412.59C955.097 411.473 956.003 410.567 957.12 410.567C958.237 410.567 959.143 411.473 959.143 412.59Z" fill="#222222"/>
<path d="M979.37 412.59C979.37 413.707 978.465 414.613 977.348 414.613C976.23 414.613 975.325 413.707 975.325 412.59C975.325 411.473 976.23 410.567 977.348 410.567C978.465 410.567 979.37 411.473 979.37 412.59Z" fill="#222222"/>
<path d="M999.598 412.59C999.598 413.707 998.692 414.613 997.575 414.613C996.458 414.613 995.552 413.707 995.552 412.59C995.552 411.473 996.458 410.567 997.575 410.567C998.692 410.567 999.598 411.473 999.598 412.59Z" fill="#222222"/>
<path d="M1019.83 412.59C1019.83 413.707 1018.92 414.613 1017.8 414.613C1016.69 414.613 1015.78 413.707 1015.78 412.59C1015.78 411.473 1016.69 410.567 1017.8 410.567C1018.92 410.567 1019.83 411.473 1019.83 412.59Z" fill="#222222"/>
<path d="M1040.05 412.59C1040.05 413.707 1039.15 414.613 1038.03 414.613C1036.91 414.613 1036.01 413.707 1036.01 412.59C1036.01 411.473 1036.91 410.567 1038.03 410.567C1039.15 410.567 1040.05 411.473 1040.05 412.59Z" fill="#222222"/>
<path d="M1060.28 412.59C1060.28 413.707 1059.37 414.613 1058.26 414.613C1057.14 414.613 1056.23 413.707 1056.23 412.59C1056.23 411.473 1057.14 410.567 1058.26 410.567C1059.37 410.567 1060.28 411.473 1060.28 412.59Z" fill="#222222"/>
<path d="M1080.51 412.59C1080.51 413.707 1079.6 414.613 1078.49 414.613C1077.37 414.613 1076.46 413.707 1076.46 412.59C1076.46 411.473 1077.37 410.567 1078.49 410.567C1079.6 410.567 1080.51 411.473 1080.51 412.59Z" fill="#222222"/>
<path d="M1100.74 412.59C1100.74 413.707 1099.83 414.613 1098.71 414.613C1097.6 414.613 1096.69 413.707 1096.69 412.59C1096.69 411.473 1097.6 410.567 1098.71 410.567C1099.83 410.567 1100.74 411.473 1100.74 412.59Z" fill="#222222"/>
<path d="M1120.96 412.59C1120.96 413.707 1120.06 414.613 1118.94 414.613C1117.82 414.613 1116.92 413.707 1116.92 412.59C1116.92 411.473 1117.82 410.567 1118.94 410.567C1120.06 410.567 1120.96 411.473 1120.96 412.59Z" fill="#222222"/>
<path d="M938.915 432.818C938.915 433.935 938.01 434.84 936.893 434.84C935.775 434.84 934.87 433.935 934.87 432.818C934.87 431.701 935.775 430.795 936.893 430.795C938.01 430.795 938.915 431.701 938.915 432.818Z" fill="#222222"/>
<path d="M959.143 432.818C959.143 433.935 958.237 434.84 957.12 434.84C956.003 434.84 955.097 433.935 955.097 432.818C955.097 431.701 956.003 430.795 957.12 430.795C958.237 430.795 959.143 431.701 959.143 432.818Z" fill="#222222"/>
<path d="M979.37 432.818C979.37 433.935 978.465 434.84 977.348 434.84C976.23 434.84 975.325 433.935 975.325 432.818C975.325 431.701 976.23 430.795 977.348 430.795C978.465 430.795 979.37 431.701 979.37 432.818Z" fill="#222222"/>
<path d="M999.598 432.818C999.598 433.935 998.692 434.84 997.575 434.84C996.458 434.84 995.552 433.935 995.552 432.818C995.552 431.701 996.458 430.795 997.575 430.795C998.692 430.795 999.598 431.701 999.598 432.818Z" fill="#222222"/>
<path d="M1019.83 432.818C1019.83 433.935 1018.92 434.84 1017.8 434.84C1016.69 434.84 1015.78 433.935 1015.78 432.818C1015.78 431.701 1016.69 430.795 1017.8 430.795C1018.92 430.795 1019.83 431.701 1019.83 432.818Z" fill="#222222"/>
<path d="M1040.05 432.818C1040.05 433.935 1039.15 434.84 1038.03 434.84C1036.91 434.84 1036.01 433.935 1036.01 432.818C1036.01 431.701 1036.91 430.795 1038.03 430.795C1039.15 430.795 1040.05 431.701 1040.05 432.818Z" fill="#222222"/>
<path d="M1060.28 432.818C1060.28 433.935 1059.37 434.84 1058.26 434.84C1057.14 434.84 1056.23 433.935 1056.23 432.818C1056.23 431.701 1057.14 430.795 1058.26 430.795C1059.37 430.795 1060.28 431.701 1060.28 432.818Z" fill="#222222"/>
<path d="M1080.51 432.818C1080.51 433.935 1079.6 434.84 1078.49 434.84C1077.37 434.84 1076.46 433.935 1076.46 432.818C1076.46 431.701 1077.37 430.795 1078.49 430.795C1079.6 430.795 1080.51 431.701 1080.51 432.818Z" fill="#222222"/>
<path d="M1100.74 432.818C1100.74 433.935 1099.83 434.84 1098.71 434.84C1097.6 434.84 1096.69 433.935 1096.69 432.818C1096.69 431.701 1097.6 430.795 1098.71 430.795C1099.83 430.795 1100.74 431.701 1100.74 432.818Z" fill="#222222"/>
<path d="M1120.96 432.818C1120.96 433.935 1120.06 434.84 1118.94 434.84C1117.82 434.84 1116.92 433.935 1116.92 432.818C1116.92 431.701 1117.82 430.795 1118.94 430.795C1120.06 430.795 1120.96 431.701 1120.96 432.818Z" fill="#222222"/>
<path d="M938.915 453.045C938.915 454.162 938.01 455.068 936.893 455.068C935.775 455.068 934.87 454.162 934.87 453.045C934.87 451.928 935.775 451.022 936.893 451.022C938.01 451.022 938.915 451.928 938.915 453.045Z" fill="#222222"/>
<path d="M959.143 453.045C959.143 454.162 958.237 455.068 957.12 455.068C956.003 455.068 955.097 454.162 955.097 453.045C955.097 451.928 956.003 451.022 957.12 451.022C958.237 451.022 959.143 451.928 959.143 453.045Z" fill="#222222"/>
<path d="M979.37 453.045C979.37 454.162 978.465 455.068 977.348 455.068C976.23 455.068 975.325 454.162 975.325 453.045C975.325 451.928 976.23 451.022 977.348 451.022C978.465 451.022 979.37 451.928 979.37 453.045Z" fill="#222222"/>
<path d="M999.598 453.045C999.598 454.162 998.692 455.068 997.575 455.068C996.458 455.068 995.552 454.162 995.552 453.045C995.552 451.928 996.458 451.022 997.575 451.022C998.692 451.022 999.598 451.928 999.598 453.045Z" fill="#222222"/>
<path d="M1019.83 453.045C1019.83 454.162 1018.92 455.068 1017.8 455.068C1016.69 455.068 1015.78 454.162 1015.78 453.045C1015.78 451.928 1016.69 451.022 1017.8 451.022C1018.92 451.022 1019.83 451.928 1019.83 453.045Z" fill="#222222"/>
<path d="M1040.05 453.045C1040.05 454.162 1039.15 455.068 1038.03 455.068C1036.91 455.068 1036.01 454.162 1036.01 453.045C1036.01 451.928 1036.91 451.022 1038.03 451.022C1039.15 451.022 1040.05 451.928 1040.05 453.045Z" fill="#222222"/>
<path d="M1060.28 453.045C1060.28 454.162 1059.37 455.068 1058.26 455.068C1057.14 455.068 1056.23 454.162 1056.23 453.045C1056.23 451.928 1057.14 451.022 1058.26 451.022C1059.37 451.022 1060.28 451.928 1060.28 453.045Z" fill="#222222"/>
<path d="M1080.51 453.045C1080.51 454.162 1079.6 455.068 1078.49 455.068C1077.37 455.068 1076.46 454.162 1076.46 453.045C1076.46 451.928 1077.37 451.022 1078.49 451.022C1079.6 451.022 1080.51 451.928 1080.51 453.045Z" fill="#222222"/>
<path d="M1100.74 453.045C1100.74 454.162 1099.83 455.068 1098.71 455.068C1097.6 455.068 1096.69 454.162 1096.69 453.045C1096.69 451.928 1097.6 451.022 1098.71 451.022C1099.83 451.022 1100.74 451.928 1100.74 453.045Z" fill="#222222"/>
<path d="M1120.96 453.045C1120.96 454.162 1120.06 455.068 1118.94 455.068C1117.82 455.068 1116.92 454.162 1116.92 453.045C1116.92 451.928 1117.82 451.022 1118.94 451.022C1120.06 451.022 1120.96 451.928 1120.96 453.045Z" fill="#222222"/>
<path d="M938.915 473.273C938.915 474.39 938.01 475.295 936.893 475.295C935.775 475.295 934.87 474.39 934.87 473.273C934.87 472.156 935.775 471.25 936.893 471.25C938.01 471.25 938.915 472.156 938.915 473.273Z" fill="#222222"/>
<path d="M959.143 473.273C959.143 474.39 958.237 475.296 957.12 475.296C956.003 475.296 955.097 474.39 955.097 473.273C955.097 472.156 956.003 471.25 957.12 471.25C958.237 471.25 959.143 472.156 959.143 473.273Z" fill="#222222"/>
<path d="M979.37 473.273C979.37 474.39 978.465 475.296 977.348 475.296C976.23 475.296 975.325 474.39 975.325 473.273C975.325 472.156 976.23 471.25 977.348 471.25C978.465 471.25 979.37 472.156 979.37 473.273Z" fill="#222222"/>
<path d="M999.598 473.273C999.598 474.39 998.692 475.296 997.575 475.296C996.458 475.296 995.552 474.39 995.552 473.273C995.552 472.156 996.458 471.25 997.575 471.25C998.692 471.25 999.598 472.156 999.598 473.273Z" fill="#222222"/>
<path d="M1019.83 473.273C1019.83 474.39 1018.92 475.296 1017.8 475.296C1016.69 475.296 1015.78 474.39 1015.78 473.273C1015.78 472.156 1016.69 471.25 1017.8 471.25C1018.92 471.25 1019.83 472.156 1019.83 473.273Z" fill="#222222"/>
<path d="M1040.05 473.273C1040.05 474.39 1039.15 475.296 1038.03 475.296C1036.91 475.296 1036.01 474.39 1036.01 473.273C1036.01 472.156 1036.91 471.25 1038.03 471.25C1039.15 471.25 1040.05 472.156 1040.05 473.273Z" fill="#222222"/>
<path d="M1060.28 473.273C1060.28 474.39 1059.37 475.296 1058.26 475.296C1057.14 475.296 1056.23 474.39 1056.23 473.273C1056.23 472.156 1057.14 471.25 1058.26 471.25C1059.37 471.25 1060.28 472.156 1060.28 473.273Z" fill="#222222"/>
<path d="M1080.51 473.273C1080.51 474.39 1079.6 475.296 1078.49 475.296C1077.37 475.296 1076.46 474.39 1076.46 473.273C1076.46 472.156 1077.37 471.25 1078.49 471.25C1079.6 471.25 1080.51 472.156 1080.51 473.273Z" fill="#222222"/>
<path d="M1100.74 473.273C1100.74 474.39 1099.83 475.296 1098.71 475.296C1097.6 475.296 1096.69 474.39 1096.69 473.273C1096.69 472.156 1097.6 471.25 1098.71 471.25C1099.83 471.25 1100.74 472.156 1100.74 473.273Z" fill="#222222"/>
<path d="M1120.96 473.273C1120.96 474.39 1120.06 475.296 1118.94 475.296C1117.82 475.296 1116.92 474.39 1116.92 473.273C1116.92 472.156 1117.82 471.25 1118.94 471.25C1120.06 471.25 1120.96 472.156 1120.96 473.273Z" fill="#222222"/>
<path d="M938.915 493.5C938.915 494.617 938.01 495.523 936.893 495.523C935.775 495.523 934.87 494.617 934.87 493.5C934.87 492.383 935.775 491.478 936.893 491.478C938.01 491.478 938.915 492.383 938.915 493.5Z" fill="#222222"/>
<path d="M959.143 493.5C959.143 494.617 958.237 495.523 957.12 495.523C956.003 495.523 955.097 494.617 955.097 493.5C955.097 492.383 956.003 491.478 957.12 491.478C958.237 491.478 959.143 492.383 959.143 493.5Z" fill="#222222"/>
<path d="M979.37 493.5C979.37 494.617 978.465 495.523 977.348 495.523C976.23 495.523 975.325 494.617 975.325 493.5C975.325 492.383 976.23 491.478 977.348 491.478C978.465 491.478 979.37 492.383 979.37 493.5Z" fill="#222222"/>
<path d="M999.598 493.5C999.598 494.617 998.692 495.523 997.575 495.523C996.458 495.523 995.552 494.617 995.552 493.5C995.552 492.383 996.458 491.478 997.575 491.478C998.692 491.478 999.598 492.383 999.598 493.5Z" fill="#222222"/>
<path d="M1019.83 493.5C1019.83 494.617 1018.92 495.523 1017.8 495.523C1016.69 495.523 1015.78 494.617 1015.78 493.5C1015.78 492.383 1016.69 491.478 1017.8 491.478C1018.92 491.478 1019.83 492.383 1019.83 493.5Z" fill="#222222"/>
<path d="M1040.05 493.5C1040.05 494.617 1039.15 495.523 1038.03 495.523C1036.91 495.523 1036.01 494.617 1036.01 493.5C1036.01 492.383 1036.91 491.478 1038.03 491.478C1039.15 491.478 1040.05 492.383 1040.05 493.5Z" fill="#222222"/>
<path d="M1060.28 493.5C1060.28 494.617 1059.37 495.523 1058.26 495.523C1057.14 495.523 1056.23 494.617 1056.23 493.5C1056.23 492.383 1057.14 491.478 1058.26 491.478C1059.37 491.478 1060.28 492.383 1060.28 493.5Z" fill="#222222"/>
<path d="M1080.51 493.5C1080.51 494.617 1079.6 495.523 1078.49 495.523C1077.37 495.523 1076.46 494.617 1076.46 493.5C1076.46 492.383 1077.37 491.478 1078.49 491.478C1079.6 491.478 1080.51 492.383 1080.51 493.5Z" fill="#222222"/>
<path d="M1100.74 493.5C1100.74 494.617 1099.83 495.523 1098.71 495.523C1097.6 495.523 1096.69 494.617 1096.69 493.5C1096.69 492.383 1097.6 491.478 1098.71 491.478C1099.83 491.478 1100.74 492.383 1100.74 493.5Z" fill="#222222"/>
<path d="M1120.96 493.5C1120.96 494.617 1120.06 495.523 1118.94 495.523C1117.82 495.523 1116.92 494.617 1116.92 493.5C1116.92 492.383 1117.82 491.478 1118.94 491.478C1120.06 491.478 1120.96 492.383 1120.96 493.5Z" fill="#222222"/>
<path d="M938.915 513.728C938.915 514.845 938.01 515.751 936.893 515.751C935.775 515.751 934.87 514.845 934.87 513.728C934.87 512.611 935.775 511.705 936.893 511.705C938.01 511.705 938.915 512.611 938.915 513.728Z" fill="#222222"/>
<path d="M959.143 513.728C959.143 514.845 958.237 515.751 957.12 515.751C956.003 515.751 955.097 514.845 955.097 513.728C955.097 512.611 956.003 511.705 957.12 511.705C958.237 511.705 959.143 512.611 959.143 513.728Z" fill="#222222"/>
<path d="M979.37 513.728C979.37 514.845 978.465 515.751 977.348 515.751C976.23 515.751 975.325 514.845 975.325 513.728C975.325 512.611 976.23 511.705 977.348 511.705C978.465 511.705 979.37 512.611 979.37 513.728Z" fill="#222222"/>
<path d="M999.598 513.728C999.598 514.845 998.692 515.751 997.575 515.751C996.458 515.751 995.552 514.845 995.552 513.728C995.552 512.611 996.458 511.705 997.575 511.705C998.692 511.705 999.598 512.611 999.598 513.728Z" fill="#222222"/>
<path d="M1019.83 513.728C1019.83 514.845 1018.92 515.751 1017.8 515.751C1016.69 515.751 1015.78 514.845 1015.78 513.728C1015.78 512.611 1016.69 511.705 1017.8 511.705C1018.92 511.705 1019.83 512.611 1019.83 513.728Z" fill="#222222"/>
<path d="M1040.05 513.728C1040.05 514.845 1039.15 515.751 1038.03 515.751C1036.91 515.751 1036.01 514.845 1036.01 513.728C1036.01 512.611 1036.91 511.705 1038.03 511.705C1039.15 511.705 1040.05 512.611 1040.05 513.728Z" fill="#222222"/>
<path d="M1060.28 513.728C1060.28 514.845 1059.37 515.751 1058.26 515.751C1057.14 515.751 1056.23 514.845 1056.23 513.728C1056.23 512.611 1057.14 511.705 1058.26 511.705C1059.37 511.705 1060.28 512.611 1060.28 513.728Z" fill="#222222"/>
<path d="M1080.51 513.728C1080.51 514.845 1079.6 515.751 1078.49 515.751C1077.37 515.751 1076.46 514.845 1076.46 513.728C1076.46 512.611 1077.37 511.705 1078.49 511.705C1079.6 511.705 1080.51 512.611 1080.51 513.728Z" fill="#222222"/>
<path d="M1100.74 513.728C1100.74 514.845 1099.83 515.751 1098.71 515.751C1097.6 515.751 1096.69 514.845 1096.69 513.728C1096.69 512.611 1097.6 511.705 1098.71 511.705C1099.83 511.705 1100.74 512.611 1100.74 513.728Z" fill="#222222"/>
<path d="M1120.96 513.728C1120.96 514.845 1120.06 515.751 1118.94 515.751C1117.82 515.751 1116.92 514.845 1116.92 513.728C1116.92 512.611 1117.82 511.705 1118.94 511.705C1120.06 511.705 1120.96 512.611 1120.96 513.728Z" fill="#222222"/>
<path d="M938.915 533.955C938.915 535.072 938.01 535.978 936.893 535.978C935.775 535.978 934.87 535.072 934.87 533.955C934.87 532.838 935.775 531.933 936.893 531.933C938.01 531.933 938.915 532.838 938.915 533.955Z" fill="#222222"/>
<path d="M959.143 533.955C959.143 535.072 958.237 535.978 957.12 535.978C956.003 535.978 955.097 535.072 955.097 533.955C955.097 532.838 956.003 531.933 957.12 531.933C958.237 531.933 959.143 532.838 959.143 533.955Z" fill="#222222"/>
<path d="M979.37 533.955C979.37 535.072 978.465 535.978 977.348 535.978C976.23 535.978 975.325 535.072 975.325 533.955C975.325 532.838 976.23 531.933 977.348 531.933C978.465 531.933 979.37 532.838 979.37 533.955Z" fill="#222222"/>
<path d="M999.598 533.955C999.598 535.072 998.692 535.978 997.575 535.978C996.458 535.978 995.552 535.072 995.552 533.955C995.552 532.838 996.458 531.933 997.575 531.933C998.692 531.933 999.598 532.838 999.598 533.955Z" fill="#222222"/>
<path d="M1019.83 533.955C1019.83 535.072 1018.92 535.978 1017.8 535.978C1016.69 535.978 1015.78 535.072 1015.78 533.955C1015.78 532.838 1016.69 531.933 1017.8 531.933C1018.92 531.933 1019.83 532.838 1019.83 533.955Z" fill="#222222"/>
<path d="M1040.05 533.955C1040.05 535.072 1039.15 535.978 1038.03 535.978C1036.91 535.978 1036.01 535.072 1036.01 533.955C1036.01 532.838 1036.91 531.933 1038.03 531.933C1039.15 531.933 1040.05 532.838 1040.05 533.955Z" fill="#222222"/>
<path d="M1060.28 533.955C1060.28 535.072 1059.37 535.978 1058.26 535.978C1057.14 535.978 1056.23 535.072 1056.23 533.955C1056.23 532.838 1057.14 531.933 1058.26 531.933C1059.37 531.933 1060.28 532.838 1060.28 533.955Z" fill="#222222"/>
<path d="M1080.51 533.955C1080.51 535.072 1079.6 535.978 1078.49 535.978C1077.37 535.978 1076.46 535.072 1076.46 533.955C1076.46 532.838 1077.37 531.933 1078.49 531.933C1079.6 531.933 1080.51 532.838 1080.51 533.955Z" fill="#222222"/>
<path d="M1100.74 533.955C1100.74 535.072 1099.83 535.978 1098.71 535.978C1097.6 535.978 1096.69 535.072 1096.69 533.955C1096.69 532.838 1097.6 531.933 1098.71 531.933C1099.83 531.933 1100.74 532.838 1100.74 533.955Z" fill="#222222"/>
<path d="M1120.96 533.955C1120.96 535.072 1120.06 535.978 1118.94 535.978C1117.82 535.978 1116.92 535.072 1116.92 533.955C1116.92 532.838 1117.82 531.933 1118.94 531.933C1120.06 531.933 1120.96 532.838 1120.96 533.955Z" fill="#222222"/>
<path d="M938.915 554.183C938.915 555.3 938.01 556.206 936.893 556.206C935.775 556.206 934.87 555.3 934.87 554.183C934.87 553.066 935.775 552.16 936.893 552.16C938.01 552.16 938.915 553.066 938.915 554.183Z" fill="#222222"/>
<path d="M959.143 554.183C959.143 555.3 958.237 556.206 957.12 556.206C956.003 556.206 955.097 555.3 955.097 554.183C955.097 553.066 956.003 552.16 957.12 552.16C958.237 552.16 959.143 553.066 959.143 554.183Z" fill="#222222"/>
<path d="M979.37 554.183C979.37 555.3 978.465 556.206 977.348 556.206C976.23 556.206 975.325 555.3 975.325 554.183C975.325 553.066 976.23 552.16 977.348 552.16C978.465 552.16 979.37 553.066 979.37 554.183Z" fill="#222222"/>
<path d="M999.598 554.183C999.598 555.3 998.692 556.206 997.575 556.206C996.458 556.206 995.552 555.3 995.552 554.183C995.552 553.066 996.458 552.16 997.575 552.16C998.692 552.16 999.598 553.066 999.598 554.183Z" fill="#222222"/>
<path d="M1019.83 554.183C1019.83 555.3 1018.92 556.206 1017.8 556.206C1016.69 556.206 1015.78 555.3 1015.78 554.183C1015.78 553.066 1016.69 552.16 1017.8 552.16C1018.92 552.16 1019.83 553.066 1019.83 554.183Z" fill="#222222"/>
<path d="M1040.05 554.183C1040.05 555.3 1039.15 556.206 1038.03 556.206C1036.91 556.206 1036.01 555.3 1036.01 554.183C1036.01 553.066 1036.91 552.16 1038.03 552.16C1039.15 552.16 1040.05 553.066 1040.05 554.183Z" fill="#222222"/>
<path d="M1060.28 554.183C1060.28 555.3 1059.37 556.206 1058.26 556.206C1057.14 556.206 1056.23 555.3 1056.23 554.183C1056.23 553.066 1057.14 552.16 1058.26 552.16C1059.37 552.16 1060.28 553.066 1060.28 554.183Z" fill="#222222"/>
<path d="M1080.51 554.183C1080.51 555.3 1079.6 556.206 1078.49 556.206C1077.37 556.206 1076.46 555.3 1076.46 554.183C1076.46 553.066 1077.37 552.16 1078.49 552.16C1079.6 552.16 1080.51 553.066 1080.51 554.183Z" fill="#222222"/>
<path d="M1100.74 554.183C1100.74 555.3 1099.83 556.206 1098.71 556.206C1097.6 556.206 1096.69 555.3 1096.69 554.183C1096.69 553.066 1097.6 552.16 1098.71 552.16C1099.83 552.16 1100.74 553.066 1100.74 554.183Z" fill="#222222"/>
<path d="M1120.96 554.183C1120.96 555.3 1120.06 556.206 1118.94 556.206C1117.82 556.206 1116.92 555.3 1116.92 554.183C1116.92 553.066 1117.82 552.16 1118.94 552.16C1120.06 552.16 1120.96 553.066 1120.96 554.183Z" fill="#222222"/>
<path d="M938.915 574.41C938.915 575.528 938.01 576.433 936.893 576.433C935.775 576.433 934.87 575.528 934.87 574.41C934.87 573.293 935.775 572.388 936.893 572.388C938.01 572.388 938.915 573.293 938.915 574.41Z" fill="#222222"/>
<path d="M959.143 574.41C959.143 575.528 958.237 576.433 957.12 576.433C956.003 576.433 955.097 575.528 955.097 574.41C955.097 573.293 956.003 572.388 957.12 572.388C958.237 572.388 959.143 573.293 959.143 574.41Z" fill="#222222"/>
<path d="M979.37 574.41C979.37 575.528 978.465 576.433 977.348 576.433C976.23 576.433 975.325 575.528 975.325 574.41C975.325 573.293 976.23 572.388 977.348 572.388C978.465 572.388 979.37 573.293 979.37 574.41Z" fill="#222222"/>
<path d="M999.598 574.41C999.598 575.528 998.692 576.433 997.575 576.433C996.458 576.433 995.552 575.528 995.552 574.41C995.552 573.293 996.458 572.388 997.575 572.388C998.692 572.388 999.598 573.293 999.598 574.41Z" fill="#222222"/>
<path d="M1019.83 574.41C1019.83 575.528 1018.92 576.433 1017.8 576.433C1016.69 576.433 1015.78 575.528 1015.78 574.41C1015.78 573.293 1016.69 572.388 1017.8 572.388C1018.92 572.388 1019.83 573.293 1019.83 574.41Z" fill="#222222"/>
<path d="M1040.05 574.41C1040.05 575.528 1039.15 576.433 1038.03 576.433C1036.91 576.433 1036.01 575.528 1036.01 574.41C1036.01 573.293 1036.91 572.388 1038.03 572.388C1039.15 572.388 1040.05 573.293 1040.05 574.41Z" fill="#222222"/>
<path d="M1060.28 574.41C1060.28 575.528 1059.37 576.433 1058.26 576.433C1057.14 576.433 1056.23 575.528 1056.23 574.41C1056.23 573.293 1057.14 572.388 1058.26 572.388C1059.37 572.388 1060.28 573.293 1060.28 574.41Z" fill="#222222"/>
<path d="M1080.51 574.41C1080.51 575.528 1079.6 576.433 1078.49 576.433C1077.37 576.433 1076.46 575.528 1076.46 574.41C1076.46 573.293 1077.37 572.388 1078.49 572.388C1079.6 572.388 1080.51 573.293 1080.51 574.41Z" fill="#222222"/>
<path d="M1100.74 574.41C1100.74 575.528 1099.83 576.433 1098.71 576.433C1097.6 576.433 1096.69 575.528 1096.69 574.41C1096.69 573.293 1097.6 572.388 1098.71 572.388C1099.83 572.388 1100.74 573.293 1100.74 574.41Z" fill="#222222"/>
<path d="M1120.96 574.41C1120.96 575.528 1120.06 576.433 1118.94 576.433C1117.82 576.433 1116.92 575.528 1116.92 574.41C1116.92 573.293 1117.82 572.388 1118.94 572.388C1120.06 572.388 1120.96 573.293 1120.96 574.41Z" fill="#222222"/>
<path d="M938.915 594.638C938.915 595.755 938.01 596.661 936.893 596.661C935.775 596.661 934.87 595.755 934.87 594.638C934.87 593.521 935.775 592.615 936.893 592.615C938.01 592.615 938.915 593.521 938.915 594.638Z" fill="#222222"/>
<path d="M959.143 594.638C959.143 595.755 958.237 596.661 957.12 596.661C956.003 596.661 955.097 595.755 955.097 594.638C955.097 593.521 956.003 592.615 957.12 592.615C958.237 592.615 959.143 593.521 959.143 594.638Z" fill="#222222"/>
<path d="M979.37 594.638C979.37 595.755 978.465 596.661 977.348 596.661C976.23 596.661 975.325 595.755 975.325 594.638C975.325 593.521 976.23 592.615 977.348 592.615C978.465 592.615 979.37 593.521 979.37 594.638Z" fill="#222222"/>
<path d="M999.598 594.638C999.598 595.755 998.692 596.661 997.575 596.661C996.458 596.661 995.552 595.755 995.552 594.638C995.552 593.521 996.458 592.615 997.575 592.615C998.692 592.615 999.598 593.521 999.598 594.638Z" fill="#222222"/>
<path d="M1019.83 594.638C1019.83 595.755 1018.92 596.661 1017.8 596.661C1016.69 596.661 1015.78 595.755 1015.78 594.638C1015.78 593.521 1016.69 592.615 1017.8 592.615C1018.92 592.615 1019.83 593.521 1019.83 594.638Z" fill="#222222"/>
<path d="M1040.05 594.638C1040.05 595.755 1039.15 596.661 1038.03 596.661C1036.91 596.661 1036.01 595.755 1036.01 594.638C1036.01 593.521 1036.91 592.615 1038.03 592.615C1039.15 592.615 1040.05 593.521 1040.05 594.638Z" fill="#222222"/>
<path d="M1060.28 594.638C1060.28 595.755 1059.37 596.661 1058.26 596.661C1057.14 596.661 1056.23 595.755 1056.23 594.638C1056.23 593.521 1057.14 592.615 1058.26 592.615C1059.37 592.615 1060.28 593.521 1060.28 594.638Z" fill="#222222"/>
<path d="M1080.51 594.638C1080.51 595.755 1079.6 596.661 1078.49 596.661C1077.37 596.661 1076.46 595.755 1076.46 594.638C1076.46 593.521 1077.37 592.615 1078.49 592.615C1079.6 592.615 1080.51 593.521 1080.51 594.638Z" fill="#222222"/>
<path d="M1100.74 594.638C1100.74 595.755 1099.83 596.661 1098.71 596.661C1097.6 596.661 1096.69 595.755 1096.69 594.638C1096.69 593.521 1097.6 592.615 1098.71 592.615C1099.83 592.615 1100.74 593.521 1100.74 594.638Z" fill="#222222"/>
<path d="M1120.96 594.638C1120.96 595.755 1120.06 596.661 1118.94 596.661C1117.82 596.661 1116.92 595.755 1116.92 594.638C1116.92 593.521 1117.82 592.615 1118.94 592.615C1120.06 592.615 1120.96 593.521 1120.96 594.638Z" fill="#222222"/>
<path d="M1141.19 210.315C1141.19 211.432 1140.28 212.338 1139.17 212.338C1138.05 212.338 1137.14 211.432 1137.14 210.315C1137.14 209.198 1138.05 208.292 1139.17 208.292C1140.28 208.292 1141.19 209.198 1141.19 210.315Z" fill="#222222"/>
<path d="M1161.42 210.315C1161.42 211.432 1160.51 212.338 1159.4 212.338C1158.28 212.338 1157.37 211.432 1157.37 210.315C1157.37 209.198 1158.28 208.292 1159.4 208.292C1160.51 208.292 1161.42 209.198 1161.42 210.315Z" fill="#222222"/>
<path d="M1181.65 210.315C1181.65 211.432 1180.74 212.338 1179.62 212.338C1178.51 212.338 1177.6 211.432 1177.6 210.315C1177.6 209.198 1178.51 208.292 1179.62 208.292C1180.74 208.292 1181.65 209.198 1181.65 210.315Z" fill="#222222"/>
<path d="M1201.87 210.315C1201.87 211.432 1200.97 212.338 1199.85 212.338C1198.73 212.338 1197.83 211.432 1197.83 210.315C1197.83 209.198 1198.73 208.292 1199.85 208.292C1200.97 208.292 1201.87 209.198 1201.87 210.315Z" fill="#222222"/>
<path d="M1222.1 210.315C1222.1 211.432 1221.19 212.338 1220.08 212.338C1218.96 212.338 1218.05 211.432 1218.05 210.315C1218.05 209.198 1218.96 208.292 1220.08 208.292C1221.19 208.292 1222.1 209.198 1222.1 210.315Z" fill="#222222"/>
<path d="M1242.33 210.315C1242.33 211.432 1241.42 212.338 1240.31 212.338C1239.19 212.338 1238.28 211.432 1238.28 210.315C1238.28 209.198 1239.19 208.292 1240.31 208.292C1241.42 208.292 1242.33 209.198 1242.33 210.315Z" fill="#222222"/>
<path d="M1262.56 210.315C1262.56 211.432 1261.65 212.338 1260.53 212.338C1259.42 212.338 1258.51 211.432 1258.51 210.315C1258.51 209.198 1259.42 208.292 1260.53 208.292C1261.65 208.292 1262.56 209.198 1262.56 210.315Z" fill="#222222"/>
<path d="M1282.78 210.315C1282.78 211.432 1281.88 212.338 1280.76 212.338C1279.64 212.338 1278.74 211.432 1278.74 210.315C1278.74 209.198 1279.64 208.292 1280.76 208.292C1281.88 208.292 1282.78 209.198 1282.78 210.315Z" fill="#222222"/>
<path d="M1303.01 210.315C1303.01 211.432 1302.1 212.338 1300.99 212.338C1299.87 212.338 1298.96 211.432 1298.96 210.315C1298.96 209.198 1299.87 208.292 1300.99 208.292C1302.1 208.292 1303.01 209.198 1303.01 210.315Z" fill="#222222"/>
<path d="M1323.24 210.315C1323.24 211.432 1322.33 212.338 1321.22 212.338C1320.1 212.338 1319.19 211.432 1319.19 210.315C1319.19 209.198 1320.1 208.292 1321.22 208.292C1322.33 208.292 1323.24 209.198 1323.24 210.315Z" fill="#222222"/>
<path d="M1141.19 230.542C1141.19 231.66 1140.28 232.565 1139.17 232.565C1138.05 232.565 1137.14 231.66 1137.14 230.542C1137.14 229.425 1138.05 228.52 1139.17 228.52C1140.28 228.52 1141.19 229.425 1141.19 230.542Z" fill="#222222"/>
<path d="M1161.42 230.542C1161.42 231.66 1160.51 232.565 1159.4 232.565C1158.28 232.565 1157.37 231.66 1157.37 230.542C1157.37 229.425 1158.28 228.52 1159.4 228.52C1160.51 228.52 1161.42 229.425 1161.42 230.542Z" fill="#222222"/>
<path d="M1181.65 230.542C1181.65 231.66 1180.74 232.565 1179.62 232.565C1178.51 232.565 1177.6 231.66 1177.6 230.542C1177.6 229.425 1178.51 228.52 1179.62 228.52C1180.74 228.52 1181.65 229.425 1181.65 230.542Z" fill="#222222"/>
<path d="M1201.87 230.542C1201.87 231.66 1200.97 232.565 1199.85 232.565C1198.73 232.565 1197.83 231.66 1197.83 230.542C1197.83 229.425 1198.73 228.52 1199.85 228.52C1200.97 228.52 1201.87 229.425 1201.87 230.542Z" fill="#222222"/>
<path d="M1222.1 230.542C1222.1 231.66 1221.19 232.565 1220.08 232.565C1218.96 232.565 1218.05 231.66 1218.05 230.542C1218.05 229.425 1218.96 228.52 1220.08 228.52C1221.19 228.52 1222.1 229.425 1222.1 230.542Z" fill="#222222"/>
<path d="M1242.33 230.542C1242.33 231.66 1241.42 232.565 1240.31 232.565C1239.19 232.565 1238.28 231.66 1238.28 230.542C1238.28 229.425 1239.19 228.52 1240.31 228.52C1241.42 228.52 1242.33 229.425 1242.33 230.542Z" fill="#222222"/>
<path d="M1262.56 230.542C1262.56 231.66 1261.65 232.565 1260.53 232.565C1259.42 232.565 1258.51 231.66 1258.51 230.542C1258.51 229.425 1259.42 228.52 1260.53 228.52C1261.65 228.52 1262.56 229.425 1262.56 230.542Z" fill="#222222"/>
<path d="M1282.78 230.542C1282.78 231.66 1281.88 232.565 1280.76 232.565C1279.64 232.565 1278.74 231.66 1278.74 230.542C1278.74 229.425 1279.64 228.52 1280.76 228.52C1281.88 228.52 1282.78 229.425 1282.78 230.542Z" fill="#222222"/>
<path d="M1303.01 230.542C1303.01 231.66 1302.1 232.565 1300.99 232.565C1299.87 232.565 1298.96 231.66 1298.96 230.542C1298.96 229.425 1299.87 228.52 1300.99 228.52C1302.1 228.52 1303.01 229.425 1303.01 230.542Z" fill="#222222"/>
<path d="M1323.24 230.542C1323.24 231.66 1322.33 232.565 1321.22 232.565C1320.1 232.565 1319.19 231.66 1319.19 230.542C1319.19 229.425 1320.1 228.52 1321.22 228.52C1322.33 228.52 1323.24 229.425 1323.24 230.542Z" fill="#222222"/>
<path d="M1141.19 250.77C1141.19 251.887 1140.28 252.793 1139.17 252.793C1138.05 252.793 1137.14 251.887 1137.14 250.77C1137.14 249.653 1138.05 248.747 1139.17 248.747C1140.28 248.747 1141.19 249.653 1141.19 250.77Z" fill="#222222"/>
<path d="M1161.42 250.77C1161.42 251.887 1160.51 252.793 1159.4 252.793C1158.28 252.793 1157.37 251.887 1157.37 250.77C1157.37 249.653 1158.28 248.747 1159.4 248.747C1160.51 248.747 1161.42 249.653 1161.42 250.77Z" fill="#222222"/>
<path d="M1181.65 250.77C1181.65 251.887 1180.74 252.793 1179.62 252.793C1178.51 252.793 1177.6 251.887 1177.6 250.77C1177.6 249.653 1178.51 248.747 1179.62 248.747C1180.74 248.747 1181.65 249.653 1181.65 250.77Z" fill="#222222"/>
<path d="M1201.87 250.77C1201.87 251.887 1200.97 252.793 1199.85 252.793C1198.73 252.793 1197.83 251.887 1197.83 250.77C1197.83 249.653 1198.73 248.747 1199.85 248.747C1200.97 248.747 1201.87 249.653 1201.87 250.77Z" fill="#222222"/>
<path d="M1222.1 250.77C1222.1 251.887 1221.19 252.793 1220.08 252.793C1218.96 252.793 1218.05 251.887 1218.05 250.77C1218.05 249.653 1218.96 248.747 1220.08 248.747C1221.19 248.747 1222.1 249.653 1222.1 250.77Z" fill="#222222"/>
<path d="M1242.33 250.77C1242.33 251.887 1241.42 252.793 1240.31 252.793C1239.19 252.793 1238.28 251.887 1238.28 250.77C1238.28 249.653 1239.19 248.747 1240.31 248.747C1241.42 248.747 1242.33 249.653 1242.33 250.77Z" fill="#222222"/>
<path d="M1262.56 250.77C1262.56 251.887 1261.65 252.793 1260.53 252.793C1259.42 252.793 1258.51 251.887 1258.51 250.77C1258.51 249.653 1259.42 248.747 1260.53 248.747C1261.65 248.747 1262.56 249.653 1262.56 250.77Z" fill="#222222"/>
<path d="M1282.78 250.77C1282.78 251.887 1281.88 252.793 1280.76 252.793C1279.64 252.793 1278.74 251.887 1278.74 250.77C1278.74 249.653 1279.64 248.747 1280.76 248.747C1281.88 248.747 1282.78 249.653 1282.78 250.77Z" fill="#222222"/>
<path d="M1303.01 250.77C1303.01 251.887 1302.1 252.793 1300.99 252.793C1299.87 252.793 1298.96 251.887 1298.96 250.77C1298.96 249.653 1299.87 248.747 1300.99 248.747C1302.1 248.747 1303.01 249.653 1303.01 250.77Z" fill="#222222"/>
<path d="M1323.24 250.77C1323.24 251.887 1322.33 252.793 1321.22 252.793C1320.1 252.793 1319.19 251.887 1319.19 250.77C1319.19 249.653 1320.1 248.747 1321.22 248.747C1322.33 248.747 1323.24 249.653 1323.24 250.77Z" fill="#222222"/>
<path d="M1141.19 270.997C1141.19 272.115 1140.28 273.02 1139.17 273.02C1138.05 273.02 1137.14 272.115 1137.14 270.997C1137.14 269.88 1138.05 268.975 1139.17 268.975C1140.28 268.975 1141.19 269.88 1141.19 270.997Z" fill="#222222"/>
<path d="M1161.42 270.998C1161.42 272.115 1160.51 273.02 1159.4 273.02C1158.28 273.02 1157.37 272.115 1157.37 270.998C1157.37 269.88 1158.28 268.975 1159.4 268.975C1160.51 268.975 1161.42 269.88 1161.42 270.998Z" fill="#222222"/>
<path d="M1181.65 270.998C1181.65 272.115 1180.74 273.02 1179.62 273.02C1178.51 273.02 1177.6 272.115 1177.6 270.998C1177.6 269.88 1178.51 268.975 1179.62 268.975C1180.74 268.975 1181.65 269.88 1181.65 270.998Z" fill="#222222"/>
<path d="M1201.87 270.998C1201.87 272.115 1200.97 273.02 1199.85 273.02C1198.73 273.02 1197.83 272.115 1197.83 270.998C1197.83 269.88 1198.73 268.975 1199.85 268.975C1200.97 268.975 1201.87 269.88 1201.87 270.998Z" fill="#222222"/>
<path d="M1222.1 270.998C1222.1 272.115 1221.19 273.02 1220.08 273.02C1218.96 273.02 1218.05 272.115 1218.05 270.998C1218.05 269.88 1218.96 268.975 1220.08 268.975C1221.19 268.975 1222.1 269.88 1222.1 270.998Z" fill="#222222"/>
<path d="M1242.33 270.998C1242.33 272.115 1241.42 273.02 1240.31 273.02C1239.19 273.02 1238.28 272.115 1238.28 270.998C1238.28 269.88 1239.19 268.975 1240.31 268.975C1241.42 268.975 1242.33 269.88 1242.33 270.998Z" fill="#222222"/>
<path d="M1262.56 270.998C1262.56 272.115 1261.65 273.02 1260.53 273.02C1259.42 273.02 1258.51 272.115 1258.51 270.998C1258.51 269.88 1259.42 268.975 1260.53 268.975C1261.65 268.975 1262.56 269.88 1262.56 270.998Z" fill="#222222"/>
<path d="M1282.78 270.998C1282.78 272.115 1281.88 273.02 1280.76 273.02C1279.64 273.02 1278.74 272.115 1278.74 270.998C1278.74 269.88 1279.64 268.975 1280.76 268.975C1281.88 268.975 1282.78 269.88 1282.78 270.998Z" fill="#222222"/>
<path d="M1303.01 270.998C1303.01 272.115 1302.1 273.02 1300.99 273.02C1299.87 273.02 1298.96 272.115 1298.96 270.998C1298.96 269.88 1299.87 268.975 1300.99 268.975C1302.1 268.975 1303.01 269.88 1303.01 270.998Z" fill="#222222"/>
<path d="M1323.24 270.998C1323.24 272.115 1322.33 273.02 1321.22 273.02C1320.1 273.02 1319.19 272.115 1319.19 270.998C1319.19 269.88 1320.1 268.975 1321.22 268.975C1322.33 268.975 1323.24 269.88 1323.24 270.998Z" fill="#222222"/>
<path d="M1141.19 291.225C1141.19 292.342 1140.28 293.248 1139.17 293.248C1138.05 293.248 1137.14 292.342 1137.14 291.225C1137.14 290.108 1138.05 289.202 1139.17 289.202C1140.28 289.202 1141.19 290.108 1141.19 291.225Z" fill="#222222"/>
<path d="M1161.42 291.225C1161.42 292.342 1160.51 293.248 1159.4 293.248C1158.28 293.248 1157.37 292.342 1157.37 291.225C1157.37 290.108 1158.28 289.202 1159.4 289.202C1160.51 289.202 1161.42 290.108 1161.42 291.225Z" fill="#222222"/>
<path d="M1181.65 291.225C1181.65 292.342 1180.74 293.248 1179.62 293.248C1178.51 293.248 1177.6 292.342 1177.6 291.225C1177.6 290.108 1178.51 289.202 1179.62 289.202C1180.74 289.202 1181.65 290.108 1181.65 291.225Z" fill="#222222"/>
<path d="M1201.87 291.225C1201.87 292.342 1200.97 293.248 1199.85 293.248C1198.73 293.248 1197.83 292.342 1197.83 291.225C1197.83 290.108 1198.73 289.202 1199.85 289.202C1200.97 289.202 1201.87 290.108 1201.87 291.225Z" fill="#222222"/>
<path d="M1222.1 291.225C1222.1 292.342 1221.19 293.248 1220.08 293.248C1218.96 293.248 1218.05 292.342 1218.05 291.225C1218.05 290.108 1218.96 289.202 1220.08 289.202C1221.19 289.202 1222.1 290.108 1222.1 291.225Z" fill="#222222"/>
<path d="M1242.33 291.225C1242.33 292.342 1241.42 293.248 1240.31 293.248C1239.19 293.248 1238.28 292.342 1238.28 291.225C1238.28 290.108 1239.19 289.202 1240.31 289.202C1241.42 289.202 1242.33 290.108 1242.33 291.225Z" fill="#222222"/>
<path d="M1262.56 291.225C1262.56 292.342 1261.65 293.248 1260.53 293.248C1259.42 293.248 1258.51 292.342 1258.51 291.225C1258.51 290.108 1259.42 289.202 1260.53 289.202C1261.65 289.202 1262.56 290.108 1262.56 291.225Z" fill="#222222"/>
<path d="M1282.78 291.225C1282.78 292.342 1281.88 293.248 1280.76 293.248C1279.64 293.248 1278.74 292.342 1278.74 291.225C1278.74 290.108 1279.64 289.202 1280.76 289.202C1281.88 289.202 1282.78 290.108 1282.78 291.225Z" fill="#222222"/>
<path d="M1303.01 291.225C1303.01 292.342 1302.1 293.248 1300.99 293.248C1299.87 293.248 1298.96 292.342 1298.96 291.225C1298.96 290.108 1299.87 289.202 1300.99 289.202C1302.1 289.202 1303.01 290.108 1303.01 291.225Z" fill="#222222"/>
<path d="M1323.24 291.225C1323.24 292.342 1322.33 293.248 1321.22 293.248C1320.1 293.248 1319.19 292.342 1319.19 291.225C1319.19 290.108 1320.1 289.202 1321.22 289.202C1322.33 289.202 1323.24 290.108 1323.24 291.225Z" fill="#222222"/>
<path d="M1141.19 311.453C1141.19 312.57 1140.28 313.475 1139.17 313.475C1138.05 313.475 1137.14 312.57 1137.14 311.453C1137.14 310.335 1138.05 309.43 1139.17 309.43C1140.28 309.43 1141.19 310.335 1141.19 311.453Z" fill="#222222"/>
<path d="M1161.42 311.453C1161.42 312.57 1160.51 313.475 1159.4 313.475C1158.28 313.475 1157.37 312.57 1157.37 311.453C1157.37 310.335 1158.28 309.43 1159.4 309.43C1160.51 309.43 1161.42 310.335 1161.42 311.453Z" fill="#222222"/>
<path d="M1181.65 311.453C1181.65 312.57 1180.74 313.475 1179.62 313.475C1178.51 313.475 1177.6 312.57 1177.6 311.453C1177.6 310.335 1178.51 309.43 1179.62 309.43C1180.74 309.43 1181.65 310.335 1181.65 311.453Z" fill="#222222"/>
<path d="M1201.87 311.453C1201.87 312.57 1200.97 313.475 1199.85 313.475C1198.73 313.475 1197.83 312.57 1197.83 311.453C1197.83 310.335 1198.73 309.43 1199.85 309.43C1200.97 309.43 1201.87 310.335 1201.87 311.453Z" fill="#222222"/>
<path d="M1222.1 311.453C1222.1 312.57 1221.19 313.475 1220.08 313.475C1218.96 313.475 1218.05 312.57 1218.05 311.453C1218.05 310.335 1218.96 309.43 1220.08 309.43C1221.19 309.43 1222.1 310.335 1222.1 311.453Z" fill="#222222"/>
<path d="M1242.33 311.453C1242.33 312.57 1241.42 313.475 1240.31 313.475C1239.19 313.475 1238.28 312.57 1238.28 311.453C1238.28 310.335 1239.19 309.43 1240.31 309.43C1241.42 309.43 1242.33 310.335 1242.33 311.453Z" fill="#222222"/>
<path d="M1262.56 311.453C1262.56 312.57 1261.65 313.475 1260.53 313.475C1259.42 313.475 1258.51 312.57 1258.51 311.453C1258.51 310.335 1259.42 309.43 1260.53 309.43C1261.65 309.43 1262.56 310.335 1262.56 311.453Z" fill="#222222"/>
<path d="M1282.78 311.453C1282.78 312.57 1281.88 313.475 1280.76 313.475C1279.64 313.475 1278.74 312.57 1278.74 311.453C1278.74 310.335 1279.64 309.43 1280.76 309.43C1281.88 309.43 1282.78 310.335 1282.78 311.453Z" fill="#222222"/>
<path d="M1303.01 311.453C1303.01 312.57 1302.1 313.475 1300.99 313.475C1299.87 313.475 1298.96 312.57 1298.96 311.453C1298.96 310.335 1299.87 309.43 1300.99 309.43C1302.1 309.43 1303.01 310.335 1303.01 311.453Z" fill="#222222"/>
<path d="M1323.24 311.453C1323.24 312.57 1322.33 313.475 1321.22 313.475C1320.1 313.475 1319.19 312.57 1319.19 311.453C1319.19 310.335 1320.1 309.43 1321.22 309.43C1322.33 309.43 1323.24 310.335 1323.24 311.453Z" fill="#222222"/>
<path d="M1141.19 331.68C1141.19 332.797 1140.28 333.703 1139.17 333.703C1138.05 333.703 1137.14 332.797 1137.14 331.68C1137.14 330.563 1138.05 329.657 1139.17 329.657C1140.28 329.657 1141.19 330.563 1141.19 331.68Z" fill="#222222"/>
<path d="M1161.42 331.68C1161.42 332.797 1160.51 333.703 1159.4 333.703C1158.28 333.703 1157.37 332.797 1157.37 331.68C1157.37 330.563 1158.28 329.657 1159.4 329.657C1160.51 329.657 1161.42 330.563 1161.42 331.68Z" fill="#222222"/>
<path d="M1181.65 331.68C1181.65 332.797 1180.74 333.703 1179.62 333.703C1178.51 333.703 1177.6 332.797 1177.6 331.68C1177.6 330.563 1178.51 329.657 1179.62 329.657C1180.74 329.657 1181.65 330.563 1181.65 331.68Z" fill="#222222"/>
<path d="M1201.87 331.68C1201.87 332.797 1200.97 333.703 1199.85 333.703C1198.73 333.703 1197.83 332.797 1197.83 331.68C1197.83 330.563 1198.73 329.657 1199.85 329.657C1200.97 329.657 1201.87 330.563 1201.87 331.68Z" fill="#222222"/>
<path d="M1222.1 331.68C1222.1 332.797 1221.19 333.703 1220.08 333.703C1218.96 333.703 1218.05 332.797 1218.05 331.68C1218.05 330.563 1218.96 329.657 1220.08 329.657C1221.19 329.657 1222.1 330.563 1222.1 331.68Z" fill="#222222"/>
<path d="M1242.33 331.68C1242.33 332.797 1241.42 333.703 1240.31 333.703C1239.19 333.703 1238.28 332.797 1238.28 331.68C1238.28 330.563 1239.19 329.657 1240.31 329.657C1241.42 329.657 1242.33 330.563 1242.33 331.68Z" fill="#222222"/>
<path d="M1262.56 331.68C1262.56 332.797 1261.65 333.703 1260.53 333.703C1259.42 333.703 1258.51 332.797 1258.51 331.68C1258.51 330.563 1259.42 329.657 1260.53 329.657C1261.65 329.657 1262.56 330.563 1262.56 331.68Z" fill="#222222"/>
<path d="M1282.78 331.68C1282.78 332.797 1281.88 333.703 1280.76 333.703C1279.64 333.703 1278.74 332.797 1278.74 331.68C1278.74 330.563 1279.64 329.657 1280.76 329.657C1281.88 329.657 1282.78 330.563 1282.78 331.68Z" fill="#222222"/>
<path d="M1303.01 331.68C1303.01 332.797 1302.1 333.703 1300.99 333.703C1299.87 333.703 1298.96 332.797 1298.96 331.68C1298.96 330.563 1299.87 329.657 1300.99 329.657C1302.1 329.657 1303.01 330.563 1303.01 331.68Z" fill="#222222"/>
<path d="M1323.24 331.68C1323.24 332.797 1322.33 333.703 1321.22 333.703C1320.1 333.703 1319.19 332.797 1319.19 331.68C1319.19 330.563 1320.1 329.657 1321.22 329.657C1322.33 329.657 1323.24 330.563 1323.24 331.68Z" fill="#222222"/>
<path d="M1141.19 351.908C1141.19 353.025 1140.28 353.93 1139.17 353.93C1138.05 353.93 1137.14 353.025 1137.14 351.908C1137.14 350.791 1138.05 349.885 1139.17 349.885C1140.28 349.885 1141.19 350.791 1141.19 351.908Z" fill="#222222"/>
<path d="M1161.42 351.908C1161.42 353.025 1160.51 353.93 1159.4 353.93C1158.28 353.93 1157.37 353.025 1157.37 351.908C1157.37 350.79 1158.28 349.885 1159.4 349.885C1160.51 349.885 1161.42 350.79 1161.42 351.908Z" fill="#222222"/>
<path d="M1181.65 351.908C1181.65 353.025 1180.74 353.93 1179.62 353.93C1178.51 353.93 1177.6 353.025 1177.6 351.908C1177.6 350.79 1178.51 349.885 1179.62 349.885C1180.74 349.885 1181.65 350.79 1181.65 351.908Z" fill="#222222"/>
<path d="M1201.87 351.908C1201.87 353.025 1200.97 353.93 1199.85 353.93C1198.73 353.93 1197.83 353.025 1197.83 351.908C1197.83 350.79 1198.73 349.885 1199.85 349.885C1200.97 349.885 1201.87 350.79 1201.87 351.908Z" fill="#222222"/>
<path d="M1222.1 351.908C1222.1 353.025 1221.19 353.93 1220.08 353.93C1218.96 353.93 1218.05 353.025 1218.05 351.908C1218.05 350.79 1218.96 349.885 1220.08 349.885C1221.19 349.885 1222.1 350.79 1222.1 351.908Z" fill="#222222"/>
<path d="M1242.33 351.908C1242.33 353.025 1241.42 353.93 1240.31 353.93C1239.19 353.93 1238.28 353.025 1238.28 351.908C1238.28 350.79 1239.19 349.885 1240.31 349.885C1241.42 349.885 1242.33 350.79 1242.33 351.908Z" fill="#222222"/>
<path d="M1262.56 351.908C1262.56 353.025 1261.65 353.93 1260.53 353.93C1259.42 353.93 1258.51 353.025 1258.51 351.908C1258.51 350.79 1259.42 349.885 1260.53 349.885C1261.65 349.885 1262.56 350.79 1262.56 351.908Z" fill="#222222"/>
<path d="M1282.78 351.908C1282.78 353.025 1281.88 353.93 1280.76 353.93C1279.64 353.93 1278.74 353.025 1278.74 351.908C1278.74 350.79 1279.64 349.885 1280.76 349.885C1281.88 349.885 1282.78 350.79 1282.78 351.908Z" fill="#222222"/>
<path d="M1303.01 351.908C1303.01 353.025 1302.1 353.93 1300.99 353.93C1299.87 353.93 1298.96 353.025 1298.96 351.908C1298.96 350.79 1299.87 349.885 1300.99 349.885C1302.1 349.885 1303.01 350.79 1303.01 351.908Z" fill="#222222"/>
<path d="M1323.24 351.908C1323.24 353.025 1322.33 353.93 1321.22 353.93C1320.1 353.93 1319.19 353.025 1319.19 351.908C1319.19 350.79 1320.1 349.885 1321.22 349.885C1322.33 349.885 1323.24 350.79 1323.24 351.908Z" fill="#222222"/>
<path d="M1141.19 372.135C1141.19 373.252 1140.28 374.158 1139.17 374.158C1138.05 374.158 1137.14 373.252 1137.14 372.135C1137.14 371.018 1138.05 370.112 1139.17 370.112C1140.28 370.112 1141.19 371.018 1141.19 372.135Z" fill="#222222"/>
<path d="M1161.42 372.135C1161.42 373.252 1160.51 374.158 1159.4 374.158C1158.28 374.158 1157.37 373.252 1157.37 372.135C1157.37 371.018 1158.28 370.112 1159.4 370.112C1160.51 370.112 1161.42 371.018 1161.42 372.135Z" fill="#222222"/>
<path d="M1181.65 372.135C1181.65 373.252 1180.74 374.158 1179.62 374.158C1178.51 374.158 1177.6 373.252 1177.6 372.135C1177.6 371.018 1178.51 370.112 1179.62 370.112C1180.74 370.112 1181.65 371.018 1181.65 372.135Z" fill="#222222"/>
<path d="M1201.87 372.135C1201.87 373.252 1200.97 374.158 1199.85 374.158C1198.73 374.158 1197.83 373.252 1197.83 372.135C1197.83 371.018 1198.73 370.112 1199.85 370.112C1200.97 370.112 1201.87 371.018 1201.87 372.135Z" fill="#222222"/>
<path d="M1222.1 372.135C1222.1 373.252 1221.19 374.158 1220.08 374.158C1218.96 374.158 1218.05 373.252 1218.05 372.135C1218.05 371.018 1218.96 370.112 1220.08 370.112C1221.19 370.112 1222.1 371.018 1222.1 372.135Z" fill="#222222"/>
<path d="M1242.33 372.135C1242.33 373.252 1241.42 374.158 1240.31 374.158C1239.19 374.158 1238.28 373.252 1238.28 372.135C1238.28 371.018 1239.19 370.112 1240.31 370.112C1241.42 370.112 1242.33 371.018 1242.33 372.135Z" fill="#222222"/>
<path d="M1262.56 372.135C1262.56 373.252 1261.65 374.158 1260.53 374.158C1259.42 374.158 1258.51 373.252 1258.51 372.135C1258.51 371.018 1259.42 370.112 1260.53 370.112C1261.65 370.112 1262.56 371.018 1262.56 372.135Z" fill="#222222"/>
<path d="M1282.78 372.135C1282.78 373.252 1281.88 374.158 1280.76 374.158C1279.64 374.158 1278.74 373.252 1278.74 372.135C1278.74 371.018 1279.64 370.112 1280.76 370.112C1281.88 370.112 1282.78 371.018 1282.78 372.135Z" fill="#222222"/>
<path d="M1303.01 372.135C1303.01 373.252 1302.1 374.158 1300.99 374.158C1299.87 374.158 1298.96 373.252 1298.96 372.135C1298.96 371.018 1299.87 370.112 1300.99 370.112C1302.1 370.112 1303.01 371.018 1303.01 372.135Z" fill="#222222"/>
<path d="M1323.24 372.135C1323.24 373.252 1322.33 374.158 1321.22 374.158C1320.1 374.158 1319.19 373.252 1319.19 372.135C1319.19 371.018 1320.1 370.112 1321.22 370.112C1322.33 370.112 1323.24 371.018 1323.24 372.135Z" fill="#222222"/>
<path d="M1141.19 392.363C1141.19 393.48 1140.28 394.385 1139.17 394.385C1138.05 394.385 1137.14 393.48 1137.14 392.363C1137.14 391.246 1138.05 390.34 1139.17 390.34C1140.28 390.34 1141.19 391.246 1141.19 392.363Z" fill="#222222"/>
<path d="M1161.42 392.363C1161.42 393.48 1160.51 394.385 1159.4 394.385C1158.28 394.385 1157.37 393.48 1157.37 392.363C1157.37 391.246 1158.28 390.34 1159.4 390.34C1160.51 390.34 1161.42 391.246 1161.42 392.363Z" fill="#222222"/>
<path d="M1181.65 392.363C1181.65 393.48 1180.74 394.385 1179.62 394.385C1178.51 394.385 1177.6 393.48 1177.6 392.363C1177.6 391.246 1178.51 390.34 1179.62 390.34C1180.74 390.34 1181.65 391.246 1181.65 392.363Z" fill="#222222"/>
<path d="M1201.87 392.363C1201.87 393.48 1200.97 394.385 1199.85 394.385C1198.73 394.385 1197.83 393.48 1197.83 392.363C1197.83 391.246 1198.73 390.34 1199.85 390.34C1200.97 390.34 1201.87 391.246 1201.87 392.363Z" fill="#222222"/>
<path d="M1222.1 392.363C1222.1 393.48 1221.19 394.385 1220.08 394.385C1218.96 394.385 1218.05 393.48 1218.05 392.363C1218.05 391.246 1218.96 390.34 1220.08 390.34C1221.19 390.34 1222.1 391.246 1222.1 392.363Z" fill="#222222"/>
<path d="M1242.33 392.363C1242.33 393.48 1241.42 394.385 1240.31 394.385C1239.19 394.385 1238.28 393.48 1238.28 392.363C1238.28 391.246 1239.19 390.34 1240.31 390.34C1241.42 390.34 1242.33 391.246 1242.33 392.363Z" fill="#222222"/>
<path d="M1262.56 392.363C1262.56 393.48 1261.65 394.385 1260.53 394.385C1259.42 394.385 1258.51 393.48 1258.51 392.363C1258.51 391.246 1259.42 390.34 1260.53 390.34C1261.65 390.34 1262.56 391.246 1262.56 392.363Z" fill="#222222"/>
<path d="M1282.78 392.363C1282.78 393.48 1281.88 394.385 1280.76 394.385C1279.64 394.385 1278.74 393.48 1278.74 392.363C1278.74 391.246 1279.64 390.34 1280.76 390.34C1281.88 390.34 1282.78 391.246 1282.78 392.363Z" fill="#222222"/>
<path d="M1303.01 392.363C1303.01 393.48 1302.1 394.385 1300.99 394.385C1299.87 394.385 1298.96 393.48 1298.96 392.363C1298.96 391.246 1299.87 390.34 1300.99 390.34C1302.1 390.34 1303.01 391.246 1303.01 392.363Z" fill="#222222"/>
<path d="M1323.24 392.363C1323.24 393.48 1322.33 394.385 1321.22 394.385C1320.1 394.385 1319.19 393.48 1319.19 392.363C1319.19 391.246 1320.1 390.34 1321.22 390.34C1322.33 390.34 1323.24 391.246 1323.24 392.363Z" fill="#222222"/>
<path d="M1141.19 412.59C1141.19 413.707 1140.28 414.613 1139.17 414.613C1138.05 414.613 1137.14 413.707 1137.14 412.59C1137.14 411.473 1138.05 410.567 1139.17 410.567C1140.28 410.567 1141.19 411.473 1141.19 412.59Z" fill="#222222"/>
<path d="M1161.42 412.59C1161.42 413.707 1160.51 414.613 1159.4 414.613C1158.28 414.613 1157.37 413.707 1157.37 412.59C1157.37 411.473 1158.28 410.567 1159.4 410.567C1160.51 410.567 1161.42 411.473 1161.42 412.59Z" fill="#222222"/>
<path d="M1181.65 412.59C1181.65 413.707 1180.74 414.613 1179.62 414.613C1178.51 414.613 1177.6 413.707 1177.6 412.59C1177.6 411.473 1178.51 410.567 1179.62 410.567C1180.74 410.567 1181.65 411.473 1181.65 412.59Z" fill="#222222"/>
<path d="M1201.87 412.59C1201.87 413.707 1200.97 414.613 1199.85 414.613C1198.73 414.613 1197.83 413.707 1197.83 412.59C1197.83 411.473 1198.73 410.567 1199.85 410.567C1200.97 410.567 1201.87 411.473 1201.87 412.59Z" fill="#222222"/>
<path d="M1222.1 412.59C1222.1 413.707 1221.19 414.613 1220.08 414.613C1218.96 414.613 1218.05 413.707 1218.05 412.59C1218.05 411.473 1218.96 410.567 1220.08 410.567C1221.19 410.567 1222.1 411.473 1222.1 412.59Z" fill="#222222"/>
<path d="M1242.33 412.59C1242.33 413.707 1241.42 414.613 1240.31 414.613C1239.19 414.613 1238.28 413.707 1238.28 412.59C1238.28 411.473 1239.19 410.567 1240.31 410.567C1241.42 410.567 1242.33 411.473 1242.33 412.59Z" fill="#222222"/>
<path d="M1262.56 412.59C1262.56 413.707 1261.65 414.613 1260.53 414.613C1259.42 414.613 1258.51 413.707 1258.51 412.59C1258.51 411.473 1259.42 410.567 1260.53 410.567C1261.65 410.567 1262.56 411.473 1262.56 412.59Z" fill="#222222"/>
<path d="M1282.78 412.59C1282.78 413.707 1281.88 414.613 1280.76 414.613C1279.64 414.613 1278.74 413.707 1278.74 412.59C1278.74 411.473 1279.64 410.567 1280.76 410.567C1281.88 410.567 1282.78 411.473 1282.78 412.59Z" fill="#222222"/>
<path d="M1303.01 412.59C1303.01 413.707 1302.1 414.613 1300.99 414.613C1299.87 414.613 1298.96 413.707 1298.96 412.59C1298.96 411.473 1299.87 410.567 1300.99 410.567C1302.1 410.567 1303.01 411.473 1303.01 412.59Z" fill="#222222"/>
<path d="M1323.24 412.59C1323.24 413.707 1322.33 414.613 1321.22 414.613C1320.1 414.613 1319.19 413.707 1319.19 412.59C1319.19 411.473 1320.1 410.567 1321.22 410.567C1322.33 410.567 1323.24 411.473 1323.24 412.59Z" fill="#222222"/>
<path d="M1141.19 432.818C1141.19 433.935 1140.28 434.84 1139.17 434.84C1138.05 434.84 1137.14 433.935 1137.14 432.818C1137.14 431.701 1138.05 430.795 1139.17 430.795C1140.28 430.795 1141.19 431.701 1141.19 432.818Z" fill="#222222"/>
<path d="M1161.42 432.818C1161.42 433.935 1160.51 434.84 1159.4 434.84C1158.28 434.84 1157.37 433.935 1157.37 432.818C1157.37 431.701 1158.28 430.795 1159.4 430.795C1160.51 430.795 1161.42 431.701 1161.42 432.818Z" fill="#222222"/>
<path d="M1181.65 432.818C1181.65 433.935 1180.74 434.84 1179.62 434.84C1178.51 434.84 1177.6 433.935 1177.6 432.818C1177.6 431.701 1178.51 430.795 1179.62 430.795C1180.74 430.795 1181.65 431.701 1181.65 432.818Z" fill="#222222"/>
<path d="M1201.87 432.818C1201.87 433.935 1200.97 434.84 1199.85 434.84C1198.73 434.84 1197.83 433.935 1197.83 432.818C1197.83 431.701 1198.73 430.795 1199.85 430.795C1200.97 430.795 1201.87 431.701 1201.87 432.818Z" fill="#222222"/>
<path d="M1222.1 432.818C1222.1 433.935 1221.19 434.84 1220.08 434.84C1218.96 434.84 1218.05 433.935 1218.05 432.818C1218.05 431.701 1218.96 430.795 1220.08 430.795C1221.19 430.795 1222.1 431.701 1222.1 432.818Z" fill="#222222"/>
<path d="M1242.33 432.818C1242.33 433.935 1241.42 434.84 1240.31 434.84C1239.19 434.84 1238.28 433.935 1238.28 432.818C1238.28 431.701 1239.19 430.795 1240.31 430.795C1241.42 430.795 1242.33 431.701 1242.33 432.818Z" fill="#222222"/>
<path d="M1262.56 432.818C1262.56 433.935 1261.65 434.84 1260.53 434.84C1259.42 434.84 1258.51 433.935 1258.51 432.818C1258.51 431.701 1259.42 430.795 1260.53 430.795C1261.65 430.795 1262.56 431.701 1262.56 432.818Z" fill="#222222"/>
<path d="M1282.78 432.818C1282.78 433.935 1281.88 434.84 1280.76 434.84C1279.64 434.84 1278.74 433.935 1278.74 432.818C1278.74 431.701 1279.64 430.795 1280.76 430.795C1281.88 430.795 1282.78 431.701 1282.78 432.818Z" fill="#222222"/>
<path d="M1303.01 432.818C1303.01 433.935 1302.1 434.84 1300.99 434.84C1299.87 434.84 1298.96 433.935 1298.96 432.818C1298.96 431.701 1299.87 430.795 1300.99 430.795C1302.1 430.795 1303.01 431.701 1303.01 432.818Z" fill="#222222"/>
<path d="M1323.24 432.818C1323.24 433.935 1322.33 434.84 1321.22 434.84C1320.1 434.84 1319.19 433.935 1319.19 432.818C1319.19 431.701 1320.1 430.795 1321.22 430.795C1322.33 430.795 1323.24 431.701 1323.24 432.818Z" fill="#222222"/>
<path d="M1141.19 453.045C1141.19 454.162 1140.28 455.068 1139.17 455.068C1138.05 455.068 1137.14 454.162 1137.14 453.045C1137.14 451.928 1138.05 451.022 1139.17 451.022C1140.28 451.022 1141.19 451.928 1141.19 453.045Z" fill="#222222"/>
<path d="M1161.42 453.045C1161.42 454.162 1160.51 455.068 1159.4 455.068C1158.28 455.068 1157.37 454.162 1157.37 453.045C1157.37 451.928 1158.28 451.022 1159.4 451.022C1160.51 451.022 1161.42 451.928 1161.42 453.045Z" fill="#222222"/>
<path d="M1181.65 453.045C1181.65 454.162 1180.74 455.068 1179.62 455.068C1178.51 455.068 1177.6 454.162 1177.6 453.045C1177.6 451.928 1178.51 451.022 1179.62 451.022C1180.74 451.022 1181.65 451.928 1181.65 453.045Z" fill="#222222"/>
<path d="M1201.87 453.045C1201.87 454.162 1200.97 455.068 1199.85 455.068C1198.73 455.068 1197.83 454.162 1197.83 453.045C1197.83 451.928 1198.73 451.022 1199.85 451.022C1200.97 451.022 1201.87 451.928 1201.87 453.045Z" fill="#222222"/>
<path d="M1222.1 453.045C1222.1 454.162 1221.19 455.068 1220.08 455.068C1218.96 455.068 1218.05 454.162 1218.05 453.045C1218.05 451.928 1218.96 451.022 1220.08 451.022C1221.19 451.022 1222.1 451.928 1222.1 453.045Z" fill="#222222"/>
<path d="M1242.33 453.045C1242.33 454.162 1241.42 455.068 1240.31 455.068C1239.19 455.068 1238.28 454.162 1238.28 453.045C1238.28 451.928 1239.19 451.022 1240.31 451.022C1241.42 451.022 1242.33 451.928 1242.33 453.045Z" fill="#222222"/>
<path d="M1262.56 453.045C1262.56 454.162 1261.65 455.068 1260.53 455.068C1259.42 455.068 1258.51 454.162 1258.51 453.045C1258.51 451.928 1259.42 451.022 1260.53 451.022C1261.65 451.022 1262.56 451.928 1262.56 453.045Z" fill="#222222"/>
<path d="M1282.78 453.045C1282.78 454.162 1281.88 455.068 1280.76 455.068C1279.64 455.068 1278.74 454.162 1278.74 453.045C1278.74 451.928 1279.64 451.022 1280.76 451.022C1281.88 451.022 1282.78 451.928 1282.78 453.045Z" fill="#222222"/>
<path d="M1303.01 453.045C1303.01 454.162 1302.1 455.068 1300.99 455.068C1299.87 455.068 1298.96 454.162 1298.96 453.045C1298.96 451.928 1299.87 451.022 1300.99 451.022C1302.1 451.022 1303.01 451.928 1303.01 453.045Z" fill="#222222"/>
<path d="M1323.24 453.045C1323.24 454.162 1322.33 455.068 1321.22 455.068C1320.1 455.068 1319.19 454.162 1319.19 453.045C1319.19 451.928 1320.1 451.022 1321.22 451.022C1322.33 451.022 1323.24 451.928 1323.24 453.045Z" fill="#222222"/>
<path d="M1141.19 473.273C1141.19 474.39 1140.28 475.295 1139.17 475.295C1138.05 475.295 1137.14 474.39 1137.14 473.273C1137.14 472.156 1138.05 471.25 1139.17 471.25C1140.28 471.25 1141.19 472.156 1141.19 473.273Z" fill="#222222"/>
<path d="M1161.42 473.273C1161.42 474.39 1160.51 475.296 1159.4 475.296C1158.28 475.296 1157.37 474.39 1157.37 473.273C1157.37 472.156 1158.28 471.25 1159.4 471.25C1160.51 471.25 1161.42 472.156 1161.42 473.273Z" fill="#222222"/>
<path d="M1181.65 473.273C1181.65 474.39 1180.74 475.296 1179.62 475.296C1178.51 475.296 1177.6 474.39 1177.6 473.273C1177.6 472.156 1178.51 471.25 1179.62 471.25C1180.74 471.25 1181.65 472.156 1181.65 473.273Z" fill="#222222"/>
<path d="M1201.87 473.273C1201.87 474.39 1200.97 475.296 1199.85 475.296C1198.73 475.296 1197.83 474.39 1197.83 473.273C1197.83 472.156 1198.73 471.25 1199.85 471.25C1200.97 471.25 1201.87 472.156 1201.87 473.273Z" fill="#222222"/>
<path d="M1222.1 473.273C1222.1 474.39 1221.19 475.296 1220.08 475.296C1218.96 475.296 1218.05 474.39 1218.05 473.273C1218.05 472.156 1218.96 471.25 1220.08 471.25C1221.19 471.25 1222.1 472.156 1222.1 473.273Z" fill="#222222"/>
<path d="M1242.33 473.273C1242.33 474.39 1241.42 475.296 1240.31 475.296C1239.19 475.296 1238.28 474.39 1238.28 473.273C1238.28 472.156 1239.19 471.25 1240.31 471.25C1241.42 471.25 1242.33 472.156 1242.33 473.273Z" fill="#222222"/>
<path d="M1262.56 473.273C1262.56 474.39 1261.65 475.296 1260.53 475.296C1259.42 475.296 1258.51 474.39 1258.51 473.273C1258.51 472.156 1259.42 471.25 1260.53 471.25C1261.65 471.25 1262.56 472.156 1262.56 473.273Z" fill="#222222"/>
<path d="M1282.78 473.273C1282.78 474.39 1281.88 475.296 1280.76 475.296C1279.64 475.296 1278.74 474.39 1278.74 473.273C1278.74 472.156 1279.64 471.25 1280.76 471.25C1281.88 471.25 1282.78 472.156 1282.78 473.273Z" fill="#222222"/>
<path d="M1303.01 473.273C1303.01 474.39 1302.1 475.296 1300.99 475.296C1299.87 475.296 1298.96 474.39 1298.96 473.273C1298.96 472.156 1299.87 471.25 1300.99 471.25C1302.1 471.25 1303.01 472.156 1303.01 473.273Z" fill="#222222"/>
<path d="M1323.24 473.273C1323.24 474.39 1322.33 475.296 1321.22 475.296C1320.1 475.296 1319.19 474.39 1319.19 473.273C1319.19 472.156 1320.1 471.25 1321.22 471.25C1322.33 471.25 1323.24 472.156 1323.24 473.273Z" fill="#222222"/>
<path d="M1141.19 493.5C1141.19 494.617 1140.28 495.523 1139.17 495.523C1138.05 495.523 1137.14 494.617 1137.14 493.5C1137.14 492.383 1138.05 491.478 1139.17 491.478C1140.28 491.478 1141.19 492.383 1141.19 493.5Z" fill="#222222"/>
<path d="M1161.42 493.5C1161.42 494.617 1160.51 495.523 1159.4 495.523C1158.28 495.523 1157.37 494.617 1157.37 493.5C1157.37 492.383 1158.28 491.478 1159.4 491.478C1160.51 491.478 1161.42 492.383 1161.42 493.5Z" fill="#222222"/>
<path d="M1181.65 493.5C1181.65 494.617 1180.74 495.523 1179.62 495.523C1178.51 495.523 1177.6 494.617 1177.6 493.5C1177.6 492.383 1178.51 491.478 1179.62 491.478C1180.74 491.478 1181.65 492.383 1181.65 493.5Z" fill="#222222"/>
<path d="M1201.87 493.5C1201.87 494.617 1200.97 495.523 1199.85 495.523C1198.73 495.523 1197.83 494.617 1197.83 493.5C1197.83 492.383 1198.73 491.478 1199.85 491.478C1200.97 491.478 1201.87 492.383 1201.87 493.5Z" fill="#222222"/>
<path d="M1222.1 493.5C1222.1 494.617 1221.19 495.523 1220.08 495.523C1218.96 495.523 1218.05 494.617 1218.05 493.5C1218.05 492.383 1218.96 491.478 1220.08 491.478C1221.19 491.478 1222.1 492.383 1222.1 493.5Z" fill="#222222"/>
<path d="M1242.33 493.5C1242.33 494.617 1241.42 495.523 1240.31 495.523C1239.19 495.523 1238.28 494.617 1238.28 493.5C1238.28 492.383 1239.19 491.478 1240.31 491.478C1241.42 491.478 1242.33 492.383 1242.33 493.5Z" fill="#222222"/>
<path d="M1262.56 493.5C1262.56 494.617 1261.65 495.523 1260.53 495.523C1259.42 495.523 1258.51 494.617 1258.51 493.5C1258.51 492.383 1259.42 491.478 1260.53 491.478C1261.65 491.478 1262.56 492.383 1262.56 493.5Z" fill="#222222"/>
<path d="M1282.78 493.5C1282.78 494.617 1281.88 495.523 1280.76 495.523C1279.64 495.523 1278.74 494.617 1278.74 493.5C1278.74 492.383 1279.64 491.478 1280.76 491.478C1281.88 491.478 1282.78 492.383 1282.78 493.5Z" fill="#222222"/>
<path d="M1303.01 493.5C1303.01 494.617 1302.1 495.523 1300.99 495.523C1299.87 495.523 1298.96 494.617 1298.96 493.5C1298.96 492.383 1299.87 491.478 1300.99 491.478C1302.1 491.478 1303.01 492.383 1303.01 493.5Z" fill="#222222"/>
<path d="M1323.24 493.5C1323.24 494.617 1322.33 495.523 1321.22 495.523C1320.1 495.523 1319.19 494.617 1319.19 493.5C1319.19 492.383 1320.1 491.478 1321.22 491.478C1322.33 491.478 1323.24 492.383 1323.24 493.5Z" fill="#222222"/>
<path d="M1141.19 513.728C1141.19 514.845 1140.28 515.751 1139.17 515.751C1138.05 515.751 1137.14 514.845 1137.14 513.728C1137.14 512.611 1138.05 511.705 1139.17 511.705C1140.28 511.705 1141.19 512.611 1141.19 513.728Z" fill="#222222"/>
<path d="M1161.42 513.728C1161.42 514.845 1160.51 515.751 1159.4 515.751C1158.28 515.751 1157.37 514.845 1157.37 513.728C1157.37 512.611 1158.28 511.705 1159.4 511.705C1160.51 511.705 1161.42 512.611 1161.42 513.728Z" fill="#222222"/>
<path d="M1181.65 513.728C1181.65 514.845 1180.74 515.751 1179.62 515.751C1178.51 515.751 1177.6 514.845 1177.6 513.728C1177.6 512.611 1178.51 511.705 1179.62 511.705C1180.74 511.705 1181.65 512.611 1181.65 513.728Z" fill="#222222"/>
<path d="M1201.87 513.728C1201.87 514.845 1200.97 515.751 1199.85 515.751C1198.73 515.751 1197.83 514.845 1197.83 513.728C1197.83 512.611 1198.73 511.705 1199.85 511.705C1200.97 511.705 1201.87 512.611 1201.87 513.728Z" fill="#222222"/>
<path d="M1222.1 513.728C1222.1 514.845 1221.19 515.751 1220.08 515.751C1218.96 515.751 1218.05 514.845 1218.05 513.728C1218.05 512.611 1218.96 511.705 1220.08 511.705C1221.19 511.705 1222.1 512.611 1222.1 513.728Z" fill="#222222"/>
<path d="M1242.33 513.728C1242.33 514.845 1241.42 515.751 1240.31 515.751C1239.19 515.751 1238.28 514.845 1238.28 513.728C1238.28 512.611 1239.19 511.705 1240.31 511.705C1241.42 511.705 1242.33 512.611 1242.33 513.728Z" fill="#222222"/>
<path d="M1262.56 513.728C1262.56 514.845 1261.65 515.751 1260.53 515.751C1259.42 515.751 1258.51 514.845 1258.51 513.728C1258.51 512.611 1259.42 511.705 1260.53 511.705C1261.65 511.705 1262.56 512.611 1262.56 513.728Z" fill="#222222"/>
<path d="M1282.78 513.728C1282.78 514.845 1281.88 515.751 1280.76 515.751C1279.64 515.751 1278.74 514.845 1278.74 513.728C1278.74 512.611 1279.64 511.705 1280.76 511.705C1281.88 511.705 1282.78 512.611 1282.78 513.728Z" fill="#222222"/>
<path d="M1303.01 513.728C1303.01 514.845 1302.1 515.751 1300.99 515.751C1299.87 515.751 1298.96 514.845 1298.96 513.728C1298.96 512.611 1299.87 511.705 1300.99 511.705C1302.1 511.705 1303.01 512.611 1303.01 513.728Z" fill="#222222"/>
<path d="M1323.24 513.728C1323.24 514.845 1322.33 515.751 1321.22 515.751C1320.1 515.751 1319.19 514.845 1319.19 513.728C1319.19 512.611 1320.1 511.705 1321.22 511.705C1322.33 511.705 1323.24 512.611 1323.24 513.728Z" fill="#222222"/>
<path d="M1141.19 533.955C1141.19 535.072 1140.28 535.978 1139.17 535.978C1138.05 535.978 1137.14 535.072 1137.14 533.955C1137.14 532.838 1138.05 531.933 1139.17 531.933C1140.28 531.933 1141.19 532.838 1141.19 533.955Z" fill="#222222"/>
<path d="M1161.42 533.955C1161.42 535.072 1160.51 535.978 1159.4 535.978C1158.28 535.978 1157.37 535.072 1157.37 533.955C1157.37 532.838 1158.28 531.933 1159.4 531.933C1160.51 531.933 1161.42 532.838 1161.42 533.955Z" fill="#222222"/>
<path d="M1181.65 533.955C1181.65 535.072 1180.74 535.978 1179.62 535.978C1178.51 535.978 1177.6 535.072 1177.6 533.955C1177.6 532.838 1178.51 531.933 1179.62 531.933C1180.74 531.933 1181.65 532.838 1181.65 533.955Z" fill="#222222"/>
<path d="M1201.87 533.955C1201.87 535.072 1200.97 535.978 1199.85 535.978C1198.73 535.978 1197.83 535.072 1197.83 533.955C1197.83 532.838 1198.73 531.933 1199.85 531.933C1200.97 531.933 1201.87 532.838 1201.87 533.955Z" fill="#222222"/>
<path d="M1222.1 533.955C1222.1 535.072 1221.19 535.978 1220.08 535.978C1218.96 535.978 1218.05 535.072 1218.05 533.955C1218.05 532.838 1218.96 531.933 1220.08 531.933C1221.19 531.933 1222.1 532.838 1222.1 533.955Z" fill="#222222"/>
<path d="M1242.33 533.955C1242.33 535.072 1241.42 535.978 1240.31 535.978C1239.19 535.978 1238.28 535.072 1238.28 533.955C1238.28 532.838 1239.19 531.933 1240.31 531.933C1241.42 531.933 1242.33 532.838 1242.33 533.955Z" fill="#222222"/>
<path d="M1262.56 533.955C1262.56 535.072 1261.65 535.978 1260.53 535.978C1259.42 535.978 1258.51 535.072 1258.51 533.955C1258.51 532.838 1259.42 531.933 1260.53 531.933C1261.65 531.933 1262.56 532.838 1262.56 533.955Z" fill="#222222"/>
<path d="M1282.78 533.955C1282.78 535.072 1281.88 535.978 1280.76 535.978C1279.64 535.978 1278.74 535.072 1278.74 533.955C1278.74 532.838 1279.64 531.933 1280.76 531.933C1281.88 531.933 1282.78 532.838 1282.78 533.955Z" fill="#222222"/>
<path d="M1303.01 533.955C1303.01 535.072 1302.1 535.978 1300.99 535.978C1299.87 535.978 1298.96 535.072 1298.96 533.955C1298.96 532.838 1299.87 531.933 1300.99 531.933C1302.1 531.933 1303.01 532.838 1303.01 533.955Z" fill="#222222"/>
<path d="M1323.24 533.955C1323.24 535.072 1322.33 535.978 1321.22 535.978C1320.1 535.978 1319.19 535.072 1319.19 533.955C1319.19 532.838 1320.1 531.933 1321.22 531.933C1322.33 531.933 1323.24 532.838 1323.24 533.955Z" fill="#222222"/>
<path d="M1141.19 554.183C1141.19 555.3 1140.28 556.206 1139.17 556.206C1138.05 556.206 1137.14 555.3 1137.14 554.183C1137.14 553.066 1138.05 552.16 1139.17 552.16C1140.28 552.16 1141.19 553.066 1141.19 554.183Z" fill="#222222"/>
<path d="M1161.42 554.183C1161.42 555.3 1160.51 556.206 1159.4 556.206C1158.28 556.206 1157.37 555.3 1157.37 554.183C1157.37 553.066 1158.28 552.16 1159.4 552.16C1160.51 552.16 1161.42 553.066 1161.42 554.183Z" fill="#222222"/>
<path d="M1181.65 554.183C1181.65 555.3 1180.74 556.206 1179.62 556.206C1178.51 556.206 1177.6 555.3 1177.6 554.183C1177.6 553.066 1178.51 552.16 1179.62 552.16C1180.74 552.16 1181.65 553.066 1181.65 554.183Z" fill="#222222"/>
<path d="M1201.87 554.183C1201.87 555.3 1200.97 556.206 1199.85 556.206C1198.73 556.206 1197.83 555.3 1197.83 554.183C1197.83 553.066 1198.73 552.16 1199.85 552.16C1200.97 552.16 1201.87 553.066 1201.87 554.183Z" fill="#222222"/>
<path d="M1222.1 554.183C1222.1 555.3 1221.19 556.206 1220.08 556.206C1218.96 556.206 1218.05 555.3 1218.05 554.183C1218.05 553.066 1218.96 552.16 1220.08 552.16C1221.19 552.16 1222.1 553.066 1222.1 554.183Z" fill="#222222"/>
<path d="M1242.33 554.183C1242.33 555.3 1241.42 556.206 1240.31 556.206C1239.19 556.206 1238.28 555.3 1238.28 554.183C1238.28 553.066 1239.19 552.16 1240.31 552.16C1241.42 552.16 1242.33 553.066 1242.33 554.183Z" fill="#222222"/>
<path d="M1262.56 554.183C1262.56 555.3 1261.65 556.206 1260.53 556.206C1259.42 556.206 1258.51 555.3 1258.51 554.183C1258.51 553.066 1259.42 552.16 1260.53 552.16C1261.65 552.16 1262.56 553.066 1262.56 554.183Z" fill="#222222"/>
<path d="M1282.78 554.183C1282.78 555.3 1281.88 556.206 1280.76 556.206C1279.64 556.206 1278.74 555.3 1278.74 554.183C1278.74 553.066 1279.64 552.16 1280.76 552.16C1281.88 552.16 1282.78 553.066 1282.78 554.183Z" fill="#222222"/>
<path d="M1303.01 554.183C1303.01 555.3 1302.1 556.206 1300.99 556.206C1299.87 556.206 1298.96 555.3 1298.96 554.183C1298.96 553.066 1299.87 552.16 1300.99 552.16C1302.1 552.16 1303.01 553.066 1303.01 554.183Z" fill="#222222"/>
<path d="M1323.24 554.183C1323.24 555.3 1322.33 556.206 1321.22 556.206C1320.1 556.206 1319.19 555.3 1319.19 554.183C1319.19 553.066 1320.1 552.16 1321.22 552.16C1322.33 552.16 1323.24 553.066 1323.24 554.183Z" fill="#222222"/>
<path d="M1141.19 574.41C1141.19 575.528 1140.28 576.433 1139.17 576.433C1138.05 576.433 1137.14 575.528 1137.14 574.41C1137.14 573.293 1138.05 572.388 1139.17 572.388C1140.28 572.388 1141.19 573.293 1141.19 574.41Z" fill="#222222"/>
<path d="M1161.42 574.41C1161.42 575.528 1160.51 576.433 1159.4 576.433C1158.28 576.433 1157.37 575.528 1157.37 574.41C1157.37 573.293 1158.28 572.388 1159.4 572.388C1160.51 572.388 1161.42 573.293 1161.42 574.41Z" fill="#222222"/>
<path d="M1181.65 574.41C1181.65 575.528 1180.74 576.433 1179.62 576.433C1178.51 576.433 1177.6 575.528 1177.6 574.41C1177.6 573.293 1178.51 572.388 1179.62 572.388C1180.74 572.388 1181.65 573.293 1181.65 574.41Z" fill="#222222"/>
<path d="M1201.87 574.41C1201.87 575.528 1200.97 576.433 1199.85 576.433C1198.73 576.433 1197.83 575.528 1197.83 574.41C1197.83 573.293 1198.73 572.388 1199.85 572.388C1200.97 572.388 1201.87 573.293 1201.87 574.41Z" fill="#222222"/>
<path d="M1222.1 574.41C1222.1 575.528 1221.19 576.433 1220.08 576.433C1218.96 576.433 1218.05 575.528 1218.05 574.41C1218.05 573.293 1218.96 572.388 1220.08 572.388C1221.19 572.388 1222.1 573.293 1222.1 574.41Z" fill="#222222"/>
<path d="M1242.33 574.41C1242.33 575.528 1241.42 576.433 1240.31 576.433C1239.19 576.433 1238.28 575.528 1238.28 574.41C1238.28 573.293 1239.19 572.388 1240.31 572.388C1241.42 572.388 1242.33 573.293 1242.33 574.41Z" fill="#222222"/>
<path d="M1262.56 574.41C1262.56 575.528 1261.65 576.433 1260.53 576.433C1259.42 576.433 1258.51 575.528 1258.51 574.41C1258.51 573.293 1259.42 572.388 1260.53 572.388C1261.65 572.388 1262.56 573.293 1262.56 574.41Z" fill="#222222"/>
<path d="M1282.78 574.41C1282.78 575.528 1281.88 576.433 1280.76 576.433C1279.64 576.433 1278.74 575.528 1278.74 574.41C1278.74 573.293 1279.64 572.388 1280.76 572.388C1281.88 572.388 1282.78 573.293 1282.78 574.41Z" fill="#222222"/>
<path d="M1303.01 574.41C1303.01 575.528 1302.1 576.433 1300.99 576.433C1299.87 576.433 1298.96 575.528 1298.96 574.41C1298.96 573.293 1299.87 572.388 1300.99 572.388C1302.1 572.388 1303.01 573.293 1303.01 574.41Z" fill="#222222"/>
<path d="M1323.24 574.41C1323.24 575.528 1322.33 576.433 1321.22 576.433C1320.1 576.433 1319.19 575.528 1319.19 574.41C1319.19 573.293 1320.1 572.388 1321.22 572.388C1322.33 572.388 1323.24 573.293 1323.24 574.41Z" fill="#222222"/>
<path d="M1141.19 594.638C1141.19 595.755 1140.28 596.661 1139.17 596.661C1138.05 596.661 1137.14 595.755 1137.14 594.638C1137.14 593.521 1138.05 592.615 1139.17 592.615C1140.28 592.615 1141.19 593.521 1141.19 594.638Z" fill="#222222"/>
<path d="M1161.42 594.638C1161.42 595.755 1160.51 596.661 1159.4 596.661C1158.28 596.661 1157.37 595.755 1157.37 594.638C1157.37 593.521 1158.28 592.615 1159.4 592.615C1160.51 592.615 1161.42 593.521 1161.42 594.638Z" fill="#222222"/>
<path d="M1181.65 594.638C1181.65 595.755 1180.74 596.661 1179.62 596.661C1178.51 596.661 1177.6 595.755 1177.6 594.638C1177.6 593.521 1178.51 592.615 1179.62 592.615C1180.74 592.615 1181.65 593.521 1181.65 594.638Z" fill="#222222"/>
<path d="M1201.87 594.638C1201.87 595.755 1200.97 596.661 1199.85 596.661C1198.73 596.661 1197.83 595.755 1197.83 594.638C1197.83 593.521 1198.73 592.615 1199.85 592.615C1200.97 592.615 1201.87 593.521 1201.87 594.638Z" fill="#222222"/>
<path d="M1222.1 594.638C1222.1 595.755 1221.19 596.661 1220.08 596.661C1218.96 596.661 1218.05 595.755 1218.05 594.638C1218.05 593.521 1218.96 592.615 1220.08 592.615C1221.19 592.615 1222.1 593.521 1222.1 594.638Z" fill="#222222"/>
<path d="M1242.33 594.638C1242.33 595.755 1241.42 596.661 1240.31 596.661C1239.19 596.661 1238.28 595.755 1238.28 594.638C1238.28 593.521 1239.19 592.615 1240.31 592.615C1241.42 592.615 1242.33 593.521 1242.33 594.638Z" fill="#222222"/>
<path d="M1262.56 594.638C1262.56 595.755 1261.65 596.661 1260.53 596.661C1259.42 596.661 1258.51 595.755 1258.51 594.638C1258.51 593.521 1259.42 592.615 1260.53 592.615C1261.65 592.615 1262.56 593.521 1262.56 594.638Z" fill="#222222"/>
<path d="M1282.78 594.638C1282.78 595.755 1281.88 596.661 1280.76 596.661C1279.64 596.661 1278.74 595.755 1278.74 594.638C1278.74 593.521 1279.64 592.615 1280.76 592.615C1281.88 592.615 1282.78 593.521 1282.78 594.638Z" fill="#222222"/>
<path d="M1303.01 594.638C1303.01 595.755 1302.1 596.661 1300.99 596.661C1299.87 596.661 1298.96 595.755 1298.96 594.638C1298.96 593.521 1299.87 592.615 1300.99 592.615C1302.1 592.615 1303.01 593.521 1303.01 594.638Z" fill="#222222"/>
<path d="M1323.24 594.638C1323.24 595.755 1322.33 596.661 1321.22 596.661C1320.1 596.661 1319.19 595.755 1319.19 594.638C1319.19 593.521 1320.1 592.615 1321.22 592.615C1322.33 592.615 1323.24 593.521 1323.24 594.638Z" fill="#222222"/>
<rect x="878.441" y="166.086" width="412.527" height="412.527" stroke="#222222" stroke-width="5"/>
<path d="M955.513 326.894C956.46 257.733 1001.64 95.5843 1174.8 0.277741C1107.56 49.7484 969.574 184.331 955.513 326.894Z" fill="#222222"/>
<path d="M1042.21 367.204C1024.93 434.179 942.677 581.04 751.891 632.689C828.921 600.524 994.826 502.397 1042.21 367.204Z" fill="#222222"/>
<path d="M531.656 756.507C462.535 753.972 301.467 705.075 210.163 529.775C258.076 598.13 389.454 739.175 531.656 756.507Z" fill="#222222"/>
<path d="M728.981 656.401L633.158 582.355L541.69 650.461L642.661 736.385L728.981 656.401Z" fill="#17E890"/>
<path d="M641.544 753.408L641.544 738.061L541.075 651.689L541.789 663.824L641.544 753.408Z" fill="#D0FAE9"/>
<path fill-rule="evenodd" clip-rule="evenodd" d="M615.664 581.113L713.006 656.332L625.184 737.709L522.597 650.41L615.664 581.113ZM525.773 650.513L625.128 735.062L709.946 656.469L615.642 583.598L525.773 650.513Z" fill="#222222"/>
<path d="M642.615 753.407L642.615 738.06L729.343 657.756L728.986 668.285L642.615 753.407Z" fill="#0B7448"/>
<path d="M420.4 634.438V619.643L269.738 691.568L270.193 709.777L420.4 634.438Z" fill="#777777"/>
<path d="M269.738 690.167L302.565 527.04L419.734 617.946L269.738 690.167Z" fill="#222222"/>
<path fill-rule="evenodd" clip-rule="evenodd" d="M295.867 533.864L415.561 626.73L262.332 700.507L295.867 533.864ZM297.177 537.386L265.057 696.997L411.82 626.334L297.177 537.386Z" fill="#222222"/>
<path d="M206.091 476.499C197.362 508.114 151.002 522.898 102.543 509.519C54.0829 496.14 21.8746 459.665 30.6031 428.049C39.3317 396.434 85.6919 381.651 134.151 395.03C182.611 408.409 214.819 444.884 206.091 476.499Z" fill="#E86217"/>
<path d="M102.542 511.522C151.002 524.901 197.362 510.118 206.091 478.502C206.58 476.732 206.94 474.946 207.176 473.15C207.857 478.512 207.533 483.867 206.091 489.089C197.362 520.705 151.002 535.488 102.542 522.109C56.7968 509.479 25.5331 476.268 29.5174 445.992C32.959 473.088 62.088 500.353 102.542 511.522Z" fill="#74310B"/>
<path fill-rule="evenodd" clip-rule="evenodd" d="M154.237 507.996C172.58 502.146 185.677 490.924 189.805 475.972C193.933 461.021 188.449 444.668 175.705 430.236C162.976 415.821 143.161 403.54 119.247 396.938C95.3336 390.336 72.0248 390.71 53.7025 396.553C35.3596 402.402 22.2623 413.625 18.1344 428.576C14.0064 443.528 19.4906 459.881 32.2341 474.312C44.9635 488.728 64.7785 501.008 88.6922 507.61C112.606 514.213 135.915 513.838 154.237 507.996ZM88.1654 509.519C136.625 522.898 182.985 508.114 191.714 476.499C200.442 444.884 168.234 408.409 119.774 395.03C71.3147 381.651 24.9545 396.434 16.2259 428.049C7.49738 459.665 39.7058 496.14 88.1654 509.519Z" fill="#222222"/>
<path d="M867.205 402.289V388.827L841.467 448.221V460.496L867.205 402.289Z" fill="#0B4274"/>
<path d="M790.289 460.298L712.48 426.223L715.056 433.175L792.071 467.624L790.289 460.298Z" fill="#D1E6FA"/>
<path d="M801.537 430.619L832.849 375.699L865.901 387.627L839.559 450.003L910.384 476.594L899.699 505.918L823.157 474.357L801.04 529.775L763.515 509.149L788.615 458.701L712.571 425.401L724.002 403.78L801.537 430.619Z" fill="#1784E8"/>
<path d="M801.346 538.214L800.874 530.661L763.32 509.891L763.844 516.657L801.346 538.214Z" fill="#D1E6FA"/>
<path d="M823.296 483.161V476.558L801.346 530.719L801.881 538.214L823.296 483.161Z" fill="#0B4274"/>
<path d="M899.674 515.337V507.319L823.649 475.345L823.946 482.868L899.674 515.337Z" fill="#0B4274"/>
<path fill-rule="evenodd" clip-rule="evenodd" d="M821.145 374.485L855.963 387.051L829.615 449.439L900.393 476.012L889.019 507.227L812.449 475.654L790.288 531.182L750.949 509.558L776.009 459.191L699.941 425.88L712.267 402.567L789.828 429.415L821.145 374.485ZM822.04 376.913L790.733 431.824L713.224 404.994L702.687 424.921L778.707 458.211L753.568 508.739L789.279 528.368L811.353 473.06L887.865 504.609L897.862 477.176L826.99 450.568L853.326 388.204L822.04 376.913Z" fill="#222222"/>
<path d="M910.559 486.998L910.827 477.451L900.435 507.509V515.429L910.559 486.998Z" fill="#0B4274"/>
<path d="M1196.94 291.82L1101.12 217.775L1009.65 285.881L1110.62 371.805L1196.94 291.82Z" fill="#E86217"/>
<path d="M1109.51 388.827L1109.51 373.48L1009.04 287.108L1009.75 299.243L1109.51 388.827Z" fill="#FAE0D0"/>
<path fill-rule="evenodd" clip-rule="evenodd" d="M1083.63 216.533L1180.97 291.752L1093.15 373.129L990.56 285.829L1083.63 216.533ZM993.736 285.933L1093.09 370.481L1177.91 291.889L1083.6 219.018L993.736 285.933Z" fill="#222222"/>
<path d="M1110.58 388.827L1110.58 373.48L1197.31 293.176L1196.95 303.705L1110.58 388.827Z" fill="#74310B"/>
<path d="M1335.77 106.341C1327.04 137.956 1280.68 152.74 1232.22 139.361C1183.76 125.982 1151.56 89.5068 1160.29 57.8914C1169.01 26.276 1215.37 11.4926 1263.83 24.8716C1312.29 38.2506 1344.5 74.7258 1335.77 106.341Z" fill="#222222"/>
<path d="M1232.22 141.364C1280.68 154.743 1327.04 139.96 1335.77 108.344C1336.26 106.574 1336.62 104.788 1336.86 102.992C1337.54 108.353 1337.21 113.709 1335.77 118.931C1327.04 150.546 1280.68 165.33 1232.22 151.951C1186.48 139.321 1155.22 106.11 1159.2 75.834C1162.64 102.93 1191.77 130.195 1232.22 141.364Z" fill="#777777"/>
<path fill-rule="evenodd" clip-rule="evenodd" d="M1283.92 137.838C1302.26 131.988 1315.36 120.766 1319.49 105.814C1323.62 90.8626 1318.13 74.5099 1305.39 60.0782C1292.66 45.6625 1272.84 33.3823 1248.93 26.78C1225.02 20.1778 1201.71 20.5521 1183.38 26.3948C1165.04 32.2441 1151.94 43.4667 1147.82 58.4183C1143.69 73.3699 1149.17 89.7226 1161.92 104.154C1174.65 118.57 1194.46 130.85 1218.37 137.453C1242.29 144.055 1265.6 143.68 1283.92 137.838ZM1217.85 139.361C1266.31 152.74 1312.67 137.956 1321.4 106.341C1330.12 74.7258 1297.92 38.2506 1249.46 24.8716C1201 11.4926 1154.64 26.276 1145.91 57.8914C1137.18 89.5068 1169.39 125.982 1217.85 139.361Z" fill="#222222"/>
<path d="M969.546 166.771V151.976L818.883 223.901L819.339 242.11L969.546 166.771Z" fill="#0B7448"/>
<path d="M818.883 222.5L851.711 59.373L968.879 150.28L818.883 222.5Z" fill="#17E890"/>
<path fill-rule="evenodd" clip-rule="evenodd" d="M845.012 66.1975L964.707 159.064L811.477 232.841L845.012 66.1975ZM846.323 69.7202L814.203 229.331L960.966 158.667L846.323 69.7202Z" fill="#222222"/>
</svg>
