<svg width="48" height="55" viewBox="0 0 48 55" fill="none" xmlns="http://www.w3.org/2000/svg">
<path d="M25.8495 11.2306V40.5032H17.3901V11.2306H7.35745V4.75708H36.2948L35.4179 11.2306H25.8495Z" fill="#1784E8"/>
<path d="M27.8418 40.5137H29.8353L37.5725 54.1829H47.141L37.7789 39.0952C39.12 38.5622 40.3322 37.8573 41.4154 36.9804C42.4986 36.1035 43.3583 35.0289 43.9945 33.7565C44.6306 32.4842 44.9487 30.9969 44.9487 29.2947C44.9487 25.598 43.7108 22.8642 41.2348 21.0932C38.7589 19.3223 35.088 18.4368 30.2222 18.4368H27.8418V24.3687H30.2479C32.2252 24.3687 33.7125 24.7641 34.7098 25.555C35.7242 26.3288 36.2314 27.5753 36.2314 29.2947C36.2314 31.1861 35.75 32.5616 34.7871 33.4213C33.8243 34.281 32.423 34.7108 30.5832 34.7108H27.8418V40.5137Z" fill="#1784E8"/>
<path fill-rule="evenodd" clip-rule="evenodd" d="M28.2195 8.52086H19.208V36.0898H11.2409V8.52086H1.79219V2.42412H29.0454L28.2195 8.52086ZM9.72281 10.039H0.274078V0.906006H30.783L29.5458 10.039H20.7261V37.6079H9.72281V10.039Z" fill="#222222"/>
<path fill-rule="evenodd" clip-rule="evenodd" d="M33.2622 48.9734L25.9753 36.0998H24.0978V30.6346H26.6797C28.4124 30.6346 29.7321 30.2298 30.6389 29.4201C31.5458 28.6104 31.9992 27.315 31.9992 25.5337C31.9992 23.9144 31.5215 22.7404 30.5661 22.0117C29.6269 21.2668 28.2261 20.8944 26.3639 20.8944H24.0978V15.3077H26.3396C30.9223 15.3077 34.3796 16.1417 36.7114 17.8096C39.0432 19.4775 40.2091 22.0522 40.2091 25.5337C40.2091 27.1369 39.9095 28.5376 39.3104 29.7359C38.7112 30.9342 37.9016 31.9462 36.8814 32.7721C36.2491 33.284 35.5701 33.7337 34.8444 34.1212C34.3993 34.3588 33.9367 34.573 33.4566 34.7639L42.2738 48.9734H33.2622ZM35.6463 35.4135C36.4226 34.9924 37.1532 34.5053 37.8366 33.952C39.0288 32.987 39.9742 31.8028 40.6682 30.4148C41.3916 28.9682 41.7272 27.3266 41.7272 25.5337C41.7272 21.6809 40.4125 18.5904 37.5946 16.5748C34.8924 14.642 31.0644 13.7896 26.3396 13.7896H22.5797V22.4125H26.3639C28.0625 22.4125 29.0647 22.7586 29.6227 23.2011L29.634 23.2101L29.6454 23.2188C30.1027 23.5676 30.4811 24.2106 30.4811 25.5337C30.4811 27.0868 30.0859 27.8787 29.6278 28.2877C29.0976 28.7611 28.1967 29.1165 26.6797 29.1165H22.5797V37.6179H25.0902L32.3771 50.4915H45.0024L35.6463 35.4135Z" fill="#222222"/>
</svg>
