<svg width="218" height="56" viewBox="0 0 218 56" fill="none" xmlns="http://www.w3.org/2000/svg">
<path d="M36.0575 23.5922C36.0575 25.7042 35.6628 27.5496 34.8735 29.1282C34.0842 30.7069 33.0175 32.0402 31.6735 33.1282C30.3295 34.2162 28.8255 35.0909 27.1615 35.7522L38.7775 54.4722H26.9055L17.3055 37.5122H14.3295V54.4722H3.8335V10.1202H17.7855C23.8228 10.1202 28.3775 11.2189 31.4495 13.4162C34.5215 15.6136 36.0575 19.0056 36.0575 23.5922ZM25.2415 23.5922C25.2415 21.4589 24.6122 19.9122 23.3535 18.9522C22.1162 17.9709 20.2708 17.4802 17.8175 17.4802H14.3295V30.3122H18.2335C20.5162 30.3122 22.2548 29.7789 23.4495 28.7122C24.6442 27.6456 25.2415 25.9389 25.2415 23.5922Z" fill="#1784E8"/>
<path d="M53.0885 20.4882V43.7522C53.0885 45.3949 53.3872 46.5256 53.9845 47.1442C54.6032 47.7629 55.4565 48.0722 56.5445 48.0722C57.5898 48.0722 58.6352 47.7416 59.6805 47.0802C60.7258 46.4189 61.6005 45.5229 62.3045 44.3922V20.4882H72.4165V54.4722H63.5845L63.1365 50.5042C61.9845 52.1682 60.4698 53.4269 58.5925 54.2802C56.7152 55.1336 54.7525 55.5602 52.7045 55.5602C49.4192 55.5602 46.9765 54.6109 45.3765 52.7122C43.7765 50.7922 42.9765 48.2216 42.9765 45.0002V20.4882H53.0885Z" fill="#1784E8"/>
<path d="M91.4635 23.9762C92.5302 22.5682 93.8102 21.4482 95.3035 20.6162C96.8182 19.7842 98.4395 19.3682 100.167 19.3682C103.09 19.3682 105.469 20.1042 107.303 21.5762C109.16 23.0482 110.525 25.1282 111.399 27.8162C112.274 30.5042 112.711 33.6936 112.711 37.3842C112.711 40.8829 112.189 44.0082 111.144 46.7602C110.119 49.4909 108.594 51.6456 106.567 53.2242C104.541 54.7816 102.055 55.5602 99.1115 55.5602C95.5488 55.5602 92.7435 54.1736 90.6955 51.4002L90.3115 54.4722H81.3515V6.98422L91.4635 5.92822V23.9762ZM96.4555 48.2002C98.2475 48.2002 99.6662 47.3789 100.711 45.7362C101.757 44.0722 102.279 41.3309 102.279 37.5122C102.279 34.6962 102.055 32.5202 101.607 30.9842C101.181 29.4269 100.562 28.3496 99.7515 27.7522C98.9622 27.1336 98.0342 26.8242 96.9675 26.8242C95.8368 26.8242 94.8235 27.1762 93.9275 27.8802C93.0315 28.5842 92.2102 29.5442 91.4635 30.7602V45.0962C92.1035 46.0989 92.8182 46.8669 93.6075 47.4002C94.3968 47.9336 95.3462 48.2002 96.4555 48.2002Z" fill="#1784E8"/>
<path d="M128.494 40.4242C128.729 42.2802 129.209 43.7842 129.934 44.9362C130.681 46.0669 131.631 46.8989 132.783 47.4322C133.935 47.9442 135.225 48.2002 136.654 48.2002C138.212 48.2002 139.716 47.9442 141.167 47.4322C142.617 46.9202 144.014 46.2376 145.358 45.3842L149.423 50.8882C147.822 52.2536 145.881 53.3736 143.598 54.2482C141.337 55.1229 138.756 55.5602 135.854 55.5602C131.972 55.5602 128.718 54.7922 126.094 53.2562C123.47 51.6989 121.497 49.5656 120.174 46.8562C118.852 44.1469 118.19 41.0322 118.19 37.5122C118.19 34.1629 118.83 31.1229 120.11 28.3922C121.39 25.6402 123.257 23.4536 125.71 21.8322C128.185 20.1896 131.204 19.3682 134.766 19.3682C138.009 19.3682 140.814 20.0616 143.182 21.4482C145.572 22.8349 147.417 24.8296 148.718 27.4322C150.041 30.0349 150.702 33.1602 150.702 36.8082C150.702 37.3842 150.681 38.0029 150.639 38.6642C150.617 39.3256 150.574 39.9122 150.51 40.4242H128.494ZM134.766 26.1522C132.953 26.1522 131.492 26.8029 130.382 28.1042C129.273 29.4056 128.601 31.4856 128.366 34.3442H140.846C140.825 31.8696 140.345 29.8856 139.406 28.3922C138.468 26.8989 136.921 26.1522 134.766 26.1522Z" fill="#1784E8"/>
<path d="M158.102 54.4722V20.4882H166.934L167.637 24.4242C169.152 22.7176 170.752 21.4482 172.438 20.6162C174.123 19.7842 176.043 19.3682 178.197 19.3682C181.099 19.3682 183.382 20.2536 185.046 22.0242C186.71 23.7949 187.542 26.2909 187.542 29.5122V54.4722H177.429V32.4242C177.429 31.0376 177.333 29.9389 177.141 29.1282C176.949 28.2962 176.608 27.7096 176.117 27.3682C175.648 27.0056 174.997 26.8242 174.165 26.8242C173.462 26.8242 172.768 26.9842 172.085 27.3042C171.424 27.6029 170.773 28.0402 170.133 28.6162C169.493 29.1922 168.854 29.8856 168.214 30.6962V54.4722H158.102Z" fill="#1784E8"/>
<path d="M216.572 10.1202L215.292 38.1522H207.132L205.82 10.1202H216.572ZM211.197 43.9762C212.818 43.9762 214.183 44.5522 215.292 45.7042C216.423 46.8349 216.988 48.1896 216.988 49.7682C216.988 51.3469 216.423 52.7122 215.292 53.8642C214.183 54.9949 212.818 55.5602 211.197 55.5602C209.618 55.5602 208.252 54.9949 207.1 53.8642C205.97 52.7122 205.404 51.3469 205.404 49.7682C205.404 48.1896 205.97 46.8349 207.1 45.7042C208.252 44.5522 209.618 43.9762 211.197 43.9762Z" fill="#1784E8"/>
<mask id="path-2-outside-1_42_55" maskUnits="userSpaceOnUse" x="0.743652" y="0.154785" width="218" height="55" fill="black">
<rect fill="white" x="0.743652" y="0.154785" width="218" height="55"/>
<path d="M34.9677 20.8188C34.9677 22.9308 34.573 24.7761 33.7837 26.3548C32.9943 27.9335 31.9277 29.2668 30.5837 30.3548C29.2397 31.4428 27.7357 32.3175 26.0717 32.9788L37.6877 51.6988H25.8157L16.2157 34.7388H13.2397V51.6988H2.74365V7.34679H16.6957C22.733 7.34679 27.2877 8.44545 30.3597 10.6428C33.4317 12.8401 34.9677 16.2321 34.9677 20.8188ZM24.1517 20.8188C24.1517 18.6855 23.5223 17.1388 22.2637 16.1788C21.0263 15.1975 19.181 14.7068 16.7277 14.7068H13.2397V27.5388H17.1437C19.4263 27.5388 21.165 27.0055 22.3597 25.9388C23.5543 24.8721 24.1517 23.1655 24.1517 20.8188ZM51.9987 17.7148V40.9788C51.9987 42.6215 52.2973 43.7521 52.8947 44.3708C53.5133 44.9895 54.3666 45.2988 55.4547 45.2988C56.5 45.2988 57.5453 44.9681 58.5907 44.3068C59.636 43.6455 60.5107 42.7495 61.2147 41.6188V17.7148H71.3267V51.6988H62.4947L62.0467 47.7308C60.8947 49.3948 59.38 50.6535 57.5027 51.5068C55.6253 52.3601 53.6627 52.7868 51.6147 52.7868C48.3293 52.7868 45.8867 51.8375 44.2867 49.9388C42.6867 48.0188 41.8867 45.4481 41.8867 42.2268V17.7148H51.9987ZM90.3736 21.2028C91.4403 19.7948 92.7203 18.6748 94.2137 17.8428C95.7283 17.0108 97.3497 16.5948 99.0777 16.5948C102 16.5948 104.379 17.3308 106.214 18.8028C108.07 20.2748 109.435 22.3548 110.31 25.0428C111.184 27.7308 111.622 30.9201 111.622 34.6108C111.622 38.1095 111.099 41.2348 110.054 43.9868C109.03 46.7175 107.504 48.8721 105.478 50.4508C103.451 52.0081 100.966 52.7868 98.0217 52.7868C94.459 52.7868 91.6536 51.4001 89.6057 48.6268L89.2216 51.6988H80.2617V4.21078L90.3736 3.15479V21.2028ZM95.3657 45.4268C97.1577 45.4268 98.5763 44.6055 99.6217 42.9628C100.667 41.2988 101.19 38.5575 101.19 34.7388C101.19 31.9228 100.966 29.7468 100.518 28.2108C100.091 26.6535 99.4723 25.5761 98.6617 24.9788C97.8723 24.3601 96.9443 24.0508 95.8777 24.0508C94.747 24.0508 93.7337 24.4028 92.8377 25.1068C91.9417 25.8108 91.1203 26.7708 90.3736 27.9868V42.3228C91.0136 43.3255 91.7283 44.0935 92.5177 44.6268C93.307 45.1601 94.2563 45.4268 95.3657 45.4268ZM127.405 37.6508C127.639 39.5068 128.119 41.0108 128.845 42.1628C129.591 43.2935 130.541 44.1255 131.693 44.6588C132.845 45.1708 134.135 45.4268 135.565 45.4268C137.122 45.4268 138.626 45.1708 140.077 44.6588C141.527 44.1468 142.925 43.4641 144.269 42.6108L148.333 48.1148C146.733 49.4801 144.791 50.6001 142.509 51.4748C140.247 52.3495 137.666 52.7868 134.765 52.7868C130.882 52.7868 127.629 52.0188 125.005 50.4828C122.381 48.9255 120.407 46.7921 119.085 44.0828C117.762 41.3735 117.101 38.2588 117.101 34.7388C117.101 31.3895 117.741 28.3495 119.021 25.6188C120.301 22.8668 122.167 20.6801 124.621 19.0588C127.095 17.4161 130.114 16.5948 133.677 16.5948C136.919 16.5948 139.725 17.2881 142.093 18.6748C144.482 20.0615 146.327 22.0561 147.629 24.6588C148.951 27.2615 149.613 30.3868 149.613 34.0348C149.613 34.6108 149.591 35.2295 149.549 35.8908C149.527 36.5521 149.485 37.1388 149.421 37.6508H127.405ZM133.677 23.3788C131.863 23.3788 130.402 24.0295 129.293 25.3308C128.183 26.6321 127.511 28.7121 127.277 31.5708H139.757C139.735 29.0961 139.255 27.1121 138.317 25.6188C137.378 24.1255 135.831 23.3788 133.677 23.3788ZM157.012 51.6988V17.7148H165.844L166.548 21.6508C168.062 19.9441 169.662 18.6748 171.348 17.8428C173.033 17.0108 174.953 16.5948 177.108 16.5948C180.009 16.5948 182.292 17.4801 183.956 19.2508C185.62 21.0215 186.452 23.5175 186.452 26.7388V51.6988H176.34V29.6508C176.34 28.2641 176.244 27.1655 176.052 26.3548C175.86 25.5228 175.518 24.9361 175.028 24.5948C174.558 24.2321 173.908 24.0508 173.076 24.0508C172.372 24.0508 171.678 24.2108 170.996 24.5308C170.334 24.8295 169.684 25.2668 169.044 25.8428C168.404 26.4188 167.764 27.1121 167.124 27.9228V51.6988H157.012ZM215.483 7.34679L214.203 35.3788H206.043L204.731 7.34679H215.483ZM210.107 41.2028C211.728 41.2028 213.093 41.7788 214.203 42.9308C215.333 44.0615 215.899 45.4161 215.899 46.9948C215.899 48.5735 215.333 49.9388 214.203 51.0908C213.093 52.2215 211.728 52.7868 210.107 52.7868C208.528 52.7868 207.163 52.2215 206.011 51.0908C204.88 49.9388 204.315 48.5735 204.315 46.9948C204.315 45.4161 204.88 44.0615 206.011 42.9308C207.163 41.7788 208.528 41.2028 210.107 41.2028Z"/>
</mask>
<path d="M34.9677 20.8188C34.9677 22.9308 34.573 24.7761 33.7837 26.3548C32.9943 27.9335 31.9277 29.2668 30.5837 30.3548C29.2397 31.4428 27.7357 32.3175 26.0717 32.9788L37.6877 51.6988H25.8157L16.2157 34.7388H13.2397V51.6988H2.74365V7.34679H16.6957C22.733 7.34679 27.2877 8.44545 30.3597 10.6428C33.4317 12.8401 34.9677 16.2321 34.9677 20.8188ZM24.1517 20.8188C24.1517 18.6855 23.5223 17.1388 22.2637 16.1788C21.0263 15.1975 19.181 14.7068 16.7277 14.7068H13.2397V27.5388H17.1437C19.4263 27.5388 21.165 27.0055 22.3597 25.9388C23.5543 24.8721 24.1517 23.1655 24.1517 20.8188ZM51.9987 17.7148V40.9788C51.9987 42.6215 52.2973 43.7521 52.8947 44.3708C53.5133 44.9895 54.3666 45.2988 55.4547 45.2988C56.5 45.2988 57.5453 44.9681 58.5907 44.3068C59.636 43.6455 60.5107 42.7495 61.2147 41.6188V17.7148H71.3267V51.6988H62.4947L62.0467 47.7308C60.8947 49.3948 59.38 50.6535 57.5027 51.5068C55.6253 52.3601 53.6627 52.7868 51.6147 52.7868C48.3293 52.7868 45.8867 51.8375 44.2867 49.9388C42.6867 48.0188 41.8867 45.4481 41.8867 42.2268V17.7148H51.9987ZM90.3736 21.2028C91.4403 19.7948 92.7203 18.6748 94.2137 17.8428C95.7283 17.0108 97.3497 16.5948 99.0777 16.5948C102 16.5948 104.379 17.3308 106.214 18.8028C108.07 20.2748 109.435 22.3548 110.31 25.0428C111.184 27.7308 111.622 30.9201 111.622 34.6108C111.622 38.1095 111.099 41.2348 110.054 43.9868C109.03 46.7175 107.504 48.8721 105.478 50.4508C103.451 52.0081 100.966 52.7868 98.0217 52.7868C94.459 52.7868 91.6536 51.4001 89.6057 48.6268L89.2216 51.6988H80.2617V4.21078L90.3736 3.15479V21.2028ZM95.3657 45.4268C97.1577 45.4268 98.5763 44.6055 99.6217 42.9628C100.667 41.2988 101.19 38.5575 101.19 34.7388C101.19 31.9228 100.966 29.7468 100.518 28.2108C100.091 26.6535 99.4723 25.5761 98.6617 24.9788C97.8723 24.3601 96.9443 24.0508 95.8777 24.0508C94.747 24.0508 93.7337 24.4028 92.8377 25.1068C91.9417 25.8108 91.1203 26.7708 90.3736 27.9868V42.3228C91.0136 43.3255 91.7283 44.0935 92.5177 44.6268C93.307 45.1601 94.2563 45.4268 95.3657 45.4268ZM127.405 37.6508C127.639 39.5068 128.119 41.0108 128.845 42.1628C129.591 43.2935 130.541 44.1255 131.693 44.6588C132.845 45.1708 134.135 45.4268 135.565 45.4268C137.122 45.4268 138.626 45.1708 140.077 44.6588C141.527 44.1468 142.925 43.4641 144.269 42.6108L148.333 48.1148C146.733 49.4801 144.791 50.6001 142.509 51.4748C140.247 52.3495 137.666 52.7868 134.765 52.7868C130.882 52.7868 127.629 52.0188 125.005 50.4828C122.381 48.9255 120.407 46.7921 119.085 44.0828C117.762 41.3735 117.101 38.2588 117.101 34.7388C117.101 31.3895 117.741 28.3495 119.021 25.6188C120.301 22.8668 122.167 20.6801 124.621 19.0588C127.095 17.4161 130.114 16.5948 133.677 16.5948C136.919 16.5948 139.725 17.2881 142.093 18.6748C144.482 20.0615 146.327 22.0561 147.629 24.6588C148.951 27.2615 149.613 30.3868 149.613 34.0348C149.613 34.6108 149.591 35.2295 149.549 35.8908C149.527 36.5521 149.485 37.1388 149.421 37.6508H127.405ZM133.677 23.3788C131.863 23.3788 130.402 24.0295 129.293 25.3308C128.183 26.6321 127.511 28.7121 127.277 31.5708H139.757C139.735 29.0961 139.255 27.1121 138.317 25.6188C137.378 24.1255 135.831 23.3788 133.677 23.3788ZM157.012 51.6988V17.7148H165.844L166.548 21.6508C168.062 19.9441 169.662 18.6748 171.348 17.8428C173.033 17.0108 174.953 16.5948 177.108 16.5948C180.009 16.5948 182.292 17.4801 183.956 19.2508C185.62 21.0215 186.452 23.5175 186.452 26.7388V51.6988H176.34V29.6508C176.34 28.2641 176.244 27.1655 176.052 26.3548C175.86 25.5228 175.518 24.9361 175.028 24.5948C174.558 24.2321 173.908 24.0508 173.076 24.0508C172.372 24.0508 171.678 24.2108 170.996 24.5308C170.334 24.8295 169.684 25.2668 169.044 25.8428C168.404 26.4188 167.764 27.1121 167.124 27.9228V51.6988H157.012ZM215.483 7.34679L214.203 35.3788H206.043L204.731 7.34679H215.483ZM210.107 41.2028C211.728 41.2028 213.093 41.7788 214.203 42.9308C215.333 44.0615 215.899 45.4161 215.899 46.9948C215.899 48.5735 215.333 49.9388 214.203 51.0908C213.093 52.2215 211.728 52.7868 210.107 52.7868C208.528 52.7868 207.163 52.2215 206.011 51.0908C204.88 49.9388 204.315 48.5735 204.315 46.9948C204.315 45.4161 204.88 44.0615 206.011 42.9308C207.163 41.7788 208.528 41.2028 210.107 41.2028Z" stroke="#222222" stroke-width="4" mask="url(#path-2-outside-1_42_55)"/>
</svg>
