<svg width="212" height="165" viewBox="0 0 212 165" fill="none" xmlns="http://www.w3.org/2000/svg">
<path d="M168.042 28.733V15.2702L142.304 74.6648V86.9396L168.042 28.733Z" fill="#0B4274"/>
<path d="M91.1256 86.7417L13.3169 52.6666L15.8925 59.6182L92.9074 94.067L91.1256 86.7417Z" fill="#D1E6FA"/>
<path d="M102.374 57.063L133.686 2.14233L166.738 14.0708L140.396 76.4468L211.221 103.037L200.535 132.362L123.994 100.801L101.877 156.219L64.3518 135.592L89.4513 85.1447L13.4072 51.8443L24.8387 30.224L102.374 57.063Z" fill="#1784E8"/>
<path d="M102.183 164.657L101.711 157.105L64.1567 136.335L64.6812 143.101L102.183 164.657Z" fill="#D1E6FA"/>
<path d="M124.132 109.605V103.002L102.183 157.163L102.718 164.658L124.132 109.605Z" fill="#0B4274"/>
<path d="M200.511 141.781V133.762L124.486 101.788L124.783 109.312L200.511 141.781Z" fill="#0B4274"/>
<path fill-rule="evenodd" clip-rule="evenodd" d="M121.982 0.928467L156.799 13.4941L130.452 75.8824L201.23 102.455L189.855 133.67L113.286 102.098L91.1244 157.625L51.7855 136.002L76.8452 85.6345L0.777344 52.3237L13.1037 29.0109L90.6642 55.8587L121.982 0.928467ZM122.877 3.35622L91.57 58.2674L14.0603 31.4371L3.52374 51.365L79.5439 84.6549L54.4046 135.182L90.1157 154.812L112.189 99.504L188.702 131.053L198.699 103.62L127.826 77.0113L154.163 14.6475L122.877 3.35622Z" fill="#222222"/>
<path d="M211.396 113.441L211.664 103.894L201.272 133.953V141.872L211.396 113.441Z" fill="#0B4274"/>
</svg>
